%TF.GenerationSoftware,KiCad,Pcbnew,(6.0.2)*%
%TF.CreationDate,2022-03-01T12:56:46-05:00*%
%TF.ProjectId,shutter_tester,73687574-7465-4725-9f74-65737465722e,A*%
%TF.SameCoordinates,PX717cbc0PY57bcf00*%
%TF.FileFunction,Legend,Bot*%
%TF.FilePolarity,Positive*%
%FSLAX46Y46*%
G04 Gerber Fmt 4.6, Leading zero omitted, Abs format (unit mm)*
G04 Created by KiCad (PCBNEW (6.0.2)) date 2022-03-01 12:56:46*
%MOMM*%
%LPD*%
G01*
G04 APERTURE LIST*
%ADD10C,0.120000*%
%ADD11C,0.150000*%
%ADD12C,0.214286*%
%ADD13C,0.010000*%
G04 APERTURE END LIST*
D10*
X32500000Y-23200000D02*
X32500000Y-25200000D01*
X45000000Y-34000000D02*
X10000000Y-34000000D01*
X22450000Y-24200000D02*
X24950000Y-24200000D01*
X22450000Y-23200000D02*
X22450000Y-25200000D01*
X10000000Y-10000000D02*
X45000000Y-10000000D01*
X10000000Y-34000000D02*
X10000000Y-10000000D01*
X45000000Y-10000000D02*
X45000000Y-34000000D01*
X32500000Y-24200000D02*
X30000000Y-24200000D01*
D11*
X29023809Y-24652380D02*
X29595238Y-24652380D01*
X29309523Y-24652380D02*
X29309523Y-23652380D01*
X29404761Y-23795238D01*
X29500000Y-23890476D01*
X29595238Y-23938095D01*
X28404761Y-23652380D02*
X28309523Y-23652380D01*
X28214285Y-23700000D01*
X28166666Y-23747619D01*
X28119047Y-23842857D01*
X28071428Y-24033333D01*
X28071428Y-24271428D01*
X28119047Y-24461904D01*
X28166666Y-24557142D01*
X28214285Y-24604761D01*
X28309523Y-24652380D01*
X28404761Y-24652380D01*
X28500000Y-24604761D01*
X28547619Y-24557142D01*
X28595238Y-24461904D01*
X28642857Y-24271428D01*
X28642857Y-24033333D01*
X28595238Y-23842857D01*
X28547619Y-23747619D01*
X28500000Y-23700000D01*
X28404761Y-23652380D01*
X27642857Y-24652380D02*
X27642857Y-23985714D01*
X27642857Y-24080952D02*
X27595238Y-24033333D01*
X27500000Y-23985714D01*
X27357142Y-23985714D01*
X27261904Y-24033333D01*
X27214285Y-24128571D01*
X27214285Y-24652380D01*
X27214285Y-24128571D02*
X27166666Y-24033333D01*
X27071428Y-23985714D01*
X26928571Y-23985714D01*
X26833333Y-24033333D01*
X26785714Y-24128571D01*
X26785714Y-24652380D01*
X26309523Y-24652380D02*
X26309523Y-23985714D01*
X26309523Y-24080952D02*
X26261904Y-24033333D01*
X26166666Y-23985714D01*
X26023809Y-23985714D01*
X25928571Y-24033333D01*
X25880952Y-24128571D01*
X25880952Y-24652380D01*
X25880952Y-24128571D02*
X25833333Y-24033333D01*
X25738095Y-23985714D01*
X25595238Y-23985714D01*
X25500000Y-24033333D01*
X25452380Y-24128571D01*
X25452380Y-24652380D01*
D12*
X32907142Y-20350000D02*
X32192857Y-20350000D01*
X33050000Y-20778571D02*
X32550000Y-19278571D01*
X32050000Y-20778571D01*
X39821428Y-41207142D02*
X39607142Y-41278571D01*
X39250000Y-41278571D01*
X39107142Y-41207142D01*
X39035714Y-41135714D01*
X38964285Y-40992857D01*
X38964285Y-40850000D01*
X39035714Y-40707142D01*
X39107142Y-40635714D01*
X39250000Y-40564285D01*
X39535714Y-40492857D01*
X39678571Y-40421428D01*
X39750000Y-40350000D01*
X39821428Y-40207142D01*
X39821428Y-40064285D01*
X39750000Y-39921428D01*
X39678571Y-39850000D01*
X39535714Y-39778571D01*
X39178571Y-39778571D01*
X38964285Y-39850000D01*
X38321428Y-41278571D02*
X38321428Y-39778571D01*
X37678571Y-41278571D02*
X37678571Y-40492857D01*
X37750000Y-40350000D01*
X37892857Y-40278571D01*
X38107142Y-40278571D01*
X38250000Y-40350000D01*
X38321428Y-40421428D01*
X36321428Y-40278571D02*
X36321428Y-41278571D01*
X36964285Y-40278571D02*
X36964285Y-41064285D01*
X36892857Y-41207142D01*
X36750000Y-41278571D01*
X36535714Y-41278571D01*
X36392857Y-41207142D01*
X36321428Y-41135714D01*
X35821428Y-40278571D02*
X35250000Y-40278571D01*
X35607142Y-39778571D02*
X35607142Y-41064285D01*
X35535714Y-41207142D01*
X35392857Y-41278571D01*
X35250000Y-41278571D01*
X34964285Y-40278571D02*
X34392857Y-40278571D01*
X34750000Y-39778571D02*
X34750000Y-41064285D01*
X34678571Y-41207142D01*
X34535714Y-41278571D01*
X34392857Y-41278571D01*
X33321428Y-41207142D02*
X33464285Y-41278571D01*
X33750000Y-41278571D01*
X33892857Y-41207142D01*
X33964285Y-41064285D01*
X33964285Y-40492857D01*
X33892857Y-40350000D01*
X33750000Y-40278571D01*
X33464285Y-40278571D01*
X33321428Y-40350000D01*
X33250000Y-40492857D01*
X33250000Y-40635714D01*
X33964285Y-40778571D01*
X32607142Y-41278571D02*
X32607142Y-40278571D01*
X32607142Y-40564285D02*
X32535714Y-40421428D01*
X32464285Y-40350000D01*
X32321428Y-40278571D01*
X32178571Y-40278571D01*
X30750000Y-39778571D02*
X29892857Y-39778571D01*
X30321428Y-41278571D02*
X30321428Y-39778571D01*
X29392857Y-41278571D02*
X29392857Y-40278571D01*
X29392857Y-39778571D02*
X29464285Y-39850000D01*
X29392857Y-39921428D01*
X29321428Y-39850000D01*
X29392857Y-39778571D01*
X29392857Y-39921428D01*
X28678571Y-41278571D02*
X28678571Y-40278571D01*
X28678571Y-40421428D02*
X28607142Y-40350000D01*
X28464285Y-40278571D01*
X28250000Y-40278571D01*
X28107142Y-40350000D01*
X28035714Y-40492857D01*
X28035714Y-41278571D01*
X28035714Y-40492857D02*
X27964285Y-40350000D01*
X27821428Y-40278571D01*
X27607142Y-40278571D01*
X27464285Y-40350000D01*
X27392857Y-40492857D01*
X27392857Y-41278571D01*
X26678571Y-41278571D02*
X26678571Y-40278571D01*
X26678571Y-39778571D02*
X26750000Y-39850000D01*
X26678571Y-39921428D01*
X26607142Y-39850000D01*
X26678571Y-39778571D01*
X26678571Y-39921428D01*
X25964285Y-40278571D02*
X25964285Y-41278571D01*
X25964285Y-40421428D02*
X25892857Y-40350000D01*
X25750000Y-40278571D01*
X25535714Y-40278571D01*
X25392857Y-40350000D01*
X25321428Y-40492857D01*
X25321428Y-41278571D01*
X23964285Y-40278571D02*
X23964285Y-41492857D01*
X24035714Y-41635714D01*
X24107142Y-41707142D01*
X24250000Y-41778571D01*
X24464285Y-41778571D01*
X24607142Y-41707142D01*
X23964285Y-41207142D02*
X24107142Y-41278571D01*
X24392857Y-41278571D01*
X24535714Y-41207142D01*
X24607142Y-41135714D01*
X24678571Y-40992857D01*
X24678571Y-40564285D01*
X24607142Y-40421428D01*
X24535714Y-40350000D01*
X24392857Y-40278571D01*
X24107142Y-40278571D01*
X23964285Y-40350000D01*
X22178571Y-41207142D02*
X21964285Y-41278571D01*
X21607142Y-41278571D01*
X21464285Y-41207142D01*
X21392857Y-41135714D01*
X21321428Y-40992857D01*
X21321428Y-40850000D01*
X21392857Y-40707142D01*
X21464285Y-40635714D01*
X21607142Y-40564285D01*
X21892857Y-40492857D01*
X22035714Y-40421428D01*
X22107142Y-40350000D01*
X22178571Y-40207142D01*
X22178571Y-40064285D01*
X22107142Y-39921428D01*
X22035714Y-39850000D01*
X21892857Y-39778571D01*
X21535714Y-39778571D01*
X21321428Y-39850000D01*
X20107142Y-41207142D02*
X20250000Y-41278571D01*
X20535714Y-41278571D01*
X20678571Y-41207142D01*
X20750000Y-41064285D01*
X20750000Y-40492857D01*
X20678571Y-40350000D01*
X20535714Y-40278571D01*
X20250000Y-40278571D01*
X20107142Y-40350000D01*
X20035714Y-40492857D01*
X20035714Y-40635714D01*
X20750000Y-40778571D01*
X19392857Y-40278571D02*
X19392857Y-41278571D01*
X19392857Y-40421428D02*
X19321428Y-40350000D01*
X19178571Y-40278571D01*
X18964285Y-40278571D01*
X18821428Y-40350000D01*
X18750000Y-40492857D01*
X18750000Y-41278571D01*
X18107142Y-41207142D02*
X17964285Y-41278571D01*
X17678571Y-41278571D01*
X17535714Y-41207142D01*
X17464285Y-41064285D01*
X17464285Y-40992857D01*
X17535714Y-40850000D01*
X17678571Y-40778571D01*
X17892857Y-40778571D01*
X18035714Y-40707142D01*
X18107142Y-40564285D01*
X18107142Y-40492857D01*
X18035714Y-40350000D01*
X17892857Y-40278571D01*
X17678571Y-40278571D01*
X17535714Y-40350000D01*
X16607142Y-41278571D02*
X16750000Y-41207142D01*
X16821428Y-41135714D01*
X16892857Y-40992857D01*
X16892857Y-40564285D01*
X16821428Y-40421428D01*
X16750000Y-40350000D01*
X16607142Y-40278571D01*
X16392857Y-40278571D01*
X16250000Y-40350000D01*
X16178571Y-40421428D01*
X16107142Y-40564285D01*
X16107142Y-40992857D01*
X16178571Y-41135714D01*
X16250000Y-41207142D01*
X16392857Y-41278571D01*
X16607142Y-41278571D01*
X15464285Y-41278571D02*
X15464285Y-40278571D01*
X15464285Y-40564285D02*
X15392857Y-40421428D01*
X15321428Y-40350000D01*
X15178571Y-40278571D01*
X15035714Y-40278571D01*
X22392857Y-19992857D02*
X22178571Y-20064285D01*
X22107142Y-20135714D01*
X22035714Y-20278571D01*
X22035714Y-20492857D01*
X22107142Y-20635714D01*
X22178571Y-20707142D01*
X22321428Y-20778571D01*
X22892857Y-20778571D01*
X22892857Y-19278571D01*
X22392857Y-19278571D01*
X22250000Y-19350000D01*
X22178571Y-19421428D01*
X22107142Y-19564285D01*
X22107142Y-19707142D01*
X22178571Y-19850000D01*
X22250000Y-19921428D01*
X22392857Y-19992857D01*
X22892857Y-19992857D01*
D10*
%TO.C,D1*%
X21500000Y-21040000D02*
X24360000Y-21040000D01*
X24360000Y-22960000D02*
X21500000Y-22960000D01*
X24360000Y-21040000D02*
X24360000Y-22960000D01*
%TO.C,D2*%
X34360000Y-22960000D02*
X31500000Y-22960000D01*
X34360000Y-21040000D02*
X34360000Y-22960000D01*
X31500000Y-21040000D02*
X34360000Y-21040000D01*
D13*
%TO.C,G\u002A\u002A\u002A*%
X26215170Y-34443537D02*
X26164430Y-34476217D01*
X26164430Y-34476217D02*
X26108603Y-34525686D01*
X26108603Y-34525686D02*
X26052245Y-34587866D01*
X26052245Y-34587866D02*
X25999913Y-34658681D01*
X25999913Y-34658681D02*
X25995973Y-34664695D01*
X25995973Y-34664695D02*
X25931319Y-34782547D01*
X25931319Y-34782547D02*
X25886921Y-34907839D01*
X25886921Y-34907839D02*
X25860943Y-35046836D01*
X25860943Y-35046836D02*
X25852827Y-35153276D01*
X25852827Y-35153276D02*
X25854266Y-35295675D01*
X25854266Y-35295675D02*
X25870945Y-35435299D01*
X25870945Y-35435299D02*
X25904170Y-35577258D01*
X25904170Y-35577258D02*
X25955247Y-35726663D01*
X25955247Y-35726663D02*
X26025479Y-35888625D01*
X26025479Y-35888625D02*
X26057445Y-35954492D01*
X26057445Y-35954492D02*
X26136674Y-36104232D01*
X26136674Y-36104232D02*
X26219350Y-36239970D01*
X26219350Y-36239970D02*
X26310562Y-36368841D01*
X26310562Y-36368841D02*
X26415398Y-36497983D01*
X26415398Y-36497983D02*
X26538947Y-36634532D01*
X26538947Y-36634532D02*
X26552528Y-36648870D01*
X26552528Y-36648870D02*
X26620957Y-36724105D01*
X26620957Y-36724105D02*
X26676019Y-36793486D01*
X26676019Y-36793486D02*
X26724316Y-36866507D01*
X26724316Y-36866507D02*
X26772448Y-36952660D01*
X26772448Y-36952660D02*
X26796805Y-37000221D01*
X26796805Y-37000221D02*
X26825858Y-37055208D01*
X26825858Y-37055208D02*
X26852790Y-37101136D01*
X26852790Y-37101136D02*
X26873533Y-37131280D01*
X26873533Y-37131280D02*
X26880389Y-37138388D01*
X26880389Y-37138388D02*
X26889751Y-37151046D01*
X26889751Y-37151046D02*
X26897225Y-37176315D01*
X26897225Y-37176315D02*
X26903385Y-37218157D01*
X26903385Y-37218157D02*
X26908806Y-37280539D01*
X26908806Y-37280539D02*
X26914060Y-37367425D01*
X26914060Y-37367425D02*
X26914370Y-37373277D01*
X26914370Y-37373277D02*
X26920404Y-37457071D01*
X26920404Y-37457071D02*
X26930351Y-37560507D01*
X26930351Y-37560507D02*
X26943236Y-37674943D01*
X26943236Y-37674943D02*
X26958080Y-37791740D01*
X26958080Y-37791740D02*
X26973907Y-37902258D01*
X26973907Y-37902258D02*
X26975032Y-37909573D01*
X26975032Y-37909573D02*
X26990579Y-38011172D01*
X26990579Y-38011172D02*
X27005704Y-38111892D01*
X27005704Y-38111892D02*
X27019457Y-38205270D01*
X27019457Y-38205270D02*
X27030888Y-38284842D01*
X27030888Y-38284842D02*
X27039048Y-38344143D01*
X27039048Y-38344143D02*
X27040468Y-38355055D01*
X27040468Y-38355055D02*
X27056383Y-38455616D01*
X27056383Y-38455616D02*
X27079269Y-38567709D01*
X27079269Y-38567709D02*
X27107267Y-38684438D01*
X27107267Y-38684438D02*
X27138519Y-38798909D01*
X27138519Y-38798909D02*
X27171164Y-38904224D01*
X27171164Y-38904224D02*
X27203345Y-38993489D01*
X27203345Y-38993489D02*
X27227441Y-39048582D01*
X27227441Y-39048582D02*
X27264351Y-39117296D01*
X27264351Y-39117296D02*
X27300219Y-39168465D01*
X27300219Y-39168465D02*
X27342510Y-39211957D01*
X27342510Y-39211957D02*
X27366546Y-39232402D01*
X27366546Y-39232402D02*
X27412547Y-39268331D01*
X27412547Y-39268331D02*
X27455179Y-39299016D01*
X27455179Y-39299016D02*
X27484922Y-39317646D01*
X27484922Y-39317646D02*
X27537994Y-39337481D01*
X27537994Y-39337481D02*
X27594208Y-39346814D01*
X27594208Y-39346814D02*
X27641283Y-39343940D01*
X27641283Y-39343940D02*
X27651088Y-39340743D01*
X27651088Y-39340743D02*
X27678139Y-39322115D01*
X27678139Y-39322115D02*
X27717511Y-39286071D01*
X27717511Y-39286071D02*
X27764190Y-39238073D01*
X27764190Y-39238073D02*
X27813165Y-39183582D01*
X27813165Y-39183582D02*
X27859421Y-39128056D01*
X27859421Y-39128056D02*
X27897947Y-39076958D01*
X27897947Y-39076958D02*
X27910822Y-39057811D01*
X27910822Y-39057811D02*
X27933569Y-39018779D01*
X27933569Y-39018779D02*
X27965053Y-38959963D01*
X27965053Y-38959963D02*
X28002032Y-38887659D01*
X28002032Y-38887659D02*
X28041264Y-38808166D01*
X28041264Y-38808166D02*
X28066669Y-38755131D01*
X28066669Y-38755131D02*
X28141995Y-38583476D01*
X28141995Y-38583476D02*
X28198992Y-38423788D01*
X28198992Y-38423788D02*
X28239945Y-38268063D01*
X28239945Y-38268063D02*
X28267139Y-38108297D01*
X28267139Y-38108297D02*
X28276749Y-38019322D01*
X28276749Y-38019322D02*
X28281601Y-37942707D01*
X28281601Y-37942707D02*
X28284428Y-37849699D01*
X28284428Y-37849699D02*
X28285330Y-37746936D01*
X28285330Y-37746936D02*
X28284410Y-37641052D01*
X28284410Y-37641052D02*
X28281770Y-37538685D01*
X28281770Y-37538685D02*
X28278653Y-37471210D01*
X28278653Y-37471210D02*
X28013624Y-37471210D01*
X28013624Y-37471210D02*
X28013593Y-37591250D01*
X28013593Y-37591250D02*
X28011998Y-37696441D01*
X28011998Y-37696441D02*
X28009646Y-37804648D01*
X28009646Y-37804648D02*
X28007058Y-37889646D01*
X28007058Y-37889646D02*
X28003681Y-37956922D01*
X28003681Y-37956922D02*
X27998962Y-38011966D01*
X27998962Y-38011966D02*
X27992346Y-38060266D01*
X27992346Y-38060266D02*
X27983281Y-38107311D01*
X27983281Y-38107311D02*
X27971214Y-38158589D01*
X27971214Y-38158589D02*
X27961593Y-38196421D01*
X27961593Y-38196421D02*
X27935186Y-38283197D01*
X27935186Y-38283197D02*
X27897187Y-38387218D01*
X27897187Y-38387218D02*
X27850829Y-38501154D01*
X27850829Y-38501154D02*
X27799342Y-38617675D01*
X27799342Y-38617675D02*
X27745960Y-38729450D01*
X27745960Y-38729450D02*
X27693914Y-38829149D01*
X27693914Y-38829149D02*
X27648946Y-38905540D01*
X27648946Y-38905540D02*
X27613015Y-38957465D01*
X27613015Y-38957465D02*
X27573543Y-39007799D01*
X27573543Y-39007799D02*
X27534899Y-39051749D01*
X27534899Y-39051749D02*
X27501454Y-39084523D01*
X27501454Y-39084523D02*
X27477580Y-39101326D01*
X27477580Y-39101326D02*
X27469888Y-39101896D01*
X27469888Y-39101896D02*
X27460353Y-39085462D01*
X27460353Y-39085462D02*
X27445693Y-39048295D01*
X27445693Y-39048295D02*
X27428535Y-38997299D01*
X27428535Y-38997299D02*
X27422142Y-38976511D01*
X27422142Y-38976511D02*
X27384250Y-38841132D01*
X27384250Y-38841132D02*
X27351783Y-38704034D01*
X27351783Y-38704034D02*
X27322918Y-38556644D01*
X27322918Y-38556644D02*
X27295833Y-38390389D01*
X27295833Y-38390389D02*
X27291891Y-38363839D01*
X27291891Y-38363839D02*
X27276681Y-38260155D01*
X27276681Y-38260155D02*
X27259243Y-38141089D01*
X27259243Y-38141089D02*
X27241482Y-38019659D01*
X27241482Y-38019659D02*
X27225303Y-37908884D01*
X27225303Y-37908884D02*
X27221527Y-37882994D01*
X27221527Y-37882994D02*
X27202551Y-37737259D01*
X27202551Y-37737259D02*
X27187059Y-37582747D01*
X27187059Y-37582747D02*
X27174874Y-37416039D01*
X27174874Y-37416039D02*
X27165817Y-37233712D01*
X27165817Y-37233712D02*
X27159712Y-37032346D01*
X27159712Y-37032346D02*
X27156381Y-36808519D01*
X27156381Y-36808519D02*
X27155593Y-36612723D01*
X27155593Y-36612723D02*
X27155593Y-36132643D01*
X27155593Y-36132643D02*
X27208585Y-36211378D01*
X27208585Y-36211378D02*
X27237638Y-36249436D01*
X27237638Y-36249436D02*
X27283589Y-36303432D01*
X27283589Y-36303432D02*
X27342693Y-36369366D01*
X27342693Y-36369366D02*
X27411204Y-36443240D01*
X27411204Y-36443240D02*
X27485375Y-36521053D01*
X27485375Y-36521053D02*
X27561461Y-36598806D01*
X27561461Y-36598806D02*
X27635714Y-36672500D01*
X27635714Y-36672500D02*
X27684271Y-36719220D01*
X27684271Y-36719220D02*
X27725722Y-36761249D01*
X27725722Y-36761249D02*
X27777355Y-36817619D01*
X27777355Y-36817619D02*
X27831716Y-36880034D01*
X27831716Y-36880034D02*
X27868995Y-36924837D01*
X27868995Y-36924837D02*
X27977076Y-37057846D01*
X27977076Y-37057846D02*
X27997818Y-37212115D01*
X27997818Y-37212115D02*
X28005880Y-37286526D01*
X28005880Y-37286526D02*
X28011101Y-37371263D01*
X28011101Y-37371263D02*
X28013624Y-37471210D01*
X28013624Y-37471210D02*
X28278653Y-37471210D01*
X28278653Y-37471210D02*
X28277510Y-37446472D01*
X28277510Y-37446472D02*
X28271732Y-37371047D01*
X28271732Y-37371047D02*
X28266160Y-37327688D01*
X28266160Y-37327688D02*
X28257059Y-37274642D01*
X28257059Y-37274642D02*
X28405902Y-37337595D01*
X28405902Y-37337595D02*
X28483824Y-37368825D01*
X28483824Y-37368825D02*
X28569294Y-37400342D01*
X28569294Y-37400342D02*
X28648970Y-37427326D01*
X28648970Y-37427326D02*
X28683898Y-37438029D01*
X28683898Y-37438029D02*
X28747507Y-37454706D01*
X28747507Y-37454706D02*
X28821436Y-37471310D01*
X28821436Y-37471310D02*
X28899242Y-37486714D01*
X28899242Y-37486714D02*
X28974485Y-37499794D01*
X28974485Y-37499794D02*
X29040723Y-37509425D01*
X29040723Y-37509425D02*
X29091513Y-37514481D01*
X29091513Y-37514481D02*
X29119281Y-37514083D01*
X29119281Y-37514083D02*
X29120063Y-37505019D01*
X29120063Y-37505019D02*
X29101343Y-37484990D01*
X29101343Y-37484990D02*
X29068315Y-37457647D01*
X29068315Y-37457647D02*
X29026173Y-37426646D01*
X29026173Y-37426646D02*
X28980114Y-37395639D01*
X28980114Y-37395639D02*
X28935331Y-37368281D01*
X28935331Y-37368281D02*
X28897019Y-37348224D01*
X28897019Y-37348224D02*
X28870555Y-37339147D01*
X28870555Y-37339147D02*
X28714282Y-37315981D01*
X28714282Y-37315981D02*
X28577785Y-37290582D01*
X28577785Y-37290582D02*
X28462876Y-37263430D01*
X28462876Y-37263430D02*
X28371368Y-37235011D01*
X28371368Y-37235011D02*
X28305074Y-37205805D01*
X28305074Y-37205805D02*
X28267813Y-37178553D01*
X28267813Y-37178553D02*
X28253225Y-37157923D01*
X28253225Y-37157923D02*
X28240609Y-37127353D01*
X28240609Y-37127353D02*
X28228627Y-37081958D01*
X28228627Y-37081958D02*
X28215944Y-37016858D01*
X28215944Y-37016858D02*
X28204273Y-36946549D01*
X28204273Y-36946549D02*
X28178738Y-36806723D01*
X28178738Y-36806723D02*
X27931947Y-36806723D01*
X27931947Y-36806723D02*
X27729476Y-36601377D01*
X27729476Y-36601377D02*
X27627296Y-36494654D01*
X27627296Y-36494654D02*
X27543578Y-36399480D01*
X27543578Y-36399480D02*
X27473991Y-36309969D01*
X27473991Y-36309969D02*
X27414199Y-36220235D01*
X27414199Y-36220235D02*
X27359870Y-36124392D01*
X27359870Y-36124392D02*
X27320674Y-36046158D01*
X27320674Y-36046158D02*
X27287390Y-35968448D01*
X27287390Y-35968448D02*
X27251580Y-35870726D01*
X27251580Y-35870726D02*
X27215842Y-35761219D01*
X27215842Y-35761219D02*
X27182775Y-35648155D01*
X27182775Y-35648155D02*
X27154980Y-35539759D01*
X27154980Y-35539759D02*
X27141897Y-35480301D01*
X27141897Y-35480301D02*
X27126242Y-35419152D01*
X27126242Y-35419152D02*
X27107922Y-35382540D01*
X27107922Y-35382540D02*
X27084355Y-35366301D01*
X27084355Y-35366301D02*
X27070114Y-35364520D01*
X27070114Y-35364520D02*
X27046504Y-35356650D01*
X27046504Y-35356650D02*
X27008229Y-35336021D01*
X27008229Y-35336021D02*
X26963606Y-35307119D01*
X26963606Y-35307119D02*
X26920506Y-35278409D01*
X26920506Y-35278409D02*
X26885565Y-35257824D01*
X26885565Y-35257824D02*
X26866196Y-35249722D01*
X26866196Y-35249722D02*
X26865983Y-35249717D01*
X26865983Y-35249717D02*
X26861515Y-35263413D01*
X26861515Y-35263413D02*
X26858759Y-35301993D01*
X26858759Y-35301993D02*
X26857627Y-35361697D01*
X26857627Y-35361697D02*
X26858031Y-35438767D01*
X26858031Y-35438767D02*
X26859882Y-35529443D01*
X26859882Y-35529443D02*
X26863093Y-35629964D01*
X26863093Y-35629964D02*
X26867576Y-35736572D01*
X26867576Y-35736572D02*
X26873242Y-35845506D01*
X26873242Y-35845506D02*
X26880004Y-35953007D01*
X26880004Y-35953007D02*
X26883621Y-36003107D01*
X26883621Y-36003107D02*
X26887169Y-36062484D01*
X26887169Y-36062484D02*
X26890212Y-36137481D01*
X26890212Y-36137481D02*
X26892724Y-36223835D01*
X26892724Y-36223835D02*
X26894674Y-36317280D01*
X26894674Y-36317280D02*
X26896037Y-36413552D01*
X26896037Y-36413552D02*
X26896782Y-36508387D01*
X26896782Y-36508387D02*
X26896883Y-36597521D01*
X26896883Y-36597521D02*
X26896310Y-36676688D01*
X26896310Y-36676688D02*
X26895036Y-36741626D01*
X26895036Y-36741626D02*
X26893032Y-36788068D01*
X26893032Y-36788068D02*
X26890271Y-36811751D01*
X26890271Y-36811751D02*
X26888980Y-36813898D01*
X26888980Y-36813898D02*
X26875289Y-36804458D01*
X26875289Y-36804458D02*
X26848243Y-36779970D01*
X26848243Y-36779970D02*
X26820816Y-36752910D01*
X26820816Y-36752910D02*
X26731843Y-36657716D01*
X26731843Y-36657716D02*
X26641076Y-36552624D01*
X26641076Y-36552624D02*
X26557442Y-36448221D01*
X26557442Y-36448221D02*
X26509789Y-36383858D01*
X26509789Y-36383858D02*
X26450426Y-36292545D01*
X26450426Y-36292545D02*
X26387233Y-36182095D01*
X26387233Y-36182095D02*
X26324412Y-36060923D01*
X26324412Y-36060923D02*
X26266162Y-35937449D01*
X26266162Y-35937449D02*
X26216681Y-35820088D01*
X26216681Y-35820088D02*
X26185371Y-35733625D01*
X26185371Y-35733625D02*
X26163388Y-35663835D01*
X26163388Y-35663835D02*
X26148143Y-35606786D01*
X26148143Y-35606786D02*
X26138121Y-35553295D01*
X26138121Y-35553295D02*
X26131804Y-35494180D01*
X26131804Y-35494180D02*
X26127678Y-35420259D01*
X26127678Y-35420259D02*
X26125917Y-35373601D01*
X26125917Y-35373601D02*
X26124425Y-35258873D01*
X26124425Y-35258873D02*
X26129784Y-35164116D01*
X26129784Y-35164116D02*
X26143501Y-35081102D01*
X26143501Y-35081102D02*
X26167082Y-35001603D01*
X26167082Y-35001603D02*
X26202033Y-34917391D01*
X26202033Y-34917391D02*
X26214180Y-34891602D01*
X26214180Y-34891602D02*
X26249950Y-34828856D01*
X26249950Y-34828856D02*
X26296205Y-34764189D01*
X26296205Y-34764189D02*
X26347338Y-34704060D01*
X26347338Y-34704060D02*
X26397745Y-34654929D01*
X26397745Y-34654929D02*
X26441820Y-34623253D01*
X26441820Y-34623253D02*
X26450744Y-34619003D01*
X26450744Y-34619003D02*
X26471412Y-34613501D01*
X26471412Y-34613501D02*
X26497094Y-34613586D01*
X26497094Y-34613586D02*
X26530783Y-34620339D01*
X26530783Y-34620339D02*
X26575471Y-34634842D01*
X26575471Y-34634842D02*
X26634151Y-34658176D01*
X26634151Y-34658176D02*
X26709815Y-34691422D01*
X26709815Y-34691422D02*
X26805455Y-34735661D01*
X26805455Y-34735661D02*
X26907530Y-34784072D01*
X26907530Y-34784072D02*
X27000838Y-34829843D01*
X27000838Y-34829843D02*
X27072794Y-34868271D01*
X27072794Y-34868271D02*
X27128734Y-34902579D01*
X27128734Y-34902579D02*
X27173989Y-34935988D01*
X27173989Y-34935988D02*
X27206576Y-34964697D01*
X27206576Y-34964697D02*
X27298013Y-35065650D01*
X27298013Y-35065650D02*
X27387694Y-35193259D01*
X27387694Y-35193259D02*
X27474468Y-35345490D01*
X27474468Y-35345490D02*
X27557186Y-35520304D01*
X27557186Y-35520304D02*
X27634696Y-35715664D01*
X27634696Y-35715664D02*
X27641743Y-35735208D01*
X27641743Y-35735208D02*
X27679826Y-35845967D01*
X27679826Y-35845967D02*
X27719485Y-35968919D01*
X27719485Y-35968919D02*
X27759324Y-36099058D01*
X27759324Y-36099058D02*
X27797945Y-36231380D01*
X27797945Y-36231380D02*
X27833952Y-36360877D01*
X27833952Y-36360877D02*
X27865947Y-36482545D01*
X27865947Y-36482545D02*
X27892533Y-36591377D01*
X27892533Y-36591377D02*
X27912314Y-36682368D01*
X27912314Y-36682368D02*
X27922762Y-36742147D01*
X27922762Y-36742147D02*
X27931947Y-36806723D01*
X27931947Y-36806723D02*
X28178738Y-36806723D01*
X28178738Y-36806723D02*
X28176178Y-36792709D01*
X28176178Y-36792709D02*
X28138897Y-36623937D01*
X28138897Y-36623937D02*
X28094109Y-36445805D01*
X28094109Y-36445805D02*
X28043492Y-36263881D01*
X28043492Y-36263881D02*
X27988723Y-36083738D01*
X27988723Y-36083738D02*
X27931481Y-35910944D01*
X27931481Y-35910944D02*
X27873443Y-35751070D01*
X27873443Y-35751070D02*
X27816287Y-35609687D01*
X27816287Y-35609687D02*
X27773091Y-35515198D01*
X27773091Y-35515198D02*
X27696458Y-35368634D01*
X27696458Y-35368634D02*
X27620221Y-35245627D01*
X27620221Y-35245627D02*
X27540236Y-35141394D01*
X27540236Y-35141394D02*
X27452358Y-35051153D01*
X27452358Y-35051153D02*
X27352444Y-34970122D01*
X27352444Y-34970122D02*
X27236347Y-34893518D01*
X27236347Y-34893518D02*
X27232109Y-34890960D01*
X27232109Y-34890960D02*
X27137237Y-34835725D01*
X27137237Y-34835725D02*
X27032814Y-34778171D01*
X27032814Y-34778171D02*
X26922398Y-34719974D01*
X26922398Y-34719974D02*
X26809548Y-34662809D01*
X26809548Y-34662809D02*
X26697824Y-34608351D01*
X26697824Y-34608351D02*
X26590785Y-34558275D01*
X26590785Y-34558275D02*
X26491990Y-34514257D01*
X26491990Y-34514257D02*
X26405000Y-34477970D01*
X26405000Y-34477970D02*
X26333373Y-34451091D01*
X26333373Y-34451091D02*
X26280668Y-34435294D01*
X26280668Y-34435294D02*
X26256270Y-34431723D01*
X26256270Y-34431723D02*
X26215170Y-34443537D01*
X26215170Y-34443537D02*
X26215170Y-34443537D01*
G36*
X28284410Y-37641052D02*
G01*
X28285330Y-37746936D01*
X28284428Y-37849699D01*
X28281601Y-37942707D01*
X28276749Y-38019322D01*
X28267139Y-38108297D01*
X28239945Y-38268063D01*
X28198992Y-38423788D01*
X28141995Y-38583476D01*
X28066669Y-38755131D01*
X28041264Y-38808166D01*
X28002032Y-38887659D01*
X27965053Y-38959963D01*
X27933569Y-39018779D01*
X27910822Y-39057811D01*
X27897947Y-39076958D01*
X27859421Y-39128056D01*
X27813165Y-39183582D01*
X27764190Y-39238073D01*
X27717511Y-39286071D01*
X27678139Y-39322115D01*
X27651088Y-39340743D01*
X27641283Y-39343940D01*
X27594208Y-39346814D01*
X27537994Y-39337481D01*
X27484922Y-39317646D01*
X27455179Y-39299016D01*
X27412547Y-39268331D01*
X27366546Y-39232402D01*
X27342510Y-39211957D01*
X27300219Y-39168465D01*
X27264351Y-39117296D01*
X27227441Y-39048582D01*
X27203345Y-38993489D01*
X27171164Y-38904224D01*
X27138519Y-38798909D01*
X27107267Y-38684438D01*
X27079269Y-38567709D01*
X27056383Y-38455616D01*
X27040468Y-38355055D01*
X27039048Y-38344143D01*
X27030888Y-38284842D01*
X27019457Y-38205270D01*
X27005704Y-38111892D01*
X26990579Y-38011172D01*
X26975032Y-37909573D01*
X26973907Y-37902258D01*
X26958080Y-37791740D01*
X26943236Y-37674943D01*
X26930351Y-37560507D01*
X26920404Y-37457071D01*
X26914370Y-37373277D01*
X26914060Y-37367425D01*
X26908806Y-37280539D01*
X26903385Y-37218157D01*
X26897225Y-37176315D01*
X26889751Y-37151046D01*
X26880389Y-37138388D01*
X26873533Y-37131280D01*
X26852790Y-37101136D01*
X26825858Y-37055208D01*
X26796805Y-37000221D01*
X26772448Y-36952660D01*
X26724316Y-36866507D01*
X26676019Y-36793486D01*
X26620957Y-36724105D01*
X26552528Y-36648870D01*
X26538947Y-36634532D01*
X26415398Y-36497983D01*
X26310562Y-36368841D01*
X26219350Y-36239970D01*
X26136674Y-36104232D01*
X26057445Y-35954492D01*
X26025479Y-35888625D01*
X25955247Y-35726663D01*
X25904170Y-35577258D01*
X25870945Y-35435299D01*
X25854266Y-35295675D01*
X25853894Y-35258873D01*
X26124425Y-35258873D01*
X26125917Y-35373601D01*
X26127678Y-35420259D01*
X26131804Y-35494180D01*
X26138121Y-35553295D01*
X26148143Y-35606786D01*
X26163388Y-35663835D01*
X26185371Y-35733625D01*
X26216681Y-35820088D01*
X26266162Y-35937449D01*
X26324412Y-36060923D01*
X26387233Y-36182095D01*
X26450426Y-36292545D01*
X26509789Y-36383858D01*
X26557442Y-36448221D01*
X26641076Y-36552624D01*
X26731843Y-36657716D01*
X26820816Y-36752910D01*
X26848243Y-36779970D01*
X26875289Y-36804458D01*
X26888980Y-36813898D01*
X26890271Y-36811751D01*
X26893032Y-36788068D01*
X26895036Y-36741626D01*
X26896310Y-36676688D01*
X26896773Y-36612723D01*
X27155593Y-36612723D01*
X27156381Y-36808519D01*
X27159712Y-37032346D01*
X27165817Y-37233712D01*
X27174874Y-37416039D01*
X27187059Y-37582747D01*
X27202551Y-37737259D01*
X27221527Y-37882994D01*
X27225303Y-37908884D01*
X27241482Y-38019659D01*
X27259243Y-38141089D01*
X27276681Y-38260155D01*
X27291891Y-38363839D01*
X27295833Y-38390389D01*
X27322918Y-38556644D01*
X27351783Y-38704034D01*
X27384250Y-38841132D01*
X27422142Y-38976511D01*
X27428535Y-38997299D01*
X27445693Y-39048295D01*
X27460353Y-39085462D01*
X27469888Y-39101896D01*
X27477580Y-39101326D01*
X27501454Y-39084523D01*
X27534899Y-39051749D01*
X27573543Y-39007799D01*
X27613015Y-38957465D01*
X27648946Y-38905540D01*
X27693914Y-38829149D01*
X27745960Y-38729450D01*
X27799342Y-38617675D01*
X27850829Y-38501154D01*
X27897187Y-38387218D01*
X27935186Y-38283197D01*
X27961593Y-38196421D01*
X27971214Y-38158589D01*
X27983281Y-38107311D01*
X27992346Y-38060266D01*
X27998962Y-38011966D01*
X28003681Y-37956922D01*
X28007058Y-37889646D01*
X28009646Y-37804648D01*
X28011998Y-37696441D01*
X28013593Y-37591250D01*
X28013624Y-37471210D01*
X28011101Y-37371263D01*
X28005880Y-37286526D01*
X27997818Y-37212115D01*
X27977076Y-37057846D01*
X27868995Y-36924837D01*
X27831716Y-36880034D01*
X27777355Y-36817619D01*
X27725722Y-36761249D01*
X27684271Y-36719220D01*
X27635714Y-36672500D01*
X27561461Y-36598806D01*
X27485375Y-36521053D01*
X27411204Y-36443240D01*
X27342693Y-36369366D01*
X27283589Y-36303432D01*
X27237638Y-36249436D01*
X27208585Y-36211378D01*
X27155593Y-36132643D01*
X27155593Y-36612723D01*
X26896773Y-36612723D01*
X26896883Y-36597521D01*
X26896782Y-36508387D01*
X26896037Y-36413552D01*
X26894674Y-36317280D01*
X26892724Y-36223835D01*
X26890212Y-36137481D01*
X26887169Y-36062484D01*
X26883621Y-36003107D01*
X26880004Y-35953007D01*
X26873242Y-35845506D01*
X26867576Y-35736572D01*
X26863093Y-35629964D01*
X26859882Y-35529443D01*
X26858031Y-35438767D01*
X26857627Y-35361697D01*
X26858759Y-35301993D01*
X26861515Y-35263413D01*
X26865983Y-35249717D01*
X26866196Y-35249722D01*
X26885565Y-35257824D01*
X26920506Y-35278409D01*
X26963606Y-35307119D01*
X27008229Y-35336021D01*
X27046504Y-35356650D01*
X27070114Y-35364520D01*
X27084355Y-35366301D01*
X27107922Y-35382540D01*
X27126242Y-35419152D01*
X27141897Y-35480301D01*
X27154980Y-35539759D01*
X27182775Y-35648155D01*
X27215842Y-35761219D01*
X27251580Y-35870726D01*
X27287390Y-35968448D01*
X27320674Y-36046158D01*
X27359870Y-36124392D01*
X27414199Y-36220235D01*
X27473991Y-36309969D01*
X27543578Y-36399480D01*
X27627296Y-36494654D01*
X27729476Y-36601377D01*
X27931947Y-36806723D01*
X27922762Y-36742147D01*
X27912314Y-36682368D01*
X27892533Y-36591377D01*
X27865947Y-36482545D01*
X27833952Y-36360877D01*
X27797945Y-36231380D01*
X27759324Y-36099058D01*
X27719485Y-35968919D01*
X27679826Y-35845967D01*
X27641743Y-35735208D01*
X27634696Y-35715664D01*
X27557186Y-35520304D01*
X27474468Y-35345490D01*
X27387694Y-35193259D01*
X27298013Y-35065650D01*
X27206576Y-34964697D01*
X27173989Y-34935988D01*
X27128734Y-34902579D01*
X27072794Y-34868271D01*
X27000838Y-34829843D01*
X26907530Y-34784072D01*
X26805455Y-34735661D01*
X26709815Y-34691422D01*
X26634151Y-34658176D01*
X26575471Y-34634842D01*
X26530783Y-34620339D01*
X26497094Y-34613586D01*
X26471412Y-34613501D01*
X26450744Y-34619003D01*
X26441820Y-34623253D01*
X26397745Y-34654929D01*
X26347338Y-34704060D01*
X26296205Y-34764189D01*
X26249950Y-34828856D01*
X26214180Y-34891602D01*
X26202033Y-34917391D01*
X26167082Y-35001603D01*
X26143501Y-35081102D01*
X26129784Y-35164116D01*
X26124425Y-35258873D01*
X25853894Y-35258873D01*
X25852827Y-35153276D01*
X25860943Y-35046836D01*
X25886921Y-34907839D01*
X25931319Y-34782547D01*
X25995973Y-34664695D01*
X25999913Y-34658681D01*
X26052245Y-34587866D01*
X26108603Y-34525686D01*
X26164430Y-34476217D01*
X26215170Y-34443537D01*
X26256270Y-34431723D01*
X26280668Y-34435294D01*
X26333373Y-34451091D01*
X26405000Y-34477970D01*
X26491990Y-34514257D01*
X26590785Y-34558275D01*
X26697824Y-34608351D01*
X26809548Y-34662809D01*
X26922398Y-34719974D01*
X27032814Y-34778171D01*
X27137237Y-34835725D01*
X27232109Y-34890960D01*
X27236347Y-34893518D01*
X27352444Y-34970122D01*
X27452358Y-35051153D01*
X27540236Y-35141394D01*
X27620221Y-35245627D01*
X27696458Y-35368634D01*
X27773091Y-35515198D01*
X27816287Y-35609687D01*
X27873443Y-35751070D01*
X27931481Y-35910944D01*
X27988723Y-36083738D01*
X28043492Y-36263881D01*
X28094109Y-36445805D01*
X28138897Y-36623937D01*
X28176178Y-36792709D01*
X28178738Y-36806723D01*
X28204273Y-36946549D01*
X28215944Y-37016858D01*
X28228627Y-37081958D01*
X28240609Y-37127353D01*
X28253225Y-37157923D01*
X28267813Y-37178553D01*
X28305074Y-37205805D01*
X28371368Y-37235011D01*
X28462876Y-37263430D01*
X28577785Y-37290582D01*
X28714282Y-37315981D01*
X28870555Y-37339147D01*
X28897019Y-37348224D01*
X28935331Y-37368281D01*
X28980114Y-37395639D01*
X29026173Y-37426646D01*
X29068315Y-37457647D01*
X29101343Y-37484990D01*
X29120063Y-37505019D01*
X29119281Y-37514083D01*
X29091513Y-37514481D01*
X29040723Y-37509425D01*
X28974485Y-37499794D01*
X28899242Y-37486714D01*
X28821436Y-37471310D01*
X28747507Y-37454706D01*
X28683898Y-37438029D01*
X28648970Y-37427326D01*
X28569294Y-37400342D01*
X28483824Y-37368825D01*
X28405902Y-37337595D01*
X28257059Y-37274642D01*
X28266160Y-37327688D01*
X28271732Y-37371047D01*
X28277510Y-37446472D01*
X28278653Y-37471210D01*
X28281770Y-37538685D01*
X28284410Y-37641052D01*
G37*
X28284410Y-37641052D02*
X28285330Y-37746936D01*
X28284428Y-37849699D01*
X28281601Y-37942707D01*
X28276749Y-38019322D01*
X28267139Y-38108297D01*
X28239945Y-38268063D01*
X28198992Y-38423788D01*
X28141995Y-38583476D01*
X28066669Y-38755131D01*
X28041264Y-38808166D01*
X28002032Y-38887659D01*
X27965053Y-38959963D01*
X27933569Y-39018779D01*
X27910822Y-39057811D01*
X27897947Y-39076958D01*
X27859421Y-39128056D01*
X27813165Y-39183582D01*
X27764190Y-39238073D01*
X27717511Y-39286071D01*
X27678139Y-39322115D01*
X27651088Y-39340743D01*
X27641283Y-39343940D01*
X27594208Y-39346814D01*
X27537994Y-39337481D01*
X27484922Y-39317646D01*
X27455179Y-39299016D01*
X27412547Y-39268331D01*
X27366546Y-39232402D01*
X27342510Y-39211957D01*
X27300219Y-39168465D01*
X27264351Y-39117296D01*
X27227441Y-39048582D01*
X27203345Y-38993489D01*
X27171164Y-38904224D01*
X27138519Y-38798909D01*
X27107267Y-38684438D01*
X27079269Y-38567709D01*
X27056383Y-38455616D01*
X27040468Y-38355055D01*
X27039048Y-38344143D01*
X27030888Y-38284842D01*
X27019457Y-38205270D01*
X27005704Y-38111892D01*
X26990579Y-38011172D01*
X26975032Y-37909573D01*
X26973907Y-37902258D01*
X26958080Y-37791740D01*
X26943236Y-37674943D01*
X26930351Y-37560507D01*
X26920404Y-37457071D01*
X26914370Y-37373277D01*
X26914060Y-37367425D01*
X26908806Y-37280539D01*
X26903385Y-37218157D01*
X26897225Y-37176315D01*
X26889751Y-37151046D01*
X26880389Y-37138388D01*
X26873533Y-37131280D01*
X26852790Y-37101136D01*
X26825858Y-37055208D01*
X26796805Y-37000221D01*
X26772448Y-36952660D01*
X26724316Y-36866507D01*
X26676019Y-36793486D01*
X26620957Y-36724105D01*
X26552528Y-36648870D01*
X26538947Y-36634532D01*
X26415398Y-36497983D01*
X26310562Y-36368841D01*
X26219350Y-36239970D01*
X26136674Y-36104232D01*
X26057445Y-35954492D01*
X26025479Y-35888625D01*
X25955247Y-35726663D01*
X25904170Y-35577258D01*
X25870945Y-35435299D01*
X25854266Y-35295675D01*
X25853894Y-35258873D01*
X26124425Y-35258873D01*
X26125917Y-35373601D01*
X26127678Y-35420259D01*
X26131804Y-35494180D01*
X26138121Y-35553295D01*
X26148143Y-35606786D01*
X26163388Y-35663835D01*
X26185371Y-35733625D01*
X26216681Y-35820088D01*
X26266162Y-35937449D01*
X26324412Y-36060923D01*
X26387233Y-36182095D01*
X26450426Y-36292545D01*
X26509789Y-36383858D01*
X26557442Y-36448221D01*
X26641076Y-36552624D01*
X26731843Y-36657716D01*
X26820816Y-36752910D01*
X26848243Y-36779970D01*
X26875289Y-36804458D01*
X26888980Y-36813898D01*
X26890271Y-36811751D01*
X26893032Y-36788068D01*
X26895036Y-36741626D01*
X26896310Y-36676688D01*
X26896773Y-36612723D01*
X27155593Y-36612723D01*
X27156381Y-36808519D01*
X27159712Y-37032346D01*
X27165817Y-37233712D01*
X27174874Y-37416039D01*
X27187059Y-37582747D01*
X27202551Y-37737259D01*
X27221527Y-37882994D01*
X27225303Y-37908884D01*
X27241482Y-38019659D01*
X27259243Y-38141089D01*
X27276681Y-38260155D01*
X27291891Y-38363839D01*
X27295833Y-38390389D01*
X27322918Y-38556644D01*
X27351783Y-38704034D01*
X27384250Y-38841132D01*
X27422142Y-38976511D01*
X27428535Y-38997299D01*
X27445693Y-39048295D01*
X27460353Y-39085462D01*
X27469888Y-39101896D01*
X27477580Y-39101326D01*
X27501454Y-39084523D01*
X27534899Y-39051749D01*
X27573543Y-39007799D01*
X27613015Y-38957465D01*
X27648946Y-38905540D01*
X27693914Y-38829149D01*
X27745960Y-38729450D01*
X27799342Y-38617675D01*
X27850829Y-38501154D01*
X27897187Y-38387218D01*
X27935186Y-38283197D01*
X27961593Y-38196421D01*
X27971214Y-38158589D01*
X27983281Y-38107311D01*
X27992346Y-38060266D01*
X27998962Y-38011966D01*
X28003681Y-37956922D01*
X28007058Y-37889646D01*
X28009646Y-37804648D01*
X28011998Y-37696441D01*
X28013593Y-37591250D01*
X28013624Y-37471210D01*
X28011101Y-37371263D01*
X28005880Y-37286526D01*
X27997818Y-37212115D01*
X27977076Y-37057846D01*
X27868995Y-36924837D01*
X27831716Y-36880034D01*
X27777355Y-36817619D01*
X27725722Y-36761249D01*
X27684271Y-36719220D01*
X27635714Y-36672500D01*
X27561461Y-36598806D01*
X27485375Y-36521053D01*
X27411204Y-36443240D01*
X27342693Y-36369366D01*
X27283589Y-36303432D01*
X27237638Y-36249436D01*
X27208585Y-36211378D01*
X27155593Y-36132643D01*
X27155593Y-36612723D01*
X26896773Y-36612723D01*
X26896883Y-36597521D01*
X26896782Y-36508387D01*
X26896037Y-36413552D01*
X26894674Y-36317280D01*
X26892724Y-36223835D01*
X26890212Y-36137481D01*
X26887169Y-36062484D01*
X26883621Y-36003107D01*
X26880004Y-35953007D01*
X26873242Y-35845506D01*
X26867576Y-35736572D01*
X26863093Y-35629964D01*
X26859882Y-35529443D01*
X26858031Y-35438767D01*
X26857627Y-35361697D01*
X26858759Y-35301993D01*
X26861515Y-35263413D01*
X26865983Y-35249717D01*
X26866196Y-35249722D01*
X26885565Y-35257824D01*
X26920506Y-35278409D01*
X26963606Y-35307119D01*
X27008229Y-35336021D01*
X27046504Y-35356650D01*
X27070114Y-35364520D01*
X27084355Y-35366301D01*
X27107922Y-35382540D01*
X27126242Y-35419152D01*
X27141897Y-35480301D01*
X27154980Y-35539759D01*
X27182775Y-35648155D01*
X27215842Y-35761219D01*
X27251580Y-35870726D01*
X27287390Y-35968448D01*
X27320674Y-36046158D01*
X27359870Y-36124392D01*
X27414199Y-36220235D01*
X27473991Y-36309969D01*
X27543578Y-36399480D01*
X27627296Y-36494654D01*
X27729476Y-36601377D01*
X27931947Y-36806723D01*
X27922762Y-36742147D01*
X27912314Y-36682368D01*
X27892533Y-36591377D01*
X27865947Y-36482545D01*
X27833952Y-36360877D01*
X27797945Y-36231380D01*
X27759324Y-36099058D01*
X27719485Y-35968919D01*
X27679826Y-35845967D01*
X27641743Y-35735208D01*
X27634696Y-35715664D01*
X27557186Y-35520304D01*
X27474468Y-35345490D01*
X27387694Y-35193259D01*
X27298013Y-35065650D01*
X27206576Y-34964697D01*
X27173989Y-34935988D01*
X27128734Y-34902579D01*
X27072794Y-34868271D01*
X27000838Y-34829843D01*
X26907530Y-34784072D01*
X26805455Y-34735661D01*
X26709815Y-34691422D01*
X26634151Y-34658176D01*
X26575471Y-34634842D01*
X26530783Y-34620339D01*
X26497094Y-34613586D01*
X26471412Y-34613501D01*
X26450744Y-34619003D01*
X26441820Y-34623253D01*
X26397745Y-34654929D01*
X26347338Y-34704060D01*
X26296205Y-34764189D01*
X26249950Y-34828856D01*
X26214180Y-34891602D01*
X26202033Y-34917391D01*
X26167082Y-35001603D01*
X26143501Y-35081102D01*
X26129784Y-35164116D01*
X26124425Y-35258873D01*
X25853894Y-35258873D01*
X25852827Y-35153276D01*
X25860943Y-35046836D01*
X25886921Y-34907839D01*
X25931319Y-34782547D01*
X25995973Y-34664695D01*
X25999913Y-34658681D01*
X26052245Y-34587866D01*
X26108603Y-34525686D01*
X26164430Y-34476217D01*
X26215170Y-34443537D01*
X26256270Y-34431723D01*
X26280668Y-34435294D01*
X26333373Y-34451091D01*
X26405000Y-34477970D01*
X26491990Y-34514257D01*
X26590785Y-34558275D01*
X26697824Y-34608351D01*
X26809548Y-34662809D01*
X26922398Y-34719974D01*
X27032814Y-34778171D01*
X27137237Y-34835725D01*
X27232109Y-34890960D01*
X27236347Y-34893518D01*
X27352444Y-34970122D01*
X27452358Y-35051153D01*
X27540236Y-35141394D01*
X27620221Y-35245627D01*
X27696458Y-35368634D01*
X27773091Y-35515198D01*
X27816287Y-35609687D01*
X27873443Y-35751070D01*
X27931481Y-35910944D01*
X27988723Y-36083738D01*
X28043492Y-36263881D01*
X28094109Y-36445805D01*
X28138897Y-36623937D01*
X28176178Y-36792709D01*
X28178738Y-36806723D01*
X28204273Y-36946549D01*
X28215944Y-37016858D01*
X28228627Y-37081958D01*
X28240609Y-37127353D01*
X28253225Y-37157923D01*
X28267813Y-37178553D01*
X28305074Y-37205805D01*
X28371368Y-37235011D01*
X28462876Y-37263430D01*
X28577785Y-37290582D01*
X28714282Y-37315981D01*
X28870555Y-37339147D01*
X28897019Y-37348224D01*
X28935331Y-37368281D01*
X28980114Y-37395639D01*
X29026173Y-37426646D01*
X29068315Y-37457647D01*
X29101343Y-37484990D01*
X29120063Y-37505019D01*
X29119281Y-37514083D01*
X29091513Y-37514481D01*
X29040723Y-37509425D01*
X28974485Y-37499794D01*
X28899242Y-37486714D01*
X28821436Y-37471310D01*
X28747507Y-37454706D01*
X28683898Y-37438029D01*
X28648970Y-37427326D01*
X28569294Y-37400342D01*
X28483824Y-37368825D01*
X28405902Y-37337595D01*
X28257059Y-37274642D01*
X28266160Y-37327688D01*
X28271732Y-37371047D01*
X28277510Y-37446472D01*
X28278653Y-37471210D01*
X28281770Y-37538685D01*
X28284410Y-37641052D01*
%TD*%
M02*
