%TF.GenerationSoftware,KiCad,Pcbnew,(6.0.2)*%
%TF.CreationDate,2022-03-01T12:56:46-05:00*%
%TF.ProjectId,shutter_tester,73687574-7465-4725-9f74-65737465722e,A*%
%TF.SameCoordinates,PX717cbc0PY57bcf00*%
%TF.FileFunction,Soldermask,Top*%
%TF.FilePolarity,Negative*%
%FSLAX46Y46*%
G04 Gerber Fmt 4.6, Leading zero omitted, Abs format (unit mm)*
G04 Created by KiCad (PCBNEW (6.0.2)) date 2022-03-01 12:56:46*
%MOMM*%
%LPD*%
G01*
G04 APERTURE LIST*
G04 Aperture macros list*
%AMRoundRect*
0 Rectangle with rounded corners*
0 $1 Rounding radius*
0 $2 $3 $4 $5 $6 $7 $8 $9 X,Y pos of 4 corners*
0 Add a 4 corners polygon primitive as box body*
4,1,4,$2,$3,$4,$5,$6,$7,$8,$9,$2,$3,0*
0 Add four circle primitives for the rounded corners*
1,1,$1+$1,$2,$3*
1,1,$1+$1,$4,$5*
1,1,$1+$1,$6,$7*
1,1,$1+$1,$8,$9*
0 Add four rect primitives between the rounded corners*
20,1,$1+$1,$2,$3,$4,$5,0*
20,1,$1+$1,$4,$5,$6,$7,0*
20,1,$1+$1,$6,$7,$8,$9,0*
20,1,$1+$1,$8,$9,$2,$3,0*%
G04 Aperture macros list end*
%ADD10RoundRect,0.249999X0.450001X-0.350001X0.450001X0.350001X-0.450001X0.350001X-0.450001X-0.350001X0*%
%ADD11C,3.200000*%
%ADD12RoundRect,0.237500X0.237500X-0.250000X0.237500X0.250000X-0.237500X0.250000X-0.237500X-0.250000X0*%
%ADD13RoundRect,0.150000X-0.675000X-0.150000X0.675000X-0.150000X0.675000X0.150000X-0.675000X0.150000X0*%
%ADD14RoundRect,0.249999X-0.450001X0.350001X-0.450001X-0.350001X0.450001X-0.350001X0.450001X0.350001X0*%
%ADD15RoundRect,0.237500X-0.237500X0.250000X-0.237500X-0.250000X0.237500X-0.250000X0.237500X0.250000X0*%
%ADD16RoundRect,0.250000X0.475000X-0.337500X0.475000X0.337500X-0.475000X0.337500X-0.475000X-0.337500X0*%
%ADD17RoundRect,0.150000X0.150000X-0.587500X0.150000X0.587500X-0.150000X0.587500X-0.150000X-0.587500X0*%
%ADD18RoundRect,0.250000X0.450000X-0.350000X0.450000X0.350000X-0.450000X0.350000X-0.450000X-0.350000X0*%
%ADD19R,1.700000X1.700000*%
%ADD20O,1.700000X1.700000*%
G04 APERTURE END LIST*
D10*
%TO.C,R1*%
X24600000Y-26950000D03*
X24600000Y-24950000D03*
%TD*%
D11*
%TO.C,H1*%
X5000000Y-5000000D03*
%TD*%
%TO.C,H2*%
X5000000Y-39000000D03*
%TD*%
%TO.C,H3*%
X50000000Y-39000000D03*
%TD*%
%TO.C,H4*%
X50000000Y-5000000D03*
%TD*%
D12*
%TO.C,R2*%
X17400000Y-26862500D03*
X17400000Y-25037500D03*
%TD*%
D13*
%TO.C,U1*%
X24875000Y-12995000D03*
X24875000Y-14265000D03*
X24875000Y-15535000D03*
X24875000Y-16805000D03*
X30125000Y-16805000D03*
X30125000Y-15535000D03*
X30125000Y-14265000D03*
X30125000Y-12995000D03*
%TD*%
D14*
%TO.C,R6*%
X18800000Y-13900000D03*
X18800000Y-15900000D03*
%TD*%
D15*
%TO.C,R5*%
X15600000Y-13987500D03*
X15600000Y-15812500D03*
%TD*%
D12*
%TO.C,R3*%
X22000000Y-15912500D03*
X22000000Y-14087500D03*
%TD*%
D16*
%TO.C,C1*%
X36250000Y-13037500D03*
X36250000Y-10962500D03*
%TD*%
D15*
%TO.C,R4*%
X33000000Y-15537500D03*
X33000000Y-17362500D03*
%TD*%
%TO.C,R7*%
X19950000Y-29637500D03*
X19950000Y-31462500D03*
%TD*%
D12*
%TO.C,R8*%
X22450000Y-31462500D03*
X22450000Y-29637500D03*
%TD*%
%TO.C,R11*%
X35150000Y-31462500D03*
X35150000Y-29637500D03*
%TD*%
D15*
%TO.C,R9*%
X24950000Y-29637500D03*
X24950000Y-31462500D03*
%TD*%
D16*
%TO.C,C2*%
X33250000Y-13037500D03*
X33250000Y-10962500D03*
%TD*%
D15*
%TO.C,R12*%
X37650000Y-29637500D03*
X37650000Y-31462500D03*
%TD*%
D17*
%TO.C,Q1*%
X19950000Y-26887500D03*
X21850000Y-26887500D03*
X20900000Y-25012500D03*
%TD*%
%TO.C,Q2*%
X32650000Y-26887500D03*
X34550000Y-26887500D03*
X33600000Y-25012500D03*
%TD*%
D18*
%TO.C,R13*%
X37300000Y-26950000D03*
X37300000Y-24950000D03*
%TD*%
D19*
%TO.C,J1*%
X31320000Y-3500000D03*
D20*
X28780000Y-3500000D03*
X26240000Y-3500000D03*
X23700000Y-3500000D03*
%TD*%
D15*
%TO.C,R17*%
X35500000Y-15537500D03*
X35500000Y-17362500D03*
%TD*%
D18*
%TO.C,R18*%
X38250000Y-17450000D03*
X38250000Y-15450000D03*
%TD*%
D15*
%TO.C,R10*%
X32650000Y-29637500D03*
X32650000Y-31462500D03*
%TD*%
D12*
%TO.C,R14*%
X30100000Y-26862500D03*
X30100000Y-25037500D03*
%TD*%
M02*
