%TF.GenerationSoftware,KiCad,Pcbnew,(6.0.2)*%
%TF.CreationDate,2022-03-01T12:56:46-05:00*%
%TF.ProjectId,shutter_tester,73687574-7465-4725-9f74-65737465722e,A*%
%TF.SameCoordinates,PX717cbc0PY57bcf00*%
%TF.FileFunction,Copper,L2,Bot*%
%TF.FilePolarity,Positive*%
%FSLAX46Y46*%
G04 Gerber Fmt 4.6, Leading zero omitted, Abs format (unit mm)*
G04 Created by KiCad (PCBNEW (6.0.2)) date 2022-03-01 12:56:46*
%MOMM*%
%LPD*%
G01*
G04 APERTURE LIST*
G04 Aperture macros list*
%AMRoundRect*
0 Rectangle with rounded corners*
0 $1 Rounding radius*
0 $2 $3 $4 $5 $6 $7 $8 $9 X,Y pos of 4 corners*
0 Add a 4 corners polygon primitive as box body*
4,1,4,$2,$3,$4,$5,$6,$7,$8,$9,$2,$3,0*
0 Add four circle primitives for the rounded corners*
1,1,$1+$1,$2,$3*
1,1,$1+$1,$4,$5*
1,1,$1+$1,$6,$7*
1,1,$1+$1,$8,$9*
0 Add four rect primitives between the rounded corners*
20,1,$1+$1,$2,$3,$4,$5,0*
20,1,$1+$1,$4,$5,$6,$7,0*
20,1,$1+$1,$6,$7,$8,$9,0*
20,1,$1+$1,$8,$9,$2,$3,0*%
G04 Aperture macros list end*
%TA.AperFunction,ComponentPad*%
%ADD10R,1.700000X1.700000*%
%TD*%
%TA.AperFunction,ComponentPad*%
%ADD11O,1.700000X1.700000*%
%TD*%
%TA.AperFunction,SMDPad,CuDef*%
%ADD12RoundRect,0.250000X0.325000X0.450000X-0.325000X0.450000X-0.325000X-0.450000X0.325000X-0.450000X0*%
%TD*%
%TA.AperFunction,ViaPad*%
%ADD13C,0.800000*%
%TD*%
%TA.AperFunction,Conductor*%
%ADD14C,0.300000*%
%TD*%
G04 APERTURE END LIST*
D10*
%TO.P,J1,1,Pin_1*%
%TO.N,VCC*%
X31320000Y-3500000D03*
D11*
%TO.P,J1,2,Pin_2*%
%TO.N,/OUTPUT_2*%
X28780000Y-3500000D03*
%TO.P,J1,3,Pin_3*%
%TO.N,/OUTPUT_1*%
X26240000Y-3500000D03*
%TO.P,J1,4,Pin_4*%
%TO.N,GND*%
X23700000Y-3500000D03*
%TD*%
D12*
%TO.P,D1,1,K*%
%TO.N,VCC*%
X23525000Y-22000000D03*
%TO.P,D1,2,A*%
%TO.N,Net-(D1-Pad2)*%
X21475000Y-22000000D03*
%TD*%
%TO.P,D2,1,K*%
%TO.N,VCC*%
X33525000Y-22000000D03*
%TO.P,D2,2,A*%
%TO.N,Net-(D2-Pad2)*%
X31475000Y-22000000D03*
%TD*%
D13*
%TO.N,GND*%
X34550000Y-28400000D03*
X21850000Y-28400000D03*
X39150000Y-31450000D03*
X37300000Y-9900000D03*
X26550000Y-31450000D03*
X34400000Y-9900000D03*
X32050000Y-18150000D03*
X26800000Y-16800000D03*
%TO.N,VCC*%
X28600000Y-13000000D03*
X35850000Y-26900000D03*
X36700000Y-15450000D03*
X28250000Y-15900000D03*
X26150000Y-26950000D03*
X26150000Y-22000000D03*
X23250000Y-15900000D03*
%TO.N,Net-(D1-Pad2)*%
X18700000Y-26850000D03*
%TO.N,Net-(D2-Pad2)*%
X31500000Y-26850000D03*
%TD*%
D14*
%TO.N,VCC*%
X23250000Y-15900000D02*
X28250000Y-15900000D01*
X33525000Y-22000000D02*
X35950000Y-22000000D01*
X26150000Y-26950000D02*
X24600000Y-26950000D01*
X23525000Y-25875000D02*
X23525000Y-22000000D01*
X24600000Y-26950000D02*
X23525000Y-25875000D01*
X23525000Y-22000000D02*
X26150000Y-22000000D01*
X28250000Y-13350000D02*
X28250000Y-15900000D01*
X35950000Y-22000000D02*
X36700000Y-21250000D01*
X33525000Y-24575000D02*
X35850000Y-26900000D01*
X33525000Y-22000000D02*
X33525000Y-24575000D01*
X36700000Y-21250000D02*
X36700000Y-15450000D01*
X28600000Y-13000000D02*
X28250000Y-13350000D01*
%TO.N,Net-(D1-Pad2)*%
X21475000Y-24075000D02*
X18700000Y-26850000D01*
X21475000Y-22000000D02*
X21475000Y-24075000D01*
%TO.N,Net-(D2-Pad2)*%
X31475000Y-22000000D02*
X31475000Y-26825000D01*
X31475000Y-26825000D02*
X31500000Y-26850000D01*
%TD*%
%TA.AperFunction,Conductor*%
%TO.N,GND*%
G36*
X49974581Y-1451500D02*
G01*
X49985573Y-1453212D01*
X49985577Y-1453212D01*
X49994446Y-1454593D01*
X50003348Y-1453429D01*
X50003350Y-1453429D01*
X50006944Y-1452959D01*
X50010277Y-1452523D01*
X50032793Y-1451611D01*
X50341783Y-1466791D01*
X50354079Y-1468001D01*
X50686447Y-1517304D01*
X50698569Y-1519714D01*
X50794366Y-1543710D01*
X51024505Y-1601358D01*
X51036337Y-1604947D01*
X51352698Y-1718143D01*
X51364122Y-1722875D01*
X51531937Y-1802245D01*
X51633703Y-1850377D01*
X51667864Y-1866534D01*
X51678769Y-1872363D01*
X51966968Y-2045103D01*
X51977249Y-2051973D01*
X52247124Y-2252126D01*
X52256682Y-2259970D01*
X52505642Y-2485614D01*
X52514386Y-2494358D01*
X52740030Y-2743318D01*
X52747874Y-2752876D01*
X52948027Y-3022751D01*
X52954897Y-3033032D01*
X53008343Y-3122201D01*
X53080512Y-3242607D01*
X53127637Y-3321231D01*
X53133466Y-3332136D01*
X53277125Y-3635878D01*
X53281857Y-3647302D01*
X53395053Y-3963663D01*
X53398642Y-3975495D01*
X53480285Y-4301428D01*
X53482696Y-4313553D01*
X53530942Y-4638794D01*
X53531998Y-4645916D01*
X53533209Y-4658215D01*
X53548060Y-4960504D01*
X53546804Y-4984312D01*
X53546789Y-4985573D01*
X53545407Y-4994446D01*
X53546571Y-5003348D01*
X53546571Y-5003351D01*
X53548936Y-5021434D01*
X53550000Y-5037771D01*
X53550000Y-38955196D01*
X53548500Y-38974581D01*
X53546788Y-38985573D01*
X53546788Y-38985577D01*
X53545407Y-38994446D01*
X53546571Y-39003348D01*
X53546571Y-39003350D01*
X53547477Y-39010274D01*
X53548389Y-39032794D01*
X53533210Y-39341778D01*
X53531999Y-39354079D01*
X53482697Y-39686444D01*
X53480285Y-39698572D01*
X53398642Y-40024505D01*
X53395053Y-40036337D01*
X53281857Y-40352698D01*
X53277125Y-40364122D01*
X53133466Y-40667864D01*
X53127637Y-40678769D01*
X52954897Y-40966968D01*
X52948027Y-40977249D01*
X52747874Y-41247124D01*
X52740030Y-41256682D01*
X52514386Y-41505642D01*
X52505642Y-41514386D01*
X52256682Y-41740030D01*
X52247124Y-41747874D01*
X51977249Y-41948027D01*
X51966968Y-41954897D01*
X51678769Y-42127637D01*
X51667868Y-42133464D01*
X51531937Y-42197755D01*
X51364122Y-42277125D01*
X51352698Y-42281857D01*
X51036337Y-42395053D01*
X51024505Y-42398642D01*
X50794366Y-42456290D01*
X50698569Y-42480286D01*
X50686447Y-42482696D01*
X50354079Y-42531999D01*
X50341785Y-42533209D01*
X50039496Y-42548060D01*
X50015688Y-42546804D01*
X50014427Y-42546789D01*
X50005554Y-42545407D01*
X49996652Y-42546571D01*
X49996649Y-42546571D01*
X49978566Y-42548936D01*
X49962229Y-42550000D01*
X5044804Y-42550000D01*
X5025419Y-42548500D01*
X5014427Y-42546788D01*
X5014423Y-42546788D01*
X5005554Y-42545407D01*
X4996652Y-42546571D01*
X4996650Y-42546571D01*
X4993056Y-42547041D01*
X4989723Y-42547477D01*
X4967207Y-42548389D01*
X4658217Y-42533209D01*
X4645921Y-42531999D01*
X4313553Y-42482696D01*
X4301431Y-42480286D01*
X4205634Y-42456290D01*
X3975495Y-42398642D01*
X3963663Y-42395053D01*
X3647302Y-42281857D01*
X3635878Y-42277125D01*
X3468063Y-42197755D01*
X3332132Y-42133464D01*
X3321231Y-42127637D01*
X3033032Y-41954897D01*
X3022751Y-41948027D01*
X2752876Y-41747874D01*
X2743318Y-41740030D01*
X2494358Y-41514386D01*
X2485614Y-41505642D01*
X2259970Y-41256682D01*
X2252126Y-41247124D01*
X2051973Y-40977249D01*
X2045103Y-40966968D01*
X1872363Y-40678769D01*
X1866534Y-40667864D01*
X1722875Y-40364122D01*
X1718143Y-40352698D01*
X1604947Y-40036337D01*
X1601358Y-40024505D01*
X1519715Y-39698572D01*
X1517303Y-39686444D01*
X1468001Y-39354079D01*
X1466790Y-39341778D01*
X1452107Y-39042888D01*
X1453409Y-39020764D01*
X1453249Y-39020750D01*
X1453684Y-39015907D01*
X1454491Y-39011108D01*
X1454627Y-39000000D01*
X1451273Y-38976580D01*
X1450000Y-38958718D01*
X1450000Y-38928264D01*
X2945745Y-38928264D01*
X2945898Y-38932652D01*
X2945898Y-38932658D01*
X2950908Y-39076105D01*
X2955753Y-39214859D01*
X2956515Y-39219182D01*
X2956516Y-39219189D01*
X2980302Y-39354084D01*
X3005550Y-39497272D01*
X3006905Y-39501443D01*
X3006907Y-39501450D01*
X3048972Y-39630912D01*
X3094167Y-39770006D01*
X3219879Y-40027753D01*
X3380238Y-40265496D01*
X3572125Y-40478608D01*
X3791803Y-40662940D01*
X4034998Y-40814905D01*
X4296975Y-40931545D01*
X4572636Y-41010589D01*
X4576986Y-41011200D01*
X4576989Y-41011201D01*
X4681342Y-41025867D01*
X4856615Y-41050500D01*
X5071604Y-41050500D01*
X5073790Y-41050347D01*
X5073794Y-41050347D01*
X5281686Y-41035810D01*
X5281691Y-41035809D01*
X5286071Y-41035503D01*
X5290365Y-41034590D01*
X5290367Y-41034590D01*
X5408984Y-41009377D01*
X5566575Y-40975880D01*
X5570706Y-40974376D01*
X5570711Y-40974375D01*
X5719135Y-40920353D01*
X5836050Y-40877799D01*
X5954337Y-40814905D01*
X6085361Y-40745239D01*
X6085367Y-40745235D01*
X6089253Y-40743169D01*
X6092813Y-40740582D01*
X6092817Y-40740580D01*
X6317691Y-40577199D01*
X6317694Y-40577197D01*
X6321254Y-40574610D01*
X6324421Y-40571552D01*
X6524374Y-40378460D01*
X6524378Y-40378455D01*
X6527539Y-40375403D01*
X6610853Y-40268767D01*
X6701381Y-40152896D01*
X6704093Y-40149425D01*
X6769384Y-40036337D01*
X6845276Y-39904888D01*
X6845278Y-39904883D01*
X6847477Y-39901075D01*
X6954903Y-39635187D01*
X7024279Y-39356935D01*
X7054255Y-39071736D01*
X7053248Y-39042888D01*
X7049245Y-38928264D01*
X47945745Y-38928264D01*
X47945898Y-38932652D01*
X47945898Y-38932658D01*
X47950908Y-39076105D01*
X47955753Y-39214859D01*
X47956515Y-39219182D01*
X47956516Y-39219189D01*
X47980302Y-39354084D01*
X48005550Y-39497272D01*
X48006905Y-39501443D01*
X48006907Y-39501450D01*
X48048972Y-39630912D01*
X48094167Y-39770006D01*
X48219879Y-40027753D01*
X48380238Y-40265496D01*
X48572125Y-40478608D01*
X48791803Y-40662940D01*
X49034998Y-40814905D01*
X49296975Y-40931545D01*
X49572636Y-41010589D01*
X49576986Y-41011200D01*
X49576989Y-41011201D01*
X49681342Y-41025867D01*
X49856615Y-41050500D01*
X50071604Y-41050500D01*
X50073790Y-41050347D01*
X50073794Y-41050347D01*
X50281686Y-41035810D01*
X50281691Y-41035809D01*
X50286071Y-41035503D01*
X50290365Y-41034590D01*
X50290367Y-41034590D01*
X50408984Y-41009377D01*
X50566575Y-40975880D01*
X50570706Y-40974376D01*
X50570711Y-40974375D01*
X50719135Y-40920353D01*
X50836050Y-40877799D01*
X50954337Y-40814905D01*
X51085361Y-40745239D01*
X51085367Y-40745235D01*
X51089253Y-40743169D01*
X51092813Y-40740582D01*
X51092817Y-40740580D01*
X51317691Y-40577199D01*
X51317694Y-40577197D01*
X51321254Y-40574610D01*
X51324421Y-40571552D01*
X51524374Y-40378460D01*
X51524378Y-40378455D01*
X51527539Y-40375403D01*
X51610853Y-40268767D01*
X51701381Y-40152896D01*
X51704093Y-40149425D01*
X51769384Y-40036337D01*
X51845276Y-39904888D01*
X51845278Y-39904883D01*
X51847477Y-39901075D01*
X51954903Y-39635187D01*
X52024279Y-39356935D01*
X52054255Y-39071736D01*
X52053248Y-39042888D01*
X52044401Y-38789538D01*
X52044400Y-38789532D01*
X52044247Y-38785141D01*
X52019967Y-38647439D01*
X51995212Y-38507051D01*
X51994450Y-38502728D01*
X51993095Y-38498557D01*
X51993093Y-38498550D01*
X51907194Y-38234184D01*
X51905833Y-38229994D01*
X51780121Y-37972247D01*
X51619762Y-37734504D01*
X51427875Y-37521392D01*
X51208197Y-37337060D01*
X50965002Y-37185095D01*
X50703025Y-37068455D01*
X50427364Y-36989411D01*
X50423014Y-36988800D01*
X50423011Y-36988799D01*
X50318658Y-36974133D01*
X50143385Y-36949500D01*
X49928396Y-36949500D01*
X49926210Y-36949653D01*
X49926206Y-36949653D01*
X49718314Y-36964190D01*
X49718309Y-36964191D01*
X49713929Y-36964497D01*
X49709635Y-36965410D01*
X49709633Y-36965410D01*
X49599597Y-36988799D01*
X49433425Y-37024120D01*
X49429294Y-37025624D01*
X49429289Y-37025625D01*
X49311616Y-37068455D01*
X49163950Y-37122201D01*
X49160063Y-37124268D01*
X48914639Y-37254761D01*
X48914633Y-37254765D01*
X48910747Y-37256831D01*
X48907187Y-37259418D01*
X48907183Y-37259420D01*
X48796429Y-37339888D01*
X48678746Y-37425390D01*
X48675582Y-37428446D01*
X48675579Y-37428448D01*
X48475626Y-37621540D01*
X48475622Y-37621545D01*
X48472461Y-37624597D01*
X48469754Y-37628062D01*
X48469752Y-37628064D01*
X48386592Y-37734504D01*
X48295907Y-37850575D01*
X48293704Y-37854391D01*
X48227765Y-37968602D01*
X48152523Y-38098925D01*
X48045097Y-38364813D01*
X47975721Y-38643065D01*
X47945745Y-38928264D01*
X7049245Y-38928264D01*
X7044401Y-38789538D01*
X7044400Y-38789532D01*
X7044247Y-38785141D01*
X7019967Y-38647439D01*
X6995212Y-38507051D01*
X6994450Y-38502728D01*
X6993095Y-38498557D01*
X6993093Y-38498550D01*
X6907194Y-38234184D01*
X6905833Y-38229994D01*
X6780121Y-37972247D01*
X6619762Y-37734504D01*
X6427875Y-37521392D01*
X6208197Y-37337060D01*
X5965002Y-37185095D01*
X5703025Y-37068455D01*
X5427364Y-36989411D01*
X5423014Y-36988800D01*
X5423011Y-36988799D01*
X5318658Y-36974133D01*
X5143385Y-36949500D01*
X4928396Y-36949500D01*
X4926210Y-36949653D01*
X4926206Y-36949653D01*
X4718314Y-36964190D01*
X4718309Y-36964191D01*
X4713929Y-36964497D01*
X4709635Y-36965410D01*
X4709633Y-36965410D01*
X4599597Y-36988799D01*
X4433425Y-37024120D01*
X4429294Y-37025624D01*
X4429289Y-37025625D01*
X4311616Y-37068455D01*
X4163950Y-37122201D01*
X4160063Y-37124268D01*
X3914639Y-37254761D01*
X3914633Y-37254765D01*
X3910747Y-37256831D01*
X3907187Y-37259418D01*
X3907183Y-37259420D01*
X3796429Y-37339888D01*
X3678746Y-37425390D01*
X3675582Y-37428446D01*
X3675579Y-37428448D01*
X3475626Y-37621540D01*
X3475622Y-37621545D01*
X3472461Y-37624597D01*
X3469754Y-37628062D01*
X3469752Y-37628064D01*
X3386592Y-37734504D01*
X3295907Y-37850575D01*
X3293704Y-37854391D01*
X3227765Y-37968602D01*
X3152523Y-38098925D01*
X3045097Y-38364813D01*
X2975721Y-38643065D01*
X2945745Y-38928264D01*
X1450000Y-38928264D01*
X1450000Y-26850000D01*
X17844815Y-26850000D01*
X17845505Y-26856565D01*
X17856016Y-26956565D01*
X17863503Y-27027803D01*
X17918750Y-27197835D01*
X18008141Y-27352665D01*
X18012559Y-27357572D01*
X18012560Y-27357573D01*
X18117875Y-27474536D01*
X18127770Y-27485526D01*
X18133109Y-27489405D01*
X18265407Y-27585526D01*
X18272407Y-27590612D01*
X18278435Y-27593296D01*
X18278437Y-27593297D01*
X18384709Y-27640612D01*
X18435733Y-27663329D01*
X18523171Y-27681914D01*
X18604152Y-27699128D01*
X18604156Y-27699128D01*
X18610609Y-27700500D01*
X18789391Y-27700500D01*
X18795844Y-27699128D01*
X18795848Y-27699128D01*
X18876829Y-27681914D01*
X18964267Y-27663329D01*
X19015291Y-27640612D01*
X19121563Y-27593297D01*
X19121565Y-27593296D01*
X19127593Y-27590612D01*
X19134594Y-27585526D01*
X19266891Y-27489405D01*
X19272230Y-27485526D01*
X19282126Y-27474536D01*
X19387440Y-27357573D01*
X19387441Y-27357572D01*
X19391859Y-27352665D01*
X19481250Y-27197835D01*
X19536497Y-27027803D01*
X19543985Y-26956565D01*
X19551220Y-26887724D01*
X19578233Y-26822068D01*
X19587435Y-26811800D01*
X21865938Y-24533297D01*
X21878329Y-24522429D01*
X21896736Y-24508305D01*
X21903282Y-24503282D01*
X21999536Y-24377841D01*
X22060044Y-24231762D01*
X22075500Y-24114361D01*
X22080682Y-24075000D01*
X22076578Y-24043827D01*
X22075500Y-24027381D01*
X22075500Y-23173138D01*
X22095502Y-23105017D01*
X22136229Y-23065362D01*
X22228907Y-23009234D01*
X22235408Y-23005297D01*
X22355297Y-22885408D01*
X22392224Y-22824434D01*
X22444621Y-22776527D01*
X22514601Y-22764554D01*
X22579945Y-22792315D01*
X22607776Y-22824434D01*
X22644703Y-22885408D01*
X22764592Y-23005297D01*
X22771093Y-23009234D01*
X22863771Y-23065362D01*
X22911678Y-23117760D01*
X22924500Y-23173138D01*
X22924500Y-25827381D01*
X22923422Y-25843827D01*
X22919318Y-25875000D01*
X22924500Y-25914361D01*
X22939956Y-26031762D01*
X23000464Y-26177841D01*
X23096718Y-26303282D01*
X23103264Y-26308305D01*
X23108855Y-26312595D01*
X23117694Y-26319377D01*
X23121671Y-26322429D01*
X23134062Y-26333297D01*
X24141703Y-27340938D01*
X24152570Y-27353328D01*
X24171718Y-27378282D01*
X24245692Y-27435044D01*
X24297159Y-27474536D01*
X24443238Y-27535044D01*
X24600000Y-27555683D01*
X24631179Y-27551578D01*
X24647626Y-27550500D01*
X25491534Y-27550500D01*
X25559655Y-27570502D01*
X25574334Y-27581709D01*
X25577770Y-27585526D01*
X25588466Y-27593297D01*
X25684856Y-27663329D01*
X25722407Y-27690612D01*
X25728435Y-27693296D01*
X25728437Y-27693297D01*
X25856918Y-27750500D01*
X25885733Y-27763329D01*
X25973171Y-27781914D01*
X26054152Y-27799128D01*
X26054156Y-27799128D01*
X26060609Y-27800500D01*
X26239391Y-27800500D01*
X26245844Y-27799128D01*
X26245848Y-27799128D01*
X26326829Y-27781914D01*
X26414267Y-27763329D01*
X26443082Y-27750500D01*
X26571563Y-27693297D01*
X26571565Y-27693296D01*
X26577593Y-27690612D01*
X26615145Y-27663329D01*
X26715230Y-27590612D01*
X26722230Y-27585526D01*
X26750072Y-27554605D01*
X26837440Y-27457573D01*
X26837441Y-27457572D01*
X26841859Y-27452665D01*
X26867893Y-27407573D01*
X26927946Y-27303558D01*
X26927947Y-27303557D01*
X26931250Y-27297835D01*
X26986497Y-27127803D01*
X27005185Y-26950000D01*
X26999240Y-26893435D01*
X26987187Y-26778761D01*
X26987187Y-26778760D01*
X26986497Y-26772197D01*
X26931250Y-26602165D01*
X26841859Y-26447335D01*
X26796839Y-26397335D01*
X26726645Y-26319377D01*
X26726643Y-26319376D01*
X26722230Y-26314474D01*
X26589592Y-26218106D01*
X26582935Y-26213269D01*
X26582933Y-26213268D01*
X26577593Y-26209388D01*
X26571565Y-26206704D01*
X26571563Y-26206703D01*
X26420298Y-26139356D01*
X26420297Y-26139356D01*
X26414267Y-26136671D01*
X26326829Y-26118086D01*
X26245848Y-26100872D01*
X26245844Y-26100872D01*
X26239391Y-26099500D01*
X26060609Y-26099500D01*
X26054156Y-26100872D01*
X26054152Y-26100872D01*
X25973171Y-26118086D01*
X25885733Y-26136671D01*
X25879703Y-26139356D01*
X25879702Y-26139356D01*
X25728438Y-26206703D01*
X25728436Y-26206704D01*
X25722408Y-26209388D01*
X25717067Y-26213268D01*
X25717066Y-26213269D01*
X25586261Y-26308305D01*
X25577770Y-26314474D01*
X25575012Y-26317537D01*
X25511835Y-26347854D01*
X25491534Y-26349500D01*
X24900925Y-26349500D01*
X24832804Y-26329498D01*
X24811830Y-26312595D01*
X24162405Y-25663170D01*
X24128379Y-25600858D01*
X24125500Y-25574075D01*
X24125500Y-23173138D01*
X24145502Y-23105017D01*
X24186229Y-23065362D01*
X24278907Y-23009234D01*
X24285408Y-23005297D01*
X24405297Y-22885408D01*
X24493127Y-22740383D01*
X24509286Y-22688820D01*
X24548744Y-22629798D01*
X24613848Y-22601478D01*
X24629520Y-22600500D01*
X25491534Y-22600500D01*
X25559655Y-22620502D01*
X25574334Y-22631709D01*
X25577770Y-22635526D01*
X25651122Y-22688820D01*
X25712115Y-22733134D01*
X25722407Y-22740612D01*
X25728435Y-22743296D01*
X25728437Y-22743297D01*
X25879702Y-22810644D01*
X25885733Y-22813329D01*
X25973171Y-22831915D01*
X26054152Y-22849128D01*
X26054156Y-22849128D01*
X26060609Y-22850500D01*
X26239391Y-22850500D01*
X26245844Y-22849128D01*
X26245848Y-22849128D01*
X26326829Y-22831915D01*
X26414267Y-22813329D01*
X26420298Y-22810644D01*
X26571563Y-22743297D01*
X26571565Y-22743296D01*
X26577593Y-22740612D01*
X26587886Y-22733134D01*
X26692942Y-22656805D01*
X26722230Y-22635526D01*
X26750073Y-22604604D01*
X26837440Y-22507573D01*
X26837441Y-22507572D01*
X26841859Y-22502665D01*
X26931250Y-22347835D01*
X26986497Y-22177803D01*
X27005185Y-22000000D01*
X26986497Y-21822197D01*
X26931250Y-21652165D01*
X26841859Y-21497335D01*
X26841472Y-21496905D01*
X30449500Y-21496905D01*
X30449501Y-22001311D01*
X30449501Y-22505992D01*
X30449764Y-22508850D01*
X30449764Y-22508859D01*
X30451495Y-22527696D01*
X30456171Y-22578594D01*
X30458170Y-22584972D01*
X30458170Y-22584973D01*
X30474013Y-22635526D01*
X30506873Y-22740383D01*
X30594703Y-22885408D01*
X30714592Y-23005297D01*
X30721093Y-23009234D01*
X30813771Y-23065362D01*
X30861678Y-23117760D01*
X30874500Y-23173138D01*
X30874500Y-26225269D01*
X30854498Y-26293390D01*
X30842136Y-26309580D01*
X30824202Y-26329498D01*
X30808141Y-26347335D01*
X30804838Y-26353056D01*
X30775971Y-26403056D01*
X30718750Y-26502165D01*
X30663503Y-26672197D01*
X30644815Y-26850000D01*
X30645505Y-26856565D01*
X30656016Y-26956565D01*
X30663503Y-27027803D01*
X30718750Y-27197835D01*
X30808141Y-27352665D01*
X30812559Y-27357572D01*
X30812560Y-27357573D01*
X30917875Y-27474536D01*
X30927770Y-27485526D01*
X30933109Y-27489405D01*
X31065407Y-27585526D01*
X31072407Y-27590612D01*
X31078435Y-27593296D01*
X31078437Y-27593297D01*
X31184709Y-27640612D01*
X31235733Y-27663329D01*
X31323171Y-27681914D01*
X31404152Y-27699128D01*
X31404156Y-27699128D01*
X31410609Y-27700500D01*
X31589391Y-27700500D01*
X31595844Y-27699128D01*
X31595848Y-27699128D01*
X31676829Y-27681914D01*
X31764267Y-27663329D01*
X31815291Y-27640612D01*
X31921563Y-27593297D01*
X31921565Y-27593296D01*
X31927593Y-27590612D01*
X31934594Y-27585526D01*
X32066891Y-27489405D01*
X32072230Y-27485526D01*
X32082126Y-27474536D01*
X32187440Y-27357573D01*
X32187441Y-27357572D01*
X32191859Y-27352665D01*
X32281250Y-27197835D01*
X32336497Y-27027803D01*
X32343985Y-26956565D01*
X32354495Y-26856565D01*
X32355185Y-26850000D01*
X32336497Y-26672197D01*
X32281250Y-26502165D01*
X32224030Y-26403056D01*
X32195162Y-26353056D01*
X32191859Y-26347335D01*
X32175799Y-26329498D01*
X32107864Y-26254050D01*
X32077147Y-26190042D01*
X32075500Y-26169739D01*
X32075500Y-23173138D01*
X32095502Y-23105017D01*
X32136229Y-23065362D01*
X32228907Y-23009234D01*
X32235408Y-23005297D01*
X32355297Y-22885408D01*
X32392224Y-22824434D01*
X32444621Y-22776527D01*
X32514601Y-22764554D01*
X32579945Y-22792315D01*
X32607776Y-22824434D01*
X32644703Y-22885408D01*
X32764592Y-23005297D01*
X32771093Y-23009234D01*
X32863771Y-23065362D01*
X32911678Y-23117760D01*
X32924500Y-23173138D01*
X32924500Y-24527381D01*
X32923422Y-24543827D01*
X32919318Y-24575000D01*
X32924500Y-24614361D01*
X32939956Y-24731762D01*
X33000464Y-24877841D01*
X33096718Y-25003282D01*
X33103264Y-25008305D01*
X33121671Y-25022429D01*
X33134062Y-25033297D01*
X34962565Y-26861800D01*
X34996591Y-26924112D01*
X34998780Y-26937724D01*
X35013503Y-27077803D01*
X35068750Y-27247835D01*
X35072053Y-27253557D01*
X35072054Y-27253558D01*
X35129657Y-27353329D01*
X35158141Y-27402665D01*
X35162559Y-27407572D01*
X35162560Y-27407573D01*
X35232750Y-27485526D01*
X35277770Y-27535526D01*
X35283109Y-27539405D01*
X35353589Y-27590612D01*
X35422407Y-27640612D01*
X35428435Y-27643296D01*
X35428437Y-27643297D01*
X35556918Y-27700500D01*
X35585733Y-27713329D01*
X35673171Y-27731914D01*
X35754152Y-27749128D01*
X35754156Y-27749128D01*
X35760609Y-27750500D01*
X35939391Y-27750500D01*
X35945844Y-27749128D01*
X35945848Y-27749128D01*
X36026829Y-27731914D01*
X36114267Y-27713329D01*
X36143082Y-27700500D01*
X36271563Y-27643297D01*
X36271565Y-27643296D01*
X36277593Y-27640612D01*
X36346412Y-27590612D01*
X36416891Y-27539405D01*
X36422230Y-27535526D01*
X36467251Y-27485526D01*
X36537440Y-27407573D01*
X36537441Y-27407572D01*
X36541859Y-27402665D01*
X36570343Y-27353329D01*
X36627946Y-27253558D01*
X36627947Y-27253557D01*
X36631250Y-27247835D01*
X36686497Y-27077803D01*
X36705185Y-26900000D01*
X36686497Y-26722197D01*
X36631250Y-26552165D01*
X36574030Y-26453056D01*
X36545162Y-26403056D01*
X36541859Y-26397335D01*
X36496839Y-26347335D01*
X36426645Y-26269377D01*
X36426643Y-26269376D01*
X36422230Y-26264474D01*
X36392942Y-26243195D01*
X36282935Y-26163269D01*
X36282933Y-26163268D01*
X36277593Y-26159388D01*
X36271565Y-26156704D01*
X36271563Y-26156703D01*
X36120298Y-26089356D01*
X36120297Y-26089356D01*
X36114267Y-26086671D01*
X36026829Y-26068085D01*
X35945848Y-26050872D01*
X35945844Y-26050872D01*
X35939391Y-26049500D01*
X35900925Y-26049500D01*
X35832804Y-26029498D01*
X35811830Y-26012595D01*
X34162405Y-24363170D01*
X34128379Y-24300858D01*
X34125500Y-24274075D01*
X34125500Y-23173138D01*
X34145502Y-23105017D01*
X34186229Y-23065362D01*
X34278907Y-23009234D01*
X34285408Y-23005297D01*
X34405297Y-22885408D01*
X34493127Y-22740383D01*
X34509286Y-22688820D01*
X34548744Y-22629798D01*
X34613848Y-22601478D01*
X34629520Y-22600500D01*
X35902381Y-22600500D01*
X35918827Y-22601578D01*
X35950000Y-22605682D01*
X35958188Y-22604604D01*
X35989361Y-22600500D01*
X36098574Y-22586122D01*
X36106762Y-22585044D01*
X36252841Y-22524536D01*
X36378282Y-22428282D01*
X36397430Y-22403328D01*
X36408297Y-22390938D01*
X37090938Y-21708297D01*
X37103329Y-21697429D01*
X37121736Y-21683305D01*
X37128282Y-21678282D01*
X37224536Y-21552841D01*
X37285044Y-21406762D01*
X37297628Y-21311180D01*
X37300500Y-21289361D01*
X37304604Y-21258188D01*
X37305682Y-21250000D01*
X37301578Y-21218827D01*
X37300500Y-21202381D01*
X37300500Y-16102496D01*
X37320502Y-16034375D01*
X37332864Y-16018185D01*
X37387440Y-15957573D01*
X37387441Y-15957572D01*
X37391859Y-15952665D01*
X37481250Y-15797835D01*
X37536497Y-15627803D01*
X37545049Y-15546442D01*
X37554495Y-15456565D01*
X37555185Y-15450000D01*
X37536497Y-15272197D01*
X37481250Y-15102165D01*
X37471513Y-15085299D01*
X37395162Y-14953056D01*
X37391859Y-14947335D01*
X37272230Y-14814474D01*
X37127593Y-14709388D01*
X37121565Y-14706704D01*
X37121563Y-14706703D01*
X36970298Y-14639356D01*
X36970297Y-14639356D01*
X36964267Y-14636671D01*
X36876829Y-14618086D01*
X36795848Y-14600872D01*
X36795844Y-14600872D01*
X36789391Y-14599500D01*
X36610609Y-14599500D01*
X36604156Y-14600872D01*
X36604152Y-14600872D01*
X36523171Y-14618085D01*
X36435733Y-14636671D01*
X36429703Y-14639356D01*
X36429702Y-14639356D01*
X36278438Y-14706703D01*
X36278436Y-14706704D01*
X36272408Y-14709388D01*
X36127770Y-14814474D01*
X36008141Y-14947335D01*
X36004838Y-14953056D01*
X35928488Y-15085299D01*
X35918750Y-15102165D01*
X35863503Y-15272197D01*
X35844815Y-15450000D01*
X35845505Y-15456565D01*
X35854952Y-15546442D01*
X35863503Y-15627803D01*
X35918750Y-15797835D01*
X36008141Y-15952665D01*
X36012559Y-15957572D01*
X36012560Y-15957573D01*
X36067136Y-16018185D01*
X36097853Y-16082193D01*
X36099500Y-16102496D01*
X36099500Y-20949075D01*
X36079498Y-21017196D01*
X36062595Y-21038170D01*
X35738170Y-21362595D01*
X35675858Y-21396621D01*
X35649075Y-21399500D01*
X34629520Y-21399500D01*
X34561399Y-21379498D01*
X34514906Y-21325842D01*
X34509286Y-21311180D01*
X34495398Y-21266864D01*
X34493127Y-21259617D01*
X34405297Y-21114592D01*
X34285408Y-20994703D01*
X34140383Y-20906873D01*
X34133136Y-20904602D01*
X34133134Y-20904601D01*
X34067894Y-20884156D01*
X33978594Y-20856171D01*
X33905993Y-20849500D01*
X33903095Y-20849500D01*
X33524012Y-20849501D01*
X33144008Y-20849501D01*
X33141150Y-20849764D01*
X33141141Y-20849764D01*
X33105757Y-20853015D01*
X33071406Y-20856171D01*
X33065028Y-20858170D01*
X33065027Y-20858170D01*
X32916866Y-20904601D01*
X32916864Y-20904602D01*
X32909617Y-20906873D01*
X32764592Y-20994703D01*
X32644703Y-21114592D01*
X32640766Y-21121093D01*
X32607776Y-21175566D01*
X32555379Y-21223473D01*
X32485399Y-21235446D01*
X32420055Y-21207685D01*
X32392224Y-21175566D01*
X32359234Y-21121093D01*
X32355297Y-21114592D01*
X32235408Y-20994703D01*
X32090383Y-20906873D01*
X32083136Y-20904602D01*
X32083134Y-20904601D01*
X32017894Y-20884156D01*
X31928594Y-20856171D01*
X31855993Y-20849500D01*
X31853095Y-20849500D01*
X31474012Y-20849501D01*
X31094008Y-20849501D01*
X31091150Y-20849764D01*
X31091141Y-20849764D01*
X31055757Y-20853015D01*
X31021406Y-20856171D01*
X31015028Y-20858170D01*
X31015027Y-20858170D01*
X30866866Y-20904601D01*
X30866864Y-20904602D01*
X30859617Y-20906873D01*
X30714592Y-20994703D01*
X30594703Y-21114592D01*
X30506873Y-21259617D01*
X30456171Y-21421406D01*
X30449500Y-21494007D01*
X30449500Y-21496905D01*
X26841472Y-21496905D01*
X26837440Y-21492427D01*
X26726645Y-21369377D01*
X26726643Y-21369376D01*
X26722230Y-21364474D01*
X26618847Y-21289361D01*
X26582935Y-21263269D01*
X26582933Y-21263268D01*
X26577593Y-21259388D01*
X26571565Y-21256704D01*
X26571563Y-21256703D01*
X26420298Y-21189356D01*
X26420297Y-21189356D01*
X26414267Y-21186671D01*
X26326829Y-21168086D01*
X26245848Y-21150872D01*
X26245844Y-21150872D01*
X26239391Y-21149500D01*
X26060609Y-21149500D01*
X26054156Y-21150872D01*
X26054152Y-21150872D01*
X25973171Y-21168086D01*
X25885733Y-21186671D01*
X25879703Y-21189356D01*
X25879702Y-21189356D01*
X25728438Y-21256703D01*
X25728436Y-21256704D01*
X25722408Y-21259388D01*
X25717067Y-21263268D01*
X25717066Y-21263269D01*
X25651123Y-21311180D01*
X25577770Y-21364474D01*
X25575012Y-21367537D01*
X25511835Y-21397854D01*
X25491534Y-21399500D01*
X24629520Y-21399500D01*
X24561399Y-21379498D01*
X24514906Y-21325842D01*
X24509286Y-21311180D01*
X24495398Y-21266864D01*
X24493127Y-21259617D01*
X24405297Y-21114592D01*
X24285408Y-20994703D01*
X24140383Y-20906873D01*
X24133136Y-20904602D01*
X24133134Y-20904601D01*
X24067894Y-20884156D01*
X23978594Y-20856171D01*
X23905993Y-20849500D01*
X23903095Y-20849500D01*
X23524012Y-20849501D01*
X23144008Y-20849501D01*
X23141150Y-20849764D01*
X23141141Y-20849764D01*
X23105757Y-20853015D01*
X23071406Y-20856171D01*
X23065028Y-20858170D01*
X23065027Y-20858170D01*
X22916866Y-20904601D01*
X22916864Y-20904602D01*
X22909617Y-20906873D01*
X22764592Y-20994703D01*
X22644703Y-21114592D01*
X22640766Y-21121093D01*
X22607776Y-21175566D01*
X22555379Y-21223473D01*
X22485399Y-21235446D01*
X22420055Y-21207685D01*
X22392224Y-21175566D01*
X22359234Y-21121093D01*
X22355297Y-21114592D01*
X22235408Y-20994703D01*
X22090383Y-20906873D01*
X22083136Y-20904602D01*
X22083134Y-20904601D01*
X22017894Y-20884156D01*
X21928594Y-20856171D01*
X21855993Y-20849500D01*
X21853095Y-20849500D01*
X21474012Y-20849501D01*
X21094008Y-20849501D01*
X21091150Y-20849764D01*
X21091141Y-20849764D01*
X21055757Y-20853015D01*
X21021406Y-20856171D01*
X21015028Y-20858170D01*
X21015027Y-20858170D01*
X20866866Y-20904601D01*
X20866864Y-20904602D01*
X20859617Y-20906873D01*
X20714592Y-20994703D01*
X20594703Y-21114592D01*
X20506873Y-21259617D01*
X20456171Y-21421406D01*
X20449500Y-21494007D01*
X20449500Y-21496905D01*
X20449501Y-22001311D01*
X20449501Y-22505992D01*
X20449764Y-22508850D01*
X20449764Y-22508859D01*
X20451495Y-22527696D01*
X20456171Y-22578594D01*
X20458170Y-22584972D01*
X20458170Y-22584973D01*
X20474013Y-22635526D01*
X20506873Y-22740383D01*
X20594703Y-22885408D01*
X20714592Y-23005297D01*
X20721093Y-23009234D01*
X20813771Y-23065362D01*
X20861678Y-23117760D01*
X20874500Y-23173138D01*
X20874500Y-23774075D01*
X20854498Y-23842196D01*
X20837595Y-23863170D01*
X18738170Y-25962595D01*
X18675858Y-25996621D01*
X18649075Y-25999500D01*
X18610609Y-25999500D01*
X18604156Y-26000872D01*
X18604152Y-26000872D01*
X18523171Y-26018086D01*
X18435733Y-26036671D01*
X18429703Y-26039356D01*
X18429702Y-26039356D01*
X18278438Y-26106703D01*
X18278436Y-26106704D01*
X18272408Y-26109388D01*
X18267067Y-26113268D01*
X18267066Y-26113269D01*
X18178191Y-26177841D01*
X18127770Y-26214474D01*
X18123357Y-26219376D01*
X18123355Y-26219377D01*
X18020781Y-26333297D01*
X18008141Y-26347335D01*
X18004838Y-26353056D01*
X17975971Y-26403056D01*
X17918750Y-26502165D01*
X17863503Y-26672197D01*
X17844815Y-26850000D01*
X1450000Y-26850000D01*
X1450000Y-15900000D01*
X22394815Y-15900000D01*
X22413503Y-16077803D01*
X22468750Y-16247835D01*
X22558141Y-16402665D01*
X22677770Y-16535526D01*
X22822407Y-16640612D01*
X22828435Y-16643296D01*
X22828437Y-16643297D01*
X22979702Y-16710644D01*
X22985733Y-16713329D01*
X23073171Y-16731915D01*
X23154152Y-16749128D01*
X23154156Y-16749128D01*
X23160609Y-16750500D01*
X23339391Y-16750500D01*
X23345844Y-16749128D01*
X23345848Y-16749128D01*
X23426829Y-16731915D01*
X23514267Y-16713329D01*
X23520298Y-16710644D01*
X23671563Y-16643297D01*
X23671565Y-16643296D01*
X23677593Y-16640612D01*
X23822230Y-16535526D01*
X23824988Y-16532463D01*
X23888165Y-16502146D01*
X23908466Y-16500500D01*
X27591534Y-16500500D01*
X27659655Y-16520502D01*
X27674334Y-16531709D01*
X27677770Y-16535526D01*
X27822407Y-16640612D01*
X27828435Y-16643296D01*
X27828437Y-16643297D01*
X27979702Y-16710644D01*
X27985733Y-16713329D01*
X28073171Y-16731915D01*
X28154152Y-16749128D01*
X28154156Y-16749128D01*
X28160609Y-16750500D01*
X28339391Y-16750500D01*
X28345844Y-16749128D01*
X28345848Y-16749128D01*
X28426829Y-16731915D01*
X28514267Y-16713329D01*
X28520298Y-16710644D01*
X28671563Y-16643297D01*
X28671565Y-16643296D01*
X28677593Y-16640612D01*
X28822230Y-16535526D01*
X28941859Y-16402665D01*
X29031250Y-16247835D01*
X29086497Y-16077803D01*
X29105185Y-15900000D01*
X29104495Y-15893435D01*
X29087187Y-15728761D01*
X29087187Y-15728760D01*
X29086497Y-15722197D01*
X29031250Y-15552165D01*
X28941859Y-15397335D01*
X28882864Y-15331814D01*
X28852147Y-15267807D01*
X28850500Y-15247504D01*
X28850500Y-13901284D01*
X28870502Y-13833163D01*
X28925252Y-13786177D01*
X29021560Y-13743299D01*
X29021567Y-13743295D01*
X29027593Y-13740612D01*
X29172230Y-13635526D01*
X29291859Y-13502665D01*
X29381250Y-13347835D01*
X29404707Y-13275641D01*
X29434457Y-13184082D01*
X29434457Y-13184080D01*
X29436497Y-13177803D01*
X29455185Y-13000000D01*
X29436497Y-12822197D01*
X29381250Y-12652165D01*
X29291859Y-12497335D01*
X29172230Y-12364474D01*
X29027593Y-12259388D01*
X29021565Y-12256704D01*
X29021563Y-12256703D01*
X28870298Y-12189356D01*
X28870297Y-12189356D01*
X28864267Y-12186671D01*
X28776829Y-12168085D01*
X28695848Y-12150872D01*
X28695844Y-12150872D01*
X28689391Y-12149500D01*
X28510609Y-12149500D01*
X28504156Y-12150872D01*
X28504152Y-12150872D01*
X28423171Y-12168085D01*
X28335733Y-12186671D01*
X28329703Y-12189356D01*
X28329702Y-12189356D01*
X28178438Y-12256703D01*
X28178436Y-12256704D01*
X28172408Y-12259388D01*
X28027770Y-12364474D01*
X27908141Y-12497335D01*
X27818750Y-12652165D01*
X27763503Y-12822197D01*
X27762813Y-12828760D01*
X27762813Y-12828761D01*
X27745584Y-12992680D01*
X27729658Y-13041693D01*
X27725464Y-13047159D01*
X27664956Y-13193238D01*
X27644318Y-13350000D01*
X27645396Y-13358188D01*
X27648422Y-13381173D01*
X27649500Y-13397619D01*
X27649500Y-15173500D01*
X27629498Y-15241621D01*
X27575842Y-15288114D01*
X27523500Y-15299500D01*
X23908466Y-15299500D01*
X23840345Y-15279498D01*
X23825666Y-15268291D01*
X23822230Y-15264474D01*
X23731079Y-15198248D01*
X23682935Y-15163269D01*
X23682933Y-15163268D01*
X23677593Y-15159388D01*
X23671565Y-15156704D01*
X23671563Y-15156703D01*
X23520298Y-15089356D01*
X23520297Y-15089356D01*
X23514267Y-15086671D01*
X23426829Y-15068086D01*
X23345848Y-15050872D01*
X23345844Y-15050872D01*
X23339391Y-15049500D01*
X23160609Y-15049500D01*
X23154156Y-15050872D01*
X23154152Y-15050872D01*
X23073171Y-15068085D01*
X22985733Y-15086671D01*
X22979703Y-15089356D01*
X22979702Y-15089356D01*
X22828438Y-15156703D01*
X22828436Y-15156704D01*
X22822408Y-15159388D01*
X22817067Y-15163268D01*
X22817066Y-15163269D01*
X22709224Y-15241621D01*
X22677770Y-15264474D01*
X22673357Y-15269376D01*
X22673355Y-15269377D01*
X22562560Y-15392427D01*
X22558141Y-15397335D01*
X22468750Y-15552165D01*
X22413503Y-15722197D01*
X22412813Y-15728760D01*
X22412813Y-15728761D01*
X22395505Y-15893435D01*
X22394815Y-15900000D01*
X1450000Y-15900000D01*
X1450000Y-5048329D01*
X1451746Y-5027426D01*
X1453684Y-5015908D01*
X1453685Y-5015901D01*
X1454491Y-5011108D01*
X1454627Y-5000000D01*
X1452896Y-4987912D01*
X1451775Y-4963865D01*
X1451941Y-4960499D01*
X1453525Y-4928264D01*
X2945745Y-4928264D01*
X2945898Y-4932652D01*
X2945898Y-4932658D01*
X2950908Y-5076105D01*
X2955753Y-5214859D01*
X2956515Y-5219182D01*
X2956516Y-5219189D01*
X2980805Y-5356935D01*
X3005550Y-5497272D01*
X3006905Y-5501443D01*
X3006907Y-5501450D01*
X3048972Y-5630912D01*
X3094167Y-5770006D01*
X3219879Y-6027753D01*
X3380238Y-6265496D01*
X3572125Y-6478608D01*
X3791803Y-6662940D01*
X4034998Y-6814905D01*
X4296975Y-6931545D01*
X4572636Y-7010589D01*
X4576986Y-7011200D01*
X4576989Y-7011201D01*
X4681342Y-7025867D01*
X4856615Y-7050500D01*
X5071604Y-7050500D01*
X5073790Y-7050347D01*
X5073794Y-7050347D01*
X5281686Y-7035810D01*
X5281691Y-7035809D01*
X5286071Y-7035503D01*
X5290365Y-7034590D01*
X5290367Y-7034590D01*
X5408984Y-7009377D01*
X5566575Y-6975880D01*
X5570706Y-6974376D01*
X5570711Y-6974375D01*
X5719135Y-6920353D01*
X5836050Y-6877799D01*
X5954337Y-6814905D01*
X6085361Y-6745239D01*
X6085367Y-6745235D01*
X6089253Y-6743169D01*
X6092813Y-6740582D01*
X6092817Y-6740580D01*
X6317691Y-6577199D01*
X6317694Y-6577197D01*
X6321254Y-6574610D01*
X6417738Y-6481437D01*
X6524374Y-6378460D01*
X6524378Y-6378455D01*
X6527539Y-6375403D01*
X6610853Y-6268767D01*
X6701381Y-6152896D01*
X6704093Y-6149425D01*
X6743478Y-6081208D01*
X6845276Y-5904888D01*
X6845278Y-5904883D01*
X6847477Y-5901075D01*
X6954903Y-5635187D01*
X7024279Y-5356935D01*
X7054255Y-5071736D01*
X7052708Y-5027426D01*
X7049245Y-4928264D01*
X47945745Y-4928264D01*
X47945898Y-4932652D01*
X47945898Y-4932658D01*
X47950908Y-5076105D01*
X47955753Y-5214859D01*
X47956515Y-5219182D01*
X47956516Y-5219189D01*
X47980805Y-5356935D01*
X48005550Y-5497272D01*
X48006905Y-5501443D01*
X48006907Y-5501450D01*
X48048972Y-5630912D01*
X48094167Y-5770006D01*
X48219879Y-6027753D01*
X48380238Y-6265496D01*
X48572125Y-6478608D01*
X48791803Y-6662940D01*
X49034998Y-6814905D01*
X49296975Y-6931545D01*
X49572636Y-7010589D01*
X49576986Y-7011200D01*
X49576989Y-7011201D01*
X49681342Y-7025867D01*
X49856615Y-7050500D01*
X50071604Y-7050500D01*
X50073790Y-7050347D01*
X50073794Y-7050347D01*
X50281686Y-7035810D01*
X50281691Y-7035809D01*
X50286071Y-7035503D01*
X50290365Y-7034590D01*
X50290367Y-7034590D01*
X50408984Y-7009377D01*
X50566575Y-6975880D01*
X50570706Y-6974376D01*
X50570711Y-6974375D01*
X50719135Y-6920353D01*
X50836050Y-6877799D01*
X50954337Y-6814905D01*
X51085361Y-6745239D01*
X51085367Y-6745235D01*
X51089253Y-6743169D01*
X51092813Y-6740582D01*
X51092817Y-6740580D01*
X51317691Y-6577199D01*
X51317694Y-6577197D01*
X51321254Y-6574610D01*
X51417738Y-6481437D01*
X51524374Y-6378460D01*
X51524378Y-6378455D01*
X51527539Y-6375403D01*
X51610853Y-6268767D01*
X51701381Y-6152896D01*
X51704093Y-6149425D01*
X51743478Y-6081208D01*
X51845276Y-5904888D01*
X51845278Y-5904883D01*
X51847477Y-5901075D01*
X51954903Y-5635187D01*
X52024279Y-5356935D01*
X52054255Y-5071736D01*
X52052708Y-5027426D01*
X52044401Y-4789538D01*
X52044400Y-4789532D01*
X52044247Y-4785141D01*
X52040949Y-4766433D01*
X52001691Y-4543792D01*
X51994450Y-4502728D01*
X51993095Y-4498557D01*
X51993093Y-4498550D01*
X51942562Y-4343034D01*
X51905833Y-4229994D01*
X51889831Y-4197184D01*
X51806273Y-4025867D01*
X51780121Y-3972247D01*
X51619762Y-3734504D01*
X51427875Y-3521392D01*
X51208197Y-3337060D01*
X50965002Y-3185095D01*
X50703025Y-3068455D01*
X50427364Y-2989411D01*
X50423014Y-2988800D01*
X50423011Y-2988799D01*
X50318658Y-2974133D01*
X50143385Y-2949500D01*
X49928396Y-2949500D01*
X49926210Y-2949653D01*
X49926206Y-2949653D01*
X49718314Y-2964190D01*
X49718309Y-2964191D01*
X49713929Y-2964497D01*
X49709635Y-2965410D01*
X49709633Y-2965410D01*
X49668595Y-2974133D01*
X49433425Y-3024120D01*
X49429294Y-3025624D01*
X49429289Y-3025625D01*
X49311616Y-3068455D01*
X49163950Y-3122201D01*
X49160063Y-3124268D01*
X48914639Y-3254761D01*
X48914633Y-3254765D01*
X48910747Y-3256831D01*
X48907187Y-3259418D01*
X48907183Y-3259420D01*
X48796429Y-3339888D01*
X48678746Y-3425390D01*
X48675582Y-3428446D01*
X48675579Y-3428448D01*
X48475626Y-3621540D01*
X48475622Y-3621545D01*
X48472461Y-3624597D01*
X48469754Y-3628062D01*
X48469752Y-3628064D01*
X48386592Y-3734504D01*
X48295907Y-3850575D01*
X48265959Y-3902446D01*
X48227765Y-3968602D01*
X48152523Y-4098925D01*
X48045097Y-4364813D01*
X48044032Y-4369086D01*
X48044031Y-4369088D01*
X48018954Y-4469667D01*
X47975721Y-4643065D01*
X47975262Y-4647435D01*
X47975261Y-4647439D01*
X47955611Y-4834393D01*
X47945745Y-4928264D01*
X7049245Y-4928264D01*
X7044401Y-4789538D01*
X7044400Y-4789532D01*
X7044247Y-4785141D01*
X7040949Y-4766433D01*
X7001691Y-4543792D01*
X6994450Y-4502728D01*
X6993095Y-4498557D01*
X6993093Y-4498550D01*
X6942562Y-4343034D01*
X6905833Y-4229994D01*
X6889831Y-4197184D01*
X6806273Y-4025867D01*
X6780121Y-3972247D01*
X6642332Y-3767966D01*
X22368257Y-3767966D01*
X22398565Y-3902446D01*
X22401645Y-3912275D01*
X22481770Y-4109603D01*
X22486413Y-4118794D01*
X22597694Y-4300388D01*
X22603777Y-4308699D01*
X22743213Y-4469667D01*
X22750580Y-4476883D01*
X22914434Y-4612916D01*
X22922881Y-4618831D01*
X23106756Y-4726279D01*
X23116042Y-4730729D01*
X23315001Y-4806703D01*
X23324899Y-4809579D01*
X23428250Y-4830606D01*
X23442299Y-4829410D01*
X23446000Y-4819065D01*
X23446000Y-4818517D01*
X23954000Y-4818517D01*
X23958064Y-4832359D01*
X23971478Y-4834393D01*
X23978184Y-4833534D01*
X23988262Y-4831392D01*
X24192255Y-4770191D01*
X24201842Y-4766433D01*
X24393095Y-4672739D01*
X24401945Y-4667464D01*
X24575328Y-4543792D01*
X24583200Y-4537139D01*
X24734052Y-4386812D01*
X24740730Y-4378965D01*
X24865003Y-4206020D01*
X24870313Y-4197184D01*
X24888355Y-4160678D01*
X24936468Y-4108471D01*
X25005169Y-4090564D01*
X25072646Y-4112642D01*
X25109140Y-4152108D01*
X25109432Y-4152734D01*
X25239953Y-4339139D01*
X25400861Y-4500047D01*
X25587266Y-4630568D01*
X25592244Y-4632889D01*
X25592247Y-4632891D01*
X25660202Y-4664579D01*
X25793504Y-4726739D01*
X25798812Y-4728161D01*
X25798814Y-4728162D01*
X26007993Y-4784211D01*
X26007995Y-4784211D01*
X26013308Y-4785635D01*
X26240000Y-4805468D01*
X26466692Y-4785635D01*
X26472005Y-4784211D01*
X26472007Y-4784211D01*
X26681186Y-4728162D01*
X26681188Y-4728161D01*
X26686496Y-4726739D01*
X26819798Y-4664579D01*
X26887753Y-4632891D01*
X26887756Y-4632889D01*
X26892734Y-4630568D01*
X27079139Y-4500047D01*
X27240047Y-4339139D01*
X27370568Y-4152734D01*
X27395805Y-4098613D01*
X27442722Y-4045328D01*
X27511000Y-4025867D01*
X27578959Y-4046409D01*
X27624195Y-4098612D01*
X27649432Y-4152734D01*
X27779953Y-4339139D01*
X27940861Y-4500047D01*
X28127266Y-4630568D01*
X28132244Y-4632889D01*
X28132247Y-4632891D01*
X28200202Y-4664579D01*
X28333504Y-4726739D01*
X28338812Y-4728161D01*
X28338814Y-4728162D01*
X28547993Y-4784211D01*
X28547995Y-4784211D01*
X28553308Y-4785635D01*
X28780000Y-4805468D01*
X29006692Y-4785635D01*
X29012005Y-4784211D01*
X29012007Y-4784211D01*
X29221186Y-4728162D01*
X29221188Y-4728161D01*
X29226496Y-4726739D01*
X29359798Y-4664579D01*
X29427753Y-4632891D01*
X29427756Y-4632889D01*
X29432734Y-4630568D01*
X29619139Y-4500047D01*
X29780047Y-4339139D01*
X29790288Y-4324513D01*
X29845745Y-4280185D01*
X29916364Y-4272877D01*
X29979724Y-4304908D01*
X30015709Y-4366110D01*
X30019500Y-4396785D01*
X30019500Y-4403834D01*
X30022481Y-4435369D01*
X30067366Y-4563184D01*
X30072958Y-4570754D01*
X30072959Y-4570757D01*
X30117137Y-4630568D01*
X30147850Y-4672150D01*
X30155421Y-4677742D01*
X30249243Y-4747041D01*
X30249246Y-4747042D01*
X30256816Y-4752634D01*
X30384631Y-4797519D01*
X30392277Y-4798242D01*
X30392278Y-4798242D01*
X30398248Y-4798806D01*
X30416166Y-4800500D01*
X32223834Y-4800500D01*
X32241752Y-4798806D01*
X32247722Y-4798242D01*
X32247723Y-4798242D01*
X32255369Y-4797519D01*
X32383184Y-4752634D01*
X32390754Y-4747042D01*
X32390757Y-4747041D01*
X32484579Y-4677742D01*
X32492150Y-4672150D01*
X32522863Y-4630568D01*
X32567041Y-4570757D01*
X32567042Y-4570754D01*
X32572634Y-4563184D01*
X32617519Y-4435369D01*
X32620500Y-4403834D01*
X32620500Y-2596166D01*
X32617519Y-2564631D01*
X32572634Y-2436816D01*
X32567042Y-2429246D01*
X32567041Y-2429243D01*
X32497742Y-2335421D01*
X32492150Y-2327850D01*
X32418243Y-2273261D01*
X32390757Y-2252959D01*
X32390754Y-2252958D01*
X32383184Y-2247366D01*
X32255369Y-2202481D01*
X32247723Y-2201758D01*
X32247722Y-2201758D01*
X32241752Y-2201194D01*
X32223834Y-2199500D01*
X30416166Y-2199500D01*
X30398248Y-2201194D01*
X30392278Y-2201758D01*
X30392277Y-2201758D01*
X30384631Y-2202481D01*
X30256816Y-2247366D01*
X30249246Y-2252958D01*
X30249243Y-2252959D01*
X30221757Y-2273261D01*
X30147850Y-2327850D01*
X30142258Y-2335421D01*
X30072959Y-2429243D01*
X30072958Y-2429246D01*
X30067366Y-2436816D01*
X30022481Y-2564631D01*
X30019500Y-2596166D01*
X30019500Y-2603215D01*
X29999498Y-2671336D01*
X29945842Y-2717829D01*
X29875568Y-2727933D01*
X29810988Y-2698439D01*
X29790287Y-2675486D01*
X29780047Y-2660861D01*
X29619139Y-2499953D01*
X29432734Y-2369432D01*
X29427756Y-2367111D01*
X29427753Y-2367109D01*
X29231478Y-2275584D01*
X29231476Y-2275583D01*
X29226496Y-2273261D01*
X29221188Y-2271839D01*
X29221186Y-2271838D01*
X29012007Y-2215789D01*
X29012005Y-2215789D01*
X29006692Y-2214365D01*
X28780000Y-2194532D01*
X28553308Y-2214365D01*
X28547995Y-2215789D01*
X28547993Y-2215789D01*
X28338814Y-2271838D01*
X28338812Y-2271839D01*
X28333504Y-2273261D01*
X28328524Y-2275583D01*
X28328522Y-2275584D01*
X28132247Y-2367109D01*
X28132244Y-2367111D01*
X28127266Y-2369432D01*
X27940861Y-2499953D01*
X27779953Y-2660861D01*
X27649432Y-2847266D01*
X27647111Y-2852244D01*
X27647109Y-2852247D01*
X27624195Y-2901387D01*
X27577278Y-2954672D01*
X27509000Y-2974133D01*
X27441041Y-2953591D01*
X27395805Y-2901387D01*
X27372891Y-2852247D01*
X27372889Y-2852244D01*
X27370568Y-2847266D01*
X27240047Y-2660861D01*
X27079139Y-2499953D01*
X26892734Y-2369432D01*
X26887756Y-2367111D01*
X26887753Y-2367109D01*
X26691478Y-2275584D01*
X26691476Y-2275583D01*
X26686496Y-2273261D01*
X26681188Y-2271839D01*
X26681186Y-2271838D01*
X26472007Y-2215789D01*
X26472005Y-2215789D01*
X26466692Y-2214365D01*
X26240000Y-2194532D01*
X26013308Y-2214365D01*
X26007995Y-2215789D01*
X26007993Y-2215789D01*
X25798814Y-2271838D01*
X25798812Y-2271839D01*
X25793504Y-2273261D01*
X25788524Y-2275583D01*
X25788522Y-2275584D01*
X25592247Y-2367109D01*
X25592244Y-2367111D01*
X25587266Y-2369432D01*
X25400861Y-2499953D01*
X25239953Y-2660861D01*
X25111144Y-2844821D01*
X25111142Y-2844823D01*
X25109432Y-2847266D01*
X25108941Y-2846922D01*
X25060321Y-2893276D01*
X24990606Y-2906708D01*
X24924697Y-2880317D01*
X24896799Y-2849719D01*
X24782427Y-2672926D01*
X24776136Y-2664757D01*
X24632806Y-2507240D01*
X24625273Y-2500215D01*
X24458139Y-2368222D01*
X24449552Y-2362517D01*
X24263117Y-2259599D01*
X24253705Y-2255369D01*
X24052959Y-2184280D01*
X24042988Y-2181646D01*
X23971837Y-2168972D01*
X23958540Y-2170432D01*
X23954000Y-2184989D01*
X23954000Y-4818517D01*
X23446000Y-4818517D01*
X23446000Y-3772115D01*
X23441525Y-3756876D01*
X23440135Y-3755671D01*
X23432452Y-3754000D01*
X22383225Y-3754000D01*
X22369694Y-3757973D01*
X22368257Y-3767966D01*
X6642332Y-3767966D01*
X6619762Y-3734504D01*
X6427875Y-3521392D01*
X6208197Y-3337060D01*
X6043559Y-3234183D01*
X22364389Y-3234183D01*
X22365912Y-3242607D01*
X22378292Y-3246000D01*
X23427885Y-3246000D01*
X23443124Y-3241525D01*
X23444329Y-3240135D01*
X23446000Y-3232452D01*
X23446000Y-2183102D01*
X23442082Y-2169758D01*
X23427806Y-2167771D01*
X23389324Y-2173660D01*
X23379288Y-2176051D01*
X23176868Y-2242212D01*
X23167359Y-2246209D01*
X22978463Y-2344542D01*
X22969738Y-2350036D01*
X22799433Y-2477905D01*
X22791726Y-2484748D01*
X22644590Y-2638717D01*
X22638104Y-2646727D01*
X22518098Y-2822649D01*
X22513000Y-2831623D01*
X22423338Y-3024783D01*
X22419775Y-3034470D01*
X22364389Y-3234183D01*
X6043559Y-3234183D01*
X5965002Y-3185095D01*
X5703025Y-3068455D01*
X5427364Y-2989411D01*
X5423014Y-2988800D01*
X5423011Y-2988799D01*
X5318658Y-2974133D01*
X5143385Y-2949500D01*
X4928396Y-2949500D01*
X4926210Y-2949653D01*
X4926206Y-2949653D01*
X4718314Y-2964190D01*
X4718309Y-2964191D01*
X4713929Y-2964497D01*
X4709635Y-2965410D01*
X4709633Y-2965410D01*
X4668595Y-2974133D01*
X4433425Y-3024120D01*
X4429294Y-3025624D01*
X4429289Y-3025625D01*
X4311616Y-3068455D01*
X4163950Y-3122201D01*
X4160063Y-3124268D01*
X3914639Y-3254761D01*
X3914633Y-3254765D01*
X3910747Y-3256831D01*
X3907187Y-3259418D01*
X3907183Y-3259420D01*
X3796429Y-3339888D01*
X3678746Y-3425390D01*
X3675582Y-3428446D01*
X3675579Y-3428448D01*
X3475626Y-3621540D01*
X3475622Y-3621545D01*
X3472461Y-3624597D01*
X3469754Y-3628062D01*
X3469752Y-3628064D01*
X3386592Y-3734504D01*
X3295907Y-3850575D01*
X3265959Y-3902446D01*
X3227765Y-3968602D01*
X3152523Y-4098925D01*
X3045097Y-4364813D01*
X3044032Y-4369086D01*
X3044031Y-4369088D01*
X3018954Y-4469667D01*
X2975721Y-4643065D01*
X2975262Y-4647435D01*
X2975261Y-4647439D01*
X2955611Y-4834393D01*
X2945745Y-4928264D01*
X1453525Y-4928264D01*
X1466791Y-4658217D01*
X1468002Y-4645916D01*
X1469059Y-4638794D01*
X1517304Y-4313553D01*
X1519715Y-4301428D01*
X1601358Y-3975495D01*
X1604947Y-3963663D01*
X1718143Y-3647302D01*
X1722875Y-3635878D01*
X1866534Y-3332136D01*
X1872363Y-3321231D01*
X1919489Y-3242607D01*
X1991657Y-3122201D01*
X2045103Y-3033032D01*
X2051973Y-3022751D01*
X2252126Y-2752876D01*
X2259970Y-2743318D01*
X2485614Y-2494358D01*
X2494358Y-2485614D01*
X2743318Y-2259970D01*
X2752876Y-2252126D01*
X3022751Y-2051973D01*
X3033032Y-2045103D01*
X3321231Y-1872363D01*
X3332136Y-1866534D01*
X3366298Y-1850377D01*
X3468063Y-1802245D01*
X3635878Y-1722875D01*
X3647302Y-1718143D01*
X3963663Y-1604947D01*
X3975495Y-1601358D01*
X4205634Y-1543710D01*
X4301431Y-1519714D01*
X4313553Y-1517304D01*
X4645921Y-1468001D01*
X4658215Y-1466791D01*
X4960504Y-1451940D01*
X4984312Y-1453196D01*
X4985573Y-1453211D01*
X4994446Y-1454593D01*
X5003348Y-1453429D01*
X5003351Y-1453429D01*
X5021434Y-1451064D01*
X5037771Y-1450000D01*
X49955196Y-1450000D01*
X49974581Y-1451500D01*
G37*
%TD.AperFunction*%
%TD*%
M02*
