%TF.GenerationSoftware,KiCad,Pcbnew,(6.0.2)*%
%TF.CreationDate,2022-03-01T12:56:46-05:00*%
%TF.ProjectId,shutter_tester,73687574-7465-4725-9f74-65737465722e,A*%
%TF.SameCoordinates,PX717cbc0PY57bcf00*%
%TF.FileFunction,Legend,Top*%
%TF.FilePolarity,Positive*%
%FSLAX46Y46*%
G04 Gerber Fmt 4.6, Leading zero omitted, Abs format (unit mm)*
G04 Created by KiCad (PCBNEW (6.0.2)) date 2022-03-01 12:56:46*
%MOMM*%
%LPD*%
G01*
G04 APERTURE LIST*
%ADD10C,0.214286*%
%ADD11C,0.150000*%
%ADD12C,0.120000*%
%ADD13C,0.010000*%
G04 APERTURE END LIST*
D10*
X22950000Y-8867857D02*
X22878571Y-9010714D01*
X22878571Y-9225000D01*
X22950000Y-9439285D01*
X23092857Y-9582143D01*
X23235714Y-9653571D01*
X23521428Y-9725000D01*
X23735714Y-9725000D01*
X24021428Y-9653571D01*
X24164285Y-9582143D01*
X24307142Y-9439285D01*
X24378571Y-9225000D01*
X24378571Y-9082143D01*
X24307142Y-8867857D01*
X24235714Y-8796428D01*
X23735714Y-8796428D01*
X23735714Y-9082143D01*
X24378571Y-8153571D02*
X22878571Y-8153571D01*
X24378571Y-7296428D01*
X22878571Y-7296428D01*
X24378571Y-6582143D02*
X22878571Y-6582143D01*
X22878571Y-6225000D01*
X22950000Y-6010714D01*
X23092857Y-5867857D01*
X23235714Y-5796428D01*
X23521428Y-5725000D01*
X23735714Y-5725000D01*
X24021428Y-5796428D01*
X24164285Y-5867857D01*
X24307142Y-6010714D01*
X24378571Y-6225000D01*
X24378571Y-6582143D01*
D11*
X2914285Y-9142857D02*
X2104761Y-9142857D01*
X2009523Y-9095238D01*
X1961904Y-9047619D01*
X1914285Y-8952380D01*
X1914285Y-8809523D01*
X1961904Y-8714285D01*
X2295238Y-9142857D02*
X2247619Y-9047619D01*
X2247619Y-8857142D01*
X2295238Y-8761904D01*
X2342857Y-8714285D01*
X2438095Y-8666666D01*
X2723809Y-8666666D01*
X2819047Y-8714285D01*
X2866666Y-8761904D01*
X2914285Y-8857142D01*
X2914285Y-9047619D01*
X2866666Y-9142857D01*
X2247619Y-9619047D02*
X2914285Y-9619047D01*
X3247619Y-9619047D02*
X3200000Y-9571428D01*
X3152380Y-9619047D01*
X3200000Y-9666666D01*
X3247619Y-9619047D01*
X3152380Y-9619047D01*
X2914285Y-9952380D02*
X2914285Y-10333333D01*
X3247619Y-10095238D02*
X2390476Y-10095238D01*
X2295238Y-10142857D01*
X2247619Y-10238095D01*
X2247619Y-10333333D01*
X2247619Y-10666666D02*
X3247619Y-10666666D01*
X2247619Y-11095238D02*
X2771428Y-11095238D01*
X2866666Y-11047619D01*
X2914285Y-10952380D01*
X2914285Y-10809523D01*
X2866666Y-10714285D01*
X2819047Y-10666666D01*
X2914285Y-11999999D02*
X2247619Y-11999999D01*
X2914285Y-11571428D02*
X2390476Y-11571428D01*
X2295238Y-11619047D01*
X2247619Y-11714285D01*
X2247619Y-11857142D01*
X2295238Y-11952380D01*
X2342857Y-11999999D01*
X2247619Y-12476190D02*
X3247619Y-12476190D01*
X2866666Y-12476190D02*
X2914285Y-12571428D01*
X2914285Y-12761904D01*
X2866666Y-12857142D01*
X2819047Y-12904761D01*
X2723809Y-12952380D01*
X2438095Y-12952380D01*
X2342857Y-12904761D01*
X2295238Y-12857142D01*
X2247619Y-12761904D01*
X2247619Y-12571428D01*
X2295238Y-12476190D01*
X2342857Y-13380952D02*
X2295238Y-13428571D01*
X2247619Y-13380952D01*
X2295238Y-13333333D01*
X2342857Y-13380952D01*
X2247619Y-13380952D01*
X2295238Y-14285714D02*
X2247619Y-14190476D01*
X2247619Y-13999999D01*
X2295238Y-13904761D01*
X2342857Y-13857142D01*
X2438095Y-13809523D01*
X2723809Y-13809523D01*
X2819047Y-13857142D01*
X2866666Y-13904761D01*
X2914285Y-13999999D01*
X2914285Y-14190476D01*
X2866666Y-14285714D01*
X2247619Y-14857142D02*
X2295238Y-14761904D01*
X2342857Y-14714285D01*
X2438095Y-14666666D01*
X2723809Y-14666666D01*
X2819047Y-14714285D01*
X2866666Y-14761904D01*
X2914285Y-14857142D01*
X2914285Y-14999999D01*
X2866666Y-15095238D01*
X2819047Y-15142857D01*
X2723809Y-15190476D01*
X2438095Y-15190476D01*
X2342857Y-15142857D01*
X2295238Y-15095238D01*
X2247619Y-14999999D01*
X2247619Y-14857142D01*
X2247619Y-15619047D02*
X2914285Y-15619047D01*
X2819047Y-15619047D02*
X2866666Y-15666666D01*
X2914285Y-15761904D01*
X2914285Y-15904761D01*
X2866666Y-15999999D01*
X2771428Y-16047619D01*
X2247619Y-16047619D01*
X2771428Y-16047619D02*
X2866666Y-16095238D01*
X2914285Y-16190476D01*
X2914285Y-16333333D01*
X2866666Y-16428571D01*
X2771428Y-16476190D01*
X2247619Y-16476190D01*
X3295238Y-17666666D02*
X2009523Y-16809523D01*
X2295238Y-17952380D02*
X2247619Y-18047619D01*
X2247619Y-18238095D01*
X2295238Y-18333333D01*
X2390476Y-18380952D01*
X2438095Y-18380952D01*
X2533333Y-18333333D01*
X2580952Y-18238095D01*
X2580952Y-18095238D01*
X2628571Y-17999999D01*
X2723809Y-17952380D01*
X2771428Y-17952380D01*
X2866666Y-17999999D01*
X2914285Y-18095238D01*
X2914285Y-18238095D01*
X2866666Y-18333333D01*
X2247619Y-19238095D02*
X3247619Y-19238095D01*
X2295238Y-19238095D02*
X2247619Y-19142857D01*
X2247619Y-18952380D01*
X2295238Y-18857142D01*
X2342857Y-18809523D01*
X2438095Y-18761904D01*
X2723809Y-18761904D01*
X2819047Y-18809523D01*
X2866666Y-18857142D01*
X2914285Y-18952380D01*
X2914285Y-19142857D01*
X2866666Y-19238095D01*
X2914285Y-19714285D02*
X1914285Y-19714285D01*
X2866666Y-19714285D02*
X2914285Y-19809523D01*
X2914285Y-19999999D01*
X2866666Y-20095238D01*
X2819047Y-20142857D01*
X2723809Y-20190476D01*
X2438095Y-20190476D01*
X2342857Y-20142857D01*
X2295238Y-20095238D01*
X2247619Y-19999999D01*
X2247619Y-19809523D01*
X2295238Y-19714285D01*
X2819047Y-20761904D02*
X2866666Y-20666666D01*
X2914285Y-20619047D01*
X3009523Y-20571428D01*
X3057142Y-20571428D01*
X3152380Y-20619047D01*
X3200000Y-20666666D01*
X3247619Y-20761904D01*
X3247619Y-20952380D01*
X3200000Y-21047619D01*
X3152380Y-21095238D01*
X3057142Y-21142857D01*
X3009523Y-21142857D01*
X2914285Y-21095238D01*
X2866666Y-21047619D01*
X2819047Y-20952380D01*
X2819047Y-20761904D01*
X2771428Y-20666666D01*
X2723809Y-20619047D01*
X2628571Y-20571428D01*
X2438095Y-20571428D01*
X2342857Y-20619047D01*
X2295238Y-20666666D01*
X2247619Y-20761904D01*
X2247619Y-20952380D01*
X2295238Y-21047619D01*
X2342857Y-21095238D01*
X2438095Y-21142857D01*
X2628571Y-21142857D01*
X2723809Y-21095238D01*
X2771428Y-21047619D01*
X2819047Y-20952380D01*
X2914285Y-21999999D02*
X2247619Y-21999999D01*
X3295238Y-21761904D02*
X2580952Y-21523809D01*
X2580952Y-22142857D01*
X2819047Y-22666666D02*
X2866666Y-22571428D01*
X2914285Y-22523809D01*
X3009523Y-22476190D01*
X3057142Y-22476190D01*
X3152380Y-22523809D01*
X3200000Y-22571428D01*
X3247619Y-22666666D01*
X3247619Y-22857142D01*
X3200000Y-22952380D01*
X3152380Y-22999999D01*
X3057142Y-23047619D01*
X3009523Y-23047619D01*
X2914285Y-22999999D01*
X2866666Y-22952380D01*
X2819047Y-22857142D01*
X2819047Y-22666666D01*
X2771428Y-22571428D01*
X2723809Y-22523809D01*
X2628571Y-22476190D01*
X2438095Y-22476190D01*
X2342857Y-22523809D01*
X2295238Y-22571428D01*
X2247619Y-22666666D01*
X2247619Y-22857142D01*
X2295238Y-22952380D01*
X2342857Y-22999999D01*
X2438095Y-23047619D01*
X2628571Y-23047619D01*
X2723809Y-22999999D01*
X2771428Y-22952380D01*
X2819047Y-22857142D01*
X3247619Y-23380952D02*
X3247619Y-23999999D01*
X2866666Y-23666666D01*
X2866666Y-23809523D01*
X2819047Y-23904761D01*
X2771428Y-23952380D01*
X2676190Y-23999999D01*
X2438095Y-23999999D01*
X2342857Y-23952380D01*
X2295238Y-23904761D01*
X2247619Y-23809523D01*
X2247619Y-23523809D01*
X2295238Y-23428571D01*
X2342857Y-23380952D01*
X3295238Y-25142857D02*
X2009523Y-24285714D01*
X2295238Y-25428571D02*
X2247619Y-25523809D01*
X2247619Y-25714285D01*
X2295238Y-25809523D01*
X2390476Y-25857142D01*
X2438095Y-25857142D01*
X2533333Y-25809523D01*
X2580952Y-25714285D01*
X2580952Y-25571428D01*
X2628571Y-25476190D01*
X2723809Y-25428571D01*
X2771428Y-25428571D01*
X2866666Y-25476190D01*
X2914285Y-25571428D01*
X2914285Y-25714285D01*
X2866666Y-25809523D01*
X2247619Y-26285714D02*
X3247619Y-26285714D01*
X2247619Y-26714285D02*
X2771428Y-26714285D01*
X2866666Y-26666666D01*
X2914285Y-26571428D01*
X2914285Y-26428571D01*
X2866666Y-26333333D01*
X2819047Y-26285714D01*
X2914285Y-27619047D02*
X2247619Y-27619047D01*
X2914285Y-27190476D02*
X2390476Y-27190476D01*
X2295238Y-27238095D01*
X2247619Y-27333333D01*
X2247619Y-27476190D01*
X2295238Y-27571428D01*
X2342857Y-27619047D01*
X2914285Y-27952380D02*
X2914285Y-28333333D01*
X3247619Y-28095238D02*
X2390476Y-28095238D01*
X2295238Y-28142857D01*
X2247619Y-28238095D01*
X2247619Y-28333333D01*
X2914285Y-28523809D02*
X2914285Y-28904761D01*
X3247619Y-28666666D02*
X2390476Y-28666666D01*
X2295238Y-28714285D01*
X2247619Y-28809523D01*
X2247619Y-28904761D01*
X2295238Y-29619047D02*
X2247619Y-29523809D01*
X2247619Y-29333333D01*
X2295238Y-29238095D01*
X2390476Y-29190476D01*
X2771428Y-29190476D01*
X2866666Y-29238095D01*
X2914285Y-29333333D01*
X2914285Y-29523809D01*
X2866666Y-29619047D01*
X2771428Y-29666666D01*
X2676190Y-29666666D01*
X2580952Y-29190476D01*
X2247619Y-30095238D02*
X2914285Y-30095238D01*
X2723809Y-30095238D02*
X2819047Y-30142857D01*
X2866666Y-30190476D01*
X2914285Y-30285714D01*
X2914285Y-30380952D01*
X2152380Y-30476190D02*
X2152380Y-31238095D01*
X2914285Y-31333333D02*
X2914285Y-31714285D01*
X3247619Y-31476190D02*
X2390476Y-31476190D01*
X2295238Y-31523809D01*
X2247619Y-31619047D01*
X2247619Y-31714285D01*
X2295238Y-32428571D02*
X2247619Y-32333333D01*
X2247619Y-32142857D01*
X2295238Y-32047619D01*
X2390476Y-31999999D01*
X2771428Y-31999999D01*
X2866666Y-32047619D01*
X2914285Y-32142857D01*
X2914285Y-32333333D01*
X2866666Y-32428571D01*
X2771428Y-32476190D01*
X2676190Y-32476190D01*
X2580952Y-31999999D01*
X2295238Y-32857142D02*
X2247619Y-32952380D01*
X2247619Y-33142857D01*
X2295238Y-33238095D01*
X2390476Y-33285714D01*
X2438095Y-33285714D01*
X2533333Y-33238095D01*
X2580952Y-33142857D01*
X2580952Y-32999999D01*
X2628571Y-32904761D01*
X2723809Y-32857142D01*
X2771428Y-32857142D01*
X2866666Y-32904761D01*
X2914285Y-32999999D01*
X2914285Y-33142857D01*
X2866666Y-33238095D01*
X2914285Y-33571428D02*
X2914285Y-33952380D01*
X3247619Y-33714285D02*
X2390476Y-33714285D01*
X2295238Y-33761904D01*
X2247619Y-33857142D01*
X2247619Y-33952380D01*
X2295238Y-34666666D02*
X2247619Y-34571428D01*
X2247619Y-34380952D01*
X2295238Y-34285714D01*
X2390476Y-34238095D01*
X2771428Y-34238095D01*
X2866666Y-34285714D01*
X2914285Y-34380952D01*
X2914285Y-34571428D01*
X2866666Y-34666666D01*
X2771428Y-34714285D01*
X2676190Y-34714285D01*
X2580952Y-34238095D01*
X2247619Y-35142857D02*
X2914285Y-35142857D01*
X2723809Y-35142857D02*
X2819047Y-35190476D01*
X2866666Y-35238095D01*
X2914285Y-35333333D01*
X2914285Y-35428571D01*
D10*
X26142857Y-6132143D02*
X26214285Y-5917857D01*
X26285714Y-5846428D01*
X26428571Y-5775000D01*
X26642857Y-5775000D01*
X26785714Y-5846428D01*
X26857142Y-5917857D01*
X26928571Y-6060714D01*
X26928571Y-6632143D01*
X25428571Y-6632143D01*
X25428571Y-6132143D01*
X25500000Y-5989285D01*
X25571428Y-5917857D01*
X25714285Y-5846428D01*
X25857142Y-5846428D01*
X26000000Y-5917857D01*
X26071428Y-5989285D01*
X26142857Y-6132143D01*
X26142857Y-6632143D01*
X29000000Y-6439285D02*
X29000000Y-5725000D01*
X29428571Y-6582143D02*
X27928571Y-6082143D01*
X29428571Y-5582143D01*
X30478571Y-7082143D02*
X30478571Y-7796428D01*
X31192857Y-7867857D01*
X31121428Y-7796428D01*
X31050000Y-7653571D01*
X31050000Y-7296428D01*
X31121428Y-7153571D01*
X31192857Y-7082143D01*
X31335714Y-7010714D01*
X31692857Y-7010714D01*
X31835714Y-7082143D01*
X31907142Y-7153571D01*
X31978571Y-7296428D01*
X31978571Y-7653571D01*
X31907142Y-7796428D01*
X31835714Y-7867857D01*
X30478571Y-6582143D02*
X31978571Y-6082143D01*
X30478571Y-5582143D01*
D11*
X52602380Y-26261904D02*
X51602380Y-26261904D01*
X52316666Y-25928571D01*
X51602380Y-25595238D01*
X52602380Y-25595238D01*
X52602380Y-24690476D02*
X52078571Y-24690476D01*
X51983333Y-24738095D01*
X51935714Y-24833333D01*
X51935714Y-25023809D01*
X51983333Y-25119047D01*
X52554761Y-24690476D02*
X52602380Y-24785714D01*
X52602380Y-25023809D01*
X52554761Y-25119047D01*
X52459523Y-25166666D01*
X52364285Y-25166666D01*
X52269047Y-25119047D01*
X52221428Y-25023809D01*
X52221428Y-24785714D01*
X52173809Y-24690476D01*
X52602380Y-24214285D02*
X51935714Y-24214285D01*
X52126190Y-24214285D02*
X52030952Y-24166666D01*
X51983333Y-24119047D01*
X51935714Y-24023809D01*
X51935714Y-23928571D01*
X52554761Y-23166666D02*
X52602380Y-23261904D01*
X52602380Y-23452380D01*
X52554761Y-23547619D01*
X52507142Y-23595238D01*
X52411904Y-23642857D01*
X52126190Y-23642857D01*
X52030952Y-23595238D01*
X51983333Y-23547619D01*
X51935714Y-23452380D01*
X51935714Y-23261904D01*
X51983333Y-23166666D01*
X52602380Y-22738095D02*
X51602380Y-22738095D01*
X52602380Y-22309523D02*
X52078571Y-22309523D01*
X51983333Y-22357142D01*
X51935714Y-22452380D01*
X51935714Y-22595238D01*
X51983333Y-22690476D01*
X52030952Y-22738095D01*
X51697619Y-21119047D02*
X51650000Y-21071428D01*
X51602380Y-20976190D01*
X51602380Y-20738095D01*
X51650000Y-20642857D01*
X51697619Y-20595238D01*
X51792857Y-20547619D01*
X51888095Y-20547619D01*
X52030952Y-20595238D01*
X52602380Y-21166666D01*
X52602380Y-20547619D01*
X51602380Y-19928571D02*
X51602380Y-19833333D01*
X51650000Y-19738095D01*
X51697619Y-19690476D01*
X51792857Y-19642857D01*
X51983333Y-19595238D01*
X52221428Y-19595238D01*
X52411904Y-19642857D01*
X52507142Y-19690476D01*
X52554761Y-19738095D01*
X52602380Y-19833333D01*
X52602380Y-19928571D01*
X52554761Y-20023809D01*
X52507142Y-20071428D01*
X52411904Y-20119047D01*
X52221428Y-20166666D01*
X51983333Y-20166666D01*
X51792857Y-20119047D01*
X51697619Y-20071428D01*
X51650000Y-20023809D01*
X51602380Y-19928571D01*
X51697619Y-19214285D02*
X51650000Y-19166666D01*
X51602380Y-19071428D01*
X51602380Y-18833333D01*
X51650000Y-18738095D01*
X51697619Y-18690476D01*
X51792857Y-18642857D01*
X51888095Y-18642857D01*
X52030952Y-18690476D01*
X52602380Y-19261904D01*
X52602380Y-18642857D01*
X51697619Y-18261904D02*
X51650000Y-18214285D01*
X51602380Y-18119047D01*
X51602380Y-17880952D01*
X51650000Y-17785714D01*
X51697619Y-17738095D01*
X51792857Y-17690476D01*
X51888095Y-17690476D01*
X52030952Y-17738095D01*
X52602380Y-18309523D01*
X52602380Y-17690476D01*
D10*
X15228571Y-41207142D02*
X15442857Y-41278571D01*
X15800000Y-41278571D01*
X15942857Y-41207142D01*
X16014285Y-41135714D01*
X16085714Y-40992857D01*
X16085714Y-40850000D01*
X16014285Y-40707142D01*
X15942857Y-40635714D01*
X15800000Y-40564285D01*
X15514285Y-40492857D01*
X15371428Y-40421428D01*
X15300000Y-40350000D01*
X15228571Y-40207142D01*
X15228571Y-40064285D01*
X15300000Y-39921428D01*
X15371428Y-39850000D01*
X15514285Y-39778571D01*
X15871428Y-39778571D01*
X16085714Y-39850000D01*
X16728571Y-41278571D02*
X16728571Y-39778571D01*
X17371428Y-41278571D02*
X17371428Y-40492857D01*
X17300000Y-40350000D01*
X17157142Y-40278571D01*
X16942857Y-40278571D01*
X16800000Y-40350000D01*
X16728571Y-40421428D01*
X18728571Y-40278571D02*
X18728571Y-41278571D01*
X18085714Y-40278571D02*
X18085714Y-41064285D01*
X18157142Y-41207142D01*
X18300000Y-41278571D01*
X18514285Y-41278571D01*
X18657142Y-41207142D01*
X18728571Y-41135714D01*
X19228571Y-40278571D02*
X19800000Y-40278571D01*
X19442857Y-39778571D02*
X19442857Y-41064285D01*
X19514285Y-41207142D01*
X19657142Y-41278571D01*
X19800000Y-41278571D01*
X20085714Y-40278571D02*
X20657142Y-40278571D01*
X20300000Y-39778571D02*
X20300000Y-41064285D01*
X20371428Y-41207142D01*
X20514285Y-41278571D01*
X20657142Y-41278571D01*
X21728571Y-41207142D02*
X21585714Y-41278571D01*
X21300000Y-41278571D01*
X21157142Y-41207142D01*
X21085714Y-41064285D01*
X21085714Y-40492857D01*
X21157142Y-40350000D01*
X21300000Y-40278571D01*
X21585714Y-40278571D01*
X21728571Y-40350000D01*
X21800000Y-40492857D01*
X21800000Y-40635714D01*
X21085714Y-40778571D01*
X22442857Y-41278571D02*
X22442857Y-40278571D01*
X22442857Y-40564285D02*
X22514285Y-40421428D01*
X22585714Y-40350000D01*
X22728571Y-40278571D01*
X22871428Y-40278571D01*
X24300000Y-39778571D02*
X25157142Y-39778571D01*
X24728571Y-41278571D02*
X24728571Y-39778571D01*
X25657142Y-41278571D02*
X25657142Y-40278571D01*
X25657142Y-39778571D02*
X25585714Y-39850000D01*
X25657142Y-39921428D01*
X25728571Y-39850000D01*
X25657142Y-39778571D01*
X25657142Y-39921428D01*
X26371428Y-41278571D02*
X26371428Y-40278571D01*
X26371428Y-40421428D02*
X26442857Y-40350000D01*
X26585714Y-40278571D01*
X26800000Y-40278571D01*
X26942857Y-40350000D01*
X27014285Y-40492857D01*
X27014285Y-41278571D01*
X27014285Y-40492857D02*
X27085714Y-40350000D01*
X27228571Y-40278571D01*
X27442857Y-40278571D01*
X27585714Y-40350000D01*
X27657142Y-40492857D01*
X27657142Y-41278571D01*
X28371428Y-41278571D02*
X28371428Y-40278571D01*
X28371428Y-39778571D02*
X28300000Y-39850000D01*
X28371428Y-39921428D01*
X28442857Y-39850000D01*
X28371428Y-39778571D01*
X28371428Y-39921428D01*
X29085714Y-40278571D02*
X29085714Y-41278571D01*
X29085714Y-40421428D02*
X29157142Y-40350000D01*
X29300000Y-40278571D01*
X29514285Y-40278571D01*
X29657142Y-40350000D01*
X29728571Y-40492857D01*
X29728571Y-41278571D01*
X31085714Y-40278571D02*
X31085714Y-41492857D01*
X31014285Y-41635714D01*
X30942857Y-41707142D01*
X30800000Y-41778571D01*
X30585714Y-41778571D01*
X30442857Y-41707142D01*
X31085714Y-41207142D02*
X30942857Y-41278571D01*
X30657142Y-41278571D01*
X30514285Y-41207142D01*
X30442857Y-41135714D01*
X30371428Y-40992857D01*
X30371428Y-40564285D01*
X30442857Y-40421428D01*
X30514285Y-40350000D01*
X30657142Y-40278571D01*
X30942857Y-40278571D01*
X31085714Y-40350000D01*
X32871428Y-41207142D02*
X33085714Y-41278571D01*
X33442857Y-41278571D01*
X33585714Y-41207142D01*
X33657142Y-41135714D01*
X33728571Y-40992857D01*
X33728571Y-40850000D01*
X33657142Y-40707142D01*
X33585714Y-40635714D01*
X33442857Y-40564285D01*
X33157142Y-40492857D01*
X33014285Y-40421428D01*
X32942857Y-40350000D01*
X32871428Y-40207142D01*
X32871428Y-40064285D01*
X32942857Y-39921428D01*
X33014285Y-39850000D01*
X33157142Y-39778571D01*
X33514285Y-39778571D01*
X33728571Y-39850000D01*
X34942857Y-41207142D02*
X34800000Y-41278571D01*
X34514285Y-41278571D01*
X34371428Y-41207142D01*
X34300000Y-41064285D01*
X34300000Y-40492857D01*
X34371428Y-40350000D01*
X34514285Y-40278571D01*
X34800000Y-40278571D01*
X34942857Y-40350000D01*
X35014285Y-40492857D01*
X35014285Y-40635714D01*
X34300000Y-40778571D01*
X35657142Y-40278571D02*
X35657142Y-41278571D01*
X35657142Y-40421428D02*
X35728571Y-40350000D01*
X35871428Y-40278571D01*
X36085714Y-40278571D01*
X36228571Y-40350000D01*
X36300000Y-40492857D01*
X36300000Y-41278571D01*
X36942857Y-41207142D02*
X37085714Y-41278571D01*
X37371428Y-41278571D01*
X37514285Y-41207142D01*
X37585714Y-41064285D01*
X37585714Y-40992857D01*
X37514285Y-40850000D01*
X37371428Y-40778571D01*
X37157142Y-40778571D01*
X37014285Y-40707142D01*
X36942857Y-40564285D01*
X36942857Y-40492857D01*
X37014285Y-40350000D01*
X37157142Y-40278571D01*
X37371428Y-40278571D01*
X37514285Y-40350000D01*
X38442857Y-41278571D02*
X38300000Y-41207142D01*
X38228571Y-41135714D01*
X38157142Y-40992857D01*
X38157142Y-40564285D01*
X38228571Y-40421428D01*
X38300000Y-40350000D01*
X38442857Y-40278571D01*
X38657142Y-40278571D01*
X38800000Y-40350000D01*
X38871428Y-40421428D01*
X38942857Y-40564285D01*
X38942857Y-40992857D01*
X38871428Y-41135714D01*
X38800000Y-41207142D01*
X38657142Y-41278571D01*
X38442857Y-41278571D01*
X39585714Y-41278571D02*
X39585714Y-40278571D01*
X39585714Y-40564285D02*
X39657142Y-40421428D01*
X39728571Y-40350000D01*
X39871428Y-40278571D01*
X40014285Y-40278571D01*
D11*
%TO.C,R1*%
X25052380Y-23366666D02*
X24576190Y-23700000D01*
X25052380Y-23938095D02*
X24052380Y-23938095D01*
X24052380Y-23557142D01*
X24100000Y-23461904D01*
X24147619Y-23414285D01*
X24242857Y-23366666D01*
X24385714Y-23366666D01*
X24480952Y-23414285D01*
X24528571Y-23461904D01*
X24576190Y-23557142D01*
X24576190Y-23938095D01*
X25052380Y-22414285D02*
X25052380Y-22985714D01*
X25052380Y-22700000D02*
X24052380Y-22700000D01*
X24195238Y-22795238D01*
X24290476Y-22890476D01*
X24338095Y-22985714D01*
%TO.C,R2*%
X17852380Y-23566666D02*
X17376190Y-23900000D01*
X17852380Y-24138095D02*
X16852380Y-24138095D01*
X16852380Y-23757142D01*
X16900000Y-23661904D01*
X16947619Y-23614285D01*
X17042857Y-23566666D01*
X17185714Y-23566666D01*
X17280952Y-23614285D01*
X17328571Y-23661904D01*
X17376190Y-23757142D01*
X17376190Y-24138095D01*
X16947619Y-23185714D02*
X16900000Y-23138095D01*
X16852380Y-23042857D01*
X16852380Y-22804761D01*
X16900000Y-22709523D01*
X16947619Y-22661904D01*
X17042857Y-22614285D01*
X17138095Y-22614285D01*
X17280952Y-22661904D01*
X17852380Y-23233333D01*
X17852380Y-22614285D01*
%TO.C,U1*%
X26738095Y-10952380D02*
X26738095Y-11761904D01*
X26785714Y-11857142D01*
X26833333Y-11904761D01*
X26928571Y-11952380D01*
X27119047Y-11952380D01*
X27214285Y-11904761D01*
X27261904Y-11857142D01*
X27309523Y-11761904D01*
X27309523Y-10952380D01*
X28309523Y-11952380D02*
X27738095Y-11952380D01*
X28023809Y-11952380D02*
X28023809Y-10952380D01*
X27928571Y-11095238D01*
X27833333Y-11190476D01*
X27738095Y-11238095D01*
%TO.C,R6*%
X19252380Y-17816666D02*
X18776190Y-18150000D01*
X19252380Y-18388095D02*
X18252380Y-18388095D01*
X18252380Y-18007142D01*
X18300000Y-17911904D01*
X18347619Y-17864285D01*
X18442857Y-17816666D01*
X18585714Y-17816666D01*
X18680952Y-17864285D01*
X18728571Y-17911904D01*
X18776190Y-18007142D01*
X18776190Y-18388095D01*
X18252380Y-16959523D02*
X18252380Y-17150000D01*
X18300000Y-17245238D01*
X18347619Y-17292857D01*
X18490476Y-17388095D01*
X18680952Y-17435714D01*
X19061904Y-17435714D01*
X19157142Y-17388095D01*
X19204761Y-17340476D01*
X19252380Y-17245238D01*
X19252380Y-17054761D01*
X19204761Y-16959523D01*
X19157142Y-16911904D01*
X19061904Y-16864285D01*
X18823809Y-16864285D01*
X18728571Y-16911904D01*
X18680952Y-16959523D01*
X18633333Y-17054761D01*
X18633333Y-17245238D01*
X18680952Y-17340476D01*
X18728571Y-17388095D01*
X18823809Y-17435714D01*
%TO.C,R5*%
X16052380Y-17616666D02*
X15576190Y-17950000D01*
X16052380Y-18188095D02*
X15052380Y-18188095D01*
X15052380Y-17807142D01*
X15100000Y-17711904D01*
X15147619Y-17664285D01*
X15242857Y-17616666D01*
X15385714Y-17616666D01*
X15480952Y-17664285D01*
X15528571Y-17711904D01*
X15576190Y-17807142D01*
X15576190Y-18188095D01*
X15052380Y-16711904D02*
X15052380Y-17188095D01*
X15528571Y-17235714D01*
X15480952Y-17188095D01*
X15433333Y-17092857D01*
X15433333Y-16854761D01*
X15480952Y-16759523D01*
X15528571Y-16711904D01*
X15623809Y-16664285D01*
X15861904Y-16664285D01*
X15957142Y-16711904D01*
X16004761Y-16759523D01*
X16052380Y-16854761D01*
X16052380Y-17092857D01*
X16004761Y-17188095D01*
X15957142Y-17235714D01*
%TO.C,R3*%
X22452380Y-17716666D02*
X21976190Y-18050000D01*
X22452380Y-18288095D02*
X21452380Y-18288095D01*
X21452380Y-17907142D01*
X21500000Y-17811904D01*
X21547619Y-17764285D01*
X21642857Y-17716666D01*
X21785714Y-17716666D01*
X21880952Y-17764285D01*
X21928571Y-17811904D01*
X21976190Y-17907142D01*
X21976190Y-18288095D01*
X21452380Y-17383333D02*
X21452380Y-16764285D01*
X21833333Y-17097619D01*
X21833333Y-16954761D01*
X21880952Y-16859523D01*
X21928571Y-16811904D01*
X22023809Y-16764285D01*
X22261904Y-16764285D01*
X22357142Y-16811904D01*
X22404761Y-16859523D01*
X22452380Y-16954761D01*
X22452380Y-17240476D01*
X22404761Y-17335714D01*
X22357142Y-17383333D01*
%TO.C,C1*%
X36607142Y-9366666D02*
X36654761Y-9414285D01*
X36702380Y-9557142D01*
X36702380Y-9652380D01*
X36654761Y-9795238D01*
X36559523Y-9890476D01*
X36464285Y-9938095D01*
X36273809Y-9985714D01*
X36130952Y-9985714D01*
X35940476Y-9938095D01*
X35845238Y-9890476D01*
X35750000Y-9795238D01*
X35702380Y-9652380D01*
X35702380Y-9557142D01*
X35750000Y-9414285D01*
X35797619Y-9366666D01*
X36702380Y-8414285D02*
X36702380Y-8985714D01*
X36702380Y-8700000D02*
X35702380Y-8700000D01*
X35845238Y-8795238D01*
X35940476Y-8890476D01*
X35988095Y-8985714D01*
%TO.C,R4*%
X33402380Y-19216666D02*
X32926190Y-19550000D01*
X33402380Y-19788095D02*
X32402380Y-19788095D01*
X32402380Y-19407142D01*
X32450000Y-19311904D01*
X32497619Y-19264285D01*
X32592857Y-19216666D01*
X32735714Y-19216666D01*
X32830952Y-19264285D01*
X32878571Y-19311904D01*
X32926190Y-19407142D01*
X32926190Y-19788095D01*
X32735714Y-18359523D02*
X33402380Y-18359523D01*
X32354761Y-18597619D02*
X33069047Y-18835714D01*
X33069047Y-18216666D01*
%TO.C,R7*%
X20402380Y-33316666D02*
X19926190Y-33650000D01*
X20402380Y-33888095D02*
X19402380Y-33888095D01*
X19402380Y-33507142D01*
X19450000Y-33411904D01*
X19497619Y-33364285D01*
X19592857Y-33316666D01*
X19735714Y-33316666D01*
X19830952Y-33364285D01*
X19878571Y-33411904D01*
X19926190Y-33507142D01*
X19926190Y-33888095D01*
X19402380Y-32983333D02*
X19402380Y-32316666D01*
X20402380Y-32745238D01*
%TO.C,R8*%
X22902380Y-33266666D02*
X22426190Y-33600000D01*
X22902380Y-33838095D02*
X21902380Y-33838095D01*
X21902380Y-33457142D01*
X21950000Y-33361904D01*
X21997619Y-33314285D01*
X22092857Y-33266666D01*
X22235714Y-33266666D01*
X22330952Y-33314285D01*
X22378571Y-33361904D01*
X22426190Y-33457142D01*
X22426190Y-33838095D01*
X22330952Y-32695238D02*
X22283333Y-32790476D01*
X22235714Y-32838095D01*
X22140476Y-32885714D01*
X22092857Y-32885714D01*
X21997619Y-32838095D01*
X21950000Y-32790476D01*
X21902380Y-32695238D01*
X21902380Y-32504761D01*
X21950000Y-32409523D01*
X21997619Y-32361904D01*
X22092857Y-32314285D01*
X22140476Y-32314285D01*
X22235714Y-32361904D01*
X22283333Y-32409523D01*
X22330952Y-32504761D01*
X22330952Y-32695238D01*
X22378571Y-32790476D01*
X22426190Y-32838095D01*
X22521428Y-32885714D01*
X22711904Y-32885714D01*
X22807142Y-32838095D01*
X22854761Y-32790476D01*
X22902380Y-32695238D01*
X22902380Y-32504761D01*
X22854761Y-32409523D01*
X22807142Y-32361904D01*
X22711904Y-32314285D01*
X22521428Y-32314285D01*
X22426190Y-32361904D01*
X22378571Y-32409523D01*
X22330952Y-32504761D01*
%TO.C,R11*%
X35602380Y-34242857D02*
X35126190Y-34576190D01*
X35602380Y-34814285D02*
X34602380Y-34814285D01*
X34602380Y-34433333D01*
X34650000Y-34338095D01*
X34697619Y-34290476D01*
X34792857Y-34242857D01*
X34935714Y-34242857D01*
X35030952Y-34290476D01*
X35078571Y-34338095D01*
X35126190Y-34433333D01*
X35126190Y-34814285D01*
X35602380Y-33290476D02*
X35602380Y-33861904D01*
X35602380Y-33576190D02*
X34602380Y-33576190D01*
X34745238Y-33671428D01*
X34840476Y-33766666D01*
X34888095Y-33861904D01*
X35602380Y-32338095D02*
X35602380Y-32909523D01*
X35602380Y-32623809D02*
X34602380Y-32623809D01*
X34745238Y-32719047D01*
X34840476Y-32814285D01*
X34888095Y-32909523D01*
%TO.C,R9*%
X25402380Y-33266666D02*
X24926190Y-33600000D01*
X25402380Y-33838095D02*
X24402380Y-33838095D01*
X24402380Y-33457142D01*
X24450000Y-33361904D01*
X24497619Y-33314285D01*
X24592857Y-33266666D01*
X24735714Y-33266666D01*
X24830952Y-33314285D01*
X24878571Y-33361904D01*
X24926190Y-33457142D01*
X24926190Y-33838095D01*
X25402380Y-32790476D02*
X25402380Y-32600000D01*
X25354761Y-32504761D01*
X25307142Y-32457142D01*
X25164285Y-32361904D01*
X24973809Y-32314285D01*
X24592857Y-32314285D01*
X24497619Y-32361904D01*
X24450000Y-32409523D01*
X24402380Y-32504761D01*
X24402380Y-32695238D01*
X24450000Y-32790476D01*
X24497619Y-32838095D01*
X24592857Y-32885714D01*
X24830952Y-32885714D01*
X24926190Y-32838095D01*
X24973809Y-32790476D01*
X25021428Y-32695238D01*
X25021428Y-32504761D01*
X24973809Y-32409523D01*
X24926190Y-32361904D01*
X24830952Y-32314285D01*
%TO.C,C2*%
X33657142Y-9366666D02*
X33704761Y-9414285D01*
X33752380Y-9557142D01*
X33752380Y-9652380D01*
X33704761Y-9795238D01*
X33609523Y-9890476D01*
X33514285Y-9938095D01*
X33323809Y-9985714D01*
X33180952Y-9985714D01*
X32990476Y-9938095D01*
X32895238Y-9890476D01*
X32800000Y-9795238D01*
X32752380Y-9652380D01*
X32752380Y-9557142D01*
X32800000Y-9414285D01*
X32847619Y-9366666D01*
X32847619Y-8985714D02*
X32800000Y-8938095D01*
X32752380Y-8842857D01*
X32752380Y-8604761D01*
X32800000Y-8509523D01*
X32847619Y-8461904D01*
X32942857Y-8414285D01*
X33038095Y-8414285D01*
X33180952Y-8461904D01*
X33752380Y-9033333D01*
X33752380Y-8414285D01*
%TO.C,R12*%
X38102380Y-34242857D02*
X37626190Y-34576190D01*
X38102380Y-34814285D02*
X37102380Y-34814285D01*
X37102380Y-34433333D01*
X37150000Y-34338095D01*
X37197619Y-34290476D01*
X37292857Y-34242857D01*
X37435714Y-34242857D01*
X37530952Y-34290476D01*
X37578571Y-34338095D01*
X37626190Y-34433333D01*
X37626190Y-34814285D01*
X38102380Y-33290476D02*
X38102380Y-33861904D01*
X38102380Y-33576190D02*
X37102380Y-33576190D01*
X37245238Y-33671428D01*
X37340476Y-33766666D01*
X37388095Y-33861904D01*
X37197619Y-32909523D02*
X37150000Y-32861904D01*
X37102380Y-32766666D01*
X37102380Y-32528571D01*
X37150000Y-32433333D01*
X37197619Y-32385714D01*
X37292857Y-32338095D01*
X37388095Y-32338095D01*
X37530952Y-32385714D01*
X38102380Y-32957142D01*
X38102380Y-32338095D01*
%TO.C,Q1*%
X21447619Y-23195238D02*
X21400000Y-23290476D01*
X21304761Y-23385714D01*
X21161904Y-23528571D01*
X21114285Y-23623809D01*
X21114285Y-23719047D01*
X21352380Y-23671428D02*
X21304761Y-23766666D01*
X21209523Y-23861904D01*
X21019047Y-23909523D01*
X20685714Y-23909523D01*
X20495238Y-23861904D01*
X20400000Y-23766666D01*
X20352380Y-23671428D01*
X20352380Y-23480952D01*
X20400000Y-23385714D01*
X20495238Y-23290476D01*
X20685714Y-23242857D01*
X21019047Y-23242857D01*
X21209523Y-23290476D01*
X21304761Y-23385714D01*
X21352380Y-23480952D01*
X21352380Y-23671428D01*
X21352380Y-22290476D02*
X21352380Y-22861904D01*
X21352380Y-22576190D02*
X20352380Y-22576190D01*
X20495238Y-22671428D01*
X20590476Y-22766666D01*
X20638095Y-22861904D01*
%TO.C,Q2*%
X34147619Y-23145238D02*
X34100000Y-23240476D01*
X34004761Y-23335714D01*
X33861904Y-23478571D01*
X33814285Y-23573809D01*
X33814285Y-23669047D01*
X34052380Y-23621428D02*
X34004761Y-23716666D01*
X33909523Y-23811904D01*
X33719047Y-23859523D01*
X33385714Y-23859523D01*
X33195238Y-23811904D01*
X33100000Y-23716666D01*
X33052380Y-23621428D01*
X33052380Y-23430952D01*
X33100000Y-23335714D01*
X33195238Y-23240476D01*
X33385714Y-23192857D01*
X33719047Y-23192857D01*
X33909523Y-23240476D01*
X34004761Y-23335714D01*
X34052380Y-23430952D01*
X34052380Y-23621428D01*
X33147619Y-22811904D02*
X33100000Y-22764285D01*
X33052380Y-22669047D01*
X33052380Y-22430952D01*
X33100000Y-22335714D01*
X33147619Y-22288095D01*
X33242857Y-22240476D01*
X33338095Y-22240476D01*
X33480952Y-22288095D01*
X34052380Y-22859523D01*
X34052380Y-22240476D01*
%TO.C,R13*%
X37752380Y-23392857D02*
X37276190Y-23726190D01*
X37752380Y-23964285D02*
X36752380Y-23964285D01*
X36752380Y-23583333D01*
X36800000Y-23488095D01*
X36847619Y-23440476D01*
X36942857Y-23392857D01*
X37085714Y-23392857D01*
X37180952Y-23440476D01*
X37228571Y-23488095D01*
X37276190Y-23583333D01*
X37276190Y-23964285D01*
X37752380Y-22440476D02*
X37752380Y-23011904D01*
X37752380Y-22726190D02*
X36752380Y-22726190D01*
X36895238Y-22821428D01*
X36990476Y-22916666D01*
X37038095Y-23011904D01*
X36752380Y-22107142D02*
X36752380Y-21488095D01*
X37133333Y-21821428D01*
X37133333Y-21678571D01*
X37180952Y-21583333D01*
X37228571Y-21535714D01*
X37323809Y-21488095D01*
X37561904Y-21488095D01*
X37657142Y-21535714D01*
X37704761Y-21583333D01*
X37752380Y-21678571D01*
X37752380Y-21964285D01*
X37704761Y-22059523D01*
X37657142Y-22107142D01*
%TO.C,R17*%
X35952380Y-20142857D02*
X35476190Y-20476190D01*
X35952380Y-20714285D02*
X34952380Y-20714285D01*
X34952380Y-20333333D01*
X35000000Y-20238095D01*
X35047619Y-20190476D01*
X35142857Y-20142857D01*
X35285714Y-20142857D01*
X35380952Y-20190476D01*
X35428571Y-20238095D01*
X35476190Y-20333333D01*
X35476190Y-20714285D01*
X35952380Y-19190476D02*
X35952380Y-19761904D01*
X35952380Y-19476190D02*
X34952380Y-19476190D01*
X35095238Y-19571428D01*
X35190476Y-19666666D01*
X35238095Y-19761904D01*
X34952380Y-18857142D02*
X34952380Y-18190476D01*
X35952380Y-18619047D01*
%TO.C,R18*%
X38752380Y-20342857D02*
X38276190Y-20676190D01*
X38752380Y-20914285D02*
X37752380Y-20914285D01*
X37752380Y-20533333D01*
X37800000Y-20438095D01*
X37847619Y-20390476D01*
X37942857Y-20342857D01*
X38085714Y-20342857D01*
X38180952Y-20390476D01*
X38228571Y-20438095D01*
X38276190Y-20533333D01*
X38276190Y-20914285D01*
X38752380Y-19390476D02*
X38752380Y-19961904D01*
X38752380Y-19676190D02*
X37752380Y-19676190D01*
X37895238Y-19771428D01*
X37990476Y-19866666D01*
X38038095Y-19961904D01*
X38180952Y-18819047D02*
X38133333Y-18914285D01*
X38085714Y-18961904D01*
X37990476Y-19009523D01*
X37942857Y-19009523D01*
X37847619Y-18961904D01*
X37800000Y-18914285D01*
X37752380Y-18819047D01*
X37752380Y-18628571D01*
X37800000Y-18533333D01*
X37847619Y-18485714D01*
X37942857Y-18438095D01*
X37990476Y-18438095D01*
X38085714Y-18485714D01*
X38133333Y-18533333D01*
X38180952Y-18628571D01*
X38180952Y-18819047D01*
X38228571Y-18914285D01*
X38276190Y-18961904D01*
X38371428Y-19009523D01*
X38561904Y-19009523D01*
X38657142Y-18961904D01*
X38704761Y-18914285D01*
X38752380Y-18819047D01*
X38752380Y-18628571D01*
X38704761Y-18533333D01*
X38657142Y-18485714D01*
X38561904Y-18438095D01*
X38371428Y-18438095D01*
X38276190Y-18485714D01*
X38228571Y-18533333D01*
X38180952Y-18628571D01*
%TO.C,R10*%
X33152380Y-34242857D02*
X32676190Y-34576190D01*
X33152380Y-34814285D02*
X32152380Y-34814285D01*
X32152380Y-34433333D01*
X32200000Y-34338095D01*
X32247619Y-34290476D01*
X32342857Y-34242857D01*
X32485714Y-34242857D01*
X32580952Y-34290476D01*
X32628571Y-34338095D01*
X32676190Y-34433333D01*
X32676190Y-34814285D01*
X33152380Y-33290476D02*
X33152380Y-33861904D01*
X33152380Y-33576190D02*
X32152380Y-33576190D01*
X32295238Y-33671428D01*
X32390476Y-33766666D01*
X32438095Y-33861904D01*
X32152380Y-32671428D02*
X32152380Y-32576190D01*
X32200000Y-32480952D01*
X32247619Y-32433333D01*
X32342857Y-32385714D01*
X32533333Y-32338095D01*
X32771428Y-32338095D01*
X32961904Y-32385714D01*
X33057142Y-32433333D01*
X33104761Y-32480952D01*
X33152380Y-32576190D01*
X33152380Y-32671428D01*
X33104761Y-32766666D01*
X33057142Y-32814285D01*
X32961904Y-32861904D01*
X32771428Y-32909523D01*
X32533333Y-32909523D01*
X32342857Y-32861904D01*
X32247619Y-32814285D01*
X32200000Y-32766666D01*
X32152380Y-32671428D01*
%TO.C,R14*%
X30552380Y-23592857D02*
X30076190Y-23926190D01*
X30552380Y-24164285D02*
X29552380Y-24164285D01*
X29552380Y-23783333D01*
X29600000Y-23688095D01*
X29647619Y-23640476D01*
X29742857Y-23592857D01*
X29885714Y-23592857D01*
X29980952Y-23640476D01*
X30028571Y-23688095D01*
X30076190Y-23783333D01*
X30076190Y-24164285D01*
X30552380Y-22640476D02*
X30552380Y-23211904D01*
X30552380Y-22926190D02*
X29552380Y-22926190D01*
X29695238Y-23021428D01*
X29790476Y-23116666D01*
X29838095Y-23211904D01*
X29885714Y-21783333D02*
X30552380Y-21783333D01*
X29504761Y-22021428D02*
X30219047Y-22259523D01*
X30219047Y-21640476D01*
D12*
%TO.C,R1*%
X23865000Y-26177064D02*
X23865000Y-25722936D01*
X25335000Y-26177064D02*
X25335000Y-25722936D01*
%TO.C,R2*%
X16877500Y-26204724D02*
X16877500Y-25695276D01*
X17922500Y-26204724D02*
X17922500Y-25695276D01*
%TO.C,U1*%
X27500000Y-12340000D02*
X29450000Y-12340000D01*
X27500000Y-17460000D02*
X29450000Y-17460000D01*
X27500000Y-17460000D02*
X25550000Y-17460000D01*
X27500000Y-12340000D02*
X24050000Y-12340000D01*
%TO.C,R6*%
X19535000Y-14672936D02*
X19535000Y-15127064D01*
X18065000Y-14672936D02*
X18065000Y-15127064D01*
%TO.C,R5*%
X15077500Y-14645276D02*
X15077500Y-15154724D01*
X16122500Y-14645276D02*
X16122500Y-15154724D01*
%TO.C,R3*%
X21477500Y-15254724D02*
X21477500Y-14745276D01*
X22522500Y-15254724D02*
X22522500Y-14745276D01*
%TO.C,C1*%
X36985000Y-12261252D02*
X36985000Y-11738748D01*
X35515000Y-12261252D02*
X35515000Y-11738748D01*
%TO.C,R4*%
X33522500Y-16195276D02*
X33522500Y-16704724D01*
X32477500Y-16195276D02*
X32477500Y-16704724D01*
%TO.C,R7*%
X20472500Y-30295276D02*
X20472500Y-30804724D01*
X19427500Y-30295276D02*
X19427500Y-30804724D01*
%TO.C,R8*%
X22972500Y-30804724D02*
X22972500Y-30295276D01*
X21927500Y-30804724D02*
X21927500Y-30295276D01*
%TO.C,R11*%
X34627500Y-30804724D02*
X34627500Y-30295276D01*
X35672500Y-30804724D02*
X35672500Y-30295276D01*
%TO.C,R9*%
X25472500Y-30295276D02*
X25472500Y-30804724D01*
X24427500Y-30295276D02*
X24427500Y-30804724D01*
%TO.C,C2*%
X32515000Y-12261252D02*
X32515000Y-11738748D01*
X33985000Y-12261252D02*
X33985000Y-11738748D01*
%TO.C,R12*%
X38172500Y-30295276D02*
X38172500Y-30804724D01*
X37127500Y-30295276D02*
X37127500Y-30804724D01*
%TO.C,Q1*%
X22460000Y-25950000D02*
X22460000Y-26600000D01*
X19340000Y-25950000D02*
X19340000Y-25300000D01*
X19340000Y-25950000D02*
X19340000Y-27625000D01*
X22460000Y-25950000D02*
X22460000Y-25300000D01*
%TO.C,Q2*%
X35160000Y-25950000D02*
X35160000Y-25300000D01*
X32040000Y-25950000D02*
X32040000Y-27625000D01*
X32040000Y-25950000D02*
X32040000Y-25300000D01*
X35160000Y-25950000D02*
X35160000Y-26600000D01*
%TO.C,R13*%
X36565000Y-26177064D02*
X36565000Y-25722936D01*
X38035000Y-26177064D02*
X38035000Y-25722936D01*
D13*
%TO.C,G\u002A\u002A\u002A*%
X29548783Y-31332937D02*
X29629693Y-31385049D01*
X29629693Y-31385049D02*
X29718715Y-31463931D01*
X29718715Y-31463931D02*
X29808582Y-31563084D01*
X29808582Y-31563084D02*
X29892031Y-31676005D01*
X29892031Y-31676005D02*
X29898313Y-31685595D01*
X29898313Y-31685595D02*
X30001410Y-31873521D01*
X30001410Y-31873521D02*
X30072207Y-32073311D01*
X30072207Y-32073311D02*
X30113632Y-32294955D01*
X30113632Y-32294955D02*
X30126573Y-32464684D01*
X30126573Y-32464684D02*
X30124279Y-32691752D01*
X30124279Y-32691752D02*
X30097683Y-32914396D01*
X30097683Y-32914396D02*
X30044702Y-33140763D01*
X30044702Y-33140763D02*
X29963256Y-33379003D01*
X29963256Y-33379003D02*
X29851263Y-33637267D01*
X29851263Y-33637267D02*
X29800290Y-33742299D01*
X29800290Y-33742299D02*
X29673953Y-33981073D01*
X29673953Y-33981073D02*
X29542118Y-34197519D01*
X29542118Y-34197519D02*
X29396671Y-34403017D01*
X29396671Y-34403017D02*
X29229500Y-34608946D01*
X29229500Y-34608946D02*
X29032490Y-34826685D01*
X29032490Y-34826685D02*
X29010834Y-34849550D01*
X29010834Y-34849550D02*
X28901718Y-34969519D01*
X28901718Y-34969519D02*
X28813915Y-35080154D01*
X28813915Y-35080154D02*
X28736901Y-35196592D01*
X28736901Y-35196592D02*
X28660151Y-35333971D01*
X28660151Y-35333971D02*
X28621311Y-35409812D01*
X28621311Y-35409812D02*
X28574983Y-35497494D01*
X28574983Y-35497494D02*
X28532038Y-35570731D01*
X28532038Y-35570731D02*
X28498961Y-35618797D01*
X28498961Y-35618797D02*
X28488028Y-35630132D01*
X28488028Y-35630132D02*
X28473101Y-35650317D01*
X28473101Y-35650317D02*
X28461183Y-35690610D01*
X28461183Y-35690610D02*
X28451359Y-35757332D01*
X28451359Y-35757332D02*
X28442715Y-35856806D01*
X28442715Y-35856806D02*
X28434337Y-35995353D01*
X28434337Y-35995353D02*
X28433842Y-36004685D01*
X28433842Y-36004685D02*
X28424221Y-36138303D01*
X28424221Y-36138303D02*
X28408359Y-36303240D01*
X28408359Y-36303240D02*
X28387813Y-36485720D01*
X28387813Y-36485720D02*
X28364142Y-36671964D01*
X28364142Y-36671964D02*
X28338905Y-36848195D01*
X28338905Y-36848195D02*
X28337111Y-36859860D01*
X28337111Y-36859860D02*
X28312319Y-37021869D01*
X28312319Y-37021869D02*
X28288202Y-37182477D01*
X28288202Y-37182477D02*
X28266271Y-37331377D01*
X28266271Y-37331377D02*
X28248043Y-37458261D01*
X28248043Y-37458261D02*
X28235031Y-37552823D01*
X28235031Y-37552823D02*
X28232768Y-37570223D01*
X28232768Y-37570223D02*
X28207390Y-37730577D01*
X28207390Y-37730577D02*
X28170896Y-37909320D01*
X28170896Y-37909320D02*
X28126250Y-38095456D01*
X28126250Y-38095456D02*
X28076416Y-38277990D01*
X28076416Y-38277990D02*
X28024360Y-38445925D01*
X28024360Y-38445925D02*
X27973045Y-38588267D01*
X27973045Y-38588267D02*
X27934621Y-38676118D01*
X27934621Y-38676118D02*
X27875765Y-38785688D01*
X27875765Y-38785688D02*
X27818570Y-38867282D01*
X27818570Y-38867282D02*
X27751132Y-38936634D01*
X27751132Y-38936634D02*
X27712805Y-38969236D01*
X27712805Y-38969236D02*
X27639452Y-39026528D01*
X27639452Y-39026528D02*
X27571471Y-39075459D01*
X27571471Y-39075459D02*
X27524044Y-39105165D01*
X27524044Y-39105165D02*
X27439415Y-39136793D01*
X27439415Y-39136793D02*
X27349776Y-39151677D01*
X27349776Y-39151677D02*
X27274711Y-39147094D01*
X27274711Y-39147094D02*
X27259076Y-39141996D01*
X27259076Y-39141996D02*
X27215940Y-39112291D01*
X27215940Y-39112291D02*
X27153158Y-39054816D01*
X27153158Y-39054816D02*
X27078724Y-38978279D01*
X27078724Y-38978279D02*
X27000629Y-38891387D01*
X27000629Y-38891387D02*
X26926869Y-38802847D01*
X26926869Y-38802847D02*
X26865435Y-38721366D01*
X26865435Y-38721366D02*
X26844905Y-38690833D01*
X26844905Y-38690833D02*
X26808633Y-38628593D01*
X26808633Y-38628593D02*
X26758428Y-38534805D01*
X26758428Y-38534805D02*
X26699462Y-38419511D01*
X26699462Y-38419511D02*
X26636904Y-38292751D01*
X26636904Y-38292751D02*
X26596393Y-38208181D01*
X26596393Y-38208181D02*
X26476279Y-37934462D01*
X26476279Y-37934462D02*
X26385392Y-37679824D01*
X26385392Y-37679824D02*
X26320088Y-37431505D01*
X26320088Y-37431505D02*
X26276724Y-37176743D01*
X26276724Y-37176743D02*
X26261401Y-37034865D01*
X26261401Y-37034865D02*
X26253664Y-36912695D01*
X26253664Y-36912695D02*
X26249156Y-36764385D01*
X26249156Y-36764385D02*
X26247717Y-36600519D01*
X26247717Y-36600519D02*
X26249184Y-36431678D01*
X26249184Y-36431678D02*
X26253394Y-36268444D01*
X26253394Y-36268444D02*
X26258364Y-36160849D01*
X26258364Y-36160849D02*
X26680978Y-36160849D01*
X26680978Y-36160849D02*
X26681028Y-36352264D01*
X26681028Y-36352264D02*
X26683571Y-36520000D01*
X26683571Y-36520000D02*
X26687321Y-36692547D01*
X26687321Y-36692547D02*
X26691448Y-36828084D01*
X26691448Y-36828084D02*
X26696833Y-36935363D01*
X26696833Y-36935363D02*
X26704359Y-37023135D01*
X26704359Y-37023135D02*
X26714908Y-37100154D01*
X26714908Y-37100154D02*
X26729362Y-37175171D01*
X26729362Y-37175171D02*
X26748605Y-37256939D01*
X26748605Y-37256939D02*
X26763946Y-37317267D01*
X26763946Y-37317267D02*
X26806055Y-37455638D01*
X26806055Y-37455638D02*
X26866648Y-37621509D01*
X26866648Y-37621509D02*
X26940571Y-37803191D01*
X26940571Y-37803191D02*
X27022671Y-37988995D01*
X27022671Y-37988995D02*
X27107794Y-38167231D01*
X27107794Y-38167231D02*
X27190786Y-38326210D01*
X27190786Y-38326210D02*
X27262491Y-38448023D01*
X27262491Y-38448023D02*
X27319786Y-38530823D01*
X27319786Y-38530823D02*
X27382730Y-38611085D01*
X27382730Y-38611085D02*
X27444351Y-38681168D01*
X27444351Y-38681168D02*
X27497682Y-38733428D01*
X27497682Y-38733428D02*
X27535751Y-38760223D01*
X27535751Y-38760223D02*
X27548017Y-38761131D01*
X27548017Y-38761131D02*
X27563221Y-38734925D01*
X27563221Y-38734925D02*
X27586598Y-38675660D01*
X27586598Y-38675660D02*
X27613957Y-38594341D01*
X27613957Y-38594341D02*
X27624153Y-38561193D01*
X27624153Y-38561193D02*
X27684574Y-38345319D01*
X27684574Y-38345319D02*
X27736346Y-38126703D01*
X27736346Y-38126703D02*
X27782373Y-37891676D01*
X27782373Y-37891676D02*
X27825563Y-37626566D01*
X27825563Y-37626566D02*
X27831849Y-37584230D01*
X27831849Y-37584230D02*
X27856103Y-37418896D01*
X27856103Y-37418896D02*
X27883910Y-37229033D01*
X27883910Y-37229033D02*
X27912232Y-37035402D01*
X27912232Y-37035402D02*
X27938030Y-36858760D01*
X27938030Y-36858760D02*
X27944052Y-36817477D01*
X27944052Y-36817477D02*
X27974311Y-36585089D01*
X27974311Y-36585089D02*
X27999014Y-36338705D01*
X27999014Y-36338705D02*
X28018445Y-36072873D01*
X28018445Y-36072873D02*
X28032886Y-35782135D01*
X28032886Y-35782135D02*
X28042621Y-35461038D01*
X28042621Y-35461038D02*
X28047934Y-35104125D01*
X28047934Y-35104125D02*
X28049189Y-34791910D01*
X28049189Y-34791910D02*
X28049189Y-34026377D01*
X28049189Y-34026377D02*
X27964688Y-34151927D01*
X27964688Y-34151927D02*
X27918362Y-34212614D01*
X27918362Y-34212614D02*
X27845088Y-34298716D01*
X27845088Y-34298716D02*
X27750841Y-34403854D01*
X27750841Y-34403854D02*
X27641594Y-34521652D01*
X27641594Y-34521652D02*
X27523321Y-34645732D01*
X27523321Y-34645732D02*
X27401995Y-34769717D01*
X27401995Y-34769717D02*
X27283591Y-34887229D01*
X27283591Y-34887229D02*
X27206163Y-34961730D01*
X27206163Y-34961730D02*
X27140065Y-35028748D01*
X27140065Y-35028748D02*
X27057731Y-35118636D01*
X27057731Y-35118636D02*
X26971047Y-35218162D01*
X26971047Y-35218162D02*
X26911603Y-35289605D01*
X26911603Y-35289605D02*
X26739258Y-35501700D01*
X26739258Y-35501700D02*
X26706182Y-35747697D01*
X26706182Y-35747697D02*
X26693327Y-35866353D01*
X26693327Y-35866353D02*
X26685002Y-36001474D01*
X26685002Y-36001474D02*
X26680978Y-36160849D01*
X26680978Y-36160849D02*
X26258364Y-36160849D01*
X26258364Y-36160849D02*
X26260187Y-36121401D01*
X26260187Y-36121401D02*
X26269400Y-36001129D01*
X26269400Y-36001129D02*
X26278285Y-35931989D01*
X26278285Y-35931989D02*
X26292798Y-35847401D01*
X26292798Y-35847401D02*
X26055453Y-35947787D01*
X26055453Y-35947787D02*
X25931200Y-35997586D01*
X25931200Y-35997586D02*
X25794909Y-36047843D01*
X25794909Y-36047843D02*
X25667860Y-36090872D01*
X25667860Y-36090872D02*
X25612162Y-36107939D01*
X25612162Y-36107939D02*
X25510732Y-36134532D01*
X25510732Y-36134532D02*
X25392846Y-36161008D01*
X25392846Y-36161008D02*
X25268776Y-36185571D01*
X25268776Y-36185571D02*
X25148794Y-36206429D01*
X25148794Y-36206429D02*
X25043172Y-36221786D01*
X25043172Y-36221786D02*
X24962182Y-36229848D01*
X24962182Y-36229848D02*
X24917904Y-36229213D01*
X24917904Y-36229213D02*
X24916656Y-36214761D01*
X24916656Y-36214761D02*
X24946507Y-36182821D01*
X24946507Y-36182821D02*
X24999174Y-36139221D01*
X24999174Y-36139221D02*
X25066372Y-36089787D01*
X25066372Y-36089787D02*
X25139819Y-36040343D01*
X25139819Y-36040343D02*
X25211230Y-35996718D01*
X25211230Y-35996718D02*
X25272322Y-35964736D01*
X25272322Y-35964736D02*
X25314520Y-35950261D01*
X25314520Y-35950261D02*
X25563713Y-35913322D01*
X25563713Y-35913322D02*
X25781370Y-35872820D01*
X25781370Y-35872820D02*
X25964603Y-35829524D01*
X25964603Y-35829524D02*
X26110521Y-35784206D01*
X26110521Y-35784206D02*
X26216233Y-35737636D01*
X26216233Y-35737636D02*
X26275650Y-35694179D01*
X26275650Y-35694179D02*
X26298912Y-35661283D01*
X26298912Y-35661283D02*
X26319030Y-35612535D01*
X26319030Y-35612535D02*
X26338135Y-35540150D01*
X26338135Y-35540150D02*
X26358359Y-35436342D01*
X26358359Y-35436342D02*
X26376971Y-35324227D01*
X26376971Y-35324227D02*
X26417689Y-35101261D01*
X26417689Y-35101261D02*
X26811220Y-35101261D01*
X26811220Y-35101261D02*
X27134078Y-34773818D01*
X27134078Y-34773818D02*
X27297015Y-34603638D01*
X27297015Y-34603638D02*
X27430510Y-34451873D01*
X27430510Y-34451873D02*
X27541474Y-34309140D01*
X27541474Y-34309140D02*
X27636818Y-34166050D01*
X27636818Y-34166050D02*
X27723451Y-34013219D01*
X27723451Y-34013219D02*
X27785952Y-33888468D01*
X27785952Y-33888468D02*
X27839027Y-33764553D01*
X27839027Y-33764553D02*
X27896130Y-33608726D01*
X27896130Y-33608726D02*
X27953118Y-33434107D01*
X27953118Y-33434107D02*
X28005845Y-33253814D01*
X28005845Y-33253814D02*
X28050167Y-33080968D01*
X28050167Y-33080968D02*
X28071030Y-32986155D01*
X28071030Y-32986155D02*
X28095992Y-32888648D01*
X28095992Y-32888648D02*
X28125205Y-32830267D01*
X28125205Y-32830267D02*
X28162786Y-32804373D01*
X28162786Y-32804373D02*
X28185495Y-32801532D01*
X28185495Y-32801532D02*
X28223142Y-32788983D01*
X28223142Y-32788983D02*
X28284175Y-32756087D01*
X28284175Y-32756087D02*
X28355331Y-32710000D01*
X28355331Y-32710000D02*
X28424058Y-32664220D01*
X28424058Y-32664220D02*
X28479775Y-32631396D01*
X28479775Y-32631396D02*
X28510661Y-32618476D01*
X28510661Y-32618476D02*
X28511001Y-32618468D01*
X28511001Y-32618468D02*
X28518125Y-32640307D01*
X28518125Y-32640307D02*
X28522519Y-32701826D01*
X28522519Y-32701826D02*
X28524325Y-32797031D01*
X28524325Y-32797031D02*
X28523681Y-32919926D01*
X28523681Y-32919926D02*
X28520729Y-33064517D01*
X28520729Y-33064517D02*
X28515609Y-33224808D01*
X28515609Y-33224808D02*
X28508461Y-33394803D01*
X28508461Y-33394803D02*
X28499425Y-33568509D01*
X28499425Y-33568509D02*
X28488643Y-33739930D01*
X28488643Y-33739930D02*
X28482874Y-33819820D01*
X28482874Y-33819820D02*
X28477218Y-33914502D01*
X28477218Y-33914502D02*
X28472364Y-34034092D01*
X28472364Y-34034092D02*
X28468360Y-34171790D01*
X28468360Y-34171790D02*
X28465249Y-34320797D01*
X28465249Y-34320797D02*
X28463077Y-34474313D01*
X28463077Y-34474313D02*
X28461888Y-34625536D01*
X28461888Y-34625536D02*
X28461728Y-34767668D01*
X28461728Y-34767668D02*
X28462641Y-34893908D01*
X28462641Y-34893908D02*
X28464673Y-34997457D01*
X28464673Y-34997457D02*
X28467868Y-35071514D01*
X28467868Y-35071514D02*
X28472271Y-35109279D01*
X28472271Y-35109279D02*
X28474329Y-35112703D01*
X28474329Y-35112703D02*
X28496160Y-35097650D01*
X28496160Y-35097650D02*
X28539289Y-35058602D01*
X28539289Y-35058602D02*
X28583023Y-35015450D01*
X28583023Y-35015450D02*
X28724900Y-34863656D01*
X28724900Y-34863656D02*
X28869635Y-34696076D01*
X28869635Y-34696076D02*
X29002998Y-34529596D01*
X29002998Y-34529596D02*
X29078985Y-34426963D01*
X29078985Y-34426963D02*
X29173646Y-34281356D01*
X29173646Y-34281356D02*
X29274412Y-34105232D01*
X29274412Y-34105232D02*
X29374586Y-33912013D01*
X29374586Y-33912013D02*
X29467472Y-33715121D01*
X29467472Y-33715121D02*
X29546373Y-33527978D01*
X29546373Y-33527978D02*
X29596300Y-33390105D01*
X29596300Y-33390105D02*
X29631355Y-33278818D01*
X29631355Y-33278818D02*
X29655664Y-33187848D01*
X29655664Y-33187848D02*
X29671646Y-33102552D01*
X29671646Y-33102552D02*
X29681718Y-33008288D01*
X29681718Y-33008288D02*
X29688298Y-32890412D01*
X29688298Y-32890412D02*
X29691105Y-32816012D01*
X29691105Y-32816012D02*
X29693484Y-32633068D01*
X29693484Y-32633068D02*
X29684939Y-32481969D01*
X29684939Y-32481969D02*
X29663066Y-32349595D01*
X29663066Y-32349595D02*
X29625465Y-32222826D01*
X29625465Y-32222826D02*
X29569731Y-32088542D01*
X29569731Y-32088542D02*
X29550362Y-32047420D01*
X29550362Y-32047420D02*
X29493323Y-31947365D01*
X29493323Y-31947365D02*
X29419566Y-31844248D01*
X29419566Y-31844248D02*
X29338029Y-31748366D01*
X29338029Y-31748366D02*
X29257650Y-31670021D01*
X29257650Y-31670021D02*
X29187368Y-31619512D01*
X29187368Y-31619512D02*
X29173138Y-31612735D01*
X29173138Y-31612735D02*
X29140182Y-31603961D01*
X29140182Y-31603961D02*
X29099229Y-31604096D01*
X29099229Y-31604096D02*
X29045509Y-31614865D01*
X29045509Y-31614865D02*
X28974248Y-31637991D01*
X28974248Y-31637991D02*
X28880678Y-31675199D01*
X28880678Y-31675199D02*
X28760024Y-31728213D01*
X28760024Y-31728213D02*
X28607517Y-31798757D01*
X28607517Y-31798757D02*
X28444750Y-31875953D01*
X28444750Y-31875953D02*
X28295961Y-31948939D01*
X28295961Y-31948939D02*
X28181220Y-32010216D01*
X28181220Y-32010216D02*
X28092020Y-32064923D01*
X28092020Y-32064923D02*
X28019855Y-32118198D01*
X28019855Y-32118198D02*
X27967892Y-32163976D01*
X27967892Y-32163976D02*
X27822087Y-32324955D01*
X27822087Y-32324955D02*
X27679083Y-32528441D01*
X27679083Y-32528441D02*
X27540713Y-32771187D01*
X27540713Y-32771187D02*
X27408812Y-33049944D01*
X27408812Y-33049944D02*
X27285215Y-33361464D01*
X27285215Y-33361464D02*
X27273978Y-33392629D01*
X27273978Y-33392629D02*
X27213251Y-33569244D01*
X27213251Y-33569244D02*
X27150011Y-33765303D01*
X27150011Y-33765303D02*
X27086484Y-33972823D01*
X27086484Y-33972823D02*
X27024899Y-34183822D01*
X27024899Y-34183822D02*
X26967483Y-34390318D01*
X26967483Y-34390318D02*
X26916463Y-34584328D01*
X26916463Y-34584328D02*
X26874069Y-34757872D01*
X26874069Y-34757872D02*
X26842527Y-34902965D01*
X26842527Y-34902965D02*
X26825866Y-34998288D01*
X26825866Y-34998288D02*
X26811220Y-35101261D01*
X26811220Y-35101261D02*
X26417689Y-35101261D01*
X26417689Y-35101261D02*
X26421771Y-35078914D01*
X26421771Y-35078914D02*
X26481218Y-34809792D01*
X26481218Y-34809792D02*
X26552637Y-34525743D01*
X26552637Y-34525743D02*
X26633351Y-34235649D01*
X26633351Y-34235649D02*
X26720685Y-33948393D01*
X26720685Y-33948393D02*
X26811963Y-33672857D01*
X26811963Y-33672857D02*
X26904510Y-33417923D01*
X26904510Y-33417923D02*
X26995650Y-33192473D01*
X26995650Y-33192473D02*
X27064531Y-33041802D01*
X27064531Y-33041802D02*
X27186730Y-32808092D01*
X27186730Y-32808092D02*
X27308297Y-32611945D01*
X27308297Y-32611945D02*
X27435840Y-32445736D01*
X27435840Y-32445736D02*
X27575969Y-32301839D01*
X27575969Y-32301839D02*
X27735293Y-32172627D01*
X27735293Y-32172627D02*
X27920420Y-32050475D01*
X27920420Y-32050475D02*
X27927178Y-32046396D01*
X27927178Y-32046396D02*
X28078459Y-31958318D01*
X28078459Y-31958318D02*
X28244973Y-31866543D01*
X28244973Y-31866543D02*
X28421042Y-31773743D01*
X28421042Y-31773743D02*
X28600992Y-31682588D01*
X28600992Y-31682588D02*
X28779146Y-31595749D01*
X28779146Y-31595749D02*
X28949830Y-31515899D01*
X28949830Y-31515899D02*
X29107367Y-31445707D01*
X29107367Y-31445707D02*
X29246081Y-31387844D01*
X29246081Y-31387844D02*
X29360298Y-31344983D01*
X29360298Y-31344983D02*
X29444340Y-31319793D01*
X29444340Y-31319793D02*
X29483246Y-31314098D01*
X29483246Y-31314098D02*
X29548783Y-31332937D01*
X29548783Y-31332937D02*
X29548783Y-31332937D01*
G36*
X26269400Y-36001129D02*
G01*
X26278285Y-35931989D01*
X26292798Y-35847401D01*
X26055453Y-35947787D01*
X25931200Y-35997586D01*
X25794909Y-36047843D01*
X25667860Y-36090872D01*
X25612162Y-36107939D01*
X25510732Y-36134532D01*
X25392846Y-36161008D01*
X25268776Y-36185571D01*
X25148794Y-36206429D01*
X25043172Y-36221786D01*
X24962182Y-36229848D01*
X24917904Y-36229213D01*
X24916656Y-36214761D01*
X24946507Y-36182821D01*
X24999174Y-36139221D01*
X25066372Y-36089787D01*
X25139819Y-36040343D01*
X25211230Y-35996718D01*
X25272322Y-35964736D01*
X25314520Y-35950261D01*
X25563713Y-35913322D01*
X25781370Y-35872820D01*
X25964603Y-35829524D01*
X26110521Y-35784206D01*
X26216233Y-35737636D01*
X26275650Y-35694179D01*
X26298912Y-35661283D01*
X26319030Y-35612535D01*
X26338135Y-35540150D01*
X26358359Y-35436342D01*
X26376971Y-35324227D01*
X26417689Y-35101261D01*
X26811220Y-35101261D01*
X27134078Y-34773818D01*
X27297015Y-34603638D01*
X27430510Y-34451873D01*
X27541474Y-34309140D01*
X27636818Y-34166050D01*
X27723451Y-34013219D01*
X27785952Y-33888468D01*
X27839027Y-33764553D01*
X27896130Y-33608726D01*
X27953118Y-33434107D01*
X28005845Y-33253814D01*
X28050167Y-33080968D01*
X28071030Y-32986155D01*
X28095992Y-32888648D01*
X28125205Y-32830267D01*
X28162786Y-32804373D01*
X28185495Y-32801532D01*
X28223142Y-32788983D01*
X28284175Y-32756087D01*
X28355331Y-32710000D01*
X28424058Y-32664220D01*
X28479775Y-32631396D01*
X28510661Y-32618476D01*
X28511001Y-32618468D01*
X28518125Y-32640307D01*
X28522519Y-32701826D01*
X28524325Y-32797031D01*
X28523681Y-32919926D01*
X28520729Y-33064517D01*
X28515609Y-33224808D01*
X28508461Y-33394803D01*
X28499425Y-33568509D01*
X28488643Y-33739930D01*
X28482874Y-33819820D01*
X28477218Y-33914502D01*
X28472364Y-34034092D01*
X28468360Y-34171790D01*
X28465249Y-34320797D01*
X28463077Y-34474313D01*
X28461888Y-34625536D01*
X28461728Y-34767668D01*
X28462641Y-34893908D01*
X28464673Y-34997457D01*
X28467868Y-35071514D01*
X28472271Y-35109279D01*
X28474329Y-35112703D01*
X28496160Y-35097650D01*
X28539289Y-35058602D01*
X28583023Y-35015450D01*
X28724900Y-34863656D01*
X28869635Y-34696076D01*
X29002998Y-34529596D01*
X29078985Y-34426963D01*
X29173646Y-34281356D01*
X29274412Y-34105232D01*
X29374586Y-33912013D01*
X29467472Y-33715121D01*
X29546373Y-33527978D01*
X29596300Y-33390105D01*
X29631355Y-33278818D01*
X29655664Y-33187848D01*
X29671646Y-33102552D01*
X29681718Y-33008288D01*
X29688298Y-32890412D01*
X29691105Y-32816012D01*
X29693484Y-32633068D01*
X29684939Y-32481969D01*
X29663066Y-32349595D01*
X29625465Y-32222826D01*
X29569731Y-32088542D01*
X29550362Y-32047420D01*
X29493323Y-31947365D01*
X29419566Y-31844248D01*
X29338029Y-31748366D01*
X29257650Y-31670021D01*
X29187368Y-31619512D01*
X29173138Y-31612735D01*
X29140182Y-31603961D01*
X29099229Y-31604096D01*
X29045509Y-31614865D01*
X28974248Y-31637991D01*
X28880678Y-31675199D01*
X28760024Y-31728213D01*
X28607517Y-31798757D01*
X28444750Y-31875953D01*
X28295961Y-31948939D01*
X28181220Y-32010216D01*
X28092020Y-32064923D01*
X28019855Y-32118198D01*
X27967892Y-32163976D01*
X27822087Y-32324955D01*
X27679083Y-32528441D01*
X27540713Y-32771187D01*
X27408812Y-33049944D01*
X27285215Y-33361464D01*
X27273978Y-33392629D01*
X27213251Y-33569244D01*
X27150011Y-33765303D01*
X27086484Y-33972823D01*
X27024899Y-34183822D01*
X26967483Y-34390318D01*
X26916463Y-34584328D01*
X26874069Y-34757872D01*
X26842527Y-34902965D01*
X26825866Y-34998288D01*
X26811220Y-35101261D01*
X26417689Y-35101261D01*
X26421771Y-35078914D01*
X26481218Y-34809792D01*
X26552637Y-34525743D01*
X26633351Y-34235649D01*
X26720685Y-33948393D01*
X26811963Y-33672857D01*
X26904510Y-33417923D01*
X26995650Y-33192473D01*
X27064531Y-33041802D01*
X27186730Y-32808092D01*
X27308297Y-32611945D01*
X27435840Y-32445736D01*
X27575969Y-32301839D01*
X27735293Y-32172627D01*
X27920420Y-32050475D01*
X27927178Y-32046396D01*
X28078459Y-31958318D01*
X28244973Y-31866543D01*
X28421042Y-31773743D01*
X28600992Y-31682588D01*
X28779146Y-31595749D01*
X28949830Y-31515899D01*
X29107367Y-31445707D01*
X29246081Y-31387844D01*
X29360298Y-31344983D01*
X29444340Y-31319793D01*
X29483246Y-31314098D01*
X29548783Y-31332937D01*
X29629693Y-31385049D01*
X29718715Y-31463931D01*
X29808582Y-31563084D01*
X29892031Y-31676005D01*
X29898313Y-31685595D01*
X30001410Y-31873521D01*
X30072207Y-32073311D01*
X30113632Y-32294955D01*
X30126573Y-32464684D01*
X30124279Y-32691752D01*
X30097683Y-32914396D01*
X30044702Y-33140763D01*
X29963256Y-33379003D01*
X29851263Y-33637267D01*
X29800290Y-33742299D01*
X29673953Y-33981073D01*
X29542118Y-34197519D01*
X29396671Y-34403017D01*
X29229500Y-34608946D01*
X29032490Y-34826685D01*
X29010834Y-34849550D01*
X28901718Y-34969519D01*
X28813915Y-35080154D01*
X28736901Y-35196592D01*
X28660151Y-35333971D01*
X28621311Y-35409812D01*
X28574983Y-35497494D01*
X28532038Y-35570731D01*
X28498961Y-35618797D01*
X28488028Y-35630132D01*
X28473101Y-35650317D01*
X28461183Y-35690610D01*
X28451359Y-35757332D01*
X28442715Y-35856806D01*
X28434337Y-35995353D01*
X28433842Y-36004685D01*
X28424221Y-36138303D01*
X28408359Y-36303240D01*
X28387813Y-36485720D01*
X28364142Y-36671964D01*
X28338905Y-36848195D01*
X28337111Y-36859860D01*
X28312319Y-37021869D01*
X28288202Y-37182477D01*
X28266271Y-37331377D01*
X28248043Y-37458261D01*
X28235031Y-37552823D01*
X28232768Y-37570223D01*
X28207390Y-37730577D01*
X28170896Y-37909320D01*
X28126250Y-38095456D01*
X28076416Y-38277990D01*
X28024360Y-38445925D01*
X27973045Y-38588267D01*
X27934621Y-38676118D01*
X27875765Y-38785688D01*
X27818570Y-38867282D01*
X27751132Y-38936634D01*
X27712805Y-38969236D01*
X27639452Y-39026528D01*
X27571471Y-39075459D01*
X27524044Y-39105165D01*
X27439415Y-39136793D01*
X27349776Y-39151677D01*
X27274711Y-39147094D01*
X27259076Y-39141996D01*
X27215940Y-39112291D01*
X27153158Y-39054816D01*
X27078724Y-38978279D01*
X27000629Y-38891387D01*
X26926869Y-38802847D01*
X26865435Y-38721366D01*
X26844905Y-38690833D01*
X26808633Y-38628593D01*
X26758428Y-38534805D01*
X26699462Y-38419511D01*
X26636904Y-38292751D01*
X26596393Y-38208181D01*
X26476279Y-37934462D01*
X26385392Y-37679824D01*
X26320088Y-37431505D01*
X26276724Y-37176743D01*
X26261401Y-37034865D01*
X26253664Y-36912695D01*
X26249156Y-36764385D01*
X26247717Y-36600519D01*
X26249184Y-36431678D01*
X26253394Y-36268444D01*
X26258364Y-36160849D01*
X26680978Y-36160849D01*
X26681028Y-36352264D01*
X26683571Y-36520000D01*
X26687321Y-36692547D01*
X26691448Y-36828084D01*
X26696833Y-36935363D01*
X26704359Y-37023135D01*
X26714908Y-37100154D01*
X26729362Y-37175171D01*
X26748605Y-37256939D01*
X26763946Y-37317267D01*
X26806055Y-37455638D01*
X26866648Y-37621509D01*
X26940571Y-37803191D01*
X27022671Y-37988995D01*
X27107794Y-38167231D01*
X27190786Y-38326210D01*
X27262491Y-38448023D01*
X27319786Y-38530823D01*
X27382730Y-38611085D01*
X27444351Y-38681168D01*
X27497682Y-38733428D01*
X27535751Y-38760223D01*
X27548017Y-38761131D01*
X27563221Y-38734925D01*
X27586598Y-38675660D01*
X27613957Y-38594341D01*
X27624153Y-38561193D01*
X27684574Y-38345319D01*
X27736346Y-38126703D01*
X27782373Y-37891676D01*
X27825563Y-37626566D01*
X27831849Y-37584230D01*
X27856103Y-37418896D01*
X27883910Y-37229033D01*
X27912232Y-37035402D01*
X27938030Y-36858760D01*
X27944052Y-36817477D01*
X27974311Y-36585089D01*
X27999014Y-36338705D01*
X28018445Y-36072873D01*
X28032886Y-35782135D01*
X28042621Y-35461038D01*
X28047934Y-35104125D01*
X28049189Y-34791910D01*
X28049189Y-34026377D01*
X27964688Y-34151927D01*
X27918362Y-34212614D01*
X27845088Y-34298716D01*
X27750841Y-34403854D01*
X27641594Y-34521652D01*
X27523321Y-34645732D01*
X27401995Y-34769717D01*
X27283591Y-34887229D01*
X27206163Y-34961730D01*
X27140065Y-35028748D01*
X27057731Y-35118636D01*
X26971047Y-35218162D01*
X26911603Y-35289605D01*
X26739258Y-35501700D01*
X26706182Y-35747697D01*
X26693327Y-35866353D01*
X26685002Y-36001474D01*
X26680978Y-36160849D01*
X26258364Y-36160849D01*
X26260187Y-36121401D01*
X26269400Y-36001129D01*
G37*
X26269400Y-36001129D02*
X26278285Y-35931989D01*
X26292798Y-35847401D01*
X26055453Y-35947787D01*
X25931200Y-35997586D01*
X25794909Y-36047843D01*
X25667860Y-36090872D01*
X25612162Y-36107939D01*
X25510732Y-36134532D01*
X25392846Y-36161008D01*
X25268776Y-36185571D01*
X25148794Y-36206429D01*
X25043172Y-36221786D01*
X24962182Y-36229848D01*
X24917904Y-36229213D01*
X24916656Y-36214761D01*
X24946507Y-36182821D01*
X24999174Y-36139221D01*
X25066372Y-36089787D01*
X25139819Y-36040343D01*
X25211230Y-35996718D01*
X25272322Y-35964736D01*
X25314520Y-35950261D01*
X25563713Y-35913322D01*
X25781370Y-35872820D01*
X25964603Y-35829524D01*
X26110521Y-35784206D01*
X26216233Y-35737636D01*
X26275650Y-35694179D01*
X26298912Y-35661283D01*
X26319030Y-35612535D01*
X26338135Y-35540150D01*
X26358359Y-35436342D01*
X26376971Y-35324227D01*
X26417689Y-35101261D01*
X26811220Y-35101261D01*
X27134078Y-34773818D01*
X27297015Y-34603638D01*
X27430510Y-34451873D01*
X27541474Y-34309140D01*
X27636818Y-34166050D01*
X27723451Y-34013219D01*
X27785952Y-33888468D01*
X27839027Y-33764553D01*
X27896130Y-33608726D01*
X27953118Y-33434107D01*
X28005845Y-33253814D01*
X28050167Y-33080968D01*
X28071030Y-32986155D01*
X28095992Y-32888648D01*
X28125205Y-32830267D01*
X28162786Y-32804373D01*
X28185495Y-32801532D01*
X28223142Y-32788983D01*
X28284175Y-32756087D01*
X28355331Y-32710000D01*
X28424058Y-32664220D01*
X28479775Y-32631396D01*
X28510661Y-32618476D01*
X28511001Y-32618468D01*
X28518125Y-32640307D01*
X28522519Y-32701826D01*
X28524325Y-32797031D01*
X28523681Y-32919926D01*
X28520729Y-33064517D01*
X28515609Y-33224808D01*
X28508461Y-33394803D01*
X28499425Y-33568509D01*
X28488643Y-33739930D01*
X28482874Y-33819820D01*
X28477218Y-33914502D01*
X28472364Y-34034092D01*
X28468360Y-34171790D01*
X28465249Y-34320797D01*
X28463077Y-34474313D01*
X28461888Y-34625536D01*
X28461728Y-34767668D01*
X28462641Y-34893908D01*
X28464673Y-34997457D01*
X28467868Y-35071514D01*
X28472271Y-35109279D01*
X28474329Y-35112703D01*
X28496160Y-35097650D01*
X28539289Y-35058602D01*
X28583023Y-35015450D01*
X28724900Y-34863656D01*
X28869635Y-34696076D01*
X29002998Y-34529596D01*
X29078985Y-34426963D01*
X29173646Y-34281356D01*
X29274412Y-34105232D01*
X29374586Y-33912013D01*
X29467472Y-33715121D01*
X29546373Y-33527978D01*
X29596300Y-33390105D01*
X29631355Y-33278818D01*
X29655664Y-33187848D01*
X29671646Y-33102552D01*
X29681718Y-33008288D01*
X29688298Y-32890412D01*
X29691105Y-32816012D01*
X29693484Y-32633068D01*
X29684939Y-32481969D01*
X29663066Y-32349595D01*
X29625465Y-32222826D01*
X29569731Y-32088542D01*
X29550362Y-32047420D01*
X29493323Y-31947365D01*
X29419566Y-31844248D01*
X29338029Y-31748366D01*
X29257650Y-31670021D01*
X29187368Y-31619512D01*
X29173138Y-31612735D01*
X29140182Y-31603961D01*
X29099229Y-31604096D01*
X29045509Y-31614865D01*
X28974248Y-31637991D01*
X28880678Y-31675199D01*
X28760024Y-31728213D01*
X28607517Y-31798757D01*
X28444750Y-31875953D01*
X28295961Y-31948939D01*
X28181220Y-32010216D01*
X28092020Y-32064923D01*
X28019855Y-32118198D01*
X27967892Y-32163976D01*
X27822087Y-32324955D01*
X27679083Y-32528441D01*
X27540713Y-32771187D01*
X27408812Y-33049944D01*
X27285215Y-33361464D01*
X27273978Y-33392629D01*
X27213251Y-33569244D01*
X27150011Y-33765303D01*
X27086484Y-33972823D01*
X27024899Y-34183822D01*
X26967483Y-34390318D01*
X26916463Y-34584328D01*
X26874069Y-34757872D01*
X26842527Y-34902965D01*
X26825866Y-34998288D01*
X26811220Y-35101261D01*
X26417689Y-35101261D01*
X26421771Y-35078914D01*
X26481218Y-34809792D01*
X26552637Y-34525743D01*
X26633351Y-34235649D01*
X26720685Y-33948393D01*
X26811963Y-33672857D01*
X26904510Y-33417923D01*
X26995650Y-33192473D01*
X27064531Y-33041802D01*
X27186730Y-32808092D01*
X27308297Y-32611945D01*
X27435840Y-32445736D01*
X27575969Y-32301839D01*
X27735293Y-32172627D01*
X27920420Y-32050475D01*
X27927178Y-32046396D01*
X28078459Y-31958318D01*
X28244973Y-31866543D01*
X28421042Y-31773743D01*
X28600992Y-31682588D01*
X28779146Y-31595749D01*
X28949830Y-31515899D01*
X29107367Y-31445707D01*
X29246081Y-31387844D01*
X29360298Y-31344983D01*
X29444340Y-31319793D01*
X29483246Y-31314098D01*
X29548783Y-31332937D01*
X29629693Y-31385049D01*
X29718715Y-31463931D01*
X29808582Y-31563084D01*
X29892031Y-31676005D01*
X29898313Y-31685595D01*
X30001410Y-31873521D01*
X30072207Y-32073311D01*
X30113632Y-32294955D01*
X30126573Y-32464684D01*
X30124279Y-32691752D01*
X30097683Y-32914396D01*
X30044702Y-33140763D01*
X29963256Y-33379003D01*
X29851263Y-33637267D01*
X29800290Y-33742299D01*
X29673953Y-33981073D01*
X29542118Y-34197519D01*
X29396671Y-34403017D01*
X29229500Y-34608946D01*
X29032490Y-34826685D01*
X29010834Y-34849550D01*
X28901718Y-34969519D01*
X28813915Y-35080154D01*
X28736901Y-35196592D01*
X28660151Y-35333971D01*
X28621311Y-35409812D01*
X28574983Y-35497494D01*
X28532038Y-35570731D01*
X28498961Y-35618797D01*
X28488028Y-35630132D01*
X28473101Y-35650317D01*
X28461183Y-35690610D01*
X28451359Y-35757332D01*
X28442715Y-35856806D01*
X28434337Y-35995353D01*
X28433842Y-36004685D01*
X28424221Y-36138303D01*
X28408359Y-36303240D01*
X28387813Y-36485720D01*
X28364142Y-36671964D01*
X28338905Y-36848195D01*
X28337111Y-36859860D01*
X28312319Y-37021869D01*
X28288202Y-37182477D01*
X28266271Y-37331377D01*
X28248043Y-37458261D01*
X28235031Y-37552823D01*
X28232768Y-37570223D01*
X28207390Y-37730577D01*
X28170896Y-37909320D01*
X28126250Y-38095456D01*
X28076416Y-38277990D01*
X28024360Y-38445925D01*
X27973045Y-38588267D01*
X27934621Y-38676118D01*
X27875765Y-38785688D01*
X27818570Y-38867282D01*
X27751132Y-38936634D01*
X27712805Y-38969236D01*
X27639452Y-39026528D01*
X27571471Y-39075459D01*
X27524044Y-39105165D01*
X27439415Y-39136793D01*
X27349776Y-39151677D01*
X27274711Y-39147094D01*
X27259076Y-39141996D01*
X27215940Y-39112291D01*
X27153158Y-39054816D01*
X27078724Y-38978279D01*
X27000629Y-38891387D01*
X26926869Y-38802847D01*
X26865435Y-38721366D01*
X26844905Y-38690833D01*
X26808633Y-38628593D01*
X26758428Y-38534805D01*
X26699462Y-38419511D01*
X26636904Y-38292751D01*
X26596393Y-38208181D01*
X26476279Y-37934462D01*
X26385392Y-37679824D01*
X26320088Y-37431505D01*
X26276724Y-37176743D01*
X26261401Y-37034865D01*
X26253664Y-36912695D01*
X26249156Y-36764385D01*
X26247717Y-36600519D01*
X26249184Y-36431678D01*
X26253394Y-36268444D01*
X26258364Y-36160849D01*
X26680978Y-36160849D01*
X26681028Y-36352264D01*
X26683571Y-36520000D01*
X26687321Y-36692547D01*
X26691448Y-36828084D01*
X26696833Y-36935363D01*
X26704359Y-37023135D01*
X26714908Y-37100154D01*
X26729362Y-37175171D01*
X26748605Y-37256939D01*
X26763946Y-37317267D01*
X26806055Y-37455638D01*
X26866648Y-37621509D01*
X26940571Y-37803191D01*
X27022671Y-37988995D01*
X27107794Y-38167231D01*
X27190786Y-38326210D01*
X27262491Y-38448023D01*
X27319786Y-38530823D01*
X27382730Y-38611085D01*
X27444351Y-38681168D01*
X27497682Y-38733428D01*
X27535751Y-38760223D01*
X27548017Y-38761131D01*
X27563221Y-38734925D01*
X27586598Y-38675660D01*
X27613957Y-38594341D01*
X27624153Y-38561193D01*
X27684574Y-38345319D01*
X27736346Y-38126703D01*
X27782373Y-37891676D01*
X27825563Y-37626566D01*
X27831849Y-37584230D01*
X27856103Y-37418896D01*
X27883910Y-37229033D01*
X27912232Y-37035402D01*
X27938030Y-36858760D01*
X27944052Y-36817477D01*
X27974311Y-36585089D01*
X27999014Y-36338705D01*
X28018445Y-36072873D01*
X28032886Y-35782135D01*
X28042621Y-35461038D01*
X28047934Y-35104125D01*
X28049189Y-34791910D01*
X28049189Y-34026377D01*
X27964688Y-34151927D01*
X27918362Y-34212614D01*
X27845088Y-34298716D01*
X27750841Y-34403854D01*
X27641594Y-34521652D01*
X27523321Y-34645732D01*
X27401995Y-34769717D01*
X27283591Y-34887229D01*
X27206163Y-34961730D01*
X27140065Y-35028748D01*
X27057731Y-35118636D01*
X26971047Y-35218162D01*
X26911603Y-35289605D01*
X26739258Y-35501700D01*
X26706182Y-35747697D01*
X26693327Y-35866353D01*
X26685002Y-36001474D01*
X26680978Y-36160849D01*
X26258364Y-36160849D01*
X26260187Y-36121401D01*
X26269400Y-36001129D01*
D12*
%TO.C,J1*%
X22370000Y-2170000D02*
X22370000Y-4830000D01*
X30050000Y-2170000D02*
X22370000Y-2170000D01*
X30050000Y-4830000D02*
X22370000Y-4830000D01*
X31320000Y-2170000D02*
X32650000Y-2170000D01*
X32650000Y-2170000D02*
X32650000Y-3500000D01*
X30050000Y-2170000D02*
X30050000Y-4830000D01*
%TO.C,R17*%
X36022500Y-16195276D02*
X36022500Y-16704724D01*
X34977500Y-16195276D02*
X34977500Y-16704724D01*
%TO.C,R18*%
X38985000Y-16677064D02*
X38985000Y-16222936D01*
X37515000Y-16677064D02*
X37515000Y-16222936D01*
%TO.C,R10*%
X33172500Y-30295276D02*
X33172500Y-30804724D01*
X32127500Y-30295276D02*
X32127500Y-30804724D01*
%TO.C,R14*%
X30622500Y-26204724D02*
X30622500Y-25695276D01*
X29577500Y-26204724D02*
X29577500Y-25695276D01*
%TD*%
M02*
