M48
; DRILL file {KiCad (6.0.2)} date Tue 01 Mar 2022 12:56:50 PM EST
; FORMAT={-:-/ absolute / inch / decimal}
; #@! TF.CreationDate,2022-03-01T12:56:50-05:00
; #@! TF.GenerationSoftware,Kicad,Pcbnew,(6.0.2)
; #@! TF.FileFunction,MixedPlating,1,2
FMAT,2
INCH
; #@! TA.AperFunction,Plated,PTH,ViaDrill
T1C0.0157
; #@! TA.AperFunction,Plated,PTH,ComponentDrill
T2C0.0394
; #@! TA.AperFunction,NonPlated,NPTH,ComponentDrill
T3C0.1260
%
G90
G05
T1
X0.7362Y-1.0571
X0.8602Y-1.1181
X0.9154Y-0.626
X1.0295Y-0.8661
X1.0295Y-1.061
X1.0453Y-1.2382
X1.0551Y-0.6614
X1.1122Y-0.626
X1.126Y-0.5118
X1.2402Y-1.0571
X1.2618Y-0.7146
X1.3543Y-0.3898
X1.3602Y-1.1181
X1.4114Y-1.0591
X1.4449Y-0.6083
X1.4685Y-0.3898
X1.5413Y-1.2382
T2
X0.9331Y-0.1378
X1.0331Y-0.1378
X1.1331Y-0.1378
X1.2331Y-0.1378
T3
X0.1969Y-0.1969
X0.1969Y-1.5354
X1.9685Y-0.1969
X1.9685Y-1.5354
T0
M30
