M48
; DRILL file {KiCad (6.0.2)} date Tue 01 Mar 2022 12:54:51 PM EST
; FORMAT={-:-/ absolute / inch / decimal}
; #@! TF.CreationDate,2022-03-01T12:54:51-05:00
; #@! TF.GenerationSoftware,Kicad,Pcbnew,(6.0.2)
; #@! TF.FileFunction,MixedPlating,1,2
FMAT,2
INCH
; #@! TA.AperFunction,Plated,PTH,ViaDrill
T1C0.0157
; #@! TA.AperFunction,Plated,PTH,ViaDrill
T2C0.0315
; #@! TA.AperFunction,Plated,PTH,ComponentDrill
T3C0.0354
; #@! TA.AperFunction,Plated,PTH,ComponentDrill
T4C0.0394
; #@! TA.AperFunction,Plated,PTH,ComponentDrill
T5C0.0433
%
G90
G05
T1
X0.5906Y-1.4311
X1.0551Y-0.3898
X1.3603Y-0.3553
X1.8031Y-0.2835
X1.8031Y-0.3268
T2
X1.6142Y-0.2294
T3
X0.7063Y-0.3268
X0.8063Y-0.3268
X0.9063Y-0.3268
X1.0063Y-0.3268
T4
X0.1451Y-0.137
X0.2451Y-0.137
X0.3451Y-0.137
X0.4451Y-0.137
X0.5049Y-2.037
X0.5451Y-0.137
X0.6049Y-2.037
X0.6451Y-0.137
X0.7049Y-2.037
X0.7451Y-0.137
X0.8049Y-2.037
X0.8451Y-0.137
X0.9049Y-2.037
X0.9451Y-0.137
X1.0049Y-2.037
X1.0451Y-0.137
X1.1049Y-2.037
X1.2049Y-0.137
X1.2049Y-2.037
X1.3049Y-0.137
X1.4049Y-0.137
X1.4049Y-2.037
X1.5049Y-0.137
X1.5049Y-2.037
X1.6049Y-0.137
X1.6049Y-2.037
X1.7035Y-0.9376
X1.7035Y-1.0376
X1.7035Y-1.1376
X1.7035Y-1.2376
X1.7049Y-0.137
X1.7049Y-2.037
X1.8049Y-0.137
X1.8049Y-2.037
X1.9049Y-0.137
X1.9049Y-2.037
T5
X0.7303Y-1.5906
X0.7303Y-1.7677
X0.9862Y-1.5906
X0.9862Y-1.7677
T0
M30
