%TF.GenerationSoftware,KiCad,Pcbnew,(6.0.2)*%
%TF.CreationDate,2022-03-01T12:54:46-05:00*%
%TF.ProjectId,arduino_shield,61726475-696e-46f5-9f73-6869656c642e,A*%
%TF.SameCoordinates,PX8954400PY4e95300*%
%TF.FileFunction,Copper,L2,Bot*%
%TF.FilePolarity,Positive*%
%FSLAX46Y46*%
G04 Gerber Fmt 4.6, Leading zero omitted, Abs format (unit mm)*
G04 Created by KiCad (PCBNEW (6.0.2)) date 2022-03-01 12:54:46*
%MOMM*%
%LPD*%
G01*
G04 APERTURE LIST*
%TA.AperFunction,ComponentPad*%
%ADD10C,1.800000*%
%TD*%
%TA.AperFunction,ComponentPad*%
%ADD11C,2.000000*%
%TD*%
%TA.AperFunction,ComponentPad*%
%ADD12R,1.700000X1.700000*%
%TD*%
%TA.AperFunction,ComponentPad*%
%ADD13O,1.700000X1.700000*%
%TD*%
%TA.AperFunction,ComponentPad*%
%ADD14R,1.600000X1.600000*%
%TD*%
%TA.AperFunction,ComponentPad*%
%ADD15O,1.600000X1.600000*%
%TD*%
%TA.AperFunction,ViaPad*%
%ADD16C,1.400000*%
%TD*%
%TA.AperFunction,ViaPad*%
%ADD17C,0.800000*%
%TD*%
%TA.AperFunction,Conductor*%
%ADD18C,1.000000*%
%TD*%
%TA.AperFunction,Conductor*%
%ADD19C,0.250000*%
%TD*%
G04 APERTURE END LIST*
D10*
%TO.P,DS1,1,GND*%
%TO.N,GND*%
X17940000Y-8300000D03*
%TO.P,DS1,2,VCC*%
%TO.N,+5V*%
X20480000Y-8300000D03*
%TO.P,DS1,3,SCL*%
%TO.N,/I2C_SCL*%
X23020000Y-8300000D03*
%TO.P,DS1,4,SDA*%
%TO.N,/I2C_SDA*%
X25560000Y-8300000D03*
%TD*%
D11*
%TO.P,SW1,1,1*%
%TO.N,GND*%
X25050000Y-40400000D03*
X18550000Y-40400000D03*
%TO.P,SW1,2,2*%
%TO.N,/INPUT*%
X18550000Y-44900000D03*
X25050000Y-44900000D03*
%TD*%
D12*
%TO.P,J1,1,Pin_1*%
%TO.N,+5V*%
X43270000Y-23815000D03*
D13*
%TO.P,J1,2,Pin_2*%
%TO.N,/SENSOR_A*%
X43270000Y-26355000D03*
%TO.P,J1,3,Pin_3*%
%TO.N,/SENSOR_B*%
X43270000Y-28895000D03*
%TO.P,J1,4,Pin_4*%
%TO.N,GND*%
X43270000Y-31435000D03*
%TD*%
D14*
%TO.P,A1,1,NC*%
%TO.N,unconnected-(A1-Pad1)*%
X12825000Y-51740000D03*
D15*
%TO.P,A1,2,IOREF*%
%TO.N,unconnected-(A1-Pad2)*%
X15365000Y-51740000D03*
%TO.P,A1,3,~{RESET}*%
%TO.N,unconnected-(A1-Pad3)*%
X17905000Y-51740000D03*
%TO.P,A1,4,3V3*%
%TO.N,unconnected-(A1-Pad4)*%
X20445000Y-51740000D03*
%TO.P,A1,5,+5V*%
%TO.N,+5V*%
X22985000Y-51740000D03*
%TO.P,A1,6,GND*%
%TO.N,GND*%
X25525000Y-51740000D03*
%TO.P,A1,7,GND*%
X28065000Y-51740000D03*
%TO.P,A1,8,VIN*%
%TO.N,unconnected-(A1-Pad8)*%
X30605000Y-51740000D03*
%TO.P,A1,9,A0*%
%TO.N,unconnected-(A1-Pad9)*%
X35685000Y-51740000D03*
%TO.P,A1,10,A1*%
%TO.N,unconnected-(A1-Pad10)*%
X38225000Y-51740000D03*
%TO.P,A1,11,A2*%
%TO.N,unconnected-(A1-Pad11)*%
X40765000Y-51740000D03*
%TO.P,A1,12,A3*%
%TO.N,unconnected-(A1-Pad12)*%
X43305000Y-51740000D03*
%TO.P,A1,13,SDA/A4*%
%TO.N,/I2C_SDA*%
X45845000Y-51740000D03*
%TO.P,A1,14,SCL/A5*%
%TO.N,/I2C_SCL*%
X48385000Y-51740000D03*
%TO.P,A1,15,D0/RX*%
%TO.N,unconnected-(A1-Pad15)*%
X48385000Y-3480000D03*
%TO.P,A1,16,D1/TX*%
%TO.N,unconnected-(A1-Pad16)*%
X45845000Y-3480000D03*
%TO.P,A1,17,D2*%
%TO.N,/SENSOR_A*%
X43305000Y-3480000D03*
%TO.P,A1,18,D3*%
%TO.N,/SENSOR_B*%
X40765000Y-3480000D03*
%TO.P,A1,19,D4*%
%TO.N,unconnected-(A1-Pad19)*%
X38225000Y-3480000D03*
%TO.P,A1,20,D5*%
%TO.N,/OUTPUT*%
X35685000Y-3480000D03*
%TO.P,A1,21,D6*%
%TO.N,unconnected-(A1-Pad21)*%
X33145000Y-3480000D03*
%TO.P,A1,22,D7*%
%TO.N,unconnected-(A1-Pad22)*%
X30605000Y-3480000D03*
%TO.P,A1,23,D8*%
%TO.N,/INPUT*%
X26545000Y-3480000D03*
%TO.P,A1,24,D9*%
%TO.N,unconnected-(A1-Pad24)*%
X24005000Y-3480000D03*
%TO.P,A1,25,D10*%
%TO.N,unconnected-(A1-Pad25)*%
X21465000Y-3480000D03*
%TO.P,A1,26,D11*%
%TO.N,unconnected-(A1-Pad26)*%
X18925000Y-3480000D03*
%TO.P,A1,27,D12*%
%TO.N,unconnected-(A1-Pad27)*%
X16385000Y-3480000D03*
%TO.P,A1,28,D13*%
%TO.N,unconnected-(A1-Pad28)*%
X13845000Y-3480000D03*
%TO.P,A1,29,GND*%
%TO.N,GND*%
X11305000Y-3480000D03*
%TO.P,A1,30,AREF*%
%TO.N,unconnected-(A1-Pad30)*%
X8765000Y-3480000D03*
%TO.P,A1,31,SDA/A4*%
%TO.N,unconnected-(A1-Pad31)*%
X6225000Y-3480000D03*
%TO.P,A1,32,SCL/A5*%
%TO.N,unconnected-(A1-Pad32)*%
X3685000Y-3480000D03*
%TD*%
D16*
%TO.N,+5V*%
X41000000Y-5825989D03*
D17*
%TO.N,GND*%
X15000000Y-36350000D03*
%TO.N,/I2C_SDA*%
X45800000Y-8300000D03*
%TO.N,/I2C_SCL*%
X45800000Y-7200000D03*
%TO.N,/OUTPUT*%
X26800000Y-9900000D03*
X34551793Y-9024500D03*
%TD*%
D18*
%TO.N,+5V*%
X22954010Y-5825990D02*
X41000000Y-5825989D01*
X20480000Y-8300000D02*
X22954010Y-5825990D01*
D19*
%TO.N,/I2C_SDA*%
X25560000Y-8300000D02*
X45800000Y-8300000D01*
%TO.N,/I2C_SCL*%
X24320000Y-7000000D02*
X45600000Y-7000000D01*
X45600000Y-7000000D02*
X45800000Y-7200000D01*
X23020000Y-8300000D02*
X24320000Y-7000000D01*
%TO.N,/OUTPUT*%
X26800000Y-9900000D02*
X27700000Y-9000000D01*
X27700000Y-9000000D02*
X34527293Y-9000000D01*
X34527293Y-9000000D02*
X34551793Y-9024500D01*
%TD*%
%TA.AperFunction,Conductor*%
%TO.N,GND*%
G36*
X49205511Y-1478002D02*
G01*
X49226485Y-1494905D01*
X50355095Y-2623515D01*
X50389121Y-2685827D01*
X50392000Y-2712610D01*
X50392000Y-52487390D01*
X50371998Y-52555511D01*
X50355095Y-52576485D01*
X49226485Y-53705095D01*
X49164173Y-53739121D01*
X49137390Y-53742000D01*
X3049328Y-53742000D01*
X3029943Y-53740500D01*
X3029661Y-53740456D01*
X3027716Y-53740153D01*
X3015141Y-53738195D01*
X3015139Y-53738195D01*
X3006270Y-53736814D01*
X2997368Y-53737978D01*
X2997366Y-53737978D01*
X2991041Y-53738805D01*
X2965718Y-53739548D01*
X2796657Y-53727457D01*
X2778863Y-53724899D01*
X2687825Y-53705095D01*
X2588460Y-53683479D01*
X2571212Y-53678414D01*
X2388642Y-53610318D01*
X2372290Y-53602851D01*
X2306980Y-53567190D01*
X2201266Y-53509466D01*
X2186152Y-53499752D01*
X2030159Y-53382977D01*
X2016572Y-53371204D01*
X1878796Y-53233428D01*
X1867023Y-53219842D01*
X1775520Y-53097608D01*
X1750248Y-53063848D01*
X1740531Y-53048729D01*
X1740205Y-53048131D01*
X1647149Y-52877710D01*
X1639682Y-52861358D01*
X1571586Y-52678788D01*
X1566520Y-52661538D01*
X1565689Y-52657715D01*
X1550552Y-52588134D01*
X11516500Y-52588134D01*
X11523255Y-52650316D01*
X11574385Y-52786705D01*
X11661739Y-52903261D01*
X11778295Y-52990615D01*
X11914684Y-53041745D01*
X11976866Y-53048500D01*
X13673134Y-53048500D01*
X13735316Y-53041745D01*
X13871705Y-52990615D01*
X13988261Y-52903261D01*
X14075615Y-52786705D01*
X14126745Y-52650316D01*
X14127917Y-52639526D01*
X14128803Y-52637394D01*
X14129425Y-52634778D01*
X14129848Y-52634879D01*
X14155155Y-52573965D01*
X14213517Y-52533537D01*
X14284471Y-52531078D01*
X14345490Y-52567371D01*
X14352489Y-52576031D01*
X14355643Y-52579789D01*
X14358802Y-52584300D01*
X14520700Y-52746198D01*
X14525208Y-52749355D01*
X14525211Y-52749357D01*
X14553833Y-52769398D01*
X14708251Y-52877523D01*
X14713233Y-52879846D01*
X14713238Y-52879849D01*
X14909765Y-52971490D01*
X14915757Y-52974284D01*
X14921065Y-52975706D01*
X14921067Y-52975707D01*
X15131598Y-53032119D01*
X15131600Y-53032119D01*
X15136913Y-53033543D01*
X15365000Y-53053498D01*
X15593087Y-53033543D01*
X15598400Y-53032119D01*
X15598402Y-53032119D01*
X15808933Y-52975707D01*
X15808935Y-52975706D01*
X15814243Y-52974284D01*
X15820235Y-52971490D01*
X16016762Y-52879849D01*
X16016767Y-52879846D01*
X16021749Y-52877523D01*
X16176167Y-52769398D01*
X16204789Y-52749357D01*
X16204792Y-52749355D01*
X16209300Y-52746198D01*
X16371198Y-52584300D01*
X16391357Y-52555511D01*
X16499366Y-52401257D01*
X16502523Y-52396749D01*
X16504846Y-52391767D01*
X16504849Y-52391762D01*
X16520805Y-52357543D01*
X16567722Y-52304258D01*
X16635999Y-52284797D01*
X16703959Y-52305339D01*
X16749195Y-52357543D01*
X16765151Y-52391762D01*
X16765154Y-52391767D01*
X16767477Y-52396749D01*
X16770634Y-52401257D01*
X16878644Y-52555511D01*
X16898802Y-52584300D01*
X17060700Y-52746198D01*
X17065208Y-52749355D01*
X17065211Y-52749357D01*
X17093833Y-52769398D01*
X17248251Y-52877523D01*
X17253233Y-52879846D01*
X17253238Y-52879849D01*
X17449765Y-52971490D01*
X17455757Y-52974284D01*
X17461065Y-52975706D01*
X17461067Y-52975707D01*
X17671598Y-53032119D01*
X17671600Y-53032119D01*
X17676913Y-53033543D01*
X17905000Y-53053498D01*
X18133087Y-53033543D01*
X18138400Y-53032119D01*
X18138402Y-53032119D01*
X18348933Y-52975707D01*
X18348935Y-52975706D01*
X18354243Y-52974284D01*
X18360235Y-52971490D01*
X18556762Y-52879849D01*
X18556767Y-52879846D01*
X18561749Y-52877523D01*
X18716167Y-52769398D01*
X18744789Y-52749357D01*
X18744792Y-52749355D01*
X18749300Y-52746198D01*
X18911198Y-52584300D01*
X18931357Y-52555511D01*
X19039366Y-52401257D01*
X19042523Y-52396749D01*
X19044846Y-52391767D01*
X19044849Y-52391762D01*
X19060805Y-52357543D01*
X19107722Y-52304258D01*
X19175999Y-52284797D01*
X19243959Y-52305339D01*
X19289195Y-52357543D01*
X19305151Y-52391762D01*
X19305154Y-52391767D01*
X19307477Y-52396749D01*
X19310634Y-52401257D01*
X19418644Y-52555511D01*
X19438802Y-52584300D01*
X19600700Y-52746198D01*
X19605208Y-52749355D01*
X19605211Y-52749357D01*
X19633833Y-52769398D01*
X19788251Y-52877523D01*
X19793233Y-52879846D01*
X19793238Y-52879849D01*
X19989765Y-52971490D01*
X19995757Y-52974284D01*
X20001065Y-52975706D01*
X20001067Y-52975707D01*
X20211598Y-53032119D01*
X20211600Y-53032119D01*
X20216913Y-53033543D01*
X20445000Y-53053498D01*
X20673087Y-53033543D01*
X20678400Y-53032119D01*
X20678402Y-53032119D01*
X20888933Y-52975707D01*
X20888935Y-52975706D01*
X20894243Y-52974284D01*
X20900235Y-52971490D01*
X21096762Y-52879849D01*
X21096767Y-52879846D01*
X21101749Y-52877523D01*
X21256167Y-52769398D01*
X21284789Y-52749357D01*
X21284792Y-52749355D01*
X21289300Y-52746198D01*
X21451198Y-52584300D01*
X21471357Y-52555511D01*
X21579366Y-52401257D01*
X21582523Y-52396749D01*
X21584846Y-52391767D01*
X21584849Y-52391762D01*
X21600805Y-52357543D01*
X21647722Y-52304258D01*
X21715999Y-52284797D01*
X21783959Y-52305339D01*
X21829195Y-52357543D01*
X21845151Y-52391762D01*
X21845154Y-52391767D01*
X21847477Y-52396749D01*
X21850634Y-52401257D01*
X21958644Y-52555511D01*
X21978802Y-52584300D01*
X22140700Y-52746198D01*
X22145208Y-52749355D01*
X22145211Y-52749357D01*
X22173833Y-52769398D01*
X22328251Y-52877523D01*
X22333233Y-52879846D01*
X22333238Y-52879849D01*
X22529765Y-52971490D01*
X22535757Y-52974284D01*
X22541065Y-52975706D01*
X22541067Y-52975707D01*
X22751598Y-53032119D01*
X22751600Y-53032119D01*
X22756913Y-53033543D01*
X22985000Y-53053498D01*
X23213087Y-53033543D01*
X23218400Y-53032119D01*
X23218402Y-53032119D01*
X23428933Y-52975707D01*
X23428935Y-52975706D01*
X23434243Y-52974284D01*
X23440235Y-52971490D01*
X23636762Y-52879849D01*
X23636767Y-52879846D01*
X23641749Y-52877523D01*
X23796167Y-52769398D01*
X23824789Y-52749357D01*
X23824792Y-52749355D01*
X23829300Y-52746198D01*
X23991198Y-52584300D01*
X24011357Y-52555511D01*
X24119366Y-52401257D01*
X24122523Y-52396749D01*
X24124846Y-52391767D01*
X24124849Y-52391762D01*
X24141081Y-52356951D01*
X24187998Y-52303666D01*
X24256275Y-52284205D01*
X24324235Y-52304747D01*
X24369471Y-52356951D01*
X24385586Y-52391511D01*
X24391069Y-52401007D01*
X24516028Y-52579467D01*
X24523084Y-52587875D01*
X24677125Y-52741916D01*
X24685533Y-52748972D01*
X24863993Y-52873931D01*
X24873489Y-52879414D01*
X25070947Y-52971490D01*
X25081239Y-52975236D01*
X25253503Y-53021394D01*
X25267599Y-53021058D01*
X25271000Y-53013116D01*
X25271000Y-53007967D01*
X25779000Y-53007967D01*
X25782973Y-53021498D01*
X25791522Y-53022727D01*
X25968761Y-52975236D01*
X25979053Y-52971490D01*
X26176511Y-52879414D01*
X26186007Y-52873931D01*
X26364467Y-52748972D01*
X26372875Y-52741916D01*
X26526916Y-52587875D01*
X26533972Y-52579467D01*
X26658931Y-52401007D01*
X26664414Y-52391511D01*
X26680805Y-52356359D01*
X26727722Y-52303074D01*
X26795999Y-52283613D01*
X26863959Y-52304155D01*
X26909195Y-52356359D01*
X26925586Y-52391511D01*
X26931069Y-52401007D01*
X27056028Y-52579467D01*
X27063084Y-52587875D01*
X27217125Y-52741916D01*
X27225533Y-52748972D01*
X27403993Y-52873931D01*
X27413489Y-52879414D01*
X27610947Y-52971490D01*
X27621239Y-52975236D01*
X27793503Y-53021394D01*
X27807599Y-53021058D01*
X27811000Y-53013116D01*
X27811000Y-53007967D01*
X28319000Y-53007967D01*
X28322973Y-53021498D01*
X28331522Y-53022727D01*
X28508761Y-52975236D01*
X28519053Y-52971490D01*
X28716511Y-52879414D01*
X28726007Y-52873931D01*
X28904467Y-52748972D01*
X28912875Y-52741916D01*
X29066916Y-52587875D01*
X29073972Y-52579467D01*
X29198931Y-52401007D01*
X29204414Y-52391511D01*
X29220529Y-52356951D01*
X29267446Y-52303666D01*
X29335723Y-52284205D01*
X29403683Y-52304747D01*
X29448919Y-52356951D01*
X29465151Y-52391762D01*
X29465154Y-52391767D01*
X29467477Y-52396749D01*
X29470634Y-52401257D01*
X29578644Y-52555511D01*
X29598802Y-52584300D01*
X29760700Y-52746198D01*
X29765208Y-52749355D01*
X29765211Y-52749357D01*
X29793833Y-52769398D01*
X29948251Y-52877523D01*
X29953233Y-52879846D01*
X29953238Y-52879849D01*
X30149765Y-52971490D01*
X30155757Y-52974284D01*
X30161065Y-52975706D01*
X30161067Y-52975707D01*
X30371598Y-53032119D01*
X30371600Y-53032119D01*
X30376913Y-53033543D01*
X30605000Y-53053498D01*
X30833087Y-53033543D01*
X30838400Y-53032119D01*
X30838402Y-53032119D01*
X31048933Y-52975707D01*
X31048935Y-52975706D01*
X31054243Y-52974284D01*
X31060235Y-52971490D01*
X31256762Y-52879849D01*
X31256767Y-52879846D01*
X31261749Y-52877523D01*
X31416167Y-52769398D01*
X31444789Y-52749357D01*
X31444792Y-52749355D01*
X31449300Y-52746198D01*
X31611198Y-52584300D01*
X31631357Y-52555511D01*
X31739366Y-52401257D01*
X31742523Y-52396749D01*
X31744846Y-52391767D01*
X31744849Y-52391762D01*
X31836961Y-52194225D01*
X31836961Y-52194224D01*
X31839284Y-52189243D01*
X31887970Y-52007548D01*
X31897119Y-51973402D01*
X31897119Y-51973400D01*
X31898543Y-51968087D01*
X31918498Y-51740000D01*
X34371502Y-51740000D01*
X34391457Y-51968087D01*
X34392881Y-51973400D01*
X34392881Y-51973402D01*
X34402031Y-52007548D01*
X34450716Y-52189243D01*
X34453039Y-52194224D01*
X34453039Y-52194225D01*
X34545151Y-52391762D01*
X34545154Y-52391767D01*
X34547477Y-52396749D01*
X34550634Y-52401257D01*
X34658644Y-52555511D01*
X34678802Y-52584300D01*
X34840700Y-52746198D01*
X34845208Y-52749355D01*
X34845211Y-52749357D01*
X34873833Y-52769398D01*
X35028251Y-52877523D01*
X35033233Y-52879846D01*
X35033238Y-52879849D01*
X35229765Y-52971490D01*
X35235757Y-52974284D01*
X35241065Y-52975706D01*
X35241067Y-52975707D01*
X35451598Y-53032119D01*
X35451600Y-53032119D01*
X35456913Y-53033543D01*
X35685000Y-53053498D01*
X35913087Y-53033543D01*
X35918400Y-53032119D01*
X35918402Y-53032119D01*
X36128933Y-52975707D01*
X36128935Y-52975706D01*
X36134243Y-52974284D01*
X36140235Y-52971490D01*
X36336762Y-52879849D01*
X36336767Y-52879846D01*
X36341749Y-52877523D01*
X36496167Y-52769398D01*
X36524789Y-52749357D01*
X36524792Y-52749355D01*
X36529300Y-52746198D01*
X36691198Y-52584300D01*
X36711357Y-52555511D01*
X36819366Y-52401257D01*
X36822523Y-52396749D01*
X36824846Y-52391767D01*
X36824849Y-52391762D01*
X36840805Y-52357543D01*
X36887722Y-52304258D01*
X36955999Y-52284797D01*
X37023959Y-52305339D01*
X37069195Y-52357543D01*
X37085151Y-52391762D01*
X37085154Y-52391767D01*
X37087477Y-52396749D01*
X37090634Y-52401257D01*
X37198644Y-52555511D01*
X37218802Y-52584300D01*
X37380700Y-52746198D01*
X37385208Y-52749355D01*
X37385211Y-52749357D01*
X37413833Y-52769398D01*
X37568251Y-52877523D01*
X37573233Y-52879846D01*
X37573238Y-52879849D01*
X37769765Y-52971490D01*
X37775757Y-52974284D01*
X37781065Y-52975706D01*
X37781067Y-52975707D01*
X37991598Y-53032119D01*
X37991600Y-53032119D01*
X37996913Y-53033543D01*
X38225000Y-53053498D01*
X38453087Y-53033543D01*
X38458400Y-53032119D01*
X38458402Y-53032119D01*
X38668933Y-52975707D01*
X38668935Y-52975706D01*
X38674243Y-52974284D01*
X38680235Y-52971490D01*
X38876762Y-52879849D01*
X38876767Y-52879846D01*
X38881749Y-52877523D01*
X39036167Y-52769398D01*
X39064789Y-52749357D01*
X39064792Y-52749355D01*
X39069300Y-52746198D01*
X39231198Y-52584300D01*
X39251357Y-52555511D01*
X39359366Y-52401257D01*
X39362523Y-52396749D01*
X39364846Y-52391767D01*
X39364849Y-52391762D01*
X39380805Y-52357543D01*
X39427722Y-52304258D01*
X39495999Y-52284797D01*
X39563959Y-52305339D01*
X39609195Y-52357543D01*
X39625151Y-52391762D01*
X39625154Y-52391767D01*
X39627477Y-52396749D01*
X39630634Y-52401257D01*
X39738644Y-52555511D01*
X39758802Y-52584300D01*
X39920700Y-52746198D01*
X39925208Y-52749355D01*
X39925211Y-52749357D01*
X39953833Y-52769398D01*
X40108251Y-52877523D01*
X40113233Y-52879846D01*
X40113238Y-52879849D01*
X40309765Y-52971490D01*
X40315757Y-52974284D01*
X40321065Y-52975706D01*
X40321067Y-52975707D01*
X40531598Y-53032119D01*
X40531600Y-53032119D01*
X40536913Y-53033543D01*
X40765000Y-53053498D01*
X40993087Y-53033543D01*
X40998400Y-53032119D01*
X40998402Y-53032119D01*
X41208933Y-52975707D01*
X41208935Y-52975706D01*
X41214243Y-52974284D01*
X41220235Y-52971490D01*
X41416762Y-52879849D01*
X41416767Y-52879846D01*
X41421749Y-52877523D01*
X41576167Y-52769398D01*
X41604789Y-52749357D01*
X41604792Y-52749355D01*
X41609300Y-52746198D01*
X41771198Y-52584300D01*
X41791357Y-52555511D01*
X41899366Y-52401257D01*
X41902523Y-52396749D01*
X41904846Y-52391767D01*
X41904849Y-52391762D01*
X41920805Y-52357543D01*
X41967722Y-52304258D01*
X42035999Y-52284797D01*
X42103959Y-52305339D01*
X42149195Y-52357543D01*
X42165151Y-52391762D01*
X42165154Y-52391767D01*
X42167477Y-52396749D01*
X42170634Y-52401257D01*
X42278644Y-52555511D01*
X42298802Y-52584300D01*
X42460700Y-52746198D01*
X42465208Y-52749355D01*
X42465211Y-52749357D01*
X42493833Y-52769398D01*
X42648251Y-52877523D01*
X42653233Y-52879846D01*
X42653238Y-52879849D01*
X42849765Y-52971490D01*
X42855757Y-52974284D01*
X42861065Y-52975706D01*
X42861067Y-52975707D01*
X43071598Y-53032119D01*
X43071600Y-53032119D01*
X43076913Y-53033543D01*
X43305000Y-53053498D01*
X43533087Y-53033543D01*
X43538400Y-53032119D01*
X43538402Y-53032119D01*
X43748933Y-52975707D01*
X43748935Y-52975706D01*
X43754243Y-52974284D01*
X43760235Y-52971490D01*
X43956762Y-52879849D01*
X43956767Y-52879846D01*
X43961749Y-52877523D01*
X44116167Y-52769398D01*
X44144789Y-52749357D01*
X44144792Y-52749355D01*
X44149300Y-52746198D01*
X44311198Y-52584300D01*
X44331357Y-52555511D01*
X44439366Y-52401257D01*
X44442523Y-52396749D01*
X44444846Y-52391767D01*
X44444849Y-52391762D01*
X44460805Y-52357543D01*
X44507722Y-52304258D01*
X44575999Y-52284797D01*
X44643959Y-52305339D01*
X44689195Y-52357543D01*
X44705151Y-52391762D01*
X44705154Y-52391767D01*
X44707477Y-52396749D01*
X44710634Y-52401257D01*
X44818644Y-52555511D01*
X44838802Y-52584300D01*
X45000700Y-52746198D01*
X45005208Y-52749355D01*
X45005211Y-52749357D01*
X45033833Y-52769398D01*
X45188251Y-52877523D01*
X45193233Y-52879846D01*
X45193238Y-52879849D01*
X45389765Y-52971490D01*
X45395757Y-52974284D01*
X45401065Y-52975706D01*
X45401067Y-52975707D01*
X45611598Y-53032119D01*
X45611600Y-53032119D01*
X45616913Y-53033543D01*
X45845000Y-53053498D01*
X46073087Y-53033543D01*
X46078400Y-53032119D01*
X46078402Y-53032119D01*
X46288933Y-52975707D01*
X46288935Y-52975706D01*
X46294243Y-52974284D01*
X46300235Y-52971490D01*
X46496762Y-52879849D01*
X46496767Y-52879846D01*
X46501749Y-52877523D01*
X46656167Y-52769398D01*
X46684789Y-52749357D01*
X46684792Y-52749355D01*
X46689300Y-52746198D01*
X46851198Y-52584300D01*
X46871357Y-52555511D01*
X46979366Y-52401257D01*
X46982523Y-52396749D01*
X46984846Y-52391767D01*
X46984849Y-52391762D01*
X47000805Y-52357543D01*
X47047722Y-52304258D01*
X47115999Y-52284797D01*
X47183959Y-52305339D01*
X47229195Y-52357543D01*
X47245151Y-52391762D01*
X47245154Y-52391767D01*
X47247477Y-52396749D01*
X47250634Y-52401257D01*
X47358644Y-52555511D01*
X47378802Y-52584300D01*
X47540700Y-52746198D01*
X47545208Y-52749355D01*
X47545211Y-52749357D01*
X47573833Y-52769398D01*
X47728251Y-52877523D01*
X47733233Y-52879846D01*
X47733238Y-52879849D01*
X47929765Y-52971490D01*
X47935757Y-52974284D01*
X47941065Y-52975706D01*
X47941067Y-52975707D01*
X48151598Y-53032119D01*
X48151600Y-53032119D01*
X48156913Y-53033543D01*
X48385000Y-53053498D01*
X48613087Y-53033543D01*
X48618400Y-53032119D01*
X48618402Y-53032119D01*
X48828933Y-52975707D01*
X48828935Y-52975706D01*
X48834243Y-52974284D01*
X48840235Y-52971490D01*
X49036762Y-52879849D01*
X49036767Y-52879846D01*
X49041749Y-52877523D01*
X49196167Y-52769398D01*
X49224789Y-52749357D01*
X49224792Y-52749355D01*
X49229300Y-52746198D01*
X49391198Y-52584300D01*
X49411357Y-52555511D01*
X49519366Y-52401257D01*
X49522523Y-52396749D01*
X49524846Y-52391767D01*
X49524849Y-52391762D01*
X49616961Y-52194225D01*
X49616961Y-52194224D01*
X49619284Y-52189243D01*
X49667970Y-52007548D01*
X49677119Y-51973402D01*
X49677119Y-51973400D01*
X49678543Y-51968087D01*
X49698498Y-51740000D01*
X49678543Y-51511913D01*
X49670028Y-51480135D01*
X49620707Y-51296067D01*
X49620706Y-51296065D01*
X49619284Y-51290757D01*
X49565148Y-51174661D01*
X49524849Y-51088238D01*
X49524846Y-51088233D01*
X49522523Y-51083251D01*
X49391198Y-50895700D01*
X49229300Y-50733802D01*
X49224792Y-50730645D01*
X49224789Y-50730643D01*
X49146611Y-50675902D01*
X49041749Y-50602477D01*
X49036767Y-50600154D01*
X49036762Y-50600151D01*
X48839225Y-50508039D01*
X48839224Y-50508039D01*
X48834243Y-50505716D01*
X48828935Y-50504294D01*
X48828933Y-50504293D01*
X48618402Y-50447881D01*
X48618400Y-50447881D01*
X48613087Y-50446457D01*
X48385000Y-50426502D01*
X48156913Y-50446457D01*
X48151600Y-50447881D01*
X48151598Y-50447881D01*
X47941067Y-50504293D01*
X47941065Y-50504294D01*
X47935757Y-50505716D01*
X47930776Y-50508039D01*
X47930775Y-50508039D01*
X47733238Y-50600151D01*
X47733233Y-50600154D01*
X47728251Y-50602477D01*
X47623389Y-50675902D01*
X47545211Y-50730643D01*
X47545208Y-50730645D01*
X47540700Y-50733802D01*
X47378802Y-50895700D01*
X47247477Y-51083251D01*
X47245154Y-51088233D01*
X47245151Y-51088238D01*
X47229195Y-51122457D01*
X47182278Y-51175742D01*
X47114001Y-51195203D01*
X47046041Y-51174661D01*
X47000805Y-51122457D01*
X46984849Y-51088238D01*
X46984846Y-51088233D01*
X46982523Y-51083251D01*
X46851198Y-50895700D01*
X46689300Y-50733802D01*
X46684792Y-50730645D01*
X46684789Y-50730643D01*
X46606611Y-50675902D01*
X46501749Y-50602477D01*
X46496767Y-50600154D01*
X46496762Y-50600151D01*
X46299225Y-50508039D01*
X46299224Y-50508039D01*
X46294243Y-50505716D01*
X46288935Y-50504294D01*
X46288933Y-50504293D01*
X46078402Y-50447881D01*
X46078400Y-50447881D01*
X46073087Y-50446457D01*
X45845000Y-50426502D01*
X45616913Y-50446457D01*
X45611600Y-50447881D01*
X45611598Y-50447881D01*
X45401067Y-50504293D01*
X45401065Y-50504294D01*
X45395757Y-50505716D01*
X45390776Y-50508039D01*
X45390775Y-50508039D01*
X45193238Y-50600151D01*
X45193233Y-50600154D01*
X45188251Y-50602477D01*
X45083389Y-50675902D01*
X45005211Y-50730643D01*
X45005208Y-50730645D01*
X45000700Y-50733802D01*
X44838802Y-50895700D01*
X44707477Y-51083251D01*
X44705154Y-51088233D01*
X44705151Y-51088238D01*
X44689195Y-51122457D01*
X44642278Y-51175742D01*
X44574001Y-51195203D01*
X44506041Y-51174661D01*
X44460805Y-51122457D01*
X44444849Y-51088238D01*
X44444846Y-51088233D01*
X44442523Y-51083251D01*
X44311198Y-50895700D01*
X44149300Y-50733802D01*
X44144792Y-50730645D01*
X44144789Y-50730643D01*
X44066611Y-50675902D01*
X43961749Y-50602477D01*
X43956767Y-50600154D01*
X43956762Y-50600151D01*
X43759225Y-50508039D01*
X43759224Y-50508039D01*
X43754243Y-50505716D01*
X43748935Y-50504294D01*
X43748933Y-50504293D01*
X43538402Y-50447881D01*
X43538400Y-50447881D01*
X43533087Y-50446457D01*
X43305000Y-50426502D01*
X43076913Y-50446457D01*
X43071600Y-50447881D01*
X43071598Y-50447881D01*
X42861067Y-50504293D01*
X42861065Y-50504294D01*
X42855757Y-50505716D01*
X42850776Y-50508039D01*
X42850775Y-50508039D01*
X42653238Y-50600151D01*
X42653233Y-50600154D01*
X42648251Y-50602477D01*
X42543389Y-50675902D01*
X42465211Y-50730643D01*
X42465208Y-50730645D01*
X42460700Y-50733802D01*
X42298802Y-50895700D01*
X42167477Y-51083251D01*
X42165154Y-51088233D01*
X42165151Y-51088238D01*
X42149195Y-51122457D01*
X42102278Y-51175742D01*
X42034001Y-51195203D01*
X41966041Y-51174661D01*
X41920805Y-51122457D01*
X41904849Y-51088238D01*
X41904846Y-51088233D01*
X41902523Y-51083251D01*
X41771198Y-50895700D01*
X41609300Y-50733802D01*
X41604792Y-50730645D01*
X41604789Y-50730643D01*
X41526611Y-50675902D01*
X41421749Y-50602477D01*
X41416767Y-50600154D01*
X41416762Y-50600151D01*
X41219225Y-50508039D01*
X41219224Y-50508039D01*
X41214243Y-50505716D01*
X41208935Y-50504294D01*
X41208933Y-50504293D01*
X40998402Y-50447881D01*
X40998400Y-50447881D01*
X40993087Y-50446457D01*
X40765000Y-50426502D01*
X40536913Y-50446457D01*
X40531600Y-50447881D01*
X40531598Y-50447881D01*
X40321067Y-50504293D01*
X40321065Y-50504294D01*
X40315757Y-50505716D01*
X40310776Y-50508039D01*
X40310775Y-50508039D01*
X40113238Y-50600151D01*
X40113233Y-50600154D01*
X40108251Y-50602477D01*
X40003389Y-50675902D01*
X39925211Y-50730643D01*
X39925208Y-50730645D01*
X39920700Y-50733802D01*
X39758802Y-50895700D01*
X39627477Y-51083251D01*
X39625154Y-51088233D01*
X39625151Y-51088238D01*
X39609195Y-51122457D01*
X39562278Y-51175742D01*
X39494001Y-51195203D01*
X39426041Y-51174661D01*
X39380805Y-51122457D01*
X39364849Y-51088238D01*
X39364846Y-51088233D01*
X39362523Y-51083251D01*
X39231198Y-50895700D01*
X39069300Y-50733802D01*
X39064792Y-50730645D01*
X39064789Y-50730643D01*
X38986611Y-50675902D01*
X38881749Y-50602477D01*
X38876767Y-50600154D01*
X38876762Y-50600151D01*
X38679225Y-50508039D01*
X38679224Y-50508039D01*
X38674243Y-50505716D01*
X38668935Y-50504294D01*
X38668933Y-50504293D01*
X38458402Y-50447881D01*
X38458400Y-50447881D01*
X38453087Y-50446457D01*
X38225000Y-50426502D01*
X37996913Y-50446457D01*
X37991600Y-50447881D01*
X37991598Y-50447881D01*
X37781067Y-50504293D01*
X37781065Y-50504294D01*
X37775757Y-50505716D01*
X37770776Y-50508039D01*
X37770775Y-50508039D01*
X37573238Y-50600151D01*
X37573233Y-50600154D01*
X37568251Y-50602477D01*
X37463389Y-50675902D01*
X37385211Y-50730643D01*
X37385208Y-50730645D01*
X37380700Y-50733802D01*
X37218802Y-50895700D01*
X37087477Y-51083251D01*
X37085154Y-51088233D01*
X37085151Y-51088238D01*
X37069195Y-51122457D01*
X37022278Y-51175742D01*
X36954001Y-51195203D01*
X36886041Y-51174661D01*
X36840805Y-51122457D01*
X36824849Y-51088238D01*
X36824846Y-51088233D01*
X36822523Y-51083251D01*
X36691198Y-50895700D01*
X36529300Y-50733802D01*
X36524792Y-50730645D01*
X36524789Y-50730643D01*
X36446611Y-50675902D01*
X36341749Y-50602477D01*
X36336767Y-50600154D01*
X36336762Y-50600151D01*
X36139225Y-50508039D01*
X36139224Y-50508039D01*
X36134243Y-50505716D01*
X36128935Y-50504294D01*
X36128933Y-50504293D01*
X35918402Y-50447881D01*
X35918400Y-50447881D01*
X35913087Y-50446457D01*
X35685000Y-50426502D01*
X35456913Y-50446457D01*
X35451600Y-50447881D01*
X35451598Y-50447881D01*
X35241067Y-50504293D01*
X35241065Y-50504294D01*
X35235757Y-50505716D01*
X35230776Y-50508039D01*
X35230775Y-50508039D01*
X35033238Y-50600151D01*
X35033233Y-50600154D01*
X35028251Y-50602477D01*
X34923389Y-50675902D01*
X34845211Y-50730643D01*
X34845208Y-50730645D01*
X34840700Y-50733802D01*
X34678802Y-50895700D01*
X34547477Y-51083251D01*
X34545154Y-51088233D01*
X34545151Y-51088238D01*
X34504852Y-51174661D01*
X34450716Y-51290757D01*
X34449294Y-51296065D01*
X34449293Y-51296067D01*
X34399972Y-51480135D01*
X34391457Y-51511913D01*
X34371502Y-51740000D01*
X31918498Y-51740000D01*
X31898543Y-51511913D01*
X31890028Y-51480135D01*
X31840707Y-51296067D01*
X31840706Y-51296065D01*
X31839284Y-51290757D01*
X31785148Y-51174661D01*
X31744849Y-51088238D01*
X31744846Y-51088233D01*
X31742523Y-51083251D01*
X31611198Y-50895700D01*
X31449300Y-50733802D01*
X31444792Y-50730645D01*
X31444789Y-50730643D01*
X31366611Y-50675902D01*
X31261749Y-50602477D01*
X31256767Y-50600154D01*
X31256762Y-50600151D01*
X31059225Y-50508039D01*
X31059224Y-50508039D01*
X31054243Y-50505716D01*
X31048935Y-50504294D01*
X31048933Y-50504293D01*
X30838402Y-50447881D01*
X30838400Y-50447881D01*
X30833087Y-50446457D01*
X30605000Y-50426502D01*
X30376913Y-50446457D01*
X30371600Y-50447881D01*
X30371598Y-50447881D01*
X30161067Y-50504293D01*
X30161065Y-50504294D01*
X30155757Y-50505716D01*
X30150776Y-50508039D01*
X30150775Y-50508039D01*
X29953238Y-50600151D01*
X29953233Y-50600154D01*
X29948251Y-50602477D01*
X29843389Y-50675902D01*
X29765211Y-50730643D01*
X29765208Y-50730645D01*
X29760700Y-50733802D01*
X29598802Y-50895700D01*
X29467477Y-51083251D01*
X29465154Y-51088233D01*
X29465151Y-51088238D01*
X29448919Y-51123049D01*
X29402002Y-51176334D01*
X29333725Y-51195795D01*
X29265765Y-51175253D01*
X29220529Y-51123049D01*
X29204414Y-51088489D01*
X29198931Y-51078993D01*
X29073972Y-50900533D01*
X29066916Y-50892125D01*
X28912875Y-50738084D01*
X28904467Y-50731028D01*
X28726007Y-50606069D01*
X28716511Y-50600586D01*
X28519053Y-50508510D01*
X28508761Y-50504764D01*
X28336497Y-50458606D01*
X28322401Y-50458942D01*
X28319000Y-50466884D01*
X28319000Y-53007967D01*
X27811000Y-53007967D01*
X27811000Y-52012115D01*
X27806525Y-51996876D01*
X27805135Y-51995671D01*
X27797452Y-51994000D01*
X25797115Y-51994000D01*
X25781876Y-51998475D01*
X25780671Y-51999865D01*
X25779000Y-52007548D01*
X25779000Y-53007967D01*
X25271000Y-53007967D01*
X25271000Y-51467885D01*
X25779000Y-51467885D01*
X25783475Y-51483124D01*
X25784865Y-51484329D01*
X25792548Y-51486000D01*
X27792885Y-51486000D01*
X27808124Y-51481525D01*
X27809329Y-51480135D01*
X27811000Y-51472452D01*
X27811000Y-50472033D01*
X27807027Y-50458502D01*
X27798478Y-50457273D01*
X27621239Y-50504764D01*
X27610947Y-50508510D01*
X27413489Y-50600586D01*
X27403993Y-50606069D01*
X27225533Y-50731028D01*
X27217125Y-50738084D01*
X27063084Y-50892125D01*
X27056028Y-50900533D01*
X26931069Y-51078993D01*
X26925586Y-51088489D01*
X26909195Y-51123641D01*
X26862278Y-51176926D01*
X26794001Y-51196387D01*
X26726041Y-51175845D01*
X26680805Y-51123641D01*
X26664414Y-51088489D01*
X26658931Y-51078993D01*
X26533972Y-50900533D01*
X26526916Y-50892125D01*
X26372875Y-50738084D01*
X26364467Y-50731028D01*
X26186007Y-50606069D01*
X26176511Y-50600586D01*
X25979053Y-50508510D01*
X25968761Y-50504764D01*
X25796497Y-50458606D01*
X25782401Y-50458942D01*
X25779000Y-50466884D01*
X25779000Y-51467885D01*
X25271000Y-51467885D01*
X25271000Y-50472033D01*
X25267027Y-50458502D01*
X25258478Y-50457273D01*
X25081239Y-50504764D01*
X25070947Y-50508510D01*
X24873489Y-50600586D01*
X24863993Y-50606069D01*
X24685533Y-50731028D01*
X24677125Y-50738084D01*
X24523084Y-50892125D01*
X24516028Y-50900533D01*
X24391069Y-51078993D01*
X24385586Y-51088489D01*
X24369471Y-51123049D01*
X24322554Y-51176334D01*
X24254277Y-51195795D01*
X24186317Y-51175253D01*
X24141081Y-51123049D01*
X24124849Y-51088238D01*
X24124846Y-51088233D01*
X24122523Y-51083251D01*
X23991198Y-50895700D01*
X23829300Y-50733802D01*
X23824792Y-50730645D01*
X23824789Y-50730643D01*
X23746611Y-50675902D01*
X23641749Y-50602477D01*
X23636767Y-50600154D01*
X23636762Y-50600151D01*
X23439225Y-50508039D01*
X23439224Y-50508039D01*
X23434243Y-50505716D01*
X23428935Y-50504294D01*
X23428933Y-50504293D01*
X23218402Y-50447881D01*
X23218400Y-50447881D01*
X23213087Y-50446457D01*
X22985000Y-50426502D01*
X22756913Y-50446457D01*
X22751600Y-50447881D01*
X22751598Y-50447881D01*
X22541067Y-50504293D01*
X22541065Y-50504294D01*
X22535757Y-50505716D01*
X22530776Y-50508039D01*
X22530775Y-50508039D01*
X22333238Y-50600151D01*
X22333233Y-50600154D01*
X22328251Y-50602477D01*
X22223389Y-50675902D01*
X22145211Y-50730643D01*
X22145208Y-50730645D01*
X22140700Y-50733802D01*
X21978802Y-50895700D01*
X21847477Y-51083251D01*
X21845154Y-51088233D01*
X21845151Y-51088238D01*
X21829195Y-51122457D01*
X21782278Y-51175742D01*
X21714001Y-51195203D01*
X21646041Y-51174661D01*
X21600805Y-51122457D01*
X21584849Y-51088238D01*
X21584846Y-51088233D01*
X21582523Y-51083251D01*
X21451198Y-50895700D01*
X21289300Y-50733802D01*
X21284792Y-50730645D01*
X21284789Y-50730643D01*
X21206611Y-50675902D01*
X21101749Y-50602477D01*
X21096767Y-50600154D01*
X21096762Y-50600151D01*
X20899225Y-50508039D01*
X20899224Y-50508039D01*
X20894243Y-50505716D01*
X20888935Y-50504294D01*
X20888933Y-50504293D01*
X20678402Y-50447881D01*
X20678400Y-50447881D01*
X20673087Y-50446457D01*
X20445000Y-50426502D01*
X20216913Y-50446457D01*
X20211600Y-50447881D01*
X20211598Y-50447881D01*
X20001067Y-50504293D01*
X20001065Y-50504294D01*
X19995757Y-50505716D01*
X19990776Y-50508039D01*
X19990775Y-50508039D01*
X19793238Y-50600151D01*
X19793233Y-50600154D01*
X19788251Y-50602477D01*
X19683389Y-50675902D01*
X19605211Y-50730643D01*
X19605208Y-50730645D01*
X19600700Y-50733802D01*
X19438802Y-50895700D01*
X19307477Y-51083251D01*
X19305154Y-51088233D01*
X19305151Y-51088238D01*
X19289195Y-51122457D01*
X19242278Y-51175742D01*
X19174001Y-51195203D01*
X19106041Y-51174661D01*
X19060805Y-51122457D01*
X19044849Y-51088238D01*
X19044846Y-51088233D01*
X19042523Y-51083251D01*
X18911198Y-50895700D01*
X18749300Y-50733802D01*
X18744792Y-50730645D01*
X18744789Y-50730643D01*
X18666611Y-50675902D01*
X18561749Y-50602477D01*
X18556767Y-50600154D01*
X18556762Y-50600151D01*
X18359225Y-50508039D01*
X18359224Y-50508039D01*
X18354243Y-50505716D01*
X18348935Y-50504294D01*
X18348933Y-50504293D01*
X18138402Y-50447881D01*
X18138400Y-50447881D01*
X18133087Y-50446457D01*
X17905000Y-50426502D01*
X17676913Y-50446457D01*
X17671600Y-50447881D01*
X17671598Y-50447881D01*
X17461067Y-50504293D01*
X17461065Y-50504294D01*
X17455757Y-50505716D01*
X17450776Y-50508039D01*
X17450775Y-50508039D01*
X17253238Y-50600151D01*
X17253233Y-50600154D01*
X17248251Y-50602477D01*
X17143389Y-50675902D01*
X17065211Y-50730643D01*
X17065208Y-50730645D01*
X17060700Y-50733802D01*
X16898802Y-50895700D01*
X16767477Y-51083251D01*
X16765154Y-51088233D01*
X16765151Y-51088238D01*
X16749195Y-51122457D01*
X16702278Y-51175742D01*
X16634001Y-51195203D01*
X16566041Y-51174661D01*
X16520805Y-51122457D01*
X16504849Y-51088238D01*
X16504846Y-51088233D01*
X16502523Y-51083251D01*
X16371198Y-50895700D01*
X16209300Y-50733802D01*
X16204792Y-50730645D01*
X16204789Y-50730643D01*
X16126611Y-50675902D01*
X16021749Y-50602477D01*
X16016767Y-50600154D01*
X16016762Y-50600151D01*
X15819225Y-50508039D01*
X15819224Y-50508039D01*
X15814243Y-50505716D01*
X15808935Y-50504294D01*
X15808933Y-50504293D01*
X15598402Y-50447881D01*
X15598400Y-50447881D01*
X15593087Y-50446457D01*
X15365000Y-50426502D01*
X15136913Y-50446457D01*
X15131600Y-50447881D01*
X15131598Y-50447881D01*
X14921067Y-50504293D01*
X14921065Y-50504294D01*
X14915757Y-50505716D01*
X14910776Y-50508039D01*
X14910775Y-50508039D01*
X14713238Y-50600151D01*
X14713233Y-50600154D01*
X14708251Y-50602477D01*
X14603389Y-50675902D01*
X14525211Y-50730643D01*
X14525208Y-50730645D01*
X14520700Y-50733802D01*
X14358802Y-50895700D01*
X14355643Y-50900211D01*
X14352108Y-50904424D01*
X14350974Y-50903473D01*
X14300929Y-50943471D01*
X14230310Y-50950776D01*
X14166951Y-50918742D01*
X14130970Y-50857538D01*
X14127918Y-50840483D01*
X14126745Y-50829684D01*
X14075615Y-50693295D01*
X13988261Y-50576739D01*
X13871705Y-50489385D01*
X13735316Y-50438255D01*
X13673134Y-50431500D01*
X11976866Y-50431500D01*
X11914684Y-50438255D01*
X11778295Y-50489385D01*
X11661739Y-50576739D01*
X11574385Y-50693295D01*
X11523255Y-50829684D01*
X11516500Y-50891866D01*
X11516500Y-52588134D01*
X1550552Y-52588134D01*
X1525101Y-52471137D01*
X1522543Y-52453342D01*
X1510959Y-52291371D01*
X1511703Y-52273467D01*
X1511805Y-52265142D01*
X1513186Y-52256270D01*
X1510727Y-52237461D01*
X1509064Y-52224749D01*
X1508000Y-52208411D01*
X1508000Y-44900000D01*
X17036835Y-44900000D01*
X17055465Y-45136711D01*
X17110895Y-45367594D01*
X17201760Y-45586963D01*
X17204346Y-45591183D01*
X17323241Y-45785202D01*
X17323245Y-45785208D01*
X17325824Y-45789416D01*
X17480031Y-45969969D01*
X17660584Y-46124176D01*
X17664792Y-46126755D01*
X17664798Y-46126759D01*
X17858817Y-46245654D01*
X17863037Y-46248240D01*
X17867607Y-46250133D01*
X17867611Y-46250135D01*
X18077833Y-46337211D01*
X18082406Y-46339105D01*
X18162609Y-46358360D01*
X18308476Y-46393380D01*
X18308482Y-46393381D01*
X18313289Y-46394535D01*
X18550000Y-46413165D01*
X18786711Y-46394535D01*
X18791518Y-46393381D01*
X18791524Y-46393380D01*
X18937391Y-46358360D01*
X19017594Y-46339105D01*
X19022167Y-46337211D01*
X19232389Y-46250135D01*
X19232393Y-46250133D01*
X19236963Y-46248240D01*
X19241183Y-46245654D01*
X19435202Y-46126759D01*
X19435208Y-46126755D01*
X19439416Y-46124176D01*
X19619969Y-45969969D01*
X19774176Y-45789416D01*
X19776755Y-45785208D01*
X19776759Y-45785202D01*
X19895654Y-45591183D01*
X19898240Y-45586963D01*
X19989105Y-45367594D01*
X20044535Y-45136711D01*
X20063165Y-44900000D01*
X23536835Y-44900000D01*
X23555465Y-45136711D01*
X23610895Y-45367594D01*
X23701760Y-45586963D01*
X23704346Y-45591183D01*
X23823241Y-45785202D01*
X23823245Y-45785208D01*
X23825824Y-45789416D01*
X23980031Y-45969969D01*
X24160584Y-46124176D01*
X24164792Y-46126755D01*
X24164798Y-46126759D01*
X24358817Y-46245654D01*
X24363037Y-46248240D01*
X24367607Y-46250133D01*
X24367611Y-46250135D01*
X24577833Y-46337211D01*
X24582406Y-46339105D01*
X24662609Y-46358360D01*
X24808476Y-46393380D01*
X24808482Y-46393381D01*
X24813289Y-46394535D01*
X25050000Y-46413165D01*
X25286711Y-46394535D01*
X25291518Y-46393381D01*
X25291524Y-46393380D01*
X25437391Y-46358360D01*
X25517594Y-46339105D01*
X25522167Y-46337211D01*
X25732389Y-46250135D01*
X25732393Y-46250133D01*
X25736963Y-46248240D01*
X25741183Y-46245654D01*
X25935202Y-46126759D01*
X25935208Y-46126755D01*
X25939416Y-46124176D01*
X26119969Y-45969969D01*
X26274176Y-45789416D01*
X26276755Y-45785208D01*
X26276759Y-45785202D01*
X26395654Y-45591183D01*
X26398240Y-45586963D01*
X26489105Y-45367594D01*
X26544535Y-45136711D01*
X26563165Y-44900000D01*
X26544535Y-44663289D01*
X26489105Y-44432406D01*
X26398240Y-44213037D01*
X26395654Y-44208817D01*
X26276759Y-44014798D01*
X26276755Y-44014792D01*
X26274176Y-44010584D01*
X26119969Y-43830031D01*
X25939416Y-43675824D01*
X25935208Y-43673245D01*
X25935202Y-43673241D01*
X25741183Y-43554346D01*
X25736963Y-43551760D01*
X25732393Y-43549867D01*
X25732389Y-43549865D01*
X25522167Y-43462789D01*
X25522165Y-43462788D01*
X25517594Y-43460895D01*
X25437391Y-43441640D01*
X25291524Y-43406620D01*
X25291518Y-43406619D01*
X25286711Y-43405465D01*
X25050000Y-43386835D01*
X24813289Y-43405465D01*
X24808482Y-43406619D01*
X24808476Y-43406620D01*
X24662609Y-43441640D01*
X24582406Y-43460895D01*
X24577835Y-43462788D01*
X24577833Y-43462789D01*
X24367611Y-43549865D01*
X24367607Y-43549867D01*
X24363037Y-43551760D01*
X24358817Y-43554346D01*
X24164798Y-43673241D01*
X24164792Y-43673245D01*
X24160584Y-43675824D01*
X23980031Y-43830031D01*
X23825824Y-44010584D01*
X23823245Y-44014792D01*
X23823241Y-44014798D01*
X23704346Y-44208817D01*
X23701760Y-44213037D01*
X23610895Y-44432406D01*
X23555465Y-44663289D01*
X23536835Y-44900000D01*
X20063165Y-44900000D01*
X20044535Y-44663289D01*
X19989105Y-44432406D01*
X19898240Y-44213037D01*
X19895654Y-44208817D01*
X19776759Y-44014798D01*
X19776755Y-44014792D01*
X19774176Y-44010584D01*
X19619969Y-43830031D01*
X19439416Y-43675824D01*
X19435208Y-43673245D01*
X19435202Y-43673241D01*
X19241183Y-43554346D01*
X19236963Y-43551760D01*
X19232393Y-43549867D01*
X19232389Y-43549865D01*
X19022167Y-43462789D01*
X19022165Y-43462788D01*
X19017594Y-43460895D01*
X18937391Y-43441640D01*
X18791524Y-43406620D01*
X18791518Y-43406619D01*
X18786711Y-43405465D01*
X18550000Y-43386835D01*
X18313289Y-43405465D01*
X18308482Y-43406619D01*
X18308476Y-43406620D01*
X18162609Y-43441640D01*
X18082406Y-43460895D01*
X18077835Y-43462788D01*
X18077833Y-43462789D01*
X17867611Y-43549865D01*
X17867607Y-43549867D01*
X17863037Y-43551760D01*
X17858817Y-43554346D01*
X17664798Y-43673241D01*
X17664792Y-43673245D01*
X17660584Y-43675824D01*
X17480031Y-43830031D01*
X17325824Y-44010584D01*
X17323245Y-44014792D01*
X17323241Y-44014798D01*
X17204346Y-44208817D01*
X17201760Y-44213037D01*
X17110895Y-44432406D01*
X17055465Y-44663289D01*
X17036835Y-44900000D01*
X1508000Y-44900000D01*
X1508000Y-41632670D01*
X17682160Y-41632670D01*
X17687887Y-41640320D01*
X17859042Y-41745205D01*
X17867837Y-41749687D01*
X18077988Y-41836734D01*
X18087373Y-41839783D01*
X18308554Y-41892885D01*
X18318301Y-41894428D01*
X18545070Y-41912275D01*
X18554930Y-41912275D01*
X18781699Y-41894428D01*
X18791446Y-41892885D01*
X19012627Y-41839783D01*
X19022012Y-41836734D01*
X19232163Y-41749687D01*
X19240958Y-41745205D01*
X19408445Y-41642568D01*
X19417400Y-41632670D01*
X24182160Y-41632670D01*
X24187887Y-41640320D01*
X24359042Y-41745205D01*
X24367837Y-41749687D01*
X24577988Y-41836734D01*
X24587373Y-41839783D01*
X24808554Y-41892885D01*
X24818301Y-41894428D01*
X25045070Y-41912275D01*
X25054930Y-41912275D01*
X25281699Y-41894428D01*
X25291446Y-41892885D01*
X25512627Y-41839783D01*
X25522012Y-41836734D01*
X25732163Y-41749687D01*
X25740958Y-41745205D01*
X25908445Y-41642568D01*
X25917907Y-41632110D01*
X25914124Y-41623334D01*
X25062812Y-40772022D01*
X25048868Y-40764408D01*
X25047035Y-40764539D01*
X25040420Y-40768790D01*
X24188920Y-41620290D01*
X24182160Y-41632670D01*
X19417400Y-41632670D01*
X19417907Y-41632110D01*
X19414124Y-41623334D01*
X18562812Y-40772022D01*
X18548868Y-40764408D01*
X18547035Y-40764539D01*
X18540420Y-40768790D01*
X17688920Y-41620290D01*
X17682160Y-41632670D01*
X1508000Y-41632670D01*
X1508000Y-40404930D01*
X17037725Y-40404930D01*
X17055572Y-40631699D01*
X17057115Y-40641446D01*
X17110217Y-40862627D01*
X17113266Y-40872012D01*
X17200313Y-41082163D01*
X17204795Y-41090958D01*
X17307432Y-41258445D01*
X17317890Y-41267907D01*
X17326666Y-41264124D01*
X18177978Y-40412812D01*
X18184356Y-40401132D01*
X18914408Y-40401132D01*
X18914539Y-40402965D01*
X18918790Y-40409580D01*
X19770290Y-41261080D01*
X19782670Y-41267840D01*
X19790320Y-41262113D01*
X19895205Y-41090958D01*
X19899687Y-41082163D01*
X19986734Y-40872012D01*
X19989783Y-40862627D01*
X20042885Y-40641446D01*
X20044428Y-40631699D01*
X20062275Y-40404930D01*
X23537725Y-40404930D01*
X23555572Y-40631699D01*
X23557115Y-40641446D01*
X23610217Y-40862627D01*
X23613266Y-40872012D01*
X23700313Y-41082163D01*
X23704795Y-41090958D01*
X23807432Y-41258445D01*
X23817890Y-41267907D01*
X23826666Y-41264124D01*
X24677978Y-40412812D01*
X24684356Y-40401132D01*
X25414408Y-40401132D01*
X25414539Y-40402965D01*
X25418790Y-40409580D01*
X26270290Y-41261080D01*
X26282670Y-41267840D01*
X26290320Y-41262113D01*
X26395205Y-41090958D01*
X26399687Y-41082163D01*
X26486734Y-40872012D01*
X26489783Y-40862627D01*
X26542885Y-40641446D01*
X26544428Y-40631699D01*
X26562275Y-40404930D01*
X26562275Y-40395070D01*
X26544428Y-40168301D01*
X26542885Y-40158554D01*
X26489783Y-39937373D01*
X26486734Y-39927988D01*
X26399687Y-39717837D01*
X26395205Y-39709042D01*
X26292568Y-39541555D01*
X26282110Y-39532093D01*
X26273334Y-39535876D01*
X25422022Y-40387188D01*
X25414408Y-40401132D01*
X24684356Y-40401132D01*
X24685592Y-40398868D01*
X24685461Y-40397035D01*
X24681210Y-40390420D01*
X23829710Y-39538920D01*
X23817330Y-39532160D01*
X23809680Y-39537887D01*
X23704795Y-39709042D01*
X23700313Y-39717837D01*
X23613266Y-39927988D01*
X23610217Y-39937373D01*
X23557115Y-40158554D01*
X23555572Y-40168301D01*
X23537725Y-40395070D01*
X23537725Y-40404930D01*
X20062275Y-40404930D01*
X20062275Y-40395070D01*
X20044428Y-40168301D01*
X20042885Y-40158554D01*
X19989783Y-39937373D01*
X19986734Y-39927988D01*
X19899687Y-39717837D01*
X19895205Y-39709042D01*
X19792568Y-39541555D01*
X19782110Y-39532093D01*
X19773334Y-39535876D01*
X18922022Y-40387188D01*
X18914408Y-40401132D01*
X18184356Y-40401132D01*
X18185592Y-40398868D01*
X18185461Y-40397035D01*
X18181210Y-40390420D01*
X17329710Y-39538920D01*
X17317330Y-39532160D01*
X17309680Y-39537887D01*
X17204795Y-39709042D01*
X17200313Y-39717837D01*
X17113266Y-39927988D01*
X17110217Y-39937373D01*
X17057115Y-40158554D01*
X17055572Y-40168301D01*
X17037725Y-40395070D01*
X17037725Y-40404930D01*
X1508000Y-40404930D01*
X1508000Y-39167890D01*
X17682093Y-39167890D01*
X17685876Y-39176666D01*
X18537188Y-40027978D01*
X18551132Y-40035592D01*
X18552965Y-40035461D01*
X18559580Y-40031210D01*
X19411080Y-39179710D01*
X19417534Y-39167890D01*
X24182093Y-39167890D01*
X24185876Y-39176666D01*
X25037188Y-40027978D01*
X25051132Y-40035592D01*
X25052965Y-40035461D01*
X25059580Y-40031210D01*
X25911080Y-39179710D01*
X25917840Y-39167330D01*
X25912113Y-39159680D01*
X25740958Y-39054795D01*
X25732163Y-39050313D01*
X25522012Y-38963266D01*
X25512627Y-38960217D01*
X25291446Y-38907115D01*
X25281699Y-38905572D01*
X25054930Y-38887725D01*
X25045070Y-38887725D01*
X24818301Y-38905572D01*
X24808554Y-38907115D01*
X24587373Y-38960217D01*
X24577988Y-38963266D01*
X24367837Y-39050313D01*
X24359042Y-39054795D01*
X24191555Y-39157432D01*
X24182093Y-39167890D01*
X19417534Y-39167890D01*
X19417840Y-39167330D01*
X19412113Y-39159680D01*
X19240958Y-39054795D01*
X19232163Y-39050313D01*
X19022012Y-38963266D01*
X19012627Y-38960217D01*
X18791446Y-38907115D01*
X18781699Y-38905572D01*
X18554930Y-38887725D01*
X18545070Y-38887725D01*
X18318301Y-38905572D01*
X18308554Y-38907115D01*
X18087373Y-38960217D01*
X18077988Y-38963266D01*
X17867837Y-39050313D01*
X17859042Y-39054795D01*
X17691555Y-39157432D01*
X17682093Y-39167890D01*
X1508000Y-39167890D01*
X1508000Y-31702966D01*
X41938257Y-31702966D01*
X41968565Y-31837446D01*
X41971645Y-31847275D01*
X42051770Y-32044603D01*
X42056413Y-32053794D01*
X42167694Y-32235388D01*
X42173777Y-32243699D01*
X42313213Y-32404667D01*
X42320580Y-32411883D01*
X42484434Y-32547916D01*
X42492881Y-32553831D01*
X42676756Y-32661279D01*
X42686042Y-32665729D01*
X42885001Y-32741703D01*
X42894899Y-32744579D01*
X42998250Y-32765606D01*
X43012299Y-32764410D01*
X43016000Y-32754065D01*
X43016000Y-32753517D01*
X43524000Y-32753517D01*
X43528064Y-32767359D01*
X43541478Y-32769393D01*
X43548184Y-32768534D01*
X43558262Y-32766392D01*
X43762255Y-32705191D01*
X43771842Y-32701433D01*
X43963095Y-32607739D01*
X43971945Y-32602464D01*
X44145328Y-32478792D01*
X44153200Y-32472139D01*
X44304052Y-32321812D01*
X44310730Y-32313965D01*
X44435003Y-32141020D01*
X44440313Y-32132183D01*
X44534670Y-31941267D01*
X44538469Y-31931672D01*
X44600377Y-31727910D01*
X44602555Y-31717837D01*
X44603986Y-31706962D01*
X44601775Y-31692778D01*
X44588617Y-31689000D01*
X43542115Y-31689000D01*
X43526876Y-31693475D01*
X43525671Y-31694865D01*
X43524000Y-31702548D01*
X43524000Y-32753517D01*
X43016000Y-32753517D01*
X43016000Y-31707115D01*
X43011525Y-31691876D01*
X43010135Y-31690671D01*
X43002452Y-31689000D01*
X41953225Y-31689000D01*
X41939694Y-31692973D01*
X41938257Y-31702966D01*
X1508000Y-31702966D01*
X1508000Y-28861695D01*
X41907251Y-28861695D01*
X41907548Y-28866848D01*
X41907548Y-28866851D01*
X41913011Y-28961590D01*
X41920110Y-29084715D01*
X41921247Y-29089761D01*
X41921248Y-29089767D01*
X41941119Y-29177939D01*
X41969222Y-29302639D01*
X42053266Y-29509616D01*
X42169987Y-29700088D01*
X42316250Y-29868938D01*
X42488126Y-30011632D01*
X42561955Y-30054774D01*
X42610679Y-30106412D01*
X42623750Y-30176195D01*
X42597019Y-30241967D01*
X42556562Y-30275327D01*
X42548457Y-30279546D01*
X42539738Y-30285036D01*
X42369433Y-30412905D01*
X42361726Y-30419748D01*
X42214590Y-30573717D01*
X42208104Y-30581727D01*
X42088098Y-30757649D01*
X42083000Y-30766623D01*
X41993338Y-30959783D01*
X41989775Y-30969470D01*
X41934389Y-31169183D01*
X41935912Y-31177607D01*
X41948292Y-31181000D01*
X44588344Y-31181000D01*
X44601875Y-31177027D01*
X44603180Y-31167947D01*
X44561214Y-31000875D01*
X44557894Y-30991124D01*
X44472972Y-30795814D01*
X44468105Y-30786739D01*
X44352426Y-30607926D01*
X44346136Y-30599757D01*
X44202806Y-30442240D01*
X44195273Y-30435215D01*
X44028139Y-30303222D01*
X44019556Y-30297520D01*
X43982602Y-30277120D01*
X43932631Y-30226687D01*
X43917859Y-30157245D01*
X43942975Y-30090839D01*
X43970327Y-30064232D01*
X43993797Y-30047491D01*
X44149860Y-29936173D01*
X44308096Y-29778489D01*
X44367594Y-29695689D01*
X44435435Y-29601277D01*
X44438453Y-29597077D01*
X44537430Y-29396811D01*
X44602370Y-29183069D01*
X44631529Y-28961590D01*
X44633156Y-28895000D01*
X44614852Y-28672361D01*
X44560431Y-28455702D01*
X44471354Y-28250840D01*
X44350014Y-28063277D01*
X44199670Y-27898051D01*
X44195619Y-27894852D01*
X44195615Y-27894848D01*
X44028414Y-27762800D01*
X44028410Y-27762798D01*
X44024359Y-27759598D01*
X43983053Y-27736796D01*
X43933084Y-27686364D01*
X43918312Y-27616921D01*
X43943428Y-27550516D01*
X43970780Y-27523909D01*
X44014603Y-27492650D01*
X44149860Y-27396173D01*
X44308096Y-27238489D01*
X44367594Y-27155689D01*
X44435435Y-27061277D01*
X44438453Y-27057077D01*
X44537430Y-26856811D01*
X44602370Y-26643069D01*
X44631529Y-26421590D01*
X44633156Y-26355000D01*
X44614852Y-26132361D01*
X44560431Y-25915702D01*
X44471354Y-25710840D01*
X44350014Y-25523277D01*
X44346532Y-25519450D01*
X44202798Y-25361488D01*
X44171746Y-25297642D01*
X44180141Y-25227143D01*
X44225317Y-25172375D01*
X44251761Y-25158706D01*
X44358297Y-25118767D01*
X44366705Y-25115615D01*
X44483261Y-25028261D01*
X44570615Y-24911705D01*
X44621745Y-24775316D01*
X44628500Y-24713134D01*
X44628500Y-22916866D01*
X44621745Y-22854684D01*
X44570615Y-22718295D01*
X44483261Y-22601739D01*
X44366705Y-22514385D01*
X44230316Y-22463255D01*
X44168134Y-22456500D01*
X42371866Y-22456500D01*
X42309684Y-22463255D01*
X42173295Y-22514385D01*
X42056739Y-22601739D01*
X41969385Y-22718295D01*
X41918255Y-22854684D01*
X41911500Y-22916866D01*
X41911500Y-24713134D01*
X41918255Y-24775316D01*
X41969385Y-24911705D01*
X42056739Y-25028261D01*
X42173295Y-25115615D01*
X42181704Y-25118767D01*
X42181705Y-25118768D01*
X42290451Y-25159535D01*
X42347216Y-25202176D01*
X42371916Y-25268738D01*
X42356709Y-25338087D01*
X42337316Y-25364568D01*
X42210629Y-25497138D01*
X42084743Y-25681680D01*
X41990688Y-25884305D01*
X41930989Y-26099570D01*
X41907251Y-26321695D01*
X41907548Y-26326848D01*
X41907548Y-26326851D01*
X41913011Y-26421590D01*
X41920110Y-26544715D01*
X41921247Y-26549761D01*
X41921248Y-26549767D01*
X41941119Y-26637939D01*
X41969222Y-26762639D01*
X42053266Y-26969616D01*
X42169987Y-27160088D01*
X42316250Y-27328938D01*
X42488126Y-27471632D01*
X42558595Y-27512811D01*
X42561445Y-27514476D01*
X42610169Y-27566114D01*
X42623240Y-27635897D01*
X42596509Y-27701669D01*
X42556055Y-27735027D01*
X42543607Y-27741507D01*
X42539474Y-27744610D01*
X42539471Y-27744612D01*
X42515247Y-27762800D01*
X42364965Y-27875635D01*
X42210629Y-28037138D01*
X42084743Y-28221680D01*
X41990688Y-28424305D01*
X41930989Y-28639570D01*
X41907251Y-28861695D01*
X1508000Y-28861695D01*
X1508000Y-9461406D01*
X17143423Y-9461406D01*
X17148704Y-9468461D01*
X17325080Y-9571527D01*
X17334363Y-9575974D01*
X17541003Y-9654883D01*
X17550901Y-9657759D01*
X17767653Y-9701857D01*
X17777883Y-9703076D01*
X17998914Y-9711182D01*
X18009223Y-9710714D01*
X18228623Y-9682608D01*
X18238688Y-9680468D01*
X18450557Y-9616905D01*
X18460152Y-9613144D01*
X18658778Y-9515838D01*
X18667636Y-9510559D01*
X18725097Y-9469572D01*
X18733497Y-9458874D01*
X18726510Y-9445721D01*
X17952811Y-8672021D01*
X17938868Y-8664408D01*
X17937034Y-8664539D01*
X17930420Y-8668790D01*
X17150180Y-9449031D01*
X17143423Y-9461406D01*
X1508000Y-9461406D01*
X1508000Y-8270638D01*
X16527893Y-8270638D01*
X16540627Y-8491468D01*
X16542061Y-8501670D01*
X16590685Y-8717439D01*
X16593773Y-8727292D01*
X16676986Y-8932220D01*
X16681634Y-8941421D01*
X16770097Y-9085781D01*
X16780553Y-9095242D01*
X16789331Y-9091458D01*
X17567979Y-8312811D01*
X17575592Y-8298868D01*
X17575461Y-8297034D01*
X17571210Y-8290420D01*
X16793862Y-7513073D01*
X16782330Y-7506776D01*
X16770048Y-7516399D01*
X16714467Y-7597877D01*
X16709379Y-7606833D01*
X16616252Y-7807459D01*
X16612689Y-7817146D01*
X16553581Y-8030280D01*
X16551650Y-8040400D01*
X16528145Y-8260349D01*
X16527893Y-8270638D01*
X1508000Y-8270638D01*
X1508000Y-7140711D01*
X17145508Y-7140711D01*
X17152251Y-7153040D01*
X17927189Y-7927979D01*
X17941132Y-7935592D01*
X17942966Y-7935461D01*
X17949580Y-7931210D01*
X18728994Y-7151795D01*
X18736011Y-7138944D01*
X18728237Y-7128274D01*
X18725902Y-7126430D01*
X18717320Y-7120729D01*
X18523678Y-7013833D01*
X18514272Y-7009606D01*
X18305772Y-6935772D01*
X18295809Y-6933140D01*
X18078047Y-6894350D01*
X18067796Y-6893381D01*
X17846616Y-6890679D01*
X17836332Y-6891399D01*
X17617693Y-6924855D01*
X17607666Y-6927244D01*
X17397426Y-6995961D01*
X17387916Y-6999958D01*
X17191725Y-7102089D01*
X17183007Y-7107578D01*
X17153961Y-7129386D01*
X17145508Y-7140711D01*
X1508000Y-7140711D01*
X1508000Y-3480000D01*
X2371502Y-3480000D01*
X2391457Y-3708087D01*
X2450716Y-3929243D01*
X2453039Y-3934224D01*
X2453039Y-3934225D01*
X2545151Y-4131762D01*
X2545154Y-4131767D01*
X2547477Y-4136749D01*
X2678802Y-4324300D01*
X2840700Y-4486198D01*
X2845208Y-4489355D01*
X2845217Y-4489361D01*
X3028251Y-4617523D01*
X3033233Y-4619846D01*
X3033238Y-4619849D01*
X3229765Y-4711490D01*
X3235757Y-4714284D01*
X3241065Y-4715706D01*
X3241067Y-4715707D01*
X3451598Y-4772119D01*
X3451600Y-4772119D01*
X3456913Y-4773543D01*
X3685000Y-4793498D01*
X3913087Y-4773543D01*
X3918400Y-4772119D01*
X3918402Y-4772119D01*
X4128933Y-4715707D01*
X4128935Y-4715706D01*
X4134243Y-4714284D01*
X4140235Y-4711490D01*
X4336762Y-4619849D01*
X4336767Y-4619846D01*
X4341749Y-4617523D01*
X4524783Y-4489361D01*
X4524792Y-4489355D01*
X4529300Y-4486198D01*
X4691198Y-4324300D01*
X4822523Y-4136749D01*
X4824846Y-4131767D01*
X4824849Y-4131762D01*
X4840805Y-4097543D01*
X4887722Y-4044258D01*
X4955999Y-4024797D01*
X5023959Y-4045339D01*
X5069195Y-4097543D01*
X5085151Y-4131762D01*
X5085154Y-4131767D01*
X5087477Y-4136749D01*
X5218802Y-4324300D01*
X5380700Y-4486198D01*
X5385208Y-4489355D01*
X5385217Y-4489361D01*
X5568251Y-4617523D01*
X5573233Y-4619846D01*
X5573238Y-4619849D01*
X5769765Y-4711490D01*
X5775757Y-4714284D01*
X5781065Y-4715706D01*
X5781067Y-4715707D01*
X5991598Y-4772119D01*
X5991600Y-4772119D01*
X5996913Y-4773543D01*
X6225000Y-4793498D01*
X6453087Y-4773543D01*
X6458400Y-4772119D01*
X6458402Y-4772119D01*
X6668933Y-4715707D01*
X6668935Y-4715706D01*
X6674243Y-4714284D01*
X6680235Y-4711490D01*
X6876762Y-4619849D01*
X6876767Y-4619846D01*
X6881749Y-4617523D01*
X7064783Y-4489361D01*
X7064792Y-4489355D01*
X7069300Y-4486198D01*
X7231198Y-4324300D01*
X7362523Y-4136749D01*
X7364846Y-4131767D01*
X7364849Y-4131762D01*
X7380805Y-4097543D01*
X7427722Y-4044258D01*
X7495999Y-4024797D01*
X7563959Y-4045339D01*
X7609195Y-4097543D01*
X7625151Y-4131762D01*
X7625154Y-4131767D01*
X7627477Y-4136749D01*
X7758802Y-4324300D01*
X7920700Y-4486198D01*
X7925208Y-4489355D01*
X7925217Y-4489361D01*
X8108251Y-4617523D01*
X8113233Y-4619846D01*
X8113238Y-4619849D01*
X8309765Y-4711490D01*
X8315757Y-4714284D01*
X8321065Y-4715706D01*
X8321067Y-4715707D01*
X8531598Y-4772119D01*
X8531600Y-4772119D01*
X8536913Y-4773543D01*
X8765000Y-4793498D01*
X8993087Y-4773543D01*
X8998400Y-4772119D01*
X8998402Y-4772119D01*
X9208933Y-4715707D01*
X9208935Y-4715706D01*
X9214243Y-4714284D01*
X9220235Y-4711490D01*
X9416762Y-4619849D01*
X9416767Y-4619846D01*
X9421749Y-4617523D01*
X9604783Y-4489361D01*
X9604792Y-4489355D01*
X9609300Y-4486198D01*
X9771198Y-4324300D01*
X9902523Y-4136749D01*
X9904846Y-4131767D01*
X9904849Y-4131762D01*
X9921081Y-4096951D01*
X9967998Y-4043666D01*
X10036275Y-4024205D01*
X10104235Y-4044747D01*
X10149471Y-4096951D01*
X10165586Y-4131511D01*
X10171069Y-4141007D01*
X10296028Y-4319467D01*
X10303084Y-4327875D01*
X10457125Y-4481916D01*
X10465533Y-4488972D01*
X10643993Y-4613931D01*
X10653489Y-4619414D01*
X10850947Y-4711490D01*
X10861239Y-4715236D01*
X11033503Y-4761394D01*
X11047599Y-4761058D01*
X11051000Y-4753116D01*
X11051000Y-4747967D01*
X11559000Y-4747967D01*
X11562973Y-4761498D01*
X11571522Y-4762727D01*
X11748761Y-4715236D01*
X11759053Y-4711490D01*
X11956511Y-4619414D01*
X11966007Y-4613931D01*
X12144467Y-4488972D01*
X12152875Y-4481916D01*
X12306916Y-4327875D01*
X12313972Y-4319467D01*
X12438931Y-4141007D01*
X12444414Y-4131511D01*
X12460529Y-4096951D01*
X12507446Y-4043666D01*
X12575723Y-4024205D01*
X12643683Y-4044747D01*
X12688919Y-4096951D01*
X12705151Y-4131762D01*
X12705154Y-4131767D01*
X12707477Y-4136749D01*
X12838802Y-4324300D01*
X13000700Y-4486198D01*
X13005208Y-4489355D01*
X13005217Y-4489361D01*
X13188251Y-4617523D01*
X13193233Y-4619846D01*
X13193238Y-4619849D01*
X13389765Y-4711490D01*
X13395757Y-4714284D01*
X13401065Y-4715706D01*
X13401067Y-4715707D01*
X13611598Y-4772119D01*
X13611600Y-4772119D01*
X13616913Y-4773543D01*
X13845000Y-4793498D01*
X14073087Y-4773543D01*
X14078400Y-4772119D01*
X14078402Y-4772119D01*
X14288933Y-4715707D01*
X14288935Y-4715706D01*
X14294243Y-4714284D01*
X14300235Y-4711490D01*
X14496762Y-4619849D01*
X14496767Y-4619846D01*
X14501749Y-4617523D01*
X14684783Y-4489361D01*
X14684792Y-4489355D01*
X14689300Y-4486198D01*
X14851198Y-4324300D01*
X14982523Y-4136749D01*
X14984846Y-4131767D01*
X14984849Y-4131762D01*
X15000805Y-4097543D01*
X15047722Y-4044258D01*
X15115999Y-4024797D01*
X15183959Y-4045339D01*
X15229195Y-4097543D01*
X15245151Y-4131762D01*
X15245154Y-4131767D01*
X15247477Y-4136749D01*
X15378802Y-4324300D01*
X15540700Y-4486198D01*
X15545208Y-4489355D01*
X15545217Y-4489361D01*
X15728251Y-4617523D01*
X15733233Y-4619846D01*
X15733238Y-4619849D01*
X15929765Y-4711490D01*
X15935757Y-4714284D01*
X15941065Y-4715706D01*
X15941067Y-4715707D01*
X16151598Y-4772119D01*
X16151600Y-4772119D01*
X16156913Y-4773543D01*
X16385000Y-4793498D01*
X16613087Y-4773543D01*
X16618400Y-4772119D01*
X16618402Y-4772119D01*
X16828933Y-4715707D01*
X16828935Y-4715706D01*
X16834243Y-4714284D01*
X16840235Y-4711490D01*
X17036762Y-4619849D01*
X17036767Y-4619846D01*
X17041749Y-4617523D01*
X17224783Y-4489361D01*
X17224792Y-4489355D01*
X17229300Y-4486198D01*
X17391198Y-4324300D01*
X17522523Y-4136749D01*
X17524846Y-4131767D01*
X17524849Y-4131762D01*
X17540805Y-4097543D01*
X17587722Y-4044258D01*
X17655999Y-4024797D01*
X17723959Y-4045339D01*
X17769195Y-4097543D01*
X17785151Y-4131762D01*
X17785154Y-4131767D01*
X17787477Y-4136749D01*
X17918802Y-4324300D01*
X18080700Y-4486198D01*
X18085208Y-4489355D01*
X18085217Y-4489361D01*
X18268251Y-4617523D01*
X18273233Y-4619846D01*
X18273238Y-4619849D01*
X18469765Y-4711490D01*
X18475757Y-4714284D01*
X18481065Y-4715706D01*
X18481067Y-4715707D01*
X18691598Y-4772119D01*
X18691600Y-4772119D01*
X18696913Y-4773543D01*
X18925000Y-4793498D01*
X19153087Y-4773543D01*
X19158400Y-4772119D01*
X19158402Y-4772119D01*
X19368933Y-4715707D01*
X19368935Y-4715706D01*
X19374243Y-4714284D01*
X19380235Y-4711490D01*
X19576762Y-4619849D01*
X19576767Y-4619846D01*
X19581749Y-4617523D01*
X19764783Y-4489361D01*
X19764792Y-4489355D01*
X19769300Y-4486198D01*
X19931198Y-4324300D01*
X20062523Y-4136749D01*
X20064846Y-4131767D01*
X20064849Y-4131762D01*
X20080805Y-4097543D01*
X20127722Y-4044258D01*
X20195999Y-4024797D01*
X20263959Y-4045339D01*
X20309195Y-4097543D01*
X20325151Y-4131762D01*
X20325154Y-4131767D01*
X20327477Y-4136749D01*
X20458802Y-4324300D01*
X20620700Y-4486198D01*
X20625208Y-4489355D01*
X20625217Y-4489361D01*
X20808251Y-4617523D01*
X20813233Y-4619846D01*
X20813238Y-4619849D01*
X21009765Y-4711490D01*
X21015757Y-4714284D01*
X21021065Y-4715706D01*
X21021067Y-4715707D01*
X21231598Y-4772119D01*
X21231600Y-4772119D01*
X21236913Y-4773543D01*
X21465000Y-4793498D01*
X21693087Y-4773543D01*
X21698400Y-4772119D01*
X21698402Y-4772119D01*
X21908933Y-4715707D01*
X21908935Y-4715706D01*
X21914243Y-4714284D01*
X21920235Y-4711490D01*
X22116762Y-4619849D01*
X22116767Y-4619846D01*
X22121749Y-4617523D01*
X22304783Y-4489361D01*
X22304792Y-4489355D01*
X22309300Y-4486198D01*
X22471198Y-4324300D01*
X22602523Y-4136749D01*
X22604846Y-4131767D01*
X22604849Y-4131762D01*
X22620805Y-4097543D01*
X22667722Y-4044258D01*
X22735999Y-4024797D01*
X22803959Y-4045339D01*
X22849195Y-4097543D01*
X22865151Y-4131762D01*
X22865154Y-4131767D01*
X22867477Y-4136749D01*
X22998802Y-4324300D01*
X23160700Y-4486198D01*
X23165208Y-4489355D01*
X23165211Y-4489357D01*
X23306483Y-4588277D01*
X23350811Y-4643734D01*
X23358120Y-4714354D01*
X23326089Y-4777714D01*
X23264888Y-4813699D01*
X23234212Y-4817490D01*
X23015850Y-4817490D01*
X23002242Y-4816753D01*
X22970746Y-4813331D01*
X22970742Y-4813331D01*
X22964621Y-4812666D01*
X22946621Y-4814241D01*
X22914619Y-4817040D01*
X22909794Y-4817369D01*
X22907323Y-4817490D01*
X22904241Y-4817490D01*
X22881773Y-4819693D01*
X22861499Y-4821681D01*
X22860184Y-4821803D01*
X22827923Y-4824626D01*
X22767597Y-4829903D01*
X22762478Y-4831390D01*
X22757177Y-4831910D01*
X22668143Y-4858791D01*
X22667010Y-4859126D01*
X22583588Y-4883363D01*
X22583584Y-4883365D01*
X22577673Y-4885082D01*
X22572944Y-4887533D01*
X22567841Y-4889074D01*
X22485679Y-4932760D01*
X22484637Y-4933307D01*
X22402084Y-4976098D01*
X22397921Y-4979421D01*
X22393214Y-4981924D01*
X22388440Y-4985818D01*
X22388438Y-4985819D01*
X22321115Y-5040727D01*
X22320170Y-5041490D01*
X22281037Y-5072729D01*
X22278546Y-5075220D01*
X22277819Y-5075870D01*
X22273473Y-5079582D01*
X22254598Y-5094977D01*
X22239948Y-5106925D01*
X22236025Y-5111667D01*
X22236023Y-5111669D01*
X22210713Y-5142263D01*
X22202723Y-5151043D01*
X20500202Y-6853564D01*
X20437890Y-6887590D01*
X20409570Y-6890460D01*
X20395067Y-6890283D01*
X20386581Y-6890179D01*
X20386579Y-6890179D01*
X20381411Y-6890116D01*
X20152464Y-6925150D01*
X19932314Y-6997106D01*
X19927726Y-6999494D01*
X19927722Y-6999496D01*
X19731461Y-7101663D01*
X19726872Y-7104052D01*
X19722739Y-7107155D01*
X19722736Y-7107157D01*
X19545790Y-7240012D01*
X19541655Y-7243117D01*
X19381639Y-7410564D01*
X19378728Y-7414832D01*
X19314002Y-7509716D01*
X19259090Y-7554718D01*
X19188565Y-7562889D01*
X19124819Y-7531634D01*
X19114979Y-7519994D01*
X19098538Y-7505835D01*
X19088973Y-7510238D01*
X18312021Y-8287189D01*
X18304408Y-8301132D01*
X18304539Y-8302966D01*
X18308790Y-8309580D01*
X19086307Y-9087096D01*
X19098313Y-9093652D01*
X19124948Y-9073304D01*
X19125827Y-9074454D01*
X19162672Y-9045734D01*
X19233376Y-9039289D01*
X19296340Y-9072092D01*
X19316432Y-9097074D01*
X19336800Y-9130313D01*
X19336806Y-9130321D01*
X19339501Y-9134719D01*
X19491147Y-9309784D01*
X19669349Y-9457730D01*
X19869322Y-9574584D01*
X20085694Y-9657209D01*
X20090760Y-9658240D01*
X20090761Y-9658240D01*
X20109090Y-9661969D01*
X20312656Y-9703385D01*
X20443324Y-9708176D01*
X20538949Y-9711683D01*
X20538953Y-9711683D01*
X20544113Y-9711872D01*
X20549233Y-9711216D01*
X20549235Y-9711216D01*
X20648785Y-9698463D01*
X20773847Y-9682442D01*
X20778795Y-9680957D01*
X20778802Y-9680956D01*
X20990747Y-9617369D01*
X20995690Y-9615886D01*
X21077161Y-9575974D01*
X21199049Y-9516262D01*
X21199052Y-9516260D01*
X21203684Y-9513991D01*
X21392243Y-9379494D01*
X21556303Y-9216005D01*
X21559317Y-9211811D01*
X21559326Y-9211800D01*
X21646960Y-9089844D01*
X21702954Y-9046196D01*
X21773658Y-9039750D01*
X21836622Y-9072553D01*
X21856715Y-9097536D01*
X21876800Y-9130313D01*
X21876806Y-9130321D01*
X21879501Y-9134719D01*
X22031147Y-9309784D01*
X22209349Y-9457730D01*
X22409322Y-9574584D01*
X22625694Y-9657209D01*
X22630760Y-9658240D01*
X22630761Y-9658240D01*
X22649090Y-9661969D01*
X22852656Y-9703385D01*
X22983324Y-9708176D01*
X23078949Y-9711683D01*
X23078953Y-9711683D01*
X23084113Y-9711872D01*
X23089233Y-9711216D01*
X23089235Y-9711216D01*
X23188785Y-9698463D01*
X23313847Y-9682442D01*
X23318795Y-9680957D01*
X23318802Y-9680956D01*
X23530747Y-9617369D01*
X23535690Y-9615886D01*
X23617161Y-9575974D01*
X23739049Y-9516262D01*
X23739052Y-9516260D01*
X23743684Y-9513991D01*
X23932243Y-9379494D01*
X24096303Y-9216005D01*
X24099317Y-9211811D01*
X24099326Y-9211800D01*
X24186960Y-9089844D01*
X24242954Y-9046196D01*
X24313658Y-9039750D01*
X24376622Y-9072553D01*
X24396715Y-9097536D01*
X24416800Y-9130313D01*
X24416806Y-9130321D01*
X24419501Y-9134719D01*
X24571147Y-9309784D01*
X24749349Y-9457730D01*
X24949322Y-9574584D01*
X25165694Y-9657209D01*
X25170760Y-9658240D01*
X25170761Y-9658240D01*
X25189090Y-9661969D01*
X25392656Y-9703385D01*
X25523324Y-9708176D01*
X25618949Y-9711683D01*
X25618953Y-9711683D01*
X25624113Y-9711872D01*
X25752154Y-9695469D01*
X25822262Y-9706653D01*
X25875196Y-9753966D01*
X25894148Y-9822386D01*
X25893473Y-9833615D01*
X25886496Y-9900000D01*
X25906458Y-10089928D01*
X25965473Y-10271556D01*
X26060960Y-10436944D01*
X26188747Y-10578866D01*
X26343248Y-10691118D01*
X26349276Y-10693802D01*
X26349278Y-10693803D01*
X26511681Y-10766109D01*
X26517712Y-10768794D01*
X26611113Y-10788647D01*
X26698056Y-10807128D01*
X26698061Y-10807128D01*
X26704513Y-10808500D01*
X26895487Y-10808500D01*
X26901939Y-10807128D01*
X26901944Y-10807128D01*
X26988888Y-10788647D01*
X27082288Y-10768794D01*
X27088319Y-10766109D01*
X27250722Y-10693803D01*
X27250724Y-10693802D01*
X27256752Y-10691118D01*
X27411253Y-10578866D01*
X27539040Y-10436944D01*
X27634527Y-10271556D01*
X27693542Y-10089928D01*
X27710907Y-9924706D01*
X27737920Y-9859050D01*
X27747122Y-9848782D01*
X27925499Y-9670405D01*
X27987811Y-9636379D01*
X28014594Y-9633500D01*
X33821533Y-9633500D01*
X33889654Y-9653502D01*
X33915169Y-9675189D01*
X33940540Y-9703366D01*
X34095041Y-9815618D01*
X34101069Y-9818302D01*
X34101071Y-9818303D01*
X34192591Y-9859050D01*
X34269505Y-9893294D01*
X34362905Y-9913147D01*
X34449849Y-9931628D01*
X34449854Y-9931628D01*
X34456306Y-9933000D01*
X34647280Y-9933000D01*
X34653732Y-9931628D01*
X34653737Y-9931628D01*
X34740680Y-9913147D01*
X34834081Y-9893294D01*
X34910995Y-9859050D01*
X35002515Y-9818303D01*
X35002517Y-9818302D01*
X35008545Y-9815618D01*
X35163046Y-9703366D01*
X35167468Y-9698455D01*
X35286414Y-9566352D01*
X35286415Y-9566351D01*
X35290833Y-9561444D01*
X35386320Y-9396056D01*
X35445335Y-9214428D01*
X35450131Y-9168794D01*
X35463003Y-9046329D01*
X35490016Y-8980673D01*
X35548238Y-8940043D01*
X35588313Y-8933500D01*
X45091800Y-8933500D01*
X45159921Y-8953502D01*
X45179147Y-8969843D01*
X45179420Y-8969540D01*
X45184332Y-8973963D01*
X45188747Y-8978866D01*
X45206136Y-8991500D01*
X45317696Y-9072553D01*
X45343248Y-9091118D01*
X45349276Y-9093802D01*
X45349278Y-9093803D01*
X45449944Y-9138622D01*
X45517712Y-9168794D01*
X45611112Y-9188647D01*
X45698056Y-9207128D01*
X45698061Y-9207128D01*
X45704513Y-9208500D01*
X45895487Y-9208500D01*
X45901939Y-9207128D01*
X45901944Y-9207128D01*
X45988887Y-9188647D01*
X46082288Y-9168794D01*
X46150056Y-9138622D01*
X46250722Y-9093803D01*
X46250724Y-9093802D01*
X46256752Y-9091118D01*
X46282305Y-9072553D01*
X46312157Y-9050864D01*
X46411253Y-8978866D01*
X46539040Y-8836944D01*
X46634527Y-8671556D01*
X46693542Y-8489928D01*
X46713504Y-8300000D01*
X46693542Y-8110072D01*
X46634527Y-7928444D01*
X46567875Y-7812999D01*
X46551137Y-7744005D01*
X46567875Y-7687000D01*
X46631223Y-7577279D01*
X46631224Y-7577278D01*
X46634527Y-7571556D01*
X46693542Y-7389928D01*
X46713504Y-7200000D01*
X46703213Y-7102089D01*
X46694232Y-7016635D01*
X46694232Y-7016633D01*
X46693542Y-7010072D01*
X46634527Y-6828444D01*
X46539040Y-6663056D01*
X46411253Y-6521134D01*
X46256752Y-6408882D01*
X46250724Y-6406198D01*
X46250722Y-6406197D01*
X46088319Y-6333891D01*
X46088318Y-6333891D01*
X46082288Y-6331206D01*
X45988887Y-6311353D01*
X45901944Y-6292872D01*
X45901939Y-6292872D01*
X45895487Y-6291500D01*
X45704513Y-6291500D01*
X45698061Y-6292872D01*
X45698056Y-6292872D01*
X45611112Y-6311353D01*
X45517712Y-6331206D01*
X45511685Y-6333889D01*
X45511677Y-6333892D01*
X45462905Y-6355607D01*
X45411657Y-6366500D01*
X42270508Y-6366500D01*
X42202387Y-6346498D01*
X42155894Y-6292842D01*
X42145790Y-6222568D01*
X42148801Y-6207889D01*
X42193262Y-6041959D01*
X42193262Y-6041957D01*
X42194686Y-6036644D01*
X42213116Y-5825989D01*
X42194686Y-5615334D01*
X42139956Y-5411079D01*
X42050589Y-5219431D01*
X41929301Y-5046213D01*
X41779776Y-4896688D01*
X41606558Y-4775400D01*
X41601581Y-4773079D01*
X41601572Y-4773074D01*
X41558075Y-4752791D01*
X41504790Y-4705874D01*
X41485330Y-4637596D01*
X41505872Y-4569637D01*
X41539055Y-4535384D01*
X41604789Y-4489357D01*
X41604792Y-4489355D01*
X41609300Y-4486198D01*
X41771198Y-4324300D01*
X41902523Y-4136749D01*
X41904846Y-4131767D01*
X41904849Y-4131762D01*
X41920805Y-4097543D01*
X41967722Y-4044258D01*
X42035999Y-4024797D01*
X42103959Y-4045339D01*
X42149195Y-4097543D01*
X42165151Y-4131762D01*
X42165154Y-4131767D01*
X42167477Y-4136749D01*
X42298802Y-4324300D01*
X42460700Y-4486198D01*
X42465208Y-4489355D01*
X42465217Y-4489361D01*
X42648251Y-4617523D01*
X42653233Y-4619846D01*
X42653238Y-4619849D01*
X42849765Y-4711490D01*
X42855757Y-4714284D01*
X42861065Y-4715706D01*
X42861067Y-4715707D01*
X43071598Y-4772119D01*
X43071600Y-4772119D01*
X43076913Y-4773543D01*
X43305000Y-4793498D01*
X43533087Y-4773543D01*
X43538400Y-4772119D01*
X43538402Y-4772119D01*
X43748933Y-4715707D01*
X43748935Y-4715706D01*
X43754243Y-4714284D01*
X43760235Y-4711490D01*
X43956762Y-4619849D01*
X43956767Y-4619846D01*
X43961749Y-4617523D01*
X44144783Y-4489361D01*
X44144792Y-4489355D01*
X44149300Y-4486198D01*
X44311198Y-4324300D01*
X44442523Y-4136749D01*
X44444846Y-4131767D01*
X44444849Y-4131762D01*
X44460805Y-4097543D01*
X44507722Y-4044258D01*
X44575999Y-4024797D01*
X44643959Y-4045339D01*
X44689195Y-4097543D01*
X44705151Y-4131762D01*
X44705154Y-4131767D01*
X44707477Y-4136749D01*
X44838802Y-4324300D01*
X45000700Y-4486198D01*
X45005208Y-4489355D01*
X45005217Y-4489361D01*
X45188251Y-4617523D01*
X45193233Y-4619846D01*
X45193238Y-4619849D01*
X45389765Y-4711490D01*
X45395757Y-4714284D01*
X45401065Y-4715706D01*
X45401067Y-4715707D01*
X45611598Y-4772119D01*
X45611600Y-4772119D01*
X45616913Y-4773543D01*
X45845000Y-4793498D01*
X46073087Y-4773543D01*
X46078400Y-4772119D01*
X46078402Y-4772119D01*
X46288933Y-4715707D01*
X46288935Y-4715706D01*
X46294243Y-4714284D01*
X46300235Y-4711490D01*
X46496762Y-4619849D01*
X46496767Y-4619846D01*
X46501749Y-4617523D01*
X46684783Y-4489361D01*
X46684792Y-4489355D01*
X46689300Y-4486198D01*
X46851198Y-4324300D01*
X46982523Y-4136749D01*
X46984846Y-4131767D01*
X46984849Y-4131762D01*
X47000805Y-4097543D01*
X47047722Y-4044258D01*
X47115999Y-4024797D01*
X47183959Y-4045339D01*
X47229195Y-4097543D01*
X47245151Y-4131762D01*
X47245154Y-4131767D01*
X47247477Y-4136749D01*
X47378802Y-4324300D01*
X47540700Y-4486198D01*
X47545208Y-4489355D01*
X47545217Y-4489361D01*
X47728251Y-4617523D01*
X47733233Y-4619846D01*
X47733238Y-4619849D01*
X47929765Y-4711490D01*
X47935757Y-4714284D01*
X47941065Y-4715706D01*
X47941067Y-4715707D01*
X48151598Y-4772119D01*
X48151600Y-4772119D01*
X48156913Y-4773543D01*
X48385000Y-4793498D01*
X48613087Y-4773543D01*
X48618400Y-4772119D01*
X48618402Y-4772119D01*
X48828933Y-4715707D01*
X48828935Y-4715706D01*
X48834243Y-4714284D01*
X48840235Y-4711490D01*
X49036762Y-4619849D01*
X49036767Y-4619846D01*
X49041749Y-4617523D01*
X49224783Y-4489361D01*
X49224792Y-4489355D01*
X49229300Y-4486198D01*
X49391198Y-4324300D01*
X49522523Y-4136749D01*
X49524846Y-4131767D01*
X49524849Y-4131762D01*
X49616961Y-3934225D01*
X49616961Y-3934224D01*
X49619284Y-3929243D01*
X49678543Y-3708087D01*
X49698498Y-3480000D01*
X49678543Y-3251913D01*
X49619284Y-3030757D01*
X49588687Y-2965141D01*
X49524849Y-2828238D01*
X49524846Y-2828233D01*
X49522523Y-2823251D01*
X49445051Y-2712610D01*
X49394357Y-2640211D01*
X49394355Y-2640208D01*
X49391198Y-2635700D01*
X49229300Y-2473802D01*
X49224792Y-2470645D01*
X49224789Y-2470643D01*
X49121291Y-2398173D01*
X49041749Y-2342477D01*
X49036767Y-2340154D01*
X49036762Y-2340151D01*
X48839225Y-2248039D01*
X48839224Y-2248039D01*
X48834243Y-2245716D01*
X48828935Y-2244294D01*
X48828933Y-2244293D01*
X48618402Y-2187881D01*
X48618400Y-2187881D01*
X48613087Y-2186457D01*
X48385000Y-2166502D01*
X48156913Y-2186457D01*
X48151600Y-2187881D01*
X48151598Y-2187881D01*
X47941067Y-2244293D01*
X47941065Y-2244294D01*
X47935757Y-2245716D01*
X47930776Y-2248039D01*
X47930775Y-2248039D01*
X47733238Y-2340151D01*
X47733233Y-2340154D01*
X47728251Y-2342477D01*
X47648709Y-2398173D01*
X47545211Y-2470643D01*
X47545208Y-2470645D01*
X47540700Y-2473802D01*
X47378802Y-2635700D01*
X47375645Y-2640208D01*
X47375643Y-2640211D01*
X47324949Y-2712610D01*
X47247477Y-2823251D01*
X47245154Y-2828233D01*
X47245151Y-2828238D01*
X47229195Y-2862457D01*
X47182278Y-2915742D01*
X47114001Y-2935203D01*
X47046041Y-2914661D01*
X47000805Y-2862457D01*
X46984849Y-2828238D01*
X46984846Y-2828233D01*
X46982523Y-2823251D01*
X46905051Y-2712610D01*
X46854357Y-2640211D01*
X46854355Y-2640208D01*
X46851198Y-2635700D01*
X46689300Y-2473802D01*
X46684792Y-2470645D01*
X46684789Y-2470643D01*
X46581291Y-2398173D01*
X46501749Y-2342477D01*
X46496767Y-2340154D01*
X46496762Y-2340151D01*
X46299225Y-2248039D01*
X46299224Y-2248039D01*
X46294243Y-2245716D01*
X46288935Y-2244294D01*
X46288933Y-2244293D01*
X46078402Y-2187881D01*
X46078400Y-2187881D01*
X46073087Y-2186457D01*
X45845000Y-2166502D01*
X45616913Y-2186457D01*
X45611600Y-2187881D01*
X45611598Y-2187881D01*
X45401067Y-2244293D01*
X45401065Y-2244294D01*
X45395757Y-2245716D01*
X45390776Y-2248039D01*
X45390775Y-2248039D01*
X45193238Y-2340151D01*
X45193233Y-2340154D01*
X45188251Y-2342477D01*
X45108709Y-2398173D01*
X45005211Y-2470643D01*
X45005208Y-2470645D01*
X45000700Y-2473802D01*
X44838802Y-2635700D01*
X44835645Y-2640208D01*
X44835643Y-2640211D01*
X44784949Y-2712610D01*
X44707477Y-2823251D01*
X44705154Y-2828233D01*
X44705151Y-2828238D01*
X44689195Y-2862457D01*
X44642278Y-2915742D01*
X44574001Y-2935203D01*
X44506041Y-2914661D01*
X44460805Y-2862457D01*
X44444849Y-2828238D01*
X44444846Y-2828233D01*
X44442523Y-2823251D01*
X44365051Y-2712610D01*
X44314357Y-2640211D01*
X44314355Y-2640208D01*
X44311198Y-2635700D01*
X44149300Y-2473802D01*
X44144792Y-2470645D01*
X44144789Y-2470643D01*
X44041291Y-2398173D01*
X43961749Y-2342477D01*
X43956767Y-2340154D01*
X43956762Y-2340151D01*
X43759225Y-2248039D01*
X43759224Y-2248039D01*
X43754243Y-2245716D01*
X43748935Y-2244294D01*
X43748933Y-2244293D01*
X43538402Y-2187881D01*
X43538400Y-2187881D01*
X43533087Y-2186457D01*
X43305000Y-2166502D01*
X43076913Y-2186457D01*
X43071600Y-2187881D01*
X43071598Y-2187881D01*
X42861067Y-2244293D01*
X42861065Y-2244294D01*
X42855757Y-2245716D01*
X42850776Y-2248039D01*
X42850775Y-2248039D01*
X42653238Y-2340151D01*
X42653233Y-2340154D01*
X42648251Y-2342477D01*
X42568709Y-2398173D01*
X42465211Y-2470643D01*
X42465208Y-2470645D01*
X42460700Y-2473802D01*
X42298802Y-2635700D01*
X42295645Y-2640208D01*
X42295643Y-2640211D01*
X42244949Y-2712610D01*
X42167477Y-2823251D01*
X42165154Y-2828233D01*
X42165151Y-2828238D01*
X42149195Y-2862457D01*
X42102278Y-2915742D01*
X42034001Y-2935203D01*
X41966041Y-2914661D01*
X41920805Y-2862457D01*
X41904849Y-2828238D01*
X41904846Y-2828233D01*
X41902523Y-2823251D01*
X41825051Y-2712610D01*
X41774357Y-2640211D01*
X41774355Y-2640208D01*
X41771198Y-2635700D01*
X41609300Y-2473802D01*
X41604792Y-2470645D01*
X41604789Y-2470643D01*
X41501291Y-2398173D01*
X41421749Y-2342477D01*
X41416767Y-2340154D01*
X41416762Y-2340151D01*
X41219225Y-2248039D01*
X41219224Y-2248039D01*
X41214243Y-2245716D01*
X41208935Y-2244294D01*
X41208933Y-2244293D01*
X40998402Y-2187881D01*
X40998400Y-2187881D01*
X40993087Y-2186457D01*
X40765000Y-2166502D01*
X40536913Y-2186457D01*
X40531600Y-2187881D01*
X40531598Y-2187881D01*
X40321067Y-2244293D01*
X40321065Y-2244294D01*
X40315757Y-2245716D01*
X40310776Y-2248039D01*
X40310775Y-2248039D01*
X40113238Y-2340151D01*
X40113233Y-2340154D01*
X40108251Y-2342477D01*
X40028709Y-2398173D01*
X39925211Y-2470643D01*
X39925208Y-2470645D01*
X39920700Y-2473802D01*
X39758802Y-2635700D01*
X39755645Y-2640208D01*
X39755643Y-2640211D01*
X39704949Y-2712610D01*
X39627477Y-2823251D01*
X39625154Y-2828233D01*
X39625151Y-2828238D01*
X39609195Y-2862457D01*
X39562278Y-2915742D01*
X39494001Y-2935203D01*
X39426041Y-2914661D01*
X39380805Y-2862457D01*
X39364849Y-2828238D01*
X39364846Y-2828233D01*
X39362523Y-2823251D01*
X39285051Y-2712610D01*
X39234357Y-2640211D01*
X39234355Y-2640208D01*
X39231198Y-2635700D01*
X39069300Y-2473802D01*
X39064792Y-2470645D01*
X39064789Y-2470643D01*
X38961291Y-2398173D01*
X38881749Y-2342477D01*
X38876767Y-2340154D01*
X38876762Y-2340151D01*
X38679225Y-2248039D01*
X38679224Y-2248039D01*
X38674243Y-2245716D01*
X38668935Y-2244294D01*
X38668933Y-2244293D01*
X38458402Y-2187881D01*
X38458400Y-2187881D01*
X38453087Y-2186457D01*
X38225000Y-2166502D01*
X37996913Y-2186457D01*
X37991600Y-2187881D01*
X37991598Y-2187881D01*
X37781067Y-2244293D01*
X37781065Y-2244294D01*
X37775757Y-2245716D01*
X37770776Y-2248039D01*
X37770775Y-2248039D01*
X37573238Y-2340151D01*
X37573233Y-2340154D01*
X37568251Y-2342477D01*
X37488709Y-2398173D01*
X37385211Y-2470643D01*
X37385208Y-2470645D01*
X37380700Y-2473802D01*
X37218802Y-2635700D01*
X37215645Y-2640208D01*
X37215643Y-2640211D01*
X37164949Y-2712610D01*
X37087477Y-2823251D01*
X37085154Y-2828233D01*
X37085151Y-2828238D01*
X37069195Y-2862457D01*
X37022278Y-2915742D01*
X36954001Y-2935203D01*
X36886041Y-2914661D01*
X36840805Y-2862457D01*
X36824849Y-2828238D01*
X36824846Y-2828233D01*
X36822523Y-2823251D01*
X36745051Y-2712610D01*
X36694357Y-2640211D01*
X36694355Y-2640208D01*
X36691198Y-2635700D01*
X36529300Y-2473802D01*
X36524792Y-2470645D01*
X36524789Y-2470643D01*
X36421291Y-2398173D01*
X36341749Y-2342477D01*
X36336767Y-2340154D01*
X36336762Y-2340151D01*
X36139225Y-2248039D01*
X36139224Y-2248039D01*
X36134243Y-2245716D01*
X36128935Y-2244294D01*
X36128933Y-2244293D01*
X35918402Y-2187881D01*
X35918400Y-2187881D01*
X35913087Y-2186457D01*
X35685000Y-2166502D01*
X35456913Y-2186457D01*
X35451600Y-2187881D01*
X35451598Y-2187881D01*
X35241067Y-2244293D01*
X35241065Y-2244294D01*
X35235757Y-2245716D01*
X35230776Y-2248039D01*
X35230775Y-2248039D01*
X35033238Y-2340151D01*
X35033233Y-2340154D01*
X35028251Y-2342477D01*
X34948709Y-2398173D01*
X34845211Y-2470643D01*
X34845208Y-2470645D01*
X34840700Y-2473802D01*
X34678802Y-2635700D01*
X34675645Y-2640208D01*
X34675643Y-2640211D01*
X34624949Y-2712610D01*
X34547477Y-2823251D01*
X34545154Y-2828233D01*
X34545151Y-2828238D01*
X34529195Y-2862457D01*
X34482278Y-2915742D01*
X34414001Y-2935203D01*
X34346041Y-2914661D01*
X34300805Y-2862457D01*
X34284849Y-2828238D01*
X34284846Y-2828233D01*
X34282523Y-2823251D01*
X34205051Y-2712610D01*
X34154357Y-2640211D01*
X34154355Y-2640208D01*
X34151198Y-2635700D01*
X33989300Y-2473802D01*
X33984792Y-2470645D01*
X33984789Y-2470643D01*
X33881291Y-2398173D01*
X33801749Y-2342477D01*
X33796767Y-2340154D01*
X33796762Y-2340151D01*
X33599225Y-2248039D01*
X33599224Y-2248039D01*
X33594243Y-2245716D01*
X33588935Y-2244294D01*
X33588933Y-2244293D01*
X33378402Y-2187881D01*
X33378400Y-2187881D01*
X33373087Y-2186457D01*
X33145000Y-2166502D01*
X32916913Y-2186457D01*
X32911600Y-2187881D01*
X32911598Y-2187881D01*
X32701067Y-2244293D01*
X32701065Y-2244294D01*
X32695757Y-2245716D01*
X32690776Y-2248039D01*
X32690775Y-2248039D01*
X32493238Y-2340151D01*
X32493233Y-2340154D01*
X32488251Y-2342477D01*
X32408709Y-2398173D01*
X32305211Y-2470643D01*
X32305208Y-2470645D01*
X32300700Y-2473802D01*
X32138802Y-2635700D01*
X32135645Y-2640208D01*
X32135643Y-2640211D01*
X32084949Y-2712610D01*
X32007477Y-2823251D01*
X32005154Y-2828233D01*
X32005151Y-2828238D01*
X31989195Y-2862457D01*
X31942278Y-2915742D01*
X31874001Y-2935203D01*
X31806041Y-2914661D01*
X31760805Y-2862457D01*
X31744849Y-2828238D01*
X31744846Y-2828233D01*
X31742523Y-2823251D01*
X31665051Y-2712610D01*
X31614357Y-2640211D01*
X31614355Y-2640208D01*
X31611198Y-2635700D01*
X31449300Y-2473802D01*
X31444792Y-2470645D01*
X31444789Y-2470643D01*
X31341291Y-2398173D01*
X31261749Y-2342477D01*
X31256767Y-2340154D01*
X31256762Y-2340151D01*
X31059225Y-2248039D01*
X31059224Y-2248039D01*
X31054243Y-2245716D01*
X31048935Y-2244294D01*
X31048933Y-2244293D01*
X30838402Y-2187881D01*
X30838400Y-2187881D01*
X30833087Y-2186457D01*
X30605000Y-2166502D01*
X30376913Y-2186457D01*
X30371600Y-2187881D01*
X30371598Y-2187881D01*
X30161067Y-2244293D01*
X30161065Y-2244294D01*
X30155757Y-2245716D01*
X30150776Y-2248039D01*
X30150775Y-2248039D01*
X29953238Y-2340151D01*
X29953233Y-2340154D01*
X29948251Y-2342477D01*
X29868709Y-2398173D01*
X29765211Y-2470643D01*
X29765208Y-2470645D01*
X29760700Y-2473802D01*
X29598802Y-2635700D01*
X29595645Y-2640208D01*
X29595643Y-2640211D01*
X29544949Y-2712610D01*
X29467477Y-2823251D01*
X29465154Y-2828233D01*
X29465151Y-2828238D01*
X29401313Y-2965141D01*
X29370716Y-3030757D01*
X29311457Y-3251913D01*
X29291502Y-3480000D01*
X29311457Y-3708087D01*
X29370716Y-3929243D01*
X29373039Y-3934224D01*
X29373039Y-3934225D01*
X29465151Y-4131762D01*
X29465154Y-4131767D01*
X29467477Y-4136749D01*
X29598802Y-4324300D01*
X29760700Y-4486198D01*
X29765208Y-4489355D01*
X29765211Y-4489357D01*
X29906483Y-4588277D01*
X29950811Y-4643734D01*
X29958120Y-4714354D01*
X29926089Y-4777714D01*
X29864888Y-4813699D01*
X29834215Y-4817490D01*
X27315787Y-4817490D01*
X27247667Y-4797488D01*
X27201174Y-4743832D01*
X27191070Y-4673558D01*
X27220564Y-4608978D01*
X27243517Y-4588277D01*
X27384789Y-4489357D01*
X27384792Y-4489355D01*
X27389300Y-4486198D01*
X27551198Y-4324300D01*
X27682523Y-4136749D01*
X27684846Y-4131767D01*
X27684849Y-4131762D01*
X27776961Y-3934225D01*
X27776961Y-3934224D01*
X27779284Y-3929243D01*
X27838543Y-3708087D01*
X27858498Y-3480000D01*
X27838543Y-3251913D01*
X27779284Y-3030757D01*
X27748687Y-2965141D01*
X27684849Y-2828238D01*
X27684846Y-2828233D01*
X27682523Y-2823251D01*
X27605051Y-2712610D01*
X27554357Y-2640211D01*
X27554355Y-2640208D01*
X27551198Y-2635700D01*
X27389300Y-2473802D01*
X27384792Y-2470645D01*
X27384789Y-2470643D01*
X27281291Y-2398173D01*
X27201749Y-2342477D01*
X27196767Y-2340154D01*
X27196762Y-2340151D01*
X26999225Y-2248039D01*
X26999224Y-2248039D01*
X26994243Y-2245716D01*
X26988935Y-2244294D01*
X26988933Y-2244293D01*
X26778402Y-2187881D01*
X26778400Y-2187881D01*
X26773087Y-2186457D01*
X26545000Y-2166502D01*
X26316913Y-2186457D01*
X26311600Y-2187881D01*
X26311598Y-2187881D01*
X26101067Y-2244293D01*
X26101065Y-2244294D01*
X26095757Y-2245716D01*
X26090776Y-2248039D01*
X26090775Y-2248039D01*
X25893238Y-2340151D01*
X25893233Y-2340154D01*
X25888251Y-2342477D01*
X25808709Y-2398173D01*
X25705211Y-2470643D01*
X25705208Y-2470645D01*
X25700700Y-2473802D01*
X25538802Y-2635700D01*
X25535645Y-2640208D01*
X25535643Y-2640211D01*
X25484949Y-2712610D01*
X25407477Y-2823251D01*
X25405154Y-2828233D01*
X25405151Y-2828238D01*
X25389195Y-2862457D01*
X25342278Y-2915742D01*
X25274001Y-2935203D01*
X25206041Y-2914661D01*
X25160805Y-2862457D01*
X25144849Y-2828238D01*
X25144846Y-2828233D01*
X25142523Y-2823251D01*
X25065051Y-2712610D01*
X25014357Y-2640211D01*
X25014355Y-2640208D01*
X25011198Y-2635700D01*
X24849300Y-2473802D01*
X24844792Y-2470645D01*
X24844789Y-2470643D01*
X24741291Y-2398173D01*
X24661749Y-2342477D01*
X24656767Y-2340154D01*
X24656762Y-2340151D01*
X24459225Y-2248039D01*
X24459224Y-2248039D01*
X24454243Y-2245716D01*
X24448935Y-2244294D01*
X24448933Y-2244293D01*
X24238402Y-2187881D01*
X24238400Y-2187881D01*
X24233087Y-2186457D01*
X24005000Y-2166502D01*
X23776913Y-2186457D01*
X23771600Y-2187881D01*
X23771598Y-2187881D01*
X23561067Y-2244293D01*
X23561065Y-2244294D01*
X23555757Y-2245716D01*
X23550776Y-2248039D01*
X23550775Y-2248039D01*
X23353238Y-2340151D01*
X23353233Y-2340154D01*
X23348251Y-2342477D01*
X23268709Y-2398173D01*
X23165211Y-2470643D01*
X23165208Y-2470645D01*
X23160700Y-2473802D01*
X22998802Y-2635700D01*
X22995645Y-2640208D01*
X22995643Y-2640211D01*
X22944949Y-2712610D01*
X22867477Y-2823251D01*
X22865154Y-2828233D01*
X22865151Y-2828238D01*
X22849195Y-2862457D01*
X22802278Y-2915742D01*
X22734001Y-2935203D01*
X22666041Y-2914661D01*
X22620805Y-2862457D01*
X22604849Y-2828238D01*
X22604846Y-2828233D01*
X22602523Y-2823251D01*
X22525051Y-2712610D01*
X22474357Y-2640211D01*
X22474355Y-2640208D01*
X22471198Y-2635700D01*
X22309300Y-2473802D01*
X22304792Y-2470645D01*
X22304789Y-2470643D01*
X22201291Y-2398173D01*
X22121749Y-2342477D01*
X22116767Y-2340154D01*
X22116762Y-2340151D01*
X21919225Y-2248039D01*
X21919224Y-2248039D01*
X21914243Y-2245716D01*
X21908935Y-2244294D01*
X21908933Y-2244293D01*
X21698402Y-2187881D01*
X21698400Y-2187881D01*
X21693087Y-2186457D01*
X21465000Y-2166502D01*
X21236913Y-2186457D01*
X21231600Y-2187881D01*
X21231598Y-2187881D01*
X21021067Y-2244293D01*
X21021065Y-2244294D01*
X21015757Y-2245716D01*
X21010776Y-2248039D01*
X21010775Y-2248039D01*
X20813238Y-2340151D01*
X20813233Y-2340154D01*
X20808251Y-2342477D01*
X20728709Y-2398173D01*
X20625211Y-2470643D01*
X20625208Y-2470645D01*
X20620700Y-2473802D01*
X20458802Y-2635700D01*
X20455645Y-2640208D01*
X20455643Y-2640211D01*
X20404949Y-2712610D01*
X20327477Y-2823251D01*
X20325154Y-2828233D01*
X20325151Y-2828238D01*
X20309195Y-2862457D01*
X20262278Y-2915742D01*
X20194001Y-2935203D01*
X20126041Y-2914661D01*
X20080805Y-2862457D01*
X20064849Y-2828238D01*
X20064846Y-2828233D01*
X20062523Y-2823251D01*
X19985051Y-2712610D01*
X19934357Y-2640211D01*
X19934355Y-2640208D01*
X19931198Y-2635700D01*
X19769300Y-2473802D01*
X19764792Y-2470645D01*
X19764789Y-2470643D01*
X19661291Y-2398173D01*
X19581749Y-2342477D01*
X19576767Y-2340154D01*
X19576762Y-2340151D01*
X19379225Y-2248039D01*
X19379224Y-2248039D01*
X19374243Y-2245716D01*
X19368935Y-2244294D01*
X19368933Y-2244293D01*
X19158402Y-2187881D01*
X19158400Y-2187881D01*
X19153087Y-2186457D01*
X18925000Y-2166502D01*
X18696913Y-2186457D01*
X18691600Y-2187881D01*
X18691598Y-2187881D01*
X18481067Y-2244293D01*
X18481065Y-2244294D01*
X18475757Y-2245716D01*
X18470776Y-2248039D01*
X18470775Y-2248039D01*
X18273238Y-2340151D01*
X18273233Y-2340154D01*
X18268251Y-2342477D01*
X18188709Y-2398173D01*
X18085211Y-2470643D01*
X18085208Y-2470645D01*
X18080700Y-2473802D01*
X17918802Y-2635700D01*
X17915645Y-2640208D01*
X17915643Y-2640211D01*
X17864949Y-2712610D01*
X17787477Y-2823251D01*
X17785154Y-2828233D01*
X17785151Y-2828238D01*
X17769195Y-2862457D01*
X17722278Y-2915742D01*
X17654001Y-2935203D01*
X17586041Y-2914661D01*
X17540805Y-2862457D01*
X17524849Y-2828238D01*
X17524846Y-2828233D01*
X17522523Y-2823251D01*
X17445051Y-2712610D01*
X17394357Y-2640211D01*
X17394355Y-2640208D01*
X17391198Y-2635700D01*
X17229300Y-2473802D01*
X17224792Y-2470645D01*
X17224789Y-2470643D01*
X17121291Y-2398173D01*
X17041749Y-2342477D01*
X17036767Y-2340154D01*
X17036762Y-2340151D01*
X16839225Y-2248039D01*
X16839224Y-2248039D01*
X16834243Y-2245716D01*
X16828935Y-2244294D01*
X16828933Y-2244293D01*
X16618402Y-2187881D01*
X16618400Y-2187881D01*
X16613087Y-2186457D01*
X16385000Y-2166502D01*
X16156913Y-2186457D01*
X16151600Y-2187881D01*
X16151598Y-2187881D01*
X15941067Y-2244293D01*
X15941065Y-2244294D01*
X15935757Y-2245716D01*
X15930776Y-2248039D01*
X15930775Y-2248039D01*
X15733238Y-2340151D01*
X15733233Y-2340154D01*
X15728251Y-2342477D01*
X15648709Y-2398173D01*
X15545211Y-2470643D01*
X15545208Y-2470645D01*
X15540700Y-2473802D01*
X15378802Y-2635700D01*
X15375645Y-2640208D01*
X15375643Y-2640211D01*
X15324949Y-2712610D01*
X15247477Y-2823251D01*
X15245154Y-2828233D01*
X15245151Y-2828238D01*
X15229195Y-2862457D01*
X15182278Y-2915742D01*
X15114001Y-2935203D01*
X15046041Y-2914661D01*
X15000805Y-2862457D01*
X14984849Y-2828238D01*
X14984846Y-2828233D01*
X14982523Y-2823251D01*
X14905051Y-2712610D01*
X14854357Y-2640211D01*
X14854355Y-2640208D01*
X14851198Y-2635700D01*
X14689300Y-2473802D01*
X14684792Y-2470645D01*
X14684789Y-2470643D01*
X14581291Y-2398173D01*
X14501749Y-2342477D01*
X14496767Y-2340154D01*
X14496762Y-2340151D01*
X14299225Y-2248039D01*
X14299224Y-2248039D01*
X14294243Y-2245716D01*
X14288935Y-2244294D01*
X14288933Y-2244293D01*
X14078402Y-2187881D01*
X14078400Y-2187881D01*
X14073087Y-2186457D01*
X13845000Y-2166502D01*
X13616913Y-2186457D01*
X13611600Y-2187881D01*
X13611598Y-2187881D01*
X13401067Y-2244293D01*
X13401065Y-2244294D01*
X13395757Y-2245716D01*
X13390776Y-2248039D01*
X13390775Y-2248039D01*
X13193238Y-2340151D01*
X13193233Y-2340154D01*
X13188251Y-2342477D01*
X13108709Y-2398173D01*
X13005211Y-2470643D01*
X13005208Y-2470645D01*
X13000700Y-2473802D01*
X12838802Y-2635700D01*
X12835645Y-2640208D01*
X12835643Y-2640211D01*
X12784949Y-2712610D01*
X12707477Y-2823251D01*
X12705154Y-2828233D01*
X12705151Y-2828238D01*
X12688919Y-2863049D01*
X12642002Y-2916334D01*
X12573725Y-2935795D01*
X12505765Y-2915253D01*
X12460529Y-2863049D01*
X12444414Y-2828489D01*
X12438931Y-2818993D01*
X12313972Y-2640533D01*
X12306916Y-2632125D01*
X12152875Y-2478084D01*
X12144467Y-2471028D01*
X11966007Y-2346069D01*
X11956511Y-2340586D01*
X11759053Y-2248510D01*
X11748761Y-2244764D01*
X11576497Y-2198606D01*
X11562401Y-2198942D01*
X11559000Y-2206884D01*
X11559000Y-4747967D01*
X11051000Y-4747967D01*
X11051000Y-2212033D01*
X11047027Y-2198502D01*
X11038478Y-2197273D01*
X10861239Y-2244764D01*
X10850947Y-2248510D01*
X10653489Y-2340586D01*
X10643993Y-2346069D01*
X10465533Y-2471028D01*
X10457125Y-2478084D01*
X10303084Y-2632125D01*
X10296028Y-2640533D01*
X10171069Y-2818993D01*
X10165586Y-2828489D01*
X10149471Y-2863049D01*
X10102554Y-2916334D01*
X10034277Y-2935795D01*
X9966317Y-2915253D01*
X9921081Y-2863049D01*
X9904849Y-2828238D01*
X9904846Y-2828233D01*
X9902523Y-2823251D01*
X9825051Y-2712610D01*
X9774357Y-2640211D01*
X9774355Y-2640208D01*
X9771198Y-2635700D01*
X9609300Y-2473802D01*
X9604792Y-2470645D01*
X9604789Y-2470643D01*
X9501291Y-2398173D01*
X9421749Y-2342477D01*
X9416767Y-2340154D01*
X9416762Y-2340151D01*
X9219225Y-2248039D01*
X9219224Y-2248039D01*
X9214243Y-2245716D01*
X9208935Y-2244294D01*
X9208933Y-2244293D01*
X8998402Y-2187881D01*
X8998400Y-2187881D01*
X8993087Y-2186457D01*
X8765000Y-2166502D01*
X8536913Y-2186457D01*
X8531600Y-2187881D01*
X8531598Y-2187881D01*
X8321067Y-2244293D01*
X8321065Y-2244294D01*
X8315757Y-2245716D01*
X8310776Y-2248039D01*
X8310775Y-2248039D01*
X8113238Y-2340151D01*
X8113233Y-2340154D01*
X8108251Y-2342477D01*
X8028709Y-2398173D01*
X7925211Y-2470643D01*
X7925208Y-2470645D01*
X7920700Y-2473802D01*
X7758802Y-2635700D01*
X7755645Y-2640208D01*
X7755643Y-2640211D01*
X7704949Y-2712610D01*
X7627477Y-2823251D01*
X7625154Y-2828233D01*
X7625151Y-2828238D01*
X7609195Y-2862457D01*
X7562278Y-2915742D01*
X7494001Y-2935203D01*
X7426041Y-2914661D01*
X7380805Y-2862457D01*
X7364849Y-2828238D01*
X7364846Y-2828233D01*
X7362523Y-2823251D01*
X7285051Y-2712610D01*
X7234357Y-2640211D01*
X7234355Y-2640208D01*
X7231198Y-2635700D01*
X7069300Y-2473802D01*
X7064792Y-2470645D01*
X7064789Y-2470643D01*
X6961291Y-2398173D01*
X6881749Y-2342477D01*
X6876767Y-2340154D01*
X6876762Y-2340151D01*
X6679225Y-2248039D01*
X6679224Y-2248039D01*
X6674243Y-2245716D01*
X6668935Y-2244294D01*
X6668933Y-2244293D01*
X6458402Y-2187881D01*
X6458400Y-2187881D01*
X6453087Y-2186457D01*
X6225000Y-2166502D01*
X5996913Y-2186457D01*
X5991600Y-2187881D01*
X5991598Y-2187881D01*
X5781067Y-2244293D01*
X5781065Y-2244294D01*
X5775757Y-2245716D01*
X5770776Y-2248039D01*
X5770775Y-2248039D01*
X5573238Y-2340151D01*
X5573233Y-2340154D01*
X5568251Y-2342477D01*
X5488709Y-2398173D01*
X5385211Y-2470643D01*
X5385208Y-2470645D01*
X5380700Y-2473802D01*
X5218802Y-2635700D01*
X5215645Y-2640208D01*
X5215643Y-2640211D01*
X5164949Y-2712610D01*
X5087477Y-2823251D01*
X5085154Y-2828233D01*
X5085151Y-2828238D01*
X5069195Y-2862457D01*
X5022278Y-2915742D01*
X4954001Y-2935203D01*
X4886041Y-2914661D01*
X4840805Y-2862457D01*
X4824849Y-2828238D01*
X4824846Y-2828233D01*
X4822523Y-2823251D01*
X4745051Y-2712610D01*
X4694357Y-2640211D01*
X4694355Y-2640208D01*
X4691198Y-2635700D01*
X4529300Y-2473802D01*
X4524792Y-2470645D01*
X4524789Y-2470643D01*
X4421291Y-2398173D01*
X4341749Y-2342477D01*
X4336767Y-2340154D01*
X4336762Y-2340151D01*
X4139225Y-2248039D01*
X4139224Y-2248039D01*
X4134243Y-2245716D01*
X4128935Y-2244294D01*
X4128933Y-2244293D01*
X3918402Y-2187881D01*
X3918400Y-2187881D01*
X3913087Y-2186457D01*
X3685000Y-2166502D01*
X3456913Y-2186457D01*
X3451600Y-2187881D01*
X3451598Y-2187881D01*
X3241067Y-2244293D01*
X3241065Y-2244294D01*
X3235757Y-2245716D01*
X3230776Y-2248039D01*
X3230775Y-2248039D01*
X3033238Y-2340151D01*
X3033233Y-2340154D01*
X3028251Y-2342477D01*
X2948709Y-2398173D01*
X2845211Y-2470643D01*
X2845208Y-2470645D01*
X2840700Y-2473802D01*
X2678802Y-2635700D01*
X2675645Y-2640208D01*
X2675643Y-2640211D01*
X2624949Y-2712610D01*
X2547477Y-2823251D01*
X2545154Y-2828233D01*
X2545151Y-2828238D01*
X2481313Y-2965141D01*
X2450716Y-3030757D01*
X2391457Y-3251913D01*
X2371502Y-3480000D01*
X1508000Y-3480000D01*
X1508000Y-2999328D01*
X1509500Y-2979943D01*
X1511805Y-2965141D01*
X1511805Y-2965139D01*
X1513186Y-2956270D01*
X1511195Y-2941041D01*
X1510452Y-2915713D01*
X1510528Y-2914661D01*
X1522543Y-2746657D01*
X1525101Y-2728863D01*
X1566520Y-2538462D01*
X1571586Y-2521212D01*
X1639682Y-2338642D01*
X1647149Y-2322290D01*
X1687435Y-2248510D01*
X1740534Y-2151266D01*
X1750248Y-2136152D01*
X1867023Y-1980158D01*
X1878796Y-1966572D01*
X2016572Y-1828796D01*
X2030158Y-1817023D01*
X2076484Y-1782344D01*
X2186152Y-1700248D01*
X2201266Y-1690534D01*
X2306980Y-1632810D01*
X2372290Y-1597149D01*
X2388642Y-1589682D01*
X2571212Y-1521586D01*
X2588460Y-1516521D01*
X2778863Y-1475101D01*
X2796658Y-1472543D01*
X2845557Y-1469046D01*
X2958631Y-1460959D01*
X2976533Y-1461703D01*
X2984858Y-1461805D01*
X2993730Y-1463186D01*
X3002632Y-1462022D01*
X3002635Y-1462022D01*
X3025251Y-1459064D01*
X3041589Y-1458000D01*
X49137390Y-1458000D01*
X49205511Y-1478002D01*
G37*
%TD.AperFunction*%
%TD*%
M02*
