%TF.GenerationSoftware,KiCad,Pcbnew,(6.0.2)*%
%TF.CreationDate,2022-03-01T12:54:46-05:00*%
%TF.ProjectId,arduino_shield,61726475-696e-46f5-9f73-6869656c642e,A*%
%TF.SameCoordinates,PX8954400PY4e95300*%
%TF.FileFunction,Legend,Bot*%
%TF.FilePolarity,Positive*%
%FSLAX46Y46*%
G04 Gerber Fmt 4.6, Leading zero omitted, Abs format (unit mm)*
G04 Created by KiCad (PCBNEW (6.0.2)) date 2022-03-01 12:54:46*
%MOMM*%
%LPD*%
G01*
G04 APERTURE LIST*
%ADD10C,0.150000*%
%ADD11C,0.010000*%
%ADD12C,0.120000*%
G04 APERTURE END LIST*
D10*
X39457142Y-42485714D02*
X39457142Y-43295238D01*
X39504761Y-43390476D01*
X39552380Y-43438095D01*
X39647619Y-43485714D01*
X39790476Y-43485714D01*
X39885714Y-43438095D01*
X39457142Y-43104761D02*
X39552380Y-43152380D01*
X39742857Y-43152380D01*
X39838095Y-43104761D01*
X39885714Y-43057142D01*
X39933333Y-42961904D01*
X39933333Y-42676190D01*
X39885714Y-42580952D01*
X39838095Y-42533333D01*
X39742857Y-42485714D01*
X39552380Y-42485714D01*
X39457142Y-42533333D01*
X38980952Y-43152380D02*
X38980952Y-42485714D01*
X38980952Y-42152380D02*
X39028571Y-42200000D01*
X38980952Y-42247619D01*
X38933333Y-42200000D01*
X38980952Y-42152380D01*
X38980952Y-42247619D01*
X38647619Y-42485714D02*
X38266666Y-42485714D01*
X38504761Y-42152380D02*
X38504761Y-43009523D01*
X38457142Y-43104761D01*
X38361904Y-43152380D01*
X38266666Y-43152380D01*
X37933333Y-43152380D02*
X37933333Y-42152380D01*
X37504761Y-43152380D02*
X37504761Y-42628571D01*
X37552380Y-42533333D01*
X37647619Y-42485714D01*
X37790476Y-42485714D01*
X37885714Y-42533333D01*
X37933333Y-42580952D01*
X36600000Y-42485714D02*
X36600000Y-43152380D01*
X37028571Y-42485714D02*
X37028571Y-43009523D01*
X36980952Y-43104761D01*
X36885714Y-43152380D01*
X36742857Y-43152380D01*
X36647619Y-43104761D01*
X36600000Y-43057142D01*
X36123809Y-43152380D02*
X36123809Y-42152380D01*
X36123809Y-42533333D02*
X36028571Y-42485714D01*
X35838095Y-42485714D01*
X35742857Y-42533333D01*
X35695238Y-42580952D01*
X35647619Y-42676190D01*
X35647619Y-42961904D01*
X35695238Y-43057142D01*
X35742857Y-43104761D01*
X35838095Y-43152380D01*
X36028571Y-43152380D01*
X36123809Y-43104761D01*
X35219047Y-43057142D02*
X35171428Y-43104761D01*
X35219047Y-43152380D01*
X35266666Y-43104761D01*
X35219047Y-43057142D01*
X35219047Y-43152380D01*
X34314285Y-43104761D02*
X34409523Y-43152380D01*
X34600000Y-43152380D01*
X34695238Y-43104761D01*
X34742857Y-43057142D01*
X34790476Y-42961904D01*
X34790476Y-42676190D01*
X34742857Y-42580952D01*
X34695238Y-42533333D01*
X34600000Y-42485714D01*
X34409523Y-42485714D01*
X34314285Y-42533333D01*
X33742857Y-43152380D02*
X33838095Y-43104761D01*
X33885714Y-43057142D01*
X33933333Y-42961904D01*
X33933333Y-42676190D01*
X33885714Y-42580952D01*
X33838095Y-42533333D01*
X33742857Y-42485714D01*
X33600000Y-42485714D01*
X33504761Y-42533333D01*
X33457142Y-42580952D01*
X33409523Y-42676190D01*
X33409523Y-42961904D01*
X33457142Y-43057142D01*
X33504761Y-43104761D01*
X33600000Y-43152380D01*
X33742857Y-43152380D01*
X32980952Y-43152380D02*
X32980952Y-42485714D01*
X32980952Y-42580952D02*
X32933333Y-42533333D01*
X32838095Y-42485714D01*
X32695238Y-42485714D01*
X32600000Y-42533333D01*
X32552380Y-42628571D01*
X32552380Y-43152380D01*
X32552380Y-42628571D02*
X32504761Y-42533333D01*
X32409523Y-42485714D01*
X32266666Y-42485714D01*
X32171428Y-42533333D01*
X32123809Y-42628571D01*
X32123809Y-43152380D01*
X30933333Y-42104761D02*
X31790476Y-43390476D01*
X30647619Y-43104761D02*
X30552380Y-43152380D01*
X30361904Y-43152380D01*
X30266666Y-43104761D01*
X30219047Y-43009523D01*
X30219047Y-42961904D01*
X30266666Y-42866666D01*
X30361904Y-42819047D01*
X30504761Y-42819047D01*
X30600000Y-42771428D01*
X30647619Y-42676190D01*
X30647619Y-42628571D01*
X30600000Y-42533333D01*
X30504761Y-42485714D01*
X30361904Y-42485714D01*
X30266666Y-42533333D01*
X29361904Y-43152380D02*
X29361904Y-42152380D01*
X29361904Y-43104761D02*
X29457142Y-43152380D01*
X29647619Y-43152380D01*
X29742857Y-43104761D01*
X29790476Y-43057142D01*
X29838095Y-42961904D01*
X29838095Y-42676190D01*
X29790476Y-42580952D01*
X29742857Y-42533333D01*
X29647619Y-42485714D01*
X29457142Y-42485714D01*
X29361904Y-42533333D01*
X28885714Y-42485714D02*
X28885714Y-43485714D01*
X28885714Y-42533333D02*
X28790476Y-42485714D01*
X28600000Y-42485714D01*
X28504761Y-42533333D01*
X28457142Y-42580952D01*
X28409523Y-42676190D01*
X28409523Y-42961904D01*
X28457142Y-43057142D01*
X28504761Y-43104761D01*
X28600000Y-43152380D01*
X28790476Y-43152380D01*
X28885714Y-43104761D01*
X27838095Y-42580952D02*
X27933333Y-42533333D01*
X27980952Y-42485714D01*
X28028571Y-42390476D01*
X28028571Y-42342857D01*
X27980952Y-42247619D01*
X27933333Y-42200000D01*
X27838095Y-42152380D01*
X27647619Y-42152380D01*
X27552380Y-42200000D01*
X27504761Y-42247619D01*
X27457142Y-42342857D01*
X27457142Y-42390476D01*
X27504761Y-42485714D01*
X27552380Y-42533333D01*
X27647619Y-42580952D01*
X27838095Y-42580952D01*
X27933333Y-42628571D01*
X27980952Y-42676190D01*
X28028571Y-42771428D01*
X28028571Y-42961904D01*
X27980952Y-43057142D01*
X27933333Y-43104761D01*
X27838095Y-43152380D01*
X27647619Y-43152380D01*
X27552380Y-43104761D01*
X27504761Y-43057142D01*
X27457142Y-42961904D01*
X27457142Y-42771428D01*
X27504761Y-42676190D01*
X27552380Y-42628571D01*
X27647619Y-42580952D01*
X26600000Y-42485714D02*
X26600000Y-43152380D01*
X26838095Y-42104761D02*
X27076190Y-42819047D01*
X26457142Y-42819047D01*
X25933333Y-42580952D02*
X26028571Y-42533333D01*
X26076190Y-42485714D01*
X26123809Y-42390476D01*
X26123809Y-42342857D01*
X26076190Y-42247619D01*
X26028571Y-42200000D01*
X25933333Y-42152380D01*
X25742857Y-42152380D01*
X25647619Y-42200000D01*
X25600000Y-42247619D01*
X25552380Y-42342857D01*
X25552380Y-42390476D01*
X25600000Y-42485714D01*
X25647619Y-42533333D01*
X25742857Y-42580952D01*
X25933333Y-42580952D01*
X26028571Y-42628571D01*
X26076190Y-42676190D01*
X26123809Y-42771428D01*
X26123809Y-42961904D01*
X26076190Y-43057142D01*
X26028571Y-43104761D01*
X25933333Y-43152380D01*
X25742857Y-43152380D01*
X25647619Y-43104761D01*
X25600000Y-43057142D01*
X25552380Y-42961904D01*
X25552380Y-42771428D01*
X25600000Y-42676190D01*
X25647619Y-42628571D01*
X25742857Y-42580952D01*
X25219047Y-42152380D02*
X24600000Y-42152380D01*
X24933333Y-42533333D01*
X24790476Y-42533333D01*
X24695238Y-42580952D01*
X24647619Y-42628571D01*
X24600000Y-42723809D01*
X24600000Y-42961904D01*
X24647619Y-43057142D01*
X24695238Y-43104761D01*
X24790476Y-43152380D01*
X25076190Y-43152380D01*
X25171428Y-43104761D01*
X25219047Y-43057142D01*
X23457142Y-42104761D02*
X24314285Y-43390476D01*
X23171428Y-43104761D02*
X23076190Y-43152380D01*
X22885714Y-43152380D01*
X22790476Y-43104761D01*
X22742857Y-43009523D01*
X22742857Y-42961904D01*
X22790476Y-42866666D01*
X22885714Y-42819047D01*
X23028571Y-42819047D01*
X23123809Y-42771428D01*
X23171428Y-42676190D01*
X23171428Y-42628571D01*
X23123809Y-42533333D01*
X23028571Y-42485714D01*
X22885714Y-42485714D01*
X22790476Y-42533333D01*
X22314285Y-43152380D02*
X22314285Y-42152380D01*
X21885714Y-43152380D02*
X21885714Y-42628571D01*
X21933333Y-42533333D01*
X22028571Y-42485714D01*
X22171428Y-42485714D01*
X22266666Y-42533333D01*
X22314285Y-42580952D01*
X20980952Y-42485714D02*
X20980952Y-43152380D01*
X21409523Y-42485714D02*
X21409523Y-43009523D01*
X21361904Y-43104761D01*
X21266666Y-43152380D01*
X21123809Y-43152380D01*
X21028571Y-43104761D01*
X20980952Y-43057142D01*
X20647619Y-42485714D02*
X20266666Y-42485714D01*
X20504761Y-42152380D02*
X20504761Y-43009523D01*
X20457142Y-43104761D01*
X20361904Y-43152380D01*
X20266666Y-43152380D01*
X20076190Y-42485714D02*
X19695238Y-42485714D01*
X19933333Y-42152380D02*
X19933333Y-43009523D01*
X19885714Y-43104761D01*
X19790476Y-43152380D01*
X19695238Y-43152380D01*
X18980952Y-43104761D02*
X19076190Y-43152380D01*
X19266666Y-43152380D01*
X19361904Y-43104761D01*
X19409523Y-43009523D01*
X19409523Y-42628571D01*
X19361904Y-42533333D01*
X19266666Y-42485714D01*
X19076190Y-42485714D01*
X18980952Y-42533333D01*
X18933333Y-42628571D01*
X18933333Y-42723809D01*
X19409523Y-42819047D01*
X18504761Y-43152380D02*
X18504761Y-42485714D01*
X18504761Y-42676190D02*
X18457142Y-42580952D01*
X18409523Y-42533333D01*
X18314285Y-42485714D01*
X18219047Y-42485714D01*
X18123809Y-43247619D02*
X17361904Y-43247619D01*
X17266666Y-42485714D02*
X16885714Y-42485714D01*
X17123809Y-42152380D02*
X17123809Y-43009523D01*
X17076190Y-43104761D01*
X16980952Y-43152380D01*
X16885714Y-43152380D01*
X16171428Y-43104761D02*
X16266666Y-43152380D01*
X16457142Y-43152380D01*
X16552380Y-43104761D01*
X16600000Y-43009523D01*
X16600000Y-42628571D01*
X16552380Y-42533333D01*
X16457142Y-42485714D01*
X16266666Y-42485714D01*
X16171428Y-42533333D01*
X16123809Y-42628571D01*
X16123809Y-42723809D01*
X16600000Y-42819047D01*
X15742857Y-43104761D02*
X15647619Y-43152380D01*
X15457142Y-43152380D01*
X15361904Y-43104761D01*
X15314285Y-43009523D01*
X15314285Y-42961904D01*
X15361904Y-42866666D01*
X15457142Y-42819047D01*
X15600000Y-42819047D01*
X15695238Y-42771428D01*
X15742857Y-42676190D01*
X15742857Y-42628571D01*
X15695238Y-42533333D01*
X15600000Y-42485714D01*
X15457142Y-42485714D01*
X15361904Y-42533333D01*
X15028571Y-42485714D02*
X14647619Y-42485714D01*
X14885714Y-42152380D02*
X14885714Y-43009523D01*
X14838095Y-43104761D01*
X14742857Y-43152380D01*
X14647619Y-43152380D01*
X13933333Y-43104761D02*
X14028571Y-43152380D01*
X14219047Y-43152380D01*
X14314285Y-43104761D01*
X14361904Y-43009523D01*
X14361904Y-42628571D01*
X14314285Y-42533333D01*
X14219047Y-42485714D01*
X14028571Y-42485714D01*
X13933333Y-42533333D01*
X13885714Y-42628571D01*
X13885714Y-42723809D01*
X14361904Y-42819047D01*
X13457142Y-43152380D02*
X13457142Y-42485714D01*
X13457142Y-42676190D02*
X13409523Y-42580952D01*
X13361904Y-42533333D01*
X13266666Y-42485714D01*
X13171428Y-42485714D01*
%TO.C,A1*%
X14809285Y-55716666D02*
X14333095Y-55716666D01*
X14904523Y-56002380D02*
X14571190Y-55002380D01*
X14237857Y-56002380D01*
X13380714Y-56002380D02*
X13952142Y-56002380D01*
X13666428Y-56002380D02*
X13666428Y-55002380D01*
X13761666Y-55145238D01*
X13856904Y-55240476D01*
X13952142Y-55288095D01*
D11*
%TO.C,G\u002A\u002A\u002A*%
X21389553Y-18329348D02*
X21187731Y-18459334D01*
X21187731Y-18459334D02*
X20965678Y-18656098D01*
X20965678Y-18656098D02*
X20741515Y-18903423D01*
X20741515Y-18903423D02*
X20533360Y-19185091D01*
X20533360Y-19185091D02*
X20517690Y-19209011D01*
X20517690Y-19209011D02*
X20260527Y-19677772D01*
X20260527Y-19677772D02*
X20083932Y-20176124D01*
X20083932Y-20176124D02*
X19980604Y-20728988D01*
X19980604Y-20728988D02*
X19948323Y-21152357D01*
X19948323Y-21152357D02*
X19954044Y-21718753D01*
X19954044Y-21718753D02*
X20020386Y-22274110D01*
X20020386Y-22274110D02*
X20152541Y-22838756D01*
X20152541Y-22838756D02*
X20355699Y-23433019D01*
X20355699Y-23433019D02*
X20635053Y-24077228D01*
X20635053Y-24077228D02*
X20762198Y-24339216D01*
X20762198Y-24339216D02*
X21077331Y-24934811D01*
X21077331Y-24934811D02*
X21406178Y-25474710D01*
X21406178Y-25474710D02*
X21768977Y-25987300D01*
X21768977Y-25987300D02*
X22185966Y-26500965D01*
X22185966Y-26500965D02*
X22677383Y-27044091D01*
X22677383Y-27044091D02*
X22731403Y-27101123D01*
X22731403Y-27101123D02*
X23003580Y-27400373D01*
X23003580Y-27400373D02*
X23222593Y-27676338D01*
X23222593Y-27676338D02*
X23414695Y-27966779D01*
X23414695Y-27966779D02*
X23606140Y-28309456D01*
X23606140Y-28309456D02*
X23703023Y-28498632D01*
X23703023Y-28498632D02*
X23818581Y-28717345D01*
X23818581Y-28717345D02*
X23925704Y-28900024D01*
X23925704Y-28900024D02*
X24008208Y-29019921D01*
X24008208Y-29019921D02*
X24035481Y-29048195D01*
X24035481Y-29048195D02*
X24072715Y-29098544D01*
X24072715Y-29098544D02*
X24102443Y-29199049D01*
X24102443Y-29199049D02*
X24126947Y-29365480D01*
X24126947Y-29365480D02*
X24148508Y-29613606D01*
X24148508Y-29613606D02*
X24169406Y-29959196D01*
X24169406Y-29959196D02*
X24170641Y-29982471D01*
X24170641Y-29982471D02*
X24194639Y-30315766D01*
X24194639Y-30315766D02*
X24234206Y-30727183D01*
X24234206Y-30727183D02*
X24285455Y-31182356D01*
X24285455Y-31182356D02*
X24344498Y-31646920D01*
X24344498Y-31646920D02*
X24407450Y-32086509D01*
X24407450Y-32086509D02*
X24411925Y-32115605D01*
X24411925Y-32115605D02*
X24473765Y-32519717D01*
X24473765Y-32519717D02*
X24533924Y-32920335D01*
X24533924Y-32920335D02*
X24588626Y-33291749D01*
X24588626Y-33291749D02*
X24634094Y-33608247D01*
X24634094Y-33608247D02*
X24666551Y-33844119D01*
X24666551Y-33844119D02*
X24672196Y-33887522D01*
X24672196Y-33887522D02*
X24735499Y-34287507D01*
X24735499Y-34287507D02*
X24826530Y-34733360D01*
X24826530Y-34733360D02*
X24937894Y-35197654D01*
X24937894Y-35197654D02*
X25062197Y-35652962D01*
X25062197Y-35652962D02*
X25192045Y-36071858D01*
X25192045Y-36071858D02*
X25320044Y-36426913D01*
X25320044Y-36426913D02*
X25415888Y-36646046D01*
X25415888Y-36646046D02*
X25562698Y-36919355D01*
X25562698Y-36919355D02*
X25705363Y-37122883D01*
X25705363Y-37122883D02*
X25873580Y-37295872D01*
X25873580Y-37295872D02*
X25969184Y-37377194D01*
X25969184Y-37377194D02*
X26152154Y-37520104D01*
X26152154Y-37520104D02*
X26321723Y-37642154D01*
X26321723Y-37642154D02*
X26440025Y-37716254D01*
X26440025Y-37716254D02*
X26651123Y-37795147D01*
X26651123Y-37795147D02*
X26874715Y-37832273D01*
X26874715Y-37832273D02*
X27061955Y-37820841D01*
X27061955Y-37820841D02*
X27100957Y-37808124D01*
X27100957Y-37808124D02*
X27208554Y-37734028D01*
X27208554Y-37734028D02*
X27365156Y-37590665D01*
X27365156Y-37590665D02*
X27550824Y-37399752D01*
X27550824Y-37399752D02*
X27745621Y-37183010D01*
X27745621Y-37183010D02*
X27929608Y-36962157D01*
X27929608Y-36962157D02*
X28082846Y-36758913D01*
X28082846Y-36758913D02*
X28134056Y-36682753D01*
X28134056Y-36682753D02*
X28224533Y-36527502D01*
X28224533Y-36527502D02*
X28349762Y-36293559D01*
X28349762Y-36293559D02*
X28496847Y-36005971D01*
X28496847Y-36005971D02*
X28652891Y-35689783D01*
X28652891Y-35689783D02*
X28753941Y-35478834D01*
X28753941Y-35478834D02*
X29053552Y-34796073D01*
X29053552Y-34796073D02*
X29280259Y-34160909D01*
X29280259Y-34160909D02*
X29443151Y-33541507D01*
X29443151Y-33541507D02*
X29551318Y-32906034D01*
X29551318Y-32906034D02*
X29589538Y-32552134D01*
X29589538Y-32552134D02*
X29608839Y-32247395D01*
X29608839Y-32247395D02*
X29620082Y-31877455D01*
X29620082Y-31877455D02*
X29623672Y-31468710D01*
X29623672Y-31468710D02*
X29620014Y-31047556D01*
X29620014Y-31047556D02*
X29609511Y-30640389D01*
X29609511Y-30640389D02*
X29597113Y-30372005D01*
X29597113Y-30372005D02*
X28542954Y-30372005D01*
X28542954Y-30372005D02*
X28542830Y-30849466D01*
X28542830Y-30849466D02*
X28536487Y-31267865D01*
X28536487Y-31267865D02*
X28527131Y-31698264D01*
X28527131Y-31698264D02*
X28516838Y-32036345D01*
X28516838Y-32036345D02*
X28503406Y-32303938D01*
X28503406Y-32303938D02*
X28484633Y-32522876D01*
X28484633Y-32522876D02*
X28458320Y-32714990D01*
X28458320Y-32714990D02*
X28422265Y-32902112D01*
X28422265Y-32902112D02*
X28374267Y-33106072D01*
X28374267Y-33106072D02*
X28335999Y-33256553D01*
X28335999Y-33256553D02*
X28230964Y-33601704D01*
X28230964Y-33601704D02*
X28079822Y-34015450D01*
X28079822Y-34015450D02*
X27895430Y-34468634D01*
X27895430Y-34468634D02*
X27690641Y-34932099D01*
X27690641Y-34932099D02*
X27478312Y-35376687D01*
X27478312Y-35376687D02*
X27271297Y-35773242D01*
X27271297Y-35773242D02*
X27092437Y-36077090D01*
X27092437Y-36077090D02*
X26949521Y-36283624D01*
X26949521Y-36283624D02*
X26792517Y-36483830D01*
X26792517Y-36483830D02*
X26638809Y-36658643D01*
X26638809Y-36658643D02*
X26505783Y-36789000D01*
X26505783Y-36789000D02*
X26410822Y-36855836D01*
X26410822Y-36855836D02*
X26380228Y-36858103D01*
X26380228Y-36858103D02*
X26342302Y-36792735D01*
X26342302Y-36792735D02*
X26283990Y-36644905D01*
X26283990Y-36644905D02*
X26215746Y-36442064D01*
X26215746Y-36442064D02*
X26190316Y-36359381D01*
X26190316Y-36359381D02*
X26039601Y-35820907D01*
X26039601Y-35820907D02*
X25910463Y-35275597D01*
X25910463Y-35275597D02*
X25795652Y-34689349D01*
X25795652Y-34689349D02*
X25687920Y-34028063D01*
X25687920Y-34028063D02*
X25672241Y-33922461D01*
X25672241Y-33922461D02*
X25611743Y-33510055D01*
X25611743Y-33510055D02*
X25542382Y-33036465D01*
X25542382Y-33036465D02*
X25471737Y-32553473D01*
X25471737Y-32553473D02*
X25407385Y-32112863D01*
X25407385Y-32112863D02*
X25392364Y-32009887D01*
X25392364Y-32009887D02*
X25316887Y-31430220D01*
X25316887Y-31430220D02*
X25255267Y-30815647D01*
X25255267Y-30815647D02*
X25206800Y-30152558D01*
X25206800Y-30152558D02*
X25170778Y-29427348D01*
X25170778Y-29427348D02*
X25146494Y-28626409D01*
X25146494Y-28626409D02*
X25133244Y-27736132D01*
X25133244Y-27736132D02*
X25130112Y-26957348D01*
X25130112Y-26957348D02*
X25130112Y-25047815D01*
X25130112Y-25047815D02*
X25340889Y-25360986D01*
X25340889Y-25360986D02*
X25456445Y-25512363D01*
X25456445Y-25512363D02*
X25639218Y-25727133D01*
X25639218Y-25727133D02*
X25874306Y-25989389D01*
X25874306Y-25989389D02*
X26146810Y-26283222D01*
X26146810Y-26283222D02*
X26441828Y-26592726D01*
X26441828Y-26592726D02*
X26744461Y-26901991D01*
X26744461Y-26901991D02*
X27039807Y-27195110D01*
X27039807Y-27195110D02*
X27232942Y-27380944D01*
X27232942Y-27380944D02*
X27397814Y-27548112D01*
X27397814Y-27548112D02*
X27603188Y-27772328D01*
X27603188Y-27772328D02*
X27819410Y-28020583D01*
X27819410Y-28020583D02*
X27967688Y-28198790D01*
X27967688Y-28198790D02*
X28397581Y-28727835D01*
X28397581Y-28727835D02*
X28480084Y-29341445D01*
X28480084Y-29341445D02*
X28512150Y-29637418D01*
X28512150Y-29637418D02*
X28532917Y-29974463D01*
X28532917Y-29974463D02*
X28542954Y-30372005D01*
X28542954Y-30372005D02*
X29597113Y-30372005D01*
X29597113Y-30372005D02*
X29592567Y-30273606D01*
X29592567Y-30273606D02*
X29569586Y-29973602D01*
X29569586Y-29973602D02*
X29547424Y-29801141D01*
X29547424Y-29801141D02*
X29511222Y-29590147D01*
X29511222Y-29590147D02*
X30103252Y-29840546D01*
X30103252Y-29840546D02*
X30413187Y-29964764D01*
X30413187Y-29964764D02*
X30753148Y-30090126D01*
X30753148Y-30090126D02*
X31070058Y-30197455D01*
X31070058Y-30197455D02*
X31208989Y-30240026D01*
X31208989Y-30240026D02*
X31461993Y-30306360D01*
X31461993Y-30306360D02*
X31756046Y-30372400D01*
X31756046Y-30372400D02*
X32065525Y-30433672D01*
X32065525Y-30433672D02*
X32364807Y-30485699D01*
X32364807Y-30485699D02*
X32628268Y-30524005D01*
X32628268Y-30524005D02*
X32830287Y-30544114D01*
X32830287Y-30544114D02*
X32940733Y-30542530D01*
X32940733Y-30542530D02*
X32943846Y-30506481D01*
X32943846Y-30506481D02*
X32869386Y-30426813D01*
X32869386Y-30426813D02*
X32738015Y-30318057D01*
X32738015Y-30318057D02*
X32570397Y-30194748D01*
X32570397Y-30194748D02*
X32387193Y-30071418D01*
X32387193Y-30071418D02*
X32209067Y-29962599D01*
X32209067Y-29962599D02*
X32056680Y-29882823D01*
X32056680Y-29882823D02*
X31951420Y-29846718D01*
X31951420Y-29846718D02*
X31329840Y-29754577D01*
X31329840Y-29754577D02*
X30786919Y-29653549D01*
X30786919Y-29653549D02*
X30329866Y-29545555D01*
X30329866Y-29545555D02*
X29965892Y-29432515D01*
X29965892Y-29432515D02*
X29702205Y-29316350D01*
X29702205Y-29316350D02*
X29553996Y-29207951D01*
X29553996Y-29207951D02*
X29495972Y-29125898D01*
X29495972Y-29125898D02*
X29445791Y-29004301D01*
X29445791Y-29004301D02*
X29398135Y-28823744D01*
X29398135Y-28823744D02*
X29347687Y-28564808D01*
X29347687Y-28564808D02*
X29301264Y-28285151D01*
X29301264Y-28285151D02*
X29199695Y-27728988D01*
X29199695Y-27728988D02*
X28218080Y-27728988D01*
X28218080Y-27728988D02*
X27412748Y-26912220D01*
X27412748Y-26912220D02*
X27006321Y-26487725D01*
X27006321Y-26487725D02*
X26673333Y-26109167D01*
X26673333Y-26109167D02*
X26396547Y-25753134D01*
X26396547Y-25753134D02*
X26158724Y-25396215D01*
X26158724Y-25396215D02*
X25942626Y-25014996D01*
X25942626Y-25014996D02*
X25786725Y-24703820D01*
X25786725Y-24703820D02*
X25654338Y-24394726D01*
X25654338Y-24394726D02*
X25511901Y-24006034D01*
X25511901Y-24006034D02*
X25369751Y-23570467D01*
X25369751Y-23570467D02*
X25238229Y-23120750D01*
X25238229Y-23120750D02*
X25127672Y-22689604D01*
X25127672Y-22689604D02*
X25075634Y-22453106D01*
X25075634Y-22453106D02*
X25013368Y-22209886D01*
X25013368Y-22209886D02*
X24940499Y-22064261D01*
X24940499Y-22064261D02*
X24846759Y-21999670D01*
X24846759Y-21999670D02*
X24790114Y-21992584D01*
X24790114Y-21992584D02*
X24696208Y-21961284D01*
X24696208Y-21961284D02*
X24543968Y-21879229D01*
X24543968Y-21879229D02*
X24366479Y-21764269D01*
X24366479Y-21764269D02*
X24195046Y-21650077D01*
X24195046Y-21650077D02*
X24056067Y-21568200D01*
X24056067Y-21568200D02*
X23979025Y-21535974D01*
X23979025Y-21535974D02*
X23978177Y-21535955D01*
X23978177Y-21535955D02*
X23960407Y-21590429D01*
X23960407Y-21590429D02*
X23949446Y-21743881D01*
X23949446Y-21743881D02*
X23944943Y-21981358D01*
X23944943Y-21981358D02*
X23946549Y-22287906D01*
X23946549Y-22287906D02*
X23953912Y-22648570D01*
X23953912Y-22648570D02*
X23966684Y-23048396D01*
X23966684Y-23048396D02*
X23984514Y-23472431D01*
X23984514Y-23472431D02*
X24007051Y-23905720D01*
X24007051Y-23905720D02*
X24033947Y-24333309D01*
X24033947Y-24333309D02*
X24048335Y-24532584D01*
X24048335Y-24532584D02*
X24062446Y-24768756D01*
X24062446Y-24768756D02*
X24074551Y-25067060D01*
X24074551Y-25067060D02*
X24084540Y-25410533D01*
X24084540Y-25410533D02*
X24092300Y-25782213D01*
X24092300Y-25782213D02*
X24097718Y-26165139D01*
X24097718Y-26165139D02*
X24100683Y-26542348D01*
X24100683Y-26542348D02*
X24101083Y-26896880D01*
X24101083Y-26896880D02*
X24098805Y-27211771D01*
X24098805Y-27211771D02*
X24093737Y-27470061D01*
X24093737Y-27470061D02*
X24085768Y-27654787D01*
X24085768Y-27654787D02*
X24074785Y-27748989D01*
X24074785Y-27748989D02*
X24069651Y-27757528D01*
X24069651Y-27757528D02*
X24015195Y-27719980D01*
X24015195Y-27719980D02*
X23907616Y-27622579D01*
X23907616Y-27622579D02*
X23798528Y-27514943D01*
X23798528Y-27514943D02*
X23444631Y-27136310D01*
X23444631Y-27136310D02*
X23083606Y-26718302D01*
X23083606Y-26718302D02*
X22750948Y-26303037D01*
X22750948Y-26303037D02*
X22561408Y-26047030D01*
X22561408Y-26047030D02*
X22325287Y-25683831D01*
X22325287Y-25683831D02*
X22073939Y-25244511D01*
X22073939Y-25244511D02*
X21824066Y-24762549D01*
X21824066Y-24762549D02*
X21592373Y-24271425D01*
X21592373Y-24271425D02*
X21395564Y-23804618D01*
X21395564Y-23804618D02*
X21271025Y-23460710D01*
X21271025Y-23460710D02*
X21183586Y-23183119D01*
X21183586Y-23183119D02*
X21122950Y-22956206D01*
X21122950Y-22956206D02*
X21083086Y-22743445D01*
X21083086Y-22743445D02*
X21057962Y-22508313D01*
X21057962Y-22508313D02*
X21041549Y-22214287D01*
X21041549Y-22214287D02*
X21034547Y-22028704D01*
X21034547Y-22028704D02*
X21028612Y-21572371D01*
X21028612Y-21572371D02*
X21049928Y-21195473D01*
X21049928Y-21195473D02*
X21104486Y-20865282D01*
X21104486Y-20865282D02*
X21198279Y-20549071D01*
X21198279Y-20549071D02*
X21337301Y-20214115D01*
X21337301Y-20214115D02*
X21385614Y-20111542D01*
X21385614Y-20111542D02*
X21527891Y-19861967D01*
X21527891Y-19861967D02*
X21711869Y-19604752D01*
X21711869Y-19604752D02*
X21915253Y-19365588D01*
X21915253Y-19365588D02*
X22115748Y-19170165D01*
X22115748Y-19170165D02*
X22291059Y-19044176D01*
X22291059Y-19044176D02*
X22326556Y-19027270D01*
X22326556Y-19027270D02*
X22408760Y-19005386D01*
X22408760Y-19005386D02*
X22510911Y-19005723D01*
X22510911Y-19005723D02*
X22644911Y-19032584D01*
X22644911Y-19032584D02*
X22822661Y-19090270D01*
X22822661Y-19090270D02*
X23056062Y-19183080D01*
X23056062Y-19183080D02*
X23357018Y-19315318D01*
X23357018Y-19315318D02*
X23737428Y-19491282D01*
X23737428Y-19491282D02*
X24143433Y-19683838D01*
X24143433Y-19683838D02*
X24514568Y-19865891D01*
X24514568Y-19865891D02*
X24800777Y-20018741D01*
X24800777Y-20018741D02*
X25023277Y-20155202D01*
X25023277Y-20155202D02*
X25203282Y-20288088D01*
X25203282Y-20288088D02*
X25332899Y-20402278D01*
X25332899Y-20402278D02*
X25696592Y-20803820D01*
X25696592Y-20803820D02*
X26053299Y-21311391D01*
X26053299Y-21311391D02*
X26398446Y-21916892D01*
X26398446Y-21916892D02*
X26727457Y-22612219D01*
X26727457Y-22612219D02*
X27035755Y-23389270D01*
X27035755Y-23389270D02*
X27063786Y-23467007D01*
X27063786Y-23467007D02*
X27215261Y-23907552D01*
X27215261Y-23907552D02*
X27373007Y-24396597D01*
X27373007Y-24396597D02*
X27531467Y-24914231D01*
X27531467Y-24914231D02*
X27685084Y-25440544D01*
X27685084Y-25440544D02*
X27828301Y-25955623D01*
X27828301Y-25955623D02*
X27955563Y-26439560D01*
X27955563Y-26439560D02*
X28061311Y-26872444D01*
X28061311Y-26872444D02*
X28139989Y-27234362D01*
X28139989Y-27234362D02*
X28181547Y-27472134D01*
X28181547Y-27472134D02*
X28218080Y-27728988D01*
X28218080Y-27728988D02*
X29199695Y-27728988D01*
X29199695Y-27728988D02*
X29189515Y-27673246D01*
X29189515Y-27673246D02*
X29041231Y-27001952D01*
X29041231Y-27001952D02*
X28863085Y-26293425D01*
X28863085Y-26293425D02*
X28661753Y-25569820D01*
X28661753Y-25569820D02*
X28443909Y-24853294D01*
X28443909Y-24853294D02*
X28216226Y-24166001D01*
X28216226Y-24166001D02*
X27985378Y-23530099D01*
X27985378Y-23530099D02*
X27758041Y-22967742D01*
X27758041Y-22967742D02*
X27586226Y-22591910D01*
X27586226Y-22591910D02*
X27281415Y-22008948D01*
X27281415Y-22008948D02*
X26978181Y-21519684D01*
X26978181Y-21519684D02*
X26660039Y-21105095D01*
X26660039Y-21105095D02*
X26310504Y-20746160D01*
X26310504Y-20746160D02*
X25913090Y-20423856D01*
X25913090Y-20423856D02*
X25451313Y-20119163D01*
X25451313Y-20119163D02*
X25434454Y-20108988D01*
X25434454Y-20108988D02*
X25057101Y-19889287D01*
X25057101Y-19889287D02*
X24641754Y-19660365D01*
X24641754Y-19660365D02*
X24202569Y-19428885D01*
X24202569Y-19428885D02*
X23753706Y-19201510D01*
X23753706Y-19201510D02*
X23309320Y-18984902D01*
X23309320Y-18984902D02*
X22883570Y-18785724D01*
X22883570Y-18785724D02*
X22490613Y-18610639D01*
X22490613Y-18610639D02*
X22144606Y-18466308D01*
X22144606Y-18466308D02*
X21859707Y-18359395D01*
X21859707Y-18359395D02*
X21650073Y-18296563D01*
X21650073Y-18296563D02*
X21553027Y-18282357D01*
X21553027Y-18282357D02*
X21389553Y-18329348D01*
X21389553Y-18329348D02*
X21389553Y-18329348D01*
G36*
X29620014Y-31047556D02*
G01*
X29623672Y-31468710D01*
X29620082Y-31877455D01*
X29608839Y-32247395D01*
X29589538Y-32552134D01*
X29551318Y-32906034D01*
X29443151Y-33541507D01*
X29280259Y-34160909D01*
X29053552Y-34796073D01*
X28753941Y-35478834D01*
X28652891Y-35689783D01*
X28496847Y-36005971D01*
X28349762Y-36293559D01*
X28224533Y-36527502D01*
X28134056Y-36682753D01*
X28082846Y-36758913D01*
X27929608Y-36962157D01*
X27745621Y-37183010D01*
X27550824Y-37399752D01*
X27365156Y-37590665D01*
X27208554Y-37734028D01*
X27100957Y-37808124D01*
X27061955Y-37820841D01*
X26874715Y-37832273D01*
X26651123Y-37795147D01*
X26440025Y-37716254D01*
X26321723Y-37642154D01*
X26152154Y-37520104D01*
X25969184Y-37377194D01*
X25873580Y-37295872D01*
X25705363Y-37122883D01*
X25562698Y-36919355D01*
X25415888Y-36646046D01*
X25320044Y-36426913D01*
X25192045Y-36071858D01*
X25062197Y-35652962D01*
X24937894Y-35197654D01*
X24826530Y-34733360D01*
X24735499Y-34287507D01*
X24672196Y-33887522D01*
X24666551Y-33844119D01*
X24634094Y-33608247D01*
X24588626Y-33291749D01*
X24533924Y-32920335D01*
X24473765Y-32519717D01*
X24411925Y-32115605D01*
X24407450Y-32086509D01*
X24344498Y-31646920D01*
X24285455Y-31182356D01*
X24234206Y-30727183D01*
X24194639Y-30315766D01*
X24170641Y-29982471D01*
X24169406Y-29959196D01*
X24148508Y-29613606D01*
X24126947Y-29365480D01*
X24102443Y-29199049D01*
X24072715Y-29098544D01*
X24035481Y-29048195D01*
X24008208Y-29019921D01*
X23925704Y-28900024D01*
X23818581Y-28717345D01*
X23703023Y-28498632D01*
X23606140Y-28309456D01*
X23414695Y-27966779D01*
X23222593Y-27676338D01*
X23003580Y-27400373D01*
X22731403Y-27101123D01*
X22677383Y-27044091D01*
X22185966Y-26500965D01*
X21768977Y-25987300D01*
X21406178Y-25474710D01*
X21077331Y-24934811D01*
X20762198Y-24339216D01*
X20635053Y-24077228D01*
X20355699Y-23433019D01*
X20152541Y-22838756D01*
X20020386Y-22274110D01*
X19954044Y-21718753D01*
X19952565Y-21572371D01*
X21028612Y-21572371D01*
X21034547Y-22028704D01*
X21041549Y-22214287D01*
X21057962Y-22508313D01*
X21083086Y-22743445D01*
X21122950Y-22956206D01*
X21183586Y-23183119D01*
X21271025Y-23460710D01*
X21395564Y-23804618D01*
X21592373Y-24271425D01*
X21824066Y-24762549D01*
X22073939Y-25244511D01*
X22325287Y-25683831D01*
X22561408Y-26047030D01*
X22750948Y-26303037D01*
X23083606Y-26718302D01*
X23444631Y-27136310D01*
X23798528Y-27514943D01*
X23907616Y-27622579D01*
X24015195Y-27719980D01*
X24069651Y-27757528D01*
X24074785Y-27748989D01*
X24085768Y-27654787D01*
X24093737Y-27470061D01*
X24098805Y-27211771D01*
X24100646Y-26957348D01*
X25130112Y-26957348D01*
X25133244Y-27736132D01*
X25146494Y-28626409D01*
X25170778Y-29427348D01*
X25206800Y-30152558D01*
X25255267Y-30815647D01*
X25316887Y-31430220D01*
X25392364Y-32009887D01*
X25407385Y-32112863D01*
X25471737Y-32553473D01*
X25542382Y-33036465D01*
X25611743Y-33510055D01*
X25672241Y-33922461D01*
X25687920Y-34028063D01*
X25795652Y-34689349D01*
X25910463Y-35275597D01*
X26039601Y-35820907D01*
X26190316Y-36359381D01*
X26215746Y-36442064D01*
X26283990Y-36644905D01*
X26342302Y-36792735D01*
X26380228Y-36858103D01*
X26410822Y-36855836D01*
X26505783Y-36789000D01*
X26638809Y-36658643D01*
X26792517Y-36483830D01*
X26949521Y-36283624D01*
X27092437Y-36077090D01*
X27271297Y-35773242D01*
X27478312Y-35376687D01*
X27690641Y-34932099D01*
X27895430Y-34468634D01*
X28079822Y-34015450D01*
X28230964Y-33601704D01*
X28335999Y-33256553D01*
X28374267Y-33106072D01*
X28422265Y-32902112D01*
X28458320Y-32714990D01*
X28484633Y-32522876D01*
X28503406Y-32303938D01*
X28516838Y-32036345D01*
X28527131Y-31698264D01*
X28536487Y-31267865D01*
X28542830Y-30849466D01*
X28542954Y-30372005D01*
X28532917Y-29974463D01*
X28512150Y-29637418D01*
X28480084Y-29341445D01*
X28397581Y-28727835D01*
X27967688Y-28198790D01*
X27819410Y-28020583D01*
X27603188Y-27772328D01*
X27397814Y-27548112D01*
X27232942Y-27380944D01*
X27039807Y-27195110D01*
X26744461Y-26901991D01*
X26441828Y-26592726D01*
X26146810Y-26283222D01*
X25874306Y-25989389D01*
X25639218Y-25727133D01*
X25456445Y-25512363D01*
X25340889Y-25360986D01*
X25130112Y-25047815D01*
X25130112Y-26957348D01*
X24100646Y-26957348D01*
X24101083Y-26896880D01*
X24100683Y-26542348D01*
X24097718Y-26165139D01*
X24092300Y-25782213D01*
X24084540Y-25410533D01*
X24074551Y-25067060D01*
X24062446Y-24768756D01*
X24048335Y-24532584D01*
X24033947Y-24333309D01*
X24007051Y-23905720D01*
X23984514Y-23472431D01*
X23966684Y-23048396D01*
X23953912Y-22648570D01*
X23946549Y-22287906D01*
X23944943Y-21981358D01*
X23949446Y-21743881D01*
X23960407Y-21590429D01*
X23978177Y-21535955D01*
X23979025Y-21535974D01*
X24056067Y-21568200D01*
X24195046Y-21650077D01*
X24366479Y-21764269D01*
X24543968Y-21879229D01*
X24696208Y-21961284D01*
X24790114Y-21992584D01*
X24846759Y-21999670D01*
X24940499Y-22064261D01*
X25013368Y-22209886D01*
X25075634Y-22453106D01*
X25127672Y-22689604D01*
X25238229Y-23120750D01*
X25369751Y-23570467D01*
X25511901Y-24006034D01*
X25654338Y-24394726D01*
X25786725Y-24703820D01*
X25942626Y-25014996D01*
X26158724Y-25396215D01*
X26396547Y-25753134D01*
X26673333Y-26109167D01*
X27006321Y-26487725D01*
X27412748Y-26912220D01*
X28218080Y-27728988D01*
X28181547Y-27472134D01*
X28139989Y-27234362D01*
X28061311Y-26872444D01*
X27955563Y-26439560D01*
X27828301Y-25955623D01*
X27685084Y-25440544D01*
X27531467Y-24914231D01*
X27373007Y-24396597D01*
X27215261Y-23907552D01*
X27063786Y-23467007D01*
X27035755Y-23389270D01*
X26727457Y-22612219D01*
X26398446Y-21916892D01*
X26053299Y-21311391D01*
X25696592Y-20803820D01*
X25332899Y-20402278D01*
X25203282Y-20288088D01*
X25023277Y-20155202D01*
X24800777Y-20018741D01*
X24514568Y-19865891D01*
X24143433Y-19683838D01*
X23737428Y-19491282D01*
X23357018Y-19315318D01*
X23056062Y-19183080D01*
X22822661Y-19090270D01*
X22644911Y-19032584D01*
X22510911Y-19005723D01*
X22408760Y-19005386D01*
X22326556Y-19027270D01*
X22291059Y-19044176D01*
X22115748Y-19170165D01*
X21915253Y-19365588D01*
X21711869Y-19604752D01*
X21527891Y-19861967D01*
X21385614Y-20111542D01*
X21337301Y-20214115D01*
X21198279Y-20549071D01*
X21104486Y-20865282D01*
X21049928Y-21195473D01*
X21028612Y-21572371D01*
X19952565Y-21572371D01*
X19948323Y-21152357D01*
X19980604Y-20728988D01*
X20083932Y-20176124D01*
X20260527Y-19677772D01*
X20517690Y-19209011D01*
X20533360Y-19185091D01*
X20741515Y-18903423D01*
X20965678Y-18656098D01*
X21187731Y-18459334D01*
X21389553Y-18329348D01*
X21553027Y-18282357D01*
X21650073Y-18296563D01*
X21859707Y-18359395D01*
X22144606Y-18466308D01*
X22490613Y-18610639D01*
X22883570Y-18785724D01*
X23309320Y-18984902D01*
X23753706Y-19201510D01*
X24202569Y-19428885D01*
X24641754Y-19660365D01*
X25057101Y-19889287D01*
X25434454Y-20108988D01*
X25451313Y-20119163D01*
X25913090Y-20423856D01*
X26310504Y-20746160D01*
X26660039Y-21105095D01*
X26978181Y-21519684D01*
X27281415Y-22008948D01*
X27586226Y-22591910D01*
X27758041Y-22967742D01*
X27985378Y-23530099D01*
X28216226Y-24166001D01*
X28443909Y-24853294D01*
X28661753Y-25569820D01*
X28863085Y-26293425D01*
X29041231Y-27001952D01*
X29189515Y-27673246D01*
X29199695Y-27728988D01*
X29301264Y-28285151D01*
X29347687Y-28564808D01*
X29398135Y-28823744D01*
X29445791Y-29004301D01*
X29495972Y-29125898D01*
X29553996Y-29207951D01*
X29702205Y-29316350D01*
X29965892Y-29432515D01*
X30329866Y-29545555D01*
X30786919Y-29653549D01*
X31329840Y-29754577D01*
X31951420Y-29846718D01*
X32056680Y-29882823D01*
X32209067Y-29962599D01*
X32387193Y-30071418D01*
X32570397Y-30194748D01*
X32738015Y-30318057D01*
X32869386Y-30426813D01*
X32943846Y-30506481D01*
X32940733Y-30542530D01*
X32830287Y-30544114D01*
X32628268Y-30524005D01*
X32364807Y-30485699D01*
X32065525Y-30433672D01*
X31756046Y-30372400D01*
X31461993Y-30306360D01*
X31208989Y-30240026D01*
X31070058Y-30197455D01*
X30753148Y-30090126D01*
X30413187Y-29964764D01*
X30103252Y-29840546D01*
X29511222Y-29590147D01*
X29547424Y-29801141D01*
X29569586Y-29973602D01*
X29592567Y-30273606D01*
X29597113Y-30372005D01*
X29609511Y-30640389D01*
X29620014Y-31047556D01*
G37*
X29620014Y-31047556D02*
X29623672Y-31468710D01*
X29620082Y-31877455D01*
X29608839Y-32247395D01*
X29589538Y-32552134D01*
X29551318Y-32906034D01*
X29443151Y-33541507D01*
X29280259Y-34160909D01*
X29053552Y-34796073D01*
X28753941Y-35478834D01*
X28652891Y-35689783D01*
X28496847Y-36005971D01*
X28349762Y-36293559D01*
X28224533Y-36527502D01*
X28134056Y-36682753D01*
X28082846Y-36758913D01*
X27929608Y-36962157D01*
X27745621Y-37183010D01*
X27550824Y-37399752D01*
X27365156Y-37590665D01*
X27208554Y-37734028D01*
X27100957Y-37808124D01*
X27061955Y-37820841D01*
X26874715Y-37832273D01*
X26651123Y-37795147D01*
X26440025Y-37716254D01*
X26321723Y-37642154D01*
X26152154Y-37520104D01*
X25969184Y-37377194D01*
X25873580Y-37295872D01*
X25705363Y-37122883D01*
X25562698Y-36919355D01*
X25415888Y-36646046D01*
X25320044Y-36426913D01*
X25192045Y-36071858D01*
X25062197Y-35652962D01*
X24937894Y-35197654D01*
X24826530Y-34733360D01*
X24735499Y-34287507D01*
X24672196Y-33887522D01*
X24666551Y-33844119D01*
X24634094Y-33608247D01*
X24588626Y-33291749D01*
X24533924Y-32920335D01*
X24473765Y-32519717D01*
X24411925Y-32115605D01*
X24407450Y-32086509D01*
X24344498Y-31646920D01*
X24285455Y-31182356D01*
X24234206Y-30727183D01*
X24194639Y-30315766D01*
X24170641Y-29982471D01*
X24169406Y-29959196D01*
X24148508Y-29613606D01*
X24126947Y-29365480D01*
X24102443Y-29199049D01*
X24072715Y-29098544D01*
X24035481Y-29048195D01*
X24008208Y-29019921D01*
X23925704Y-28900024D01*
X23818581Y-28717345D01*
X23703023Y-28498632D01*
X23606140Y-28309456D01*
X23414695Y-27966779D01*
X23222593Y-27676338D01*
X23003580Y-27400373D01*
X22731403Y-27101123D01*
X22677383Y-27044091D01*
X22185966Y-26500965D01*
X21768977Y-25987300D01*
X21406178Y-25474710D01*
X21077331Y-24934811D01*
X20762198Y-24339216D01*
X20635053Y-24077228D01*
X20355699Y-23433019D01*
X20152541Y-22838756D01*
X20020386Y-22274110D01*
X19954044Y-21718753D01*
X19952565Y-21572371D01*
X21028612Y-21572371D01*
X21034547Y-22028704D01*
X21041549Y-22214287D01*
X21057962Y-22508313D01*
X21083086Y-22743445D01*
X21122950Y-22956206D01*
X21183586Y-23183119D01*
X21271025Y-23460710D01*
X21395564Y-23804618D01*
X21592373Y-24271425D01*
X21824066Y-24762549D01*
X22073939Y-25244511D01*
X22325287Y-25683831D01*
X22561408Y-26047030D01*
X22750948Y-26303037D01*
X23083606Y-26718302D01*
X23444631Y-27136310D01*
X23798528Y-27514943D01*
X23907616Y-27622579D01*
X24015195Y-27719980D01*
X24069651Y-27757528D01*
X24074785Y-27748989D01*
X24085768Y-27654787D01*
X24093737Y-27470061D01*
X24098805Y-27211771D01*
X24100646Y-26957348D01*
X25130112Y-26957348D01*
X25133244Y-27736132D01*
X25146494Y-28626409D01*
X25170778Y-29427348D01*
X25206800Y-30152558D01*
X25255267Y-30815647D01*
X25316887Y-31430220D01*
X25392364Y-32009887D01*
X25407385Y-32112863D01*
X25471737Y-32553473D01*
X25542382Y-33036465D01*
X25611743Y-33510055D01*
X25672241Y-33922461D01*
X25687920Y-34028063D01*
X25795652Y-34689349D01*
X25910463Y-35275597D01*
X26039601Y-35820907D01*
X26190316Y-36359381D01*
X26215746Y-36442064D01*
X26283990Y-36644905D01*
X26342302Y-36792735D01*
X26380228Y-36858103D01*
X26410822Y-36855836D01*
X26505783Y-36789000D01*
X26638809Y-36658643D01*
X26792517Y-36483830D01*
X26949521Y-36283624D01*
X27092437Y-36077090D01*
X27271297Y-35773242D01*
X27478312Y-35376687D01*
X27690641Y-34932099D01*
X27895430Y-34468634D01*
X28079822Y-34015450D01*
X28230964Y-33601704D01*
X28335999Y-33256553D01*
X28374267Y-33106072D01*
X28422265Y-32902112D01*
X28458320Y-32714990D01*
X28484633Y-32522876D01*
X28503406Y-32303938D01*
X28516838Y-32036345D01*
X28527131Y-31698264D01*
X28536487Y-31267865D01*
X28542830Y-30849466D01*
X28542954Y-30372005D01*
X28532917Y-29974463D01*
X28512150Y-29637418D01*
X28480084Y-29341445D01*
X28397581Y-28727835D01*
X27967688Y-28198790D01*
X27819410Y-28020583D01*
X27603188Y-27772328D01*
X27397814Y-27548112D01*
X27232942Y-27380944D01*
X27039807Y-27195110D01*
X26744461Y-26901991D01*
X26441828Y-26592726D01*
X26146810Y-26283222D01*
X25874306Y-25989389D01*
X25639218Y-25727133D01*
X25456445Y-25512363D01*
X25340889Y-25360986D01*
X25130112Y-25047815D01*
X25130112Y-26957348D01*
X24100646Y-26957348D01*
X24101083Y-26896880D01*
X24100683Y-26542348D01*
X24097718Y-26165139D01*
X24092300Y-25782213D01*
X24084540Y-25410533D01*
X24074551Y-25067060D01*
X24062446Y-24768756D01*
X24048335Y-24532584D01*
X24033947Y-24333309D01*
X24007051Y-23905720D01*
X23984514Y-23472431D01*
X23966684Y-23048396D01*
X23953912Y-22648570D01*
X23946549Y-22287906D01*
X23944943Y-21981358D01*
X23949446Y-21743881D01*
X23960407Y-21590429D01*
X23978177Y-21535955D01*
X23979025Y-21535974D01*
X24056067Y-21568200D01*
X24195046Y-21650077D01*
X24366479Y-21764269D01*
X24543968Y-21879229D01*
X24696208Y-21961284D01*
X24790114Y-21992584D01*
X24846759Y-21999670D01*
X24940499Y-22064261D01*
X25013368Y-22209886D01*
X25075634Y-22453106D01*
X25127672Y-22689604D01*
X25238229Y-23120750D01*
X25369751Y-23570467D01*
X25511901Y-24006034D01*
X25654338Y-24394726D01*
X25786725Y-24703820D01*
X25942626Y-25014996D01*
X26158724Y-25396215D01*
X26396547Y-25753134D01*
X26673333Y-26109167D01*
X27006321Y-26487725D01*
X27412748Y-26912220D01*
X28218080Y-27728988D01*
X28181547Y-27472134D01*
X28139989Y-27234362D01*
X28061311Y-26872444D01*
X27955563Y-26439560D01*
X27828301Y-25955623D01*
X27685084Y-25440544D01*
X27531467Y-24914231D01*
X27373007Y-24396597D01*
X27215261Y-23907552D01*
X27063786Y-23467007D01*
X27035755Y-23389270D01*
X26727457Y-22612219D01*
X26398446Y-21916892D01*
X26053299Y-21311391D01*
X25696592Y-20803820D01*
X25332899Y-20402278D01*
X25203282Y-20288088D01*
X25023277Y-20155202D01*
X24800777Y-20018741D01*
X24514568Y-19865891D01*
X24143433Y-19683838D01*
X23737428Y-19491282D01*
X23357018Y-19315318D01*
X23056062Y-19183080D01*
X22822661Y-19090270D01*
X22644911Y-19032584D01*
X22510911Y-19005723D01*
X22408760Y-19005386D01*
X22326556Y-19027270D01*
X22291059Y-19044176D01*
X22115748Y-19170165D01*
X21915253Y-19365588D01*
X21711869Y-19604752D01*
X21527891Y-19861967D01*
X21385614Y-20111542D01*
X21337301Y-20214115D01*
X21198279Y-20549071D01*
X21104486Y-20865282D01*
X21049928Y-21195473D01*
X21028612Y-21572371D01*
X19952565Y-21572371D01*
X19948323Y-21152357D01*
X19980604Y-20728988D01*
X20083932Y-20176124D01*
X20260527Y-19677772D01*
X20517690Y-19209011D01*
X20533360Y-19185091D01*
X20741515Y-18903423D01*
X20965678Y-18656098D01*
X21187731Y-18459334D01*
X21389553Y-18329348D01*
X21553027Y-18282357D01*
X21650073Y-18296563D01*
X21859707Y-18359395D01*
X22144606Y-18466308D01*
X22490613Y-18610639D01*
X22883570Y-18785724D01*
X23309320Y-18984902D01*
X23753706Y-19201510D01*
X24202569Y-19428885D01*
X24641754Y-19660365D01*
X25057101Y-19889287D01*
X25434454Y-20108988D01*
X25451313Y-20119163D01*
X25913090Y-20423856D01*
X26310504Y-20746160D01*
X26660039Y-21105095D01*
X26978181Y-21519684D01*
X27281415Y-22008948D01*
X27586226Y-22591910D01*
X27758041Y-22967742D01*
X27985378Y-23530099D01*
X28216226Y-24166001D01*
X28443909Y-24853294D01*
X28661753Y-25569820D01*
X28863085Y-26293425D01*
X29041231Y-27001952D01*
X29189515Y-27673246D01*
X29199695Y-27728988D01*
X29301264Y-28285151D01*
X29347687Y-28564808D01*
X29398135Y-28823744D01*
X29445791Y-29004301D01*
X29495972Y-29125898D01*
X29553996Y-29207951D01*
X29702205Y-29316350D01*
X29965892Y-29432515D01*
X30329866Y-29545555D01*
X30786919Y-29653549D01*
X31329840Y-29754577D01*
X31951420Y-29846718D01*
X32056680Y-29882823D01*
X32209067Y-29962599D01*
X32387193Y-30071418D01*
X32570397Y-30194748D01*
X32738015Y-30318057D01*
X32869386Y-30426813D01*
X32943846Y-30506481D01*
X32940733Y-30542530D01*
X32830287Y-30544114D01*
X32628268Y-30524005D01*
X32364807Y-30485699D01*
X32065525Y-30433672D01*
X31756046Y-30372400D01*
X31461993Y-30306360D01*
X31208989Y-30240026D01*
X31070058Y-30197455D01*
X30753148Y-30090126D01*
X30413187Y-29964764D01*
X30103252Y-29840546D01*
X29511222Y-29590147D01*
X29547424Y-29801141D01*
X29569586Y-29973602D01*
X29592567Y-30273606D01*
X29597113Y-30372005D01*
X29609511Y-30640389D01*
X29620014Y-31047556D01*
D12*
%TO.C,A1*%
X53595000Y-49200000D02*
X51055000Y-51740000D01*
X51055000Y-54410000D02*
X-15245000Y-54410000D01*
X-15245000Y-810000D02*
X49405000Y-810000D01*
X-17145000Y-42090000D02*
X-15245000Y-42090000D01*
X-15245000Y-10340000D02*
X-15245000Y-810000D01*
X49405000Y-810000D02*
X51055000Y-2460000D01*
X-15245000Y-51230000D02*
X-17145000Y-51230000D01*
X-15245000Y-42090000D02*
X-15245000Y-22020000D01*
X-17145000Y-51230000D02*
X-17145000Y-42090000D01*
X53595000Y-16430000D02*
X53595000Y-49200000D01*
X-21595000Y-10340000D02*
X-15245000Y-10340000D01*
X-21595000Y-22020000D02*
X-21595000Y-10340000D01*
X51055000Y-13890000D02*
X53595000Y-16430000D01*
X-15245000Y-22020000D02*
X-21595000Y-22020000D01*
X51055000Y-2460000D02*
X51055000Y-13890000D01*
X-15245000Y-54410000D02*
X-15245000Y-51230000D01*
X51055000Y-51740000D02*
X51055000Y-54410000D01*
%TD*%
M02*
