%TF.GenerationSoftware,KiCad,Pcbnew,(6.0.2)*%
%TF.CreationDate,2022-03-01T12:54:46-05:00*%
%TF.ProjectId,arduino_shield,61726475-696e-46f5-9f73-6869656c642e,A*%
%TF.SameCoordinates,PX8954400PY4e95300*%
%TF.FileFunction,Legend,Top*%
%TF.FilePolarity,Positive*%
%FSLAX46Y46*%
G04 Gerber Fmt 4.6, Leading zero omitted, Abs format (unit mm)*
G04 Created by KiCad (PCBNEW (6.0.2)) date 2022-03-01 12:54:46*
%MOMM*%
%LPD*%
G01*
G04 APERTURE LIST*
%ADD10C,0.214286*%
%ADD11C,0.150000*%
%ADD12C,0.120000*%
%ADD13C,0.010000*%
G04 APERTURE END LIST*
D10*
X2414285Y-49107142D02*
X2628571Y-49178571D01*
X2985714Y-49178571D01*
X3128571Y-49107142D01*
X3200000Y-49035714D01*
X3271428Y-48892857D01*
X3271428Y-48750000D01*
X3200000Y-48607142D01*
X3128571Y-48535714D01*
X2985714Y-48464285D01*
X2700000Y-48392857D01*
X2557142Y-48321428D01*
X2485714Y-48250000D01*
X2414285Y-48107142D01*
X2414285Y-47964285D01*
X2485714Y-47821428D01*
X2557142Y-47750000D01*
X2700000Y-47678571D01*
X3057142Y-47678571D01*
X3271428Y-47750000D01*
X3914285Y-49178571D02*
X3914285Y-47678571D01*
X4557142Y-49178571D02*
X4557142Y-48392857D01*
X4485714Y-48250000D01*
X4342857Y-48178571D01*
X4128571Y-48178571D01*
X3985714Y-48250000D01*
X3914285Y-48321428D01*
X5914285Y-48178571D02*
X5914285Y-49178571D01*
X5271428Y-48178571D02*
X5271428Y-48964285D01*
X5342857Y-49107142D01*
X5485714Y-49178571D01*
X5700000Y-49178571D01*
X5842857Y-49107142D01*
X5914285Y-49035714D01*
X6414285Y-48178571D02*
X6985714Y-48178571D01*
X6628571Y-47678571D02*
X6628571Y-48964285D01*
X6700000Y-49107142D01*
X6842857Y-49178571D01*
X6985714Y-49178571D01*
X7271428Y-48178571D02*
X7842857Y-48178571D01*
X7485714Y-47678571D02*
X7485714Y-48964285D01*
X7557142Y-49107142D01*
X7700000Y-49178571D01*
X7842857Y-49178571D01*
X8914285Y-49107142D02*
X8771428Y-49178571D01*
X8485714Y-49178571D01*
X8342857Y-49107142D01*
X8271428Y-48964285D01*
X8271428Y-48392857D01*
X8342857Y-48250000D01*
X8485714Y-48178571D01*
X8771428Y-48178571D01*
X8914285Y-48250000D01*
X8985714Y-48392857D01*
X8985714Y-48535714D01*
X8271428Y-48678571D01*
X9628571Y-49178571D02*
X9628571Y-48178571D01*
X9628571Y-48464285D02*
X9700000Y-48321428D01*
X9771428Y-48250000D01*
X9914285Y-48178571D01*
X10057142Y-48178571D01*
X11628571Y-49107142D02*
X11842857Y-49178571D01*
X12200000Y-49178571D01*
X12342857Y-49107142D01*
X12414285Y-49035714D01*
X12485714Y-48892857D01*
X12485714Y-48750000D01*
X12414285Y-48607142D01*
X12342857Y-48535714D01*
X12200000Y-48464285D01*
X11914285Y-48392857D01*
X11771428Y-48321428D01*
X11700000Y-48250000D01*
X11628571Y-48107142D01*
X11628571Y-47964285D01*
X11700000Y-47821428D01*
X11771428Y-47750000D01*
X11914285Y-47678571D01*
X12271428Y-47678571D01*
X12485714Y-47750000D01*
X13128571Y-49178571D02*
X13128571Y-47678571D01*
X13771428Y-49178571D02*
X13771428Y-48392857D01*
X13700000Y-48250000D01*
X13557142Y-48178571D01*
X13342857Y-48178571D01*
X13200000Y-48250000D01*
X13128571Y-48321428D01*
X14485714Y-49178571D02*
X14485714Y-48178571D01*
X14485714Y-47678571D02*
X14414285Y-47750000D01*
X14485714Y-47821428D01*
X14557142Y-47750000D01*
X14485714Y-47678571D01*
X14485714Y-47821428D01*
X15771428Y-49107142D02*
X15628571Y-49178571D01*
X15342857Y-49178571D01*
X15200000Y-49107142D01*
X15128571Y-48964285D01*
X15128571Y-48392857D01*
X15200000Y-48250000D01*
X15342857Y-48178571D01*
X15628571Y-48178571D01*
X15771428Y-48250000D01*
X15842857Y-48392857D01*
X15842857Y-48535714D01*
X15128571Y-48678571D01*
X16700000Y-49178571D02*
X16557142Y-49107142D01*
X16485714Y-48964285D01*
X16485714Y-47678571D01*
X17914285Y-49178571D02*
X17914285Y-47678571D01*
X17914285Y-49107142D02*
X17771428Y-49178571D01*
X17485714Y-49178571D01*
X17342857Y-49107142D01*
X17271428Y-49035714D01*
X17200000Y-48892857D01*
X17200000Y-48464285D01*
X17271428Y-48321428D01*
X17342857Y-48250000D01*
X17485714Y-48178571D01*
X17771428Y-48178571D01*
X17914285Y-48250000D01*
D11*
X25904761Y-12416547D02*
X25952380Y-12273690D01*
X25952380Y-12035595D01*
X25904761Y-11940357D01*
X25857142Y-11892738D01*
X25761904Y-11845119D01*
X25666666Y-11845119D01*
X25571428Y-11892738D01*
X25523809Y-11940357D01*
X25476190Y-12035595D01*
X25428571Y-12226071D01*
X25380952Y-12321309D01*
X25333333Y-12368928D01*
X25238095Y-12416547D01*
X25142857Y-12416547D01*
X25047619Y-12368928D01*
X25000000Y-12321309D01*
X24952380Y-12226071D01*
X24952380Y-11987976D01*
X25000000Y-11845119D01*
X25952380Y-11416547D02*
X24952380Y-11416547D01*
X24952380Y-11178452D01*
X25000000Y-11035595D01*
X25095238Y-10940357D01*
X25190476Y-10892738D01*
X25380952Y-10845119D01*
X25523809Y-10845119D01*
X25714285Y-10892738D01*
X25809523Y-10940357D01*
X25904761Y-11035595D01*
X25952380Y-11178452D01*
X25952380Y-11416547D01*
X25666666Y-10464166D02*
X25666666Y-9987976D01*
X25952380Y-10559404D02*
X24952380Y-10226071D01*
X25952380Y-9892738D01*
X17500000Y-12083214D02*
X17452380Y-12178452D01*
X17452380Y-12321309D01*
X17500000Y-12464166D01*
X17595238Y-12559404D01*
X17690476Y-12607023D01*
X17880952Y-12654642D01*
X18023809Y-12654642D01*
X18214285Y-12607023D01*
X18309523Y-12559404D01*
X18404761Y-12464166D01*
X18452380Y-12321309D01*
X18452380Y-12226071D01*
X18404761Y-12083214D01*
X18357142Y-12035595D01*
X18023809Y-12035595D01*
X18023809Y-12226071D01*
X18452380Y-11607023D02*
X17452380Y-11607023D01*
X18452380Y-11035595D01*
X17452380Y-11035595D01*
X18452380Y-10559404D02*
X17452380Y-10559404D01*
X17452380Y-10321309D01*
X17500000Y-10178452D01*
X17595238Y-10083214D01*
X17690476Y-10035595D01*
X17880952Y-9987976D01*
X18023809Y-9987976D01*
X18214285Y-10035595D01*
X18309523Y-10083214D01*
X18404761Y-10178452D01*
X18452380Y-10321309D01*
X18452380Y-10559404D01*
D10*
X37832142Y-30650000D02*
X37689285Y-30578571D01*
X37474999Y-30578571D01*
X37260714Y-30650000D01*
X37117856Y-30792857D01*
X37046428Y-30935714D01*
X36974999Y-31221428D01*
X36974999Y-31435714D01*
X37046428Y-31721428D01*
X37117856Y-31864285D01*
X37260714Y-32007142D01*
X37474999Y-32078571D01*
X37617856Y-32078571D01*
X37832142Y-32007142D01*
X37903571Y-31935714D01*
X37903571Y-31435714D01*
X37617856Y-31435714D01*
X38546428Y-32078571D02*
X38546428Y-30578571D01*
X39403571Y-32078571D01*
X39403571Y-30578571D01*
X40117856Y-32078571D02*
X40117856Y-30578571D01*
X40474999Y-30578571D01*
X40689285Y-30650000D01*
X40832142Y-30792857D01*
X40903571Y-30935714D01*
X40974999Y-31221428D01*
X40974999Y-31435714D01*
X40903571Y-31721428D01*
X40832142Y-31864285D01*
X40689285Y-32007142D01*
X40474999Y-32078571D01*
X40117856Y-32078571D01*
X39717856Y-22978571D02*
X39003571Y-22978571D01*
X38932142Y-23692857D01*
X39003571Y-23621428D01*
X39146428Y-23550000D01*
X39503571Y-23550000D01*
X39646428Y-23621428D01*
X39717856Y-23692857D01*
X39789285Y-23835714D01*
X39789285Y-24192857D01*
X39717856Y-24335714D01*
X39646428Y-24407142D01*
X39503571Y-24478571D01*
X39146428Y-24478571D01*
X39003571Y-24407142D01*
X38932142Y-24335714D01*
X40217856Y-22978571D02*
X40717856Y-24478571D01*
X41217856Y-22978571D01*
D11*
X50052380Y-13561904D02*
X49052380Y-13561904D01*
X49766666Y-13228571D01*
X49052380Y-12895238D01*
X50052380Y-12895238D01*
X50052380Y-11990476D02*
X49528571Y-11990476D01*
X49433333Y-12038095D01*
X49385714Y-12133333D01*
X49385714Y-12323809D01*
X49433333Y-12419047D01*
X50004761Y-11990476D02*
X50052380Y-12085714D01*
X50052380Y-12323809D01*
X50004761Y-12419047D01*
X49909523Y-12466666D01*
X49814285Y-12466666D01*
X49719047Y-12419047D01*
X49671428Y-12323809D01*
X49671428Y-12085714D01*
X49623809Y-11990476D01*
X50052380Y-11514285D02*
X49385714Y-11514285D01*
X49576190Y-11514285D02*
X49480952Y-11466666D01*
X49433333Y-11419047D01*
X49385714Y-11323809D01*
X49385714Y-11228571D01*
X50004761Y-10466666D02*
X50052380Y-10561904D01*
X50052380Y-10752380D01*
X50004761Y-10847619D01*
X49957142Y-10895238D01*
X49861904Y-10942857D01*
X49576190Y-10942857D01*
X49480952Y-10895238D01*
X49433333Y-10847619D01*
X49385714Y-10752380D01*
X49385714Y-10561904D01*
X49433333Y-10466666D01*
X50052380Y-10038095D02*
X49052380Y-10038095D01*
X50052380Y-9609523D02*
X49528571Y-9609523D01*
X49433333Y-9657142D01*
X49385714Y-9752380D01*
X49385714Y-9895238D01*
X49433333Y-9990476D01*
X49480952Y-10038095D01*
X49147619Y-8419047D02*
X49100000Y-8371428D01*
X49052380Y-8276190D01*
X49052380Y-8038095D01*
X49100000Y-7942857D01*
X49147619Y-7895238D01*
X49242857Y-7847619D01*
X49338095Y-7847619D01*
X49480952Y-7895238D01*
X50052380Y-8466666D01*
X50052380Y-7847619D01*
X49052380Y-7228571D02*
X49052380Y-7133333D01*
X49100000Y-7038095D01*
X49147619Y-6990476D01*
X49242857Y-6942857D01*
X49433333Y-6895238D01*
X49671428Y-6895238D01*
X49861904Y-6942857D01*
X49957142Y-6990476D01*
X50004761Y-7038095D01*
X50052380Y-7133333D01*
X50052380Y-7228571D01*
X50004761Y-7323809D01*
X49957142Y-7371428D01*
X49861904Y-7419047D01*
X49671428Y-7466666D01*
X49433333Y-7466666D01*
X49242857Y-7419047D01*
X49147619Y-7371428D01*
X49100000Y-7323809D01*
X49052380Y-7228571D01*
X49147619Y-6514285D02*
X49100000Y-6466666D01*
X49052380Y-6371428D01*
X49052380Y-6133333D01*
X49100000Y-6038095D01*
X49147619Y-5990476D01*
X49242857Y-5942857D01*
X49338095Y-5942857D01*
X49480952Y-5990476D01*
X50052380Y-6561904D01*
X50052380Y-5942857D01*
X49147619Y-5561904D02*
X49100000Y-5514285D01*
X49052380Y-5419047D01*
X49052380Y-5180952D01*
X49100000Y-5085714D01*
X49147619Y-5038095D01*
X49242857Y-4990476D01*
X49338095Y-4990476D01*
X49480952Y-5038095D01*
X50052380Y-5609523D01*
X50052380Y-4990476D01*
D10*
X40617856Y-28792857D02*
X40832142Y-28864285D01*
X40903571Y-28935714D01*
X40974999Y-29078571D01*
X40974999Y-29292857D01*
X40903571Y-29435714D01*
X40832142Y-29507142D01*
X40689285Y-29578571D01*
X40117856Y-29578571D01*
X40117856Y-28078571D01*
X40617856Y-28078571D01*
X40760714Y-28150000D01*
X40832142Y-28221428D01*
X40903571Y-28364285D01*
X40903571Y-28507142D01*
X40832142Y-28650000D01*
X40760714Y-28721428D01*
X40617856Y-28792857D01*
X40117856Y-28792857D01*
X40260714Y-26650000D02*
X40974999Y-26650000D01*
X40117856Y-27078571D02*
X40617856Y-25578571D01*
X41117856Y-27078571D01*
D11*
X19952380Y-10892738D02*
X19952380Y-11368928D01*
X20428571Y-11416547D01*
X20380952Y-11368928D01*
X20333333Y-11273690D01*
X20333333Y-11035595D01*
X20380952Y-10940357D01*
X20428571Y-10892738D01*
X20523809Y-10845119D01*
X20761904Y-10845119D01*
X20857142Y-10892738D01*
X20904761Y-10940357D01*
X20952380Y-11035595D01*
X20952380Y-11273690D01*
X20904761Y-11368928D01*
X20857142Y-11416547D01*
X19952380Y-10559404D02*
X20952380Y-10226071D01*
X19952380Y-9892738D01*
X23404761Y-12083214D02*
X23452380Y-11940357D01*
X23452380Y-11702261D01*
X23404761Y-11607023D01*
X23357142Y-11559404D01*
X23261904Y-11511785D01*
X23166666Y-11511785D01*
X23071428Y-11559404D01*
X23023809Y-11607023D01*
X22976190Y-11702261D01*
X22928571Y-11892738D01*
X22880952Y-11987976D01*
X22833333Y-12035595D01*
X22738095Y-12083214D01*
X22642857Y-12083214D01*
X22547619Y-12035595D01*
X22500000Y-11987976D01*
X22452380Y-11892738D01*
X22452380Y-11654642D01*
X22500000Y-11511785D01*
X23357142Y-10511785D02*
X23404761Y-10559404D01*
X23452380Y-10702261D01*
X23452380Y-10797500D01*
X23404761Y-10940357D01*
X23309523Y-11035595D01*
X23214285Y-11083214D01*
X23023809Y-11130833D01*
X22880952Y-11130833D01*
X22690476Y-11083214D01*
X22595238Y-11035595D01*
X22500000Y-10940357D01*
X22452380Y-10797500D01*
X22452380Y-10702261D01*
X22500000Y-10559404D01*
X22547619Y-10511785D01*
X23452380Y-9940357D02*
X23404761Y-10035595D01*
X23309523Y-10083214D01*
X22452380Y-10083214D01*
D12*
%TO.C,SW1*%
X25300000Y-43400000D02*
X25300000Y-41900000D01*
X24050000Y-39400000D02*
X19550000Y-39400000D01*
X19550000Y-45900000D02*
X24050000Y-45900000D01*
X18300000Y-41900000D02*
X18300000Y-43400000D01*
D13*
%TO.C,G\u002A\u002A\u002A*%
X11547040Y-41342218D02*
X11608136Y-41381567D01*
X11608136Y-41381567D02*
X11675357Y-41441132D01*
X11675357Y-41441132D02*
X11743215Y-41516002D01*
X11743215Y-41516002D02*
X11806228Y-41601269D01*
X11806228Y-41601269D02*
X11810972Y-41608510D01*
X11810972Y-41608510D02*
X11888821Y-41750414D01*
X11888821Y-41750414D02*
X11942279Y-41901276D01*
X11942279Y-41901276D02*
X11973559Y-42068639D01*
X11973559Y-42068639D02*
X11983331Y-42196802D01*
X11983331Y-42196802D02*
X11981599Y-42368262D01*
X11981599Y-42368262D02*
X11961516Y-42536380D01*
X11961516Y-42536380D02*
X11921510Y-42707311D01*
X11921510Y-42707311D02*
X11860010Y-42887207D01*
X11860010Y-42887207D02*
X11775444Y-43082222D01*
X11775444Y-43082222D02*
X11736954Y-43161532D01*
X11736954Y-43161532D02*
X11641557Y-43341831D01*
X11641557Y-43341831D02*
X11542008Y-43505270D01*
X11542008Y-43505270D02*
X11432181Y-43660441D01*
X11432181Y-43660441D02*
X11305950Y-43815939D01*
X11305950Y-43815939D02*
X11157187Y-43980354D01*
X11157187Y-43980354D02*
X11140834Y-43997619D01*
X11140834Y-43997619D02*
X11058440Y-44088208D01*
X11058440Y-44088208D02*
X10992141Y-44171749D01*
X10992141Y-44171749D02*
X10933987Y-44259671D01*
X10933987Y-44259671D02*
X10876033Y-44363407D01*
X10876033Y-44363407D02*
X10846704Y-44420675D01*
X10846704Y-44420675D02*
X10811722Y-44486883D01*
X10811722Y-44486883D02*
X10779294Y-44542184D01*
X10779294Y-44542184D02*
X10754318Y-44578480D01*
X10754318Y-44578480D02*
X10746062Y-44587039D01*
X10746062Y-44587039D02*
X10734791Y-44602280D01*
X10734791Y-44602280D02*
X10725791Y-44632705D01*
X10725791Y-44632705D02*
X10718374Y-44683088D01*
X10718374Y-44683088D02*
X10711847Y-44758201D01*
X10711847Y-44758201D02*
X10705520Y-44862818D01*
X10705520Y-44862818D02*
X10705146Y-44869864D01*
X10705146Y-44869864D02*
X10697882Y-44970759D01*
X10697882Y-44970759D02*
X10685904Y-45095304D01*
X10685904Y-45095304D02*
X10670390Y-45233094D01*
X10670390Y-45233094D02*
X10652516Y-45373728D01*
X10652516Y-45373728D02*
X10633460Y-45506801D01*
X10633460Y-45506801D02*
X10632105Y-45515609D01*
X10632105Y-45515609D02*
X10613385Y-45637942D01*
X10613385Y-45637942D02*
X10595173Y-45759217D01*
X10595173Y-45759217D02*
X10578614Y-45871652D01*
X10578614Y-45871652D02*
X10564850Y-45967463D01*
X10564850Y-45967463D02*
X10555024Y-46038866D01*
X10555024Y-46038866D02*
X10553315Y-46052005D01*
X10553315Y-46052005D02*
X10534152Y-46173089D01*
X10534152Y-46173089D02*
X10506595Y-46308058D01*
X10506595Y-46308058D02*
X10472883Y-46448610D01*
X10472883Y-46448610D02*
X10435254Y-46586441D01*
X10435254Y-46586441D02*
X10395946Y-46713250D01*
X10395946Y-46713250D02*
X10357198Y-46820732D01*
X10357198Y-46820732D02*
X10328184Y-46887068D01*
X10328184Y-46887068D02*
X10283741Y-46969805D01*
X10283741Y-46969805D02*
X10240554Y-47031417D01*
X10240554Y-47031417D02*
X10189631Y-47083785D01*
X10189631Y-47083785D02*
X10160690Y-47108402D01*
X10160690Y-47108402D02*
X10105301Y-47151664D01*
X10105301Y-47151664D02*
X10053969Y-47188612D01*
X10053969Y-47188612D02*
X10018156Y-47211043D01*
X10018156Y-47211043D02*
X9954252Y-47234926D01*
X9954252Y-47234926D02*
X9886566Y-47246164D01*
X9886566Y-47246164D02*
X9829885Y-47242704D01*
X9829885Y-47242704D02*
X9818078Y-47238854D01*
X9818078Y-47238854D02*
X9785506Y-47216424D01*
X9785506Y-47216424D02*
X9738100Y-47173025D01*
X9738100Y-47173025D02*
X9681894Y-47115231D01*
X9681894Y-47115231D02*
X9622925Y-47049619D01*
X9622925Y-47049619D02*
X9567228Y-46982762D01*
X9567228Y-46982762D02*
X9520840Y-46921236D01*
X9520840Y-46921236D02*
X9505337Y-46898180D01*
X9505337Y-46898180D02*
X9477948Y-46851183D01*
X9477948Y-46851183D02*
X9440038Y-46780363D01*
X9440038Y-46780363D02*
X9395513Y-46693304D01*
X9395513Y-46693304D02*
X9348275Y-46597588D01*
X9348275Y-46597588D02*
X9317685Y-46533729D01*
X9317685Y-46533729D02*
X9226986Y-46327043D01*
X9226986Y-46327043D02*
X9158357Y-46134765D01*
X9158357Y-46134765D02*
X9109046Y-45947259D01*
X9109046Y-45947259D02*
X9076302Y-45754888D01*
X9076302Y-45754888D02*
X9064732Y-45647755D01*
X9064732Y-45647755D02*
X9058889Y-45555504D01*
X9058889Y-45555504D02*
X9055486Y-45443515D01*
X9055486Y-45443515D02*
X9054399Y-45319780D01*
X9054399Y-45319780D02*
X9055506Y-45192287D01*
X9055506Y-45192287D02*
X9058686Y-45069029D01*
X9058686Y-45069029D02*
X9062438Y-44987784D01*
X9062438Y-44987784D02*
X9381555Y-44987784D01*
X9381555Y-44987784D02*
X9381593Y-45132321D01*
X9381593Y-45132321D02*
X9383513Y-45258980D01*
X9383513Y-45258980D02*
X9386345Y-45389271D01*
X9386345Y-45389271D02*
X9389461Y-45491615D01*
X9389461Y-45491615D02*
X9393527Y-45572621D01*
X9393527Y-45572621D02*
X9399210Y-45638898D01*
X9399210Y-45638898D02*
X9407176Y-45697055D01*
X9407176Y-45697055D02*
X9418090Y-45753701D01*
X9418090Y-45753701D02*
X9432620Y-45815444D01*
X9432620Y-45815444D02*
X9444205Y-45860997D01*
X9444205Y-45860997D02*
X9476001Y-45965482D01*
X9476001Y-45965482D02*
X9521755Y-46090732D01*
X9521755Y-46090732D02*
X9577574Y-46227920D01*
X9577574Y-46227920D02*
X9639568Y-46368220D01*
X9639568Y-46368220D02*
X9703845Y-46502807D01*
X9703845Y-46502807D02*
X9766513Y-46622852D01*
X9766513Y-46622852D02*
X9820657Y-46714834D01*
X9820657Y-46714834D02*
X9863921Y-46777356D01*
X9863921Y-46777356D02*
X9911449Y-46837962D01*
X9911449Y-46837962D02*
X9957980Y-46890882D01*
X9957980Y-46890882D02*
X9998250Y-46930344D01*
X9998250Y-46930344D02*
X10026996Y-46950576D01*
X10026996Y-46950576D02*
X10036258Y-46951263D01*
X10036258Y-46951263D02*
X10047739Y-46931474D01*
X10047739Y-46931474D02*
X10065391Y-46886723D01*
X10065391Y-46886723D02*
X10086050Y-46825319D01*
X10086050Y-46825319D02*
X10093748Y-46800289D01*
X10093748Y-46800289D02*
X10139373Y-46637282D01*
X10139373Y-46637282D02*
X10178466Y-46472205D01*
X10178466Y-46472205D02*
X10213221Y-46294735D01*
X10213221Y-46294735D02*
X10245834Y-46094550D01*
X10245834Y-46094550D02*
X10250580Y-46062582D01*
X10250580Y-46062582D02*
X10268895Y-45937738D01*
X10268895Y-45937738D02*
X10289892Y-45794372D01*
X10289892Y-45794372D02*
X10311277Y-45648160D01*
X10311277Y-45648160D02*
X10330758Y-45514778D01*
X10330758Y-45514778D02*
X10335305Y-45483605D01*
X10335305Y-45483605D02*
X10358154Y-45308128D01*
X10358154Y-45308128D02*
X10376807Y-45122084D01*
X10376807Y-45122084D02*
X10391479Y-44921353D01*
X10391479Y-44921353D02*
X10402384Y-44701816D01*
X10402384Y-44701816D02*
X10409735Y-44459355D01*
X10409735Y-44459355D02*
X10413746Y-44189850D01*
X10413746Y-44189850D02*
X10414694Y-43954095D01*
X10414694Y-43954095D02*
X10414694Y-43376040D01*
X10414694Y-43376040D02*
X10350888Y-43470843D01*
X10350888Y-43470843D02*
X10315906Y-43516668D01*
X10315906Y-43516668D02*
X10260577Y-43581683D01*
X10260577Y-43581683D02*
X10189411Y-43661074D01*
X10189411Y-43661074D02*
X10106919Y-43750023D01*
X10106919Y-43750023D02*
X10017610Y-43843716D01*
X10017610Y-43843716D02*
X9925997Y-43937338D01*
X9925997Y-43937338D02*
X9836589Y-44026071D01*
X9836589Y-44026071D02*
X9778123Y-44082327D01*
X9778123Y-44082327D02*
X9728213Y-44132932D01*
X9728213Y-44132932D02*
X9666042Y-44200807D01*
X9666042Y-44200807D02*
X9600587Y-44275959D01*
X9600587Y-44275959D02*
X9555700Y-44329906D01*
X9555700Y-44329906D02*
X9425563Y-44490059D01*
X9425563Y-44490059D02*
X9400587Y-44675812D01*
X9400587Y-44675812D02*
X9390880Y-44765409D01*
X9390880Y-44765409D02*
X9384594Y-44867440D01*
X9384594Y-44867440D02*
X9381555Y-44987784D01*
X9381555Y-44987784D02*
X9062438Y-44987784D01*
X9062438Y-44987784D02*
X9063815Y-44957996D01*
X9063815Y-44957996D02*
X9070772Y-44867179D01*
X9070772Y-44867179D02*
X9077481Y-44814971D01*
X9077481Y-44814971D02*
X9088440Y-44751099D01*
X9088440Y-44751099D02*
X8909220Y-44826900D01*
X8909220Y-44826900D02*
X8815396Y-44864504D01*
X8815396Y-44864504D02*
X8712483Y-44902453D01*
X8712483Y-44902453D02*
X8616548Y-44934944D01*
X8616548Y-44934944D02*
X8574490Y-44947831D01*
X8574490Y-44947831D02*
X8497900Y-44967912D01*
X8497900Y-44967912D02*
X8408884Y-44987904D01*
X8408884Y-44987904D02*
X8315199Y-45006452D01*
X8315199Y-45006452D02*
X8224600Y-45022201D01*
X8224600Y-45022201D02*
X8144844Y-45033798D01*
X8144844Y-45033798D02*
X8083689Y-45039885D01*
X8083689Y-45039885D02*
X8050255Y-45039406D01*
X8050255Y-45039406D02*
X8049312Y-45028493D01*
X8049312Y-45028493D02*
X8071853Y-45004375D01*
X8071853Y-45004375D02*
X8111622Y-44971453D01*
X8111622Y-44971453D02*
X8162363Y-44934125D01*
X8162363Y-44934125D02*
X8217823Y-44896790D01*
X8217823Y-44896790D02*
X8271746Y-44863848D01*
X8271746Y-44863848D02*
X8317876Y-44839698D01*
X8317876Y-44839698D02*
X8349741Y-44828769D01*
X8349741Y-44828769D02*
X8537906Y-44800876D01*
X8537906Y-44800876D02*
X8702260Y-44770292D01*
X8702260Y-44770292D02*
X8840619Y-44737600D01*
X8840619Y-44737600D02*
X8950802Y-44703380D01*
X8950802Y-44703380D02*
X9030625Y-44668215D01*
X9030625Y-44668215D02*
X9075491Y-44635400D01*
X9075491Y-44635400D02*
X9093057Y-44610561D01*
X9093057Y-44610561D02*
X9108247Y-44573751D01*
X9108247Y-44573751D02*
X9122674Y-44519093D01*
X9122674Y-44519093D02*
X9137945Y-44440707D01*
X9137945Y-44440707D02*
X9151999Y-44356049D01*
X9151999Y-44356049D02*
X9182746Y-44187687D01*
X9182746Y-44187687D02*
X9479902Y-44187687D01*
X9479902Y-44187687D02*
X9723692Y-43940434D01*
X9723692Y-43940434D02*
X9846726Y-43811930D01*
X9846726Y-43811930D02*
X9947529Y-43697333D01*
X9947529Y-43697333D02*
X10031318Y-43589554D01*
X10031318Y-43589554D02*
X10103312Y-43481507D01*
X10103312Y-43481507D02*
X10168729Y-43366105D01*
X10168729Y-43366105D02*
X10215924Y-43271905D01*
X10215924Y-43271905D02*
X10256000Y-43178336D01*
X10256000Y-43178336D02*
X10299119Y-43060670D01*
X10299119Y-43060670D02*
X10342151Y-42928815D01*
X10342151Y-42928815D02*
X10381965Y-42792676D01*
X10381965Y-42792676D02*
X10415433Y-42662159D01*
X10415433Y-42662159D02*
X10431186Y-42590566D01*
X10431186Y-42590566D02*
X10450035Y-42516938D01*
X10450035Y-42516938D02*
X10472094Y-42472855D01*
X10472094Y-42472855D02*
X10500471Y-42453302D01*
X10500471Y-42453302D02*
X10517619Y-42451156D01*
X10517619Y-42451156D02*
X10546046Y-42441681D01*
X10546046Y-42441681D02*
X10592133Y-42416842D01*
X10592133Y-42416842D02*
X10645862Y-42382041D01*
X10645862Y-42382041D02*
X10697759Y-42347473D01*
X10697759Y-42347473D02*
X10739830Y-42322687D01*
X10739830Y-42322687D02*
X10763153Y-42312931D01*
X10763153Y-42312931D02*
X10763409Y-42312925D01*
X10763409Y-42312925D02*
X10768789Y-42329416D01*
X10768789Y-42329416D02*
X10772107Y-42375869D01*
X10772107Y-42375869D02*
X10773470Y-42447758D01*
X10773470Y-42447758D02*
X10772984Y-42540557D01*
X10772984Y-42540557D02*
X10770755Y-42649737D01*
X10770755Y-42649737D02*
X10766889Y-42770773D01*
X10766889Y-42770773D02*
X10761491Y-42899137D01*
X10761491Y-42899137D02*
X10754669Y-43030303D01*
X10754669Y-43030303D02*
X10746527Y-43159743D01*
X10746527Y-43159743D02*
X10742171Y-43220068D01*
X10742171Y-43220068D02*
X10737900Y-43291562D01*
X10737900Y-43291562D02*
X10734235Y-43381865D01*
X10734235Y-43381865D02*
X10731211Y-43485842D01*
X10731211Y-43485842D02*
X10728862Y-43598357D01*
X10728862Y-43598357D02*
X10727222Y-43714277D01*
X10727222Y-43714277D02*
X10726324Y-43828466D01*
X10726324Y-43828466D02*
X10726203Y-43935790D01*
X10726203Y-43935790D02*
X10726893Y-44031115D01*
X10726893Y-44031115D02*
X10728427Y-44109304D01*
X10728427Y-44109304D02*
X10730839Y-44165225D01*
X10730839Y-44165225D02*
X10734164Y-44193742D01*
X10734164Y-44193742D02*
X10735718Y-44196327D01*
X10735718Y-44196327D02*
X10752203Y-44184960D01*
X10752203Y-44184960D02*
X10784770Y-44155475D01*
X10784770Y-44155475D02*
X10817793Y-44122891D01*
X10817793Y-44122891D02*
X10924925Y-44008271D01*
X10924925Y-44008271D02*
X11034215Y-43881731D01*
X11034215Y-43881731D02*
X11134918Y-43756022D01*
X11134918Y-43756022D02*
X11192295Y-43678523D01*
X11192295Y-43678523D02*
X11263774Y-43568575D01*
X11263774Y-43568575D02*
X11339862Y-43435583D01*
X11339862Y-43435583D02*
X11415504Y-43289683D01*
X11415504Y-43289683D02*
X11485643Y-43141010D01*
X11485643Y-43141010D02*
X11545221Y-42999698D01*
X11545221Y-42999698D02*
X11582921Y-42895589D01*
X11582921Y-42895589D02*
X11609391Y-42811557D01*
X11609391Y-42811557D02*
X11627747Y-42742865D01*
X11627747Y-42742865D02*
X11639815Y-42678458D01*
X11639815Y-42678458D02*
X11647420Y-42607279D01*
X11647420Y-42607279D02*
X11652389Y-42518271D01*
X11652389Y-42518271D02*
X11654508Y-42462091D01*
X11654508Y-42462091D02*
X11656305Y-42323949D01*
X11656305Y-42323949D02*
X11649852Y-42209854D01*
X11649852Y-42209854D02*
X11633336Y-42109898D01*
X11633336Y-42109898D02*
X11604943Y-42014175D01*
X11604943Y-42014175D02*
X11562858Y-41912776D01*
X11562858Y-41912776D02*
X11548233Y-41881725D01*
X11548233Y-41881725D02*
X11505163Y-41806174D01*
X11505163Y-41806174D02*
X11449469Y-41728309D01*
X11449469Y-41728309D02*
X11387900Y-41655909D01*
X11387900Y-41655909D02*
X11327206Y-41596751D01*
X11327206Y-41596751D02*
X11274136Y-41558611D01*
X11274136Y-41558611D02*
X11263390Y-41553494D01*
X11263390Y-41553494D02*
X11238505Y-41546869D01*
X11238505Y-41546869D02*
X11207582Y-41546971D01*
X11207582Y-41546971D02*
X11167017Y-41555102D01*
X11167017Y-41555102D02*
X11113209Y-41572565D01*
X11113209Y-41572565D02*
X11042553Y-41600661D01*
X11042553Y-41600661D02*
X10951447Y-41640692D01*
X10951447Y-41640692D02*
X10836289Y-41693960D01*
X10836289Y-41693960D02*
X10713383Y-41752251D01*
X10713383Y-41752251D02*
X10601033Y-41807362D01*
X10601033Y-41807362D02*
X10514391Y-41853633D01*
X10514391Y-41853633D02*
X10447036Y-41894942D01*
X10447036Y-41894942D02*
X10392544Y-41935170D01*
X10392544Y-41935170D02*
X10353307Y-41969737D01*
X10353307Y-41969737D02*
X10243209Y-42091292D01*
X10243209Y-42091292D02*
X10135226Y-42244945D01*
X10135226Y-42244945D02*
X10030743Y-42428243D01*
X10030743Y-42428243D02*
X9931145Y-42638733D01*
X9931145Y-42638733D02*
X9837816Y-42873963D01*
X9837816Y-42873963D02*
X9829331Y-42897496D01*
X9829331Y-42897496D02*
X9783476Y-43030858D01*
X9783476Y-43030858D02*
X9735723Y-43178902D01*
X9735723Y-43178902D02*
X9687754Y-43335601D01*
X9687754Y-43335601D02*
X9641251Y-43494927D01*
X9641251Y-43494927D02*
X9597896Y-43650852D01*
X9597896Y-43650852D02*
X9559371Y-43797350D01*
X9559371Y-43797350D02*
X9527359Y-43928393D01*
X9527359Y-43928393D02*
X9503541Y-44037953D01*
X9503541Y-44037953D02*
X9490961Y-44109932D01*
X9490961Y-44109932D02*
X9479902Y-44187687D01*
X9479902Y-44187687D02*
X9182746Y-44187687D01*
X9182746Y-44187687D02*
X9185828Y-44170813D01*
X9185828Y-44170813D02*
X9230716Y-43967598D01*
X9230716Y-43967598D02*
X9284645Y-43753112D01*
X9284645Y-43753112D02*
X9345592Y-43534061D01*
X9345592Y-43534061D02*
X9411538Y-43317154D01*
X9411538Y-43317154D02*
X9480463Y-43109096D01*
X9480463Y-43109096D02*
X9550345Y-42916595D01*
X9550345Y-42916595D02*
X9619165Y-42746357D01*
X9619165Y-42746357D02*
X9671177Y-42632585D01*
X9671177Y-42632585D02*
X9763450Y-42456110D01*
X9763450Y-42456110D02*
X9855245Y-42308000D01*
X9855245Y-42308000D02*
X9951553Y-42182495D01*
X9951553Y-42182495D02*
X10057365Y-42073838D01*
X10057365Y-42073838D02*
X10177671Y-41976270D01*
X10177671Y-41976270D02*
X10317460Y-41884032D01*
X10317460Y-41884032D02*
X10322564Y-41880952D01*
X10322564Y-41880952D02*
X10436796Y-41814444D01*
X10436796Y-41814444D02*
X10562531Y-41745145D01*
X10562531Y-41745145D02*
X10695481Y-41675071D01*
X10695481Y-41675071D02*
X10831362Y-41606240D01*
X10831362Y-41606240D02*
X10965887Y-41540668D01*
X10965887Y-41540668D02*
X11094770Y-41480372D01*
X11094770Y-41480372D02*
X11213727Y-41427370D01*
X11213727Y-41427370D02*
X11318470Y-41383678D01*
X11318470Y-41383678D02*
X11404715Y-41351314D01*
X11404715Y-41351314D02*
X11468176Y-41332293D01*
X11468176Y-41332293D02*
X11497554Y-41327993D01*
X11497554Y-41327993D02*
X11547040Y-41342218D01*
X11547040Y-41342218D02*
X11547040Y-41342218D01*
G36*
X9070772Y-44867179D02*
G01*
X9077481Y-44814971D01*
X9088440Y-44751099D01*
X8909220Y-44826900D01*
X8815396Y-44864504D01*
X8712483Y-44902453D01*
X8616548Y-44934944D01*
X8574490Y-44947831D01*
X8497900Y-44967912D01*
X8408884Y-44987904D01*
X8315199Y-45006452D01*
X8224600Y-45022201D01*
X8144844Y-45033798D01*
X8083689Y-45039885D01*
X8050255Y-45039406D01*
X8049312Y-45028493D01*
X8071853Y-45004375D01*
X8111622Y-44971453D01*
X8162363Y-44934125D01*
X8217823Y-44896790D01*
X8271746Y-44863848D01*
X8317876Y-44839698D01*
X8349741Y-44828769D01*
X8537906Y-44800876D01*
X8702260Y-44770292D01*
X8840619Y-44737600D01*
X8950802Y-44703380D01*
X9030625Y-44668215D01*
X9075491Y-44635400D01*
X9093057Y-44610561D01*
X9108247Y-44573751D01*
X9122674Y-44519093D01*
X9137945Y-44440707D01*
X9151999Y-44356049D01*
X9182746Y-44187687D01*
X9479902Y-44187687D01*
X9723692Y-43940434D01*
X9846726Y-43811930D01*
X9947529Y-43697333D01*
X10031318Y-43589554D01*
X10103312Y-43481507D01*
X10168729Y-43366105D01*
X10215924Y-43271905D01*
X10256000Y-43178336D01*
X10299119Y-43060670D01*
X10342151Y-42928815D01*
X10381965Y-42792676D01*
X10415433Y-42662159D01*
X10431186Y-42590566D01*
X10450035Y-42516938D01*
X10472094Y-42472855D01*
X10500471Y-42453302D01*
X10517619Y-42451156D01*
X10546046Y-42441681D01*
X10592133Y-42416842D01*
X10645862Y-42382041D01*
X10697759Y-42347473D01*
X10739830Y-42322687D01*
X10763153Y-42312931D01*
X10763409Y-42312925D01*
X10768789Y-42329416D01*
X10772107Y-42375869D01*
X10773470Y-42447758D01*
X10772984Y-42540557D01*
X10770755Y-42649737D01*
X10766889Y-42770773D01*
X10761491Y-42899137D01*
X10754669Y-43030303D01*
X10746527Y-43159743D01*
X10742171Y-43220068D01*
X10737900Y-43291562D01*
X10734235Y-43381865D01*
X10731211Y-43485842D01*
X10728862Y-43598357D01*
X10727222Y-43714277D01*
X10726324Y-43828466D01*
X10726203Y-43935790D01*
X10726893Y-44031115D01*
X10728427Y-44109304D01*
X10730839Y-44165225D01*
X10734164Y-44193742D01*
X10735718Y-44196327D01*
X10752203Y-44184960D01*
X10784770Y-44155475D01*
X10817793Y-44122891D01*
X10924925Y-44008271D01*
X11034215Y-43881731D01*
X11134918Y-43756022D01*
X11192295Y-43678523D01*
X11263774Y-43568575D01*
X11339862Y-43435583D01*
X11415504Y-43289683D01*
X11485643Y-43141010D01*
X11545221Y-42999698D01*
X11582921Y-42895589D01*
X11609391Y-42811557D01*
X11627747Y-42742865D01*
X11639815Y-42678458D01*
X11647420Y-42607279D01*
X11652389Y-42518271D01*
X11654508Y-42462091D01*
X11656305Y-42323949D01*
X11649852Y-42209854D01*
X11633336Y-42109898D01*
X11604943Y-42014175D01*
X11562858Y-41912776D01*
X11548233Y-41881725D01*
X11505163Y-41806174D01*
X11449469Y-41728309D01*
X11387900Y-41655909D01*
X11327206Y-41596751D01*
X11274136Y-41558611D01*
X11263390Y-41553494D01*
X11238505Y-41546869D01*
X11207582Y-41546971D01*
X11167017Y-41555102D01*
X11113209Y-41572565D01*
X11042553Y-41600661D01*
X10951447Y-41640692D01*
X10836289Y-41693960D01*
X10713383Y-41752251D01*
X10601033Y-41807362D01*
X10514391Y-41853633D01*
X10447036Y-41894942D01*
X10392544Y-41935170D01*
X10353307Y-41969737D01*
X10243209Y-42091292D01*
X10135226Y-42244945D01*
X10030743Y-42428243D01*
X9931145Y-42638733D01*
X9837816Y-42873963D01*
X9829331Y-42897496D01*
X9783476Y-43030858D01*
X9735723Y-43178902D01*
X9687754Y-43335601D01*
X9641251Y-43494927D01*
X9597896Y-43650852D01*
X9559371Y-43797350D01*
X9527359Y-43928393D01*
X9503541Y-44037953D01*
X9490961Y-44109932D01*
X9479902Y-44187687D01*
X9182746Y-44187687D01*
X9185828Y-44170813D01*
X9230716Y-43967598D01*
X9284645Y-43753112D01*
X9345592Y-43534061D01*
X9411538Y-43317154D01*
X9480463Y-43109096D01*
X9550345Y-42916595D01*
X9619165Y-42746357D01*
X9671177Y-42632585D01*
X9763450Y-42456110D01*
X9855245Y-42308000D01*
X9951553Y-42182495D01*
X10057365Y-42073838D01*
X10177671Y-41976270D01*
X10317460Y-41884032D01*
X10322564Y-41880952D01*
X10436796Y-41814444D01*
X10562531Y-41745145D01*
X10695481Y-41675071D01*
X10831362Y-41606240D01*
X10965887Y-41540668D01*
X11094770Y-41480372D01*
X11213727Y-41427370D01*
X11318470Y-41383678D01*
X11404715Y-41351314D01*
X11468176Y-41332293D01*
X11497554Y-41327993D01*
X11547040Y-41342218D01*
X11608136Y-41381567D01*
X11675357Y-41441132D01*
X11743215Y-41516002D01*
X11806228Y-41601269D01*
X11810972Y-41608510D01*
X11888821Y-41750414D01*
X11942279Y-41901276D01*
X11973559Y-42068639D01*
X11983331Y-42196802D01*
X11981599Y-42368262D01*
X11961516Y-42536380D01*
X11921510Y-42707311D01*
X11860010Y-42887207D01*
X11775444Y-43082222D01*
X11736954Y-43161532D01*
X11641557Y-43341831D01*
X11542008Y-43505270D01*
X11432181Y-43660441D01*
X11305950Y-43815939D01*
X11157187Y-43980354D01*
X11140834Y-43997619D01*
X11058440Y-44088208D01*
X10992141Y-44171749D01*
X10933987Y-44259671D01*
X10876033Y-44363407D01*
X10846704Y-44420675D01*
X10811722Y-44486883D01*
X10779294Y-44542184D01*
X10754318Y-44578480D01*
X10746062Y-44587039D01*
X10734791Y-44602280D01*
X10725791Y-44632705D01*
X10718374Y-44683088D01*
X10711847Y-44758201D01*
X10705520Y-44862818D01*
X10705146Y-44869864D01*
X10697882Y-44970759D01*
X10685904Y-45095304D01*
X10670390Y-45233094D01*
X10652516Y-45373728D01*
X10633460Y-45506801D01*
X10632105Y-45515609D01*
X10613385Y-45637942D01*
X10595173Y-45759217D01*
X10578614Y-45871652D01*
X10564850Y-45967463D01*
X10555024Y-46038866D01*
X10553315Y-46052005D01*
X10534152Y-46173089D01*
X10506595Y-46308058D01*
X10472883Y-46448610D01*
X10435254Y-46586441D01*
X10395946Y-46713250D01*
X10357198Y-46820732D01*
X10328184Y-46887068D01*
X10283741Y-46969805D01*
X10240554Y-47031417D01*
X10189631Y-47083785D01*
X10160690Y-47108402D01*
X10105301Y-47151664D01*
X10053969Y-47188612D01*
X10018156Y-47211043D01*
X9954252Y-47234926D01*
X9886566Y-47246164D01*
X9829885Y-47242704D01*
X9818078Y-47238854D01*
X9785506Y-47216424D01*
X9738100Y-47173025D01*
X9681894Y-47115231D01*
X9622925Y-47049619D01*
X9567228Y-46982762D01*
X9520840Y-46921236D01*
X9505337Y-46898180D01*
X9477948Y-46851183D01*
X9440038Y-46780363D01*
X9395513Y-46693304D01*
X9348275Y-46597588D01*
X9317685Y-46533729D01*
X9226986Y-46327043D01*
X9158357Y-46134765D01*
X9109046Y-45947259D01*
X9076302Y-45754888D01*
X9064732Y-45647755D01*
X9058889Y-45555504D01*
X9055486Y-45443515D01*
X9054399Y-45319780D01*
X9055506Y-45192287D01*
X9058686Y-45069029D01*
X9062438Y-44987784D01*
X9381555Y-44987784D01*
X9381593Y-45132321D01*
X9383513Y-45258980D01*
X9386345Y-45389271D01*
X9389461Y-45491615D01*
X9393527Y-45572621D01*
X9399210Y-45638898D01*
X9407176Y-45697055D01*
X9418090Y-45753701D01*
X9432620Y-45815444D01*
X9444205Y-45860997D01*
X9476001Y-45965482D01*
X9521755Y-46090732D01*
X9577574Y-46227920D01*
X9639568Y-46368220D01*
X9703845Y-46502807D01*
X9766513Y-46622852D01*
X9820657Y-46714834D01*
X9863921Y-46777356D01*
X9911449Y-46837962D01*
X9957980Y-46890882D01*
X9998250Y-46930344D01*
X10026996Y-46950576D01*
X10036258Y-46951263D01*
X10047739Y-46931474D01*
X10065391Y-46886723D01*
X10086050Y-46825319D01*
X10093748Y-46800289D01*
X10139373Y-46637282D01*
X10178466Y-46472205D01*
X10213221Y-46294735D01*
X10245834Y-46094550D01*
X10250580Y-46062582D01*
X10268895Y-45937738D01*
X10289892Y-45794372D01*
X10311277Y-45648160D01*
X10330758Y-45514778D01*
X10335305Y-45483605D01*
X10358154Y-45308128D01*
X10376807Y-45122084D01*
X10391479Y-44921353D01*
X10402384Y-44701816D01*
X10409735Y-44459355D01*
X10413746Y-44189850D01*
X10414694Y-43954095D01*
X10414694Y-43376040D01*
X10350888Y-43470843D01*
X10315906Y-43516668D01*
X10260577Y-43581683D01*
X10189411Y-43661074D01*
X10106919Y-43750023D01*
X10017610Y-43843716D01*
X9925997Y-43937338D01*
X9836589Y-44026071D01*
X9778123Y-44082327D01*
X9728213Y-44132932D01*
X9666042Y-44200807D01*
X9600587Y-44275959D01*
X9555700Y-44329906D01*
X9425563Y-44490059D01*
X9400587Y-44675812D01*
X9390880Y-44765409D01*
X9384594Y-44867440D01*
X9381555Y-44987784D01*
X9062438Y-44987784D01*
X9063815Y-44957996D01*
X9070772Y-44867179D01*
G37*
X9070772Y-44867179D02*
X9077481Y-44814971D01*
X9088440Y-44751099D01*
X8909220Y-44826900D01*
X8815396Y-44864504D01*
X8712483Y-44902453D01*
X8616548Y-44934944D01*
X8574490Y-44947831D01*
X8497900Y-44967912D01*
X8408884Y-44987904D01*
X8315199Y-45006452D01*
X8224600Y-45022201D01*
X8144844Y-45033798D01*
X8083689Y-45039885D01*
X8050255Y-45039406D01*
X8049312Y-45028493D01*
X8071853Y-45004375D01*
X8111622Y-44971453D01*
X8162363Y-44934125D01*
X8217823Y-44896790D01*
X8271746Y-44863848D01*
X8317876Y-44839698D01*
X8349741Y-44828769D01*
X8537906Y-44800876D01*
X8702260Y-44770292D01*
X8840619Y-44737600D01*
X8950802Y-44703380D01*
X9030625Y-44668215D01*
X9075491Y-44635400D01*
X9093057Y-44610561D01*
X9108247Y-44573751D01*
X9122674Y-44519093D01*
X9137945Y-44440707D01*
X9151999Y-44356049D01*
X9182746Y-44187687D01*
X9479902Y-44187687D01*
X9723692Y-43940434D01*
X9846726Y-43811930D01*
X9947529Y-43697333D01*
X10031318Y-43589554D01*
X10103312Y-43481507D01*
X10168729Y-43366105D01*
X10215924Y-43271905D01*
X10256000Y-43178336D01*
X10299119Y-43060670D01*
X10342151Y-42928815D01*
X10381965Y-42792676D01*
X10415433Y-42662159D01*
X10431186Y-42590566D01*
X10450035Y-42516938D01*
X10472094Y-42472855D01*
X10500471Y-42453302D01*
X10517619Y-42451156D01*
X10546046Y-42441681D01*
X10592133Y-42416842D01*
X10645862Y-42382041D01*
X10697759Y-42347473D01*
X10739830Y-42322687D01*
X10763153Y-42312931D01*
X10763409Y-42312925D01*
X10768789Y-42329416D01*
X10772107Y-42375869D01*
X10773470Y-42447758D01*
X10772984Y-42540557D01*
X10770755Y-42649737D01*
X10766889Y-42770773D01*
X10761491Y-42899137D01*
X10754669Y-43030303D01*
X10746527Y-43159743D01*
X10742171Y-43220068D01*
X10737900Y-43291562D01*
X10734235Y-43381865D01*
X10731211Y-43485842D01*
X10728862Y-43598357D01*
X10727222Y-43714277D01*
X10726324Y-43828466D01*
X10726203Y-43935790D01*
X10726893Y-44031115D01*
X10728427Y-44109304D01*
X10730839Y-44165225D01*
X10734164Y-44193742D01*
X10735718Y-44196327D01*
X10752203Y-44184960D01*
X10784770Y-44155475D01*
X10817793Y-44122891D01*
X10924925Y-44008271D01*
X11034215Y-43881731D01*
X11134918Y-43756022D01*
X11192295Y-43678523D01*
X11263774Y-43568575D01*
X11339862Y-43435583D01*
X11415504Y-43289683D01*
X11485643Y-43141010D01*
X11545221Y-42999698D01*
X11582921Y-42895589D01*
X11609391Y-42811557D01*
X11627747Y-42742865D01*
X11639815Y-42678458D01*
X11647420Y-42607279D01*
X11652389Y-42518271D01*
X11654508Y-42462091D01*
X11656305Y-42323949D01*
X11649852Y-42209854D01*
X11633336Y-42109898D01*
X11604943Y-42014175D01*
X11562858Y-41912776D01*
X11548233Y-41881725D01*
X11505163Y-41806174D01*
X11449469Y-41728309D01*
X11387900Y-41655909D01*
X11327206Y-41596751D01*
X11274136Y-41558611D01*
X11263390Y-41553494D01*
X11238505Y-41546869D01*
X11207582Y-41546971D01*
X11167017Y-41555102D01*
X11113209Y-41572565D01*
X11042553Y-41600661D01*
X10951447Y-41640692D01*
X10836289Y-41693960D01*
X10713383Y-41752251D01*
X10601033Y-41807362D01*
X10514391Y-41853633D01*
X10447036Y-41894942D01*
X10392544Y-41935170D01*
X10353307Y-41969737D01*
X10243209Y-42091292D01*
X10135226Y-42244945D01*
X10030743Y-42428243D01*
X9931145Y-42638733D01*
X9837816Y-42873963D01*
X9829331Y-42897496D01*
X9783476Y-43030858D01*
X9735723Y-43178902D01*
X9687754Y-43335601D01*
X9641251Y-43494927D01*
X9597896Y-43650852D01*
X9559371Y-43797350D01*
X9527359Y-43928393D01*
X9503541Y-44037953D01*
X9490961Y-44109932D01*
X9479902Y-44187687D01*
X9182746Y-44187687D01*
X9185828Y-44170813D01*
X9230716Y-43967598D01*
X9284645Y-43753112D01*
X9345592Y-43534061D01*
X9411538Y-43317154D01*
X9480463Y-43109096D01*
X9550345Y-42916595D01*
X9619165Y-42746357D01*
X9671177Y-42632585D01*
X9763450Y-42456110D01*
X9855245Y-42308000D01*
X9951553Y-42182495D01*
X10057365Y-42073838D01*
X10177671Y-41976270D01*
X10317460Y-41884032D01*
X10322564Y-41880952D01*
X10436796Y-41814444D01*
X10562531Y-41745145D01*
X10695481Y-41675071D01*
X10831362Y-41606240D01*
X10965887Y-41540668D01*
X11094770Y-41480372D01*
X11213727Y-41427370D01*
X11318470Y-41383678D01*
X11404715Y-41351314D01*
X11468176Y-41332293D01*
X11497554Y-41327993D01*
X11547040Y-41342218D01*
X11608136Y-41381567D01*
X11675357Y-41441132D01*
X11743215Y-41516002D01*
X11806228Y-41601269D01*
X11810972Y-41608510D01*
X11888821Y-41750414D01*
X11942279Y-41901276D01*
X11973559Y-42068639D01*
X11983331Y-42196802D01*
X11981599Y-42368262D01*
X11961516Y-42536380D01*
X11921510Y-42707311D01*
X11860010Y-42887207D01*
X11775444Y-43082222D01*
X11736954Y-43161532D01*
X11641557Y-43341831D01*
X11542008Y-43505270D01*
X11432181Y-43660441D01*
X11305950Y-43815939D01*
X11157187Y-43980354D01*
X11140834Y-43997619D01*
X11058440Y-44088208D01*
X10992141Y-44171749D01*
X10933987Y-44259671D01*
X10876033Y-44363407D01*
X10846704Y-44420675D01*
X10811722Y-44486883D01*
X10779294Y-44542184D01*
X10754318Y-44578480D01*
X10746062Y-44587039D01*
X10734791Y-44602280D01*
X10725791Y-44632705D01*
X10718374Y-44683088D01*
X10711847Y-44758201D01*
X10705520Y-44862818D01*
X10705146Y-44869864D01*
X10697882Y-44970759D01*
X10685904Y-45095304D01*
X10670390Y-45233094D01*
X10652516Y-45373728D01*
X10633460Y-45506801D01*
X10632105Y-45515609D01*
X10613385Y-45637942D01*
X10595173Y-45759217D01*
X10578614Y-45871652D01*
X10564850Y-45967463D01*
X10555024Y-46038866D01*
X10553315Y-46052005D01*
X10534152Y-46173089D01*
X10506595Y-46308058D01*
X10472883Y-46448610D01*
X10435254Y-46586441D01*
X10395946Y-46713250D01*
X10357198Y-46820732D01*
X10328184Y-46887068D01*
X10283741Y-46969805D01*
X10240554Y-47031417D01*
X10189631Y-47083785D01*
X10160690Y-47108402D01*
X10105301Y-47151664D01*
X10053969Y-47188612D01*
X10018156Y-47211043D01*
X9954252Y-47234926D01*
X9886566Y-47246164D01*
X9829885Y-47242704D01*
X9818078Y-47238854D01*
X9785506Y-47216424D01*
X9738100Y-47173025D01*
X9681894Y-47115231D01*
X9622925Y-47049619D01*
X9567228Y-46982762D01*
X9520840Y-46921236D01*
X9505337Y-46898180D01*
X9477948Y-46851183D01*
X9440038Y-46780363D01*
X9395513Y-46693304D01*
X9348275Y-46597588D01*
X9317685Y-46533729D01*
X9226986Y-46327043D01*
X9158357Y-46134765D01*
X9109046Y-45947259D01*
X9076302Y-45754888D01*
X9064732Y-45647755D01*
X9058889Y-45555504D01*
X9055486Y-45443515D01*
X9054399Y-45319780D01*
X9055506Y-45192287D01*
X9058686Y-45069029D01*
X9062438Y-44987784D01*
X9381555Y-44987784D01*
X9381593Y-45132321D01*
X9383513Y-45258980D01*
X9386345Y-45389271D01*
X9389461Y-45491615D01*
X9393527Y-45572621D01*
X9399210Y-45638898D01*
X9407176Y-45697055D01*
X9418090Y-45753701D01*
X9432620Y-45815444D01*
X9444205Y-45860997D01*
X9476001Y-45965482D01*
X9521755Y-46090732D01*
X9577574Y-46227920D01*
X9639568Y-46368220D01*
X9703845Y-46502807D01*
X9766513Y-46622852D01*
X9820657Y-46714834D01*
X9863921Y-46777356D01*
X9911449Y-46837962D01*
X9957980Y-46890882D01*
X9998250Y-46930344D01*
X10026996Y-46950576D01*
X10036258Y-46951263D01*
X10047739Y-46931474D01*
X10065391Y-46886723D01*
X10086050Y-46825319D01*
X10093748Y-46800289D01*
X10139373Y-46637282D01*
X10178466Y-46472205D01*
X10213221Y-46294735D01*
X10245834Y-46094550D01*
X10250580Y-46062582D01*
X10268895Y-45937738D01*
X10289892Y-45794372D01*
X10311277Y-45648160D01*
X10330758Y-45514778D01*
X10335305Y-45483605D01*
X10358154Y-45308128D01*
X10376807Y-45122084D01*
X10391479Y-44921353D01*
X10402384Y-44701816D01*
X10409735Y-44459355D01*
X10413746Y-44189850D01*
X10414694Y-43954095D01*
X10414694Y-43376040D01*
X10350888Y-43470843D01*
X10315906Y-43516668D01*
X10260577Y-43581683D01*
X10189411Y-43661074D01*
X10106919Y-43750023D01*
X10017610Y-43843716D01*
X9925997Y-43937338D01*
X9836589Y-44026071D01*
X9778123Y-44082327D01*
X9728213Y-44132932D01*
X9666042Y-44200807D01*
X9600587Y-44275959D01*
X9555700Y-44329906D01*
X9425563Y-44490059D01*
X9400587Y-44675812D01*
X9390880Y-44765409D01*
X9384594Y-44867440D01*
X9381555Y-44987784D01*
X9062438Y-44987784D01*
X9063815Y-44957996D01*
X9070772Y-44867179D01*
D12*
%TO.C,R1*%
X17492224Y-35827500D02*
X16982776Y-35827500D01*
X17492224Y-36872500D02*
X16982776Y-36872500D01*
%TO.C,J1*%
X41940000Y-25085000D02*
X44600000Y-25085000D01*
X41940000Y-23815000D02*
X41940000Y-22485000D01*
X41940000Y-22485000D02*
X43270000Y-22485000D01*
X44600000Y-25085000D02*
X44600000Y-32765000D01*
X41940000Y-32765000D02*
X44600000Y-32765000D01*
X41940000Y-25085000D02*
X41940000Y-32765000D01*
%TO.C,D1*%
X19940000Y-35390000D02*
X19940000Y-37310000D01*
X22800000Y-35390000D02*
X19940000Y-35390000D01*
X19940000Y-37310000D02*
X22800000Y-37310000D01*
%TD*%
M02*
