%TF.GenerationSoftware,KiCad,Pcbnew,5.1.10*%
%TF.CreationDate,2021-10-06T20:30:39-04:00*%
%TF.ProjectId,shutter_tester,73687574-7465-4725-9f74-65737465722e,rev?*%
%TF.SameCoordinates,PX7bfa480PY5f5e100*%
%TF.FileFunction,Copper,L2,Bot*%
%TF.FilePolarity,Positive*%
%FSLAX46Y46*%
G04 Gerber Fmt 4.6, Leading zero omitted, Abs format (unit mm)*
G04 Created by KiCad (PCBNEW 5.1.10) date 2021-10-06 20:30:39*
%MOMM*%
%LPD*%
G01*
G04 APERTURE LIST*
%TA.AperFunction,ComponentPad*%
%ADD10C,1.800000*%
%TD*%
%TA.AperFunction,ComponentPad*%
%ADD11R,1.800000X1.800000*%
%TD*%
%TA.AperFunction,SMDPad,CuDef*%
%ADD12R,0.800000X0.900000*%
%TD*%
%TA.AperFunction,ComponentPad*%
%ADD13O,1.700000X1.700000*%
%TD*%
%TA.AperFunction,ComponentPad*%
%ADD14R,1.700000X1.700000*%
%TD*%
%TA.AperFunction,Conductor*%
%ADD15C,1.000000*%
%TD*%
%TA.AperFunction,Conductor*%
%ADD16C,0.254000*%
%TD*%
%TA.AperFunction,Conductor*%
%ADD17C,0.100000*%
%TD*%
G04 APERTURE END LIST*
D10*
%TO.P,D1,2*%
%TO.N,Net-(D1-Pad2)*%
X26230000Y-22000000D03*
D11*
%TO.P,D1,1*%
%TO.N,VCC*%
X28770000Y-22000000D03*
%TD*%
D12*
%TO.P,Q1,3*%
%TO.N,Net-(J1-Pad2)*%
X22300000Y-20000000D03*
%TO.P,Q1,2*%
%TO.N,GND*%
X21350000Y-22000000D03*
%TO.P,Q1,1*%
%TO.N,Net-(D1-Pad2)*%
X23250000Y-22000000D03*
%TD*%
%TO.P,R1,2*%
%TO.N,Net-(J1-Pad2)*%
%TA.AperFunction,SMDPad,CuDef*%
G36*
G01*
X27100000Y-17349999D02*
X27100000Y-18250001D01*
G75*
G02*
X26850001Y-18500000I-249999J0D01*
G01*
X26149999Y-18500000D01*
G75*
G02*
X25900000Y-18250001I0J249999D01*
G01*
X25900000Y-17349999D01*
G75*
G02*
X26149999Y-17100000I249999J0D01*
G01*
X26850001Y-17100000D01*
G75*
G02*
X27100000Y-17349999I0J-249999D01*
G01*
G37*
%TD.AperFunction*%
%TO.P,R1,1*%
%TO.N,VCC*%
%TA.AperFunction,SMDPad,CuDef*%
G36*
G01*
X29100000Y-17349999D02*
X29100000Y-18250001D01*
G75*
G02*
X28850001Y-18500000I-249999J0D01*
G01*
X28149999Y-18500000D01*
G75*
G02*
X27900000Y-18250001I0J249999D01*
G01*
X27900000Y-17349999D01*
G75*
G02*
X28149999Y-17100000I249999J0D01*
G01*
X28850001Y-17100000D01*
G75*
G02*
X29100000Y-17349999I0J-249999D01*
G01*
G37*
%TD.AperFunction*%
%TD*%
D13*
%TO.P,J1,2*%
%TO.N,Net-(J1-Pad2)*%
X5600000Y-10960000D03*
D14*
%TO.P,J1,1*%
%TO.N,GND*%
X5600000Y-13500000D03*
%TD*%
D13*
%TO.P,BT1,2*%
%TO.N,GND*%
X49500000Y-13540000D03*
D14*
%TO.P,BT1,1*%
%TO.N,VCC*%
X49500000Y-11000000D03*
%TD*%
D15*
%TO.N,VCC*%
X35300000Y-11000000D02*
X28500000Y-17800000D01*
X49500000Y-11000000D02*
X35300000Y-11000000D01*
X28500000Y-21730000D02*
X28770000Y-22000000D01*
X28500000Y-17800000D02*
X28500000Y-21730000D01*
%TO.N,Net-(D1-Pad2)*%
X23250000Y-22000000D02*
X26230000Y-22000000D01*
%TO.N,Net-(J1-Pad2)*%
X22300000Y-20000000D02*
X25800000Y-20000000D01*
X26500000Y-19300000D02*
X26500000Y-17800000D01*
X25800000Y-20000000D02*
X26500000Y-19300000D01*
X22300000Y-20000000D02*
X13200000Y-20000000D01*
X13200000Y-20000000D02*
X11200000Y-18000000D01*
X11200000Y-18000000D02*
X11200000Y-12400000D01*
X9760000Y-10960000D02*
X5600000Y-10960000D01*
X11200000Y-12400000D02*
X9760000Y-10960000D01*
%TD*%
D16*
%TO.N,GND*%
X50610658Y-1915961D02*
X51198054Y-2093307D01*
X51739813Y-2381366D01*
X52215312Y-2769173D01*
X52606423Y-3241945D01*
X52898260Y-3781687D01*
X53079700Y-4367825D01*
X53148001Y-5017663D01*
X53148000Y-38958327D01*
X53084039Y-39610658D01*
X52906694Y-40198053D01*
X52618633Y-40739816D01*
X52230830Y-41215309D01*
X51758054Y-41606424D01*
X51218318Y-41898258D01*
X50632175Y-42079700D01*
X49982346Y-42148000D01*
X5041672Y-42148000D01*
X4389342Y-42084039D01*
X3801947Y-41906694D01*
X3260184Y-41618633D01*
X2784691Y-41230830D01*
X2393576Y-40758054D01*
X2101742Y-40218318D01*
X1920300Y-39632175D01*
X1852000Y-38982346D01*
X1852000Y-38760961D01*
X2573000Y-38760961D01*
X2573000Y-39239039D01*
X2666268Y-39707930D01*
X2849221Y-40149615D01*
X3114826Y-40547122D01*
X3452878Y-40885174D01*
X3850385Y-41150779D01*
X4292070Y-41333732D01*
X4760961Y-41427000D01*
X5239039Y-41427000D01*
X5707930Y-41333732D01*
X6149615Y-41150779D01*
X6547122Y-40885174D01*
X6885174Y-40547122D01*
X7150779Y-40149615D01*
X7333732Y-39707930D01*
X7427000Y-39239039D01*
X7427000Y-38760961D01*
X47573000Y-38760961D01*
X47573000Y-39239039D01*
X47666268Y-39707930D01*
X47849221Y-40149615D01*
X48114826Y-40547122D01*
X48452878Y-40885174D01*
X48850385Y-41150779D01*
X49292070Y-41333732D01*
X49760961Y-41427000D01*
X50239039Y-41427000D01*
X50707930Y-41333732D01*
X51149615Y-41150779D01*
X51547122Y-40885174D01*
X51885174Y-40547122D01*
X52150779Y-40149615D01*
X52333732Y-39707930D01*
X52427000Y-39239039D01*
X52427000Y-38760961D01*
X52333732Y-38292070D01*
X52150779Y-37850385D01*
X51885174Y-37452878D01*
X51547122Y-37114826D01*
X51149615Y-36849221D01*
X50707930Y-36666268D01*
X50239039Y-36573000D01*
X49760961Y-36573000D01*
X49292070Y-36666268D01*
X48850385Y-36849221D01*
X48452878Y-37114826D01*
X48114826Y-37452878D01*
X47849221Y-37850385D01*
X47666268Y-38292070D01*
X47573000Y-38760961D01*
X7427000Y-38760961D01*
X7333732Y-38292070D01*
X7150779Y-37850385D01*
X6885174Y-37452878D01*
X6547122Y-37114826D01*
X6149615Y-36849221D01*
X5707930Y-36666268D01*
X5239039Y-36573000D01*
X4760961Y-36573000D01*
X4292070Y-36666268D01*
X3850385Y-36849221D01*
X3452878Y-37114826D01*
X3114826Y-37452878D01*
X2849221Y-37850385D01*
X2666268Y-38292070D01*
X2573000Y-38760961D01*
X1852000Y-38760961D01*
X1852000Y-22450000D01*
X20311928Y-22450000D01*
X20324188Y-22574482D01*
X20360498Y-22694180D01*
X20419463Y-22804494D01*
X20498815Y-22901185D01*
X20595506Y-22980537D01*
X20705820Y-23039502D01*
X20825518Y-23075812D01*
X20950000Y-23088072D01*
X21064250Y-23085000D01*
X21223000Y-22926250D01*
X21223000Y-22127000D01*
X20473750Y-22127000D01*
X20315000Y-22285750D01*
X20311928Y-22450000D01*
X1852000Y-22450000D01*
X1852000Y-14350000D01*
X4111928Y-14350000D01*
X4124188Y-14474482D01*
X4160498Y-14594180D01*
X4219463Y-14704494D01*
X4298815Y-14801185D01*
X4395506Y-14880537D01*
X4505820Y-14939502D01*
X4625518Y-14975812D01*
X4750000Y-14988072D01*
X5314250Y-14985000D01*
X5473000Y-14826250D01*
X5473000Y-13627000D01*
X5727000Y-13627000D01*
X5727000Y-14826250D01*
X5885750Y-14985000D01*
X6450000Y-14988072D01*
X6574482Y-14975812D01*
X6694180Y-14939502D01*
X6804494Y-14880537D01*
X6901185Y-14801185D01*
X6980537Y-14704494D01*
X7039502Y-14594180D01*
X7075812Y-14474482D01*
X7088072Y-14350000D01*
X7085000Y-13785750D01*
X6926250Y-13627000D01*
X5727000Y-13627000D01*
X5473000Y-13627000D01*
X4273750Y-13627000D01*
X4115000Y-13785750D01*
X4111928Y-14350000D01*
X1852000Y-14350000D01*
X1852000Y-10794830D01*
X3923000Y-10794830D01*
X3923000Y-11125170D01*
X3987446Y-11449163D01*
X4113862Y-11754357D01*
X4297389Y-12029025D01*
X4391288Y-12122924D01*
X4298815Y-12198815D01*
X4219463Y-12295506D01*
X4160498Y-12405820D01*
X4124188Y-12525518D01*
X4111928Y-12650000D01*
X4115000Y-13214250D01*
X4273750Y-13373000D01*
X5473000Y-13373000D01*
X5473000Y-13353000D01*
X5727000Y-13353000D01*
X5727000Y-13373000D01*
X6926250Y-13373000D01*
X7085000Y-13214250D01*
X7088072Y-12650000D01*
X7075812Y-12525518D01*
X7039502Y-12405820D01*
X6980537Y-12295506D01*
X6973556Y-12287000D01*
X9210339Y-12287000D01*
X9873001Y-12949662D01*
X9873000Y-17934826D01*
X9866581Y-18000000D01*
X9873000Y-18065174D01*
X9873000Y-18065183D01*
X9892201Y-18260136D01*
X9953101Y-18460894D01*
X9968081Y-18510277D01*
X10091302Y-18740808D01*
X10131447Y-18789724D01*
X10257130Y-18942870D01*
X10307765Y-18984425D01*
X12215579Y-20892240D01*
X12257130Y-20942870D01*
X12307760Y-20984421D01*
X12307761Y-20984422D01*
X12459191Y-21108698D01*
X12621598Y-21195506D01*
X12689722Y-21231919D01*
X12939863Y-21307799D01*
X13134816Y-21327000D01*
X13134825Y-21327000D01*
X13199999Y-21333419D01*
X13265173Y-21327000D01*
X20354073Y-21327000D01*
X20324188Y-21425518D01*
X20311928Y-21550000D01*
X20315000Y-21714250D01*
X20473750Y-21873000D01*
X21223000Y-21873000D01*
X21223000Y-21853000D01*
X21477000Y-21853000D01*
X21477000Y-21873000D01*
X21497000Y-21873000D01*
X21497000Y-22127000D01*
X21477000Y-22127000D01*
X21477000Y-22926250D01*
X21635750Y-23085000D01*
X21750000Y-23088072D01*
X21874482Y-23075812D01*
X21994180Y-23039502D01*
X22104494Y-22980537D01*
X22170860Y-22926072D01*
X22262394Y-23037606D01*
X22388321Y-23140952D01*
X22531990Y-23217745D01*
X22687880Y-23265034D01*
X22850000Y-23281001D01*
X22901522Y-23281001D01*
X22989863Y-23307799D01*
X23184816Y-23327000D01*
X25114654Y-23327000D01*
X25129102Y-23341448D01*
X25411959Y-23530447D01*
X25726253Y-23660632D01*
X26059905Y-23727000D01*
X26400095Y-23727000D01*
X26733747Y-23660632D01*
X27048041Y-23530447D01*
X27222104Y-23414142D01*
X27282394Y-23487606D01*
X27408321Y-23590952D01*
X27551990Y-23667745D01*
X27707880Y-23715034D01*
X27870000Y-23731001D01*
X29670000Y-23731001D01*
X29832120Y-23715034D01*
X29988010Y-23667745D01*
X30131679Y-23590952D01*
X30257606Y-23487606D01*
X30360952Y-23361679D01*
X30437745Y-23218010D01*
X30485034Y-23062120D01*
X30501001Y-22900000D01*
X30501001Y-21100000D01*
X30485034Y-20937880D01*
X30437745Y-20781990D01*
X30360952Y-20638321D01*
X30257606Y-20512394D01*
X30131679Y-20409048D01*
X29988010Y-20332255D01*
X29832120Y-20284966D01*
X29827000Y-20284462D01*
X29827000Y-18704308D01*
X29848715Y-18663682D01*
X29910230Y-18460894D01*
X29931001Y-18250001D01*
X29931001Y-18245659D01*
X34279770Y-13896890D01*
X48058524Y-13896890D01*
X48103175Y-14044099D01*
X48228359Y-14306920D01*
X48402412Y-14540269D01*
X48618645Y-14735178D01*
X48868748Y-14884157D01*
X49143109Y-14981481D01*
X49373000Y-14860814D01*
X49373000Y-13667000D01*
X49627000Y-13667000D01*
X49627000Y-14860814D01*
X49856891Y-14981481D01*
X50131252Y-14884157D01*
X50381355Y-14735178D01*
X50597588Y-14540269D01*
X50771641Y-14306920D01*
X50896825Y-14044099D01*
X50941476Y-13896890D01*
X50820155Y-13667000D01*
X49627000Y-13667000D01*
X49373000Y-13667000D01*
X48179845Y-13667000D01*
X48058524Y-13896890D01*
X34279770Y-13896890D01*
X35849661Y-12327000D01*
X47971622Y-12327000D01*
X48062394Y-12437606D01*
X48188321Y-12540952D01*
X48331990Y-12617745D01*
X48341965Y-12620771D01*
X48228359Y-12773080D01*
X48103175Y-13035901D01*
X48058524Y-13183110D01*
X48179845Y-13413000D01*
X49373000Y-13413000D01*
X49373000Y-13393000D01*
X49627000Y-13393000D01*
X49627000Y-13413000D01*
X50820155Y-13413000D01*
X50941476Y-13183110D01*
X50896825Y-13035901D01*
X50771641Y-12773080D01*
X50658035Y-12620771D01*
X50668010Y-12617745D01*
X50811679Y-12540952D01*
X50937606Y-12437606D01*
X51040952Y-12311679D01*
X51117745Y-12168010D01*
X51165034Y-12012120D01*
X51181001Y-11850000D01*
X51181001Y-10150000D01*
X51165034Y-9987880D01*
X51117745Y-9831990D01*
X51040952Y-9688321D01*
X50937606Y-9562394D01*
X50811679Y-9459048D01*
X50668010Y-9382255D01*
X50512120Y-9334966D01*
X50350000Y-9318999D01*
X48650000Y-9318999D01*
X48487880Y-9334966D01*
X48331990Y-9382255D01*
X48188321Y-9459048D01*
X48062394Y-9562394D01*
X47971622Y-9673000D01*
X35365173Y-9673000D01*
X35299999Y-9666581D01*
X35234825Y-9673000D01*
X35234816Y-9673000D01*
X35039863Y-9692201D01*
X34789722Y-9768081D01*
X34559190Y-9891302D01*
X34456501Y-9975578D01*
X34357130Y-10057130D01*
X34315579Y-10107760D01*
X28154341Y-16268999D01*
X28149999Y-16268999D01*
X27939106Y-16289770D01*
X27736318Y-16351285D01*
X27549428Y-16451180D01*
X27500000Y-16491745D01*
X27450572Y-16451180D01*
X27263682Y-16351285D01*
X27060894Y-16289770D01*
X26850001Y-16268999D01*
X26149999Y-16268999D01*
X25939106Y-16289770D01*
X25736318Y-16351285D01*
X25549428Y-16451180D01*
X25385617Y-16585617D01*
X25251180Y-16749428D01*
X25151285Y-16936318D01*
X25089770Y-17139106D01*
X25068999Y-17349999D01*
X25068999Y-18250001D01*
X25089770Y-18460894D01*
X25151285Y-18663682D01*
X25156266Y-18673000D01*
X13749661Y-18673000D01*
X12527000Y-17450340D01*
X12527000Y-12465174D01*
X12533419Y-12400000D01*
X12527000Y-12334826D01*
X12527000Y-12334816D01*
X12507799Y-12139863D01*
X12431919Y-11889722D01*
X12352323Y-11740808D01*
X12308698Y-11659191D01*
X12184423Y-11507761D01*
X12184416Y-11507754D01*
X12142870Y-11457130D01*
X12092245Y-11415583D01*
X10744425Y-10067765D01*
X10702870Y-10017130D01*
X10500808Y-9851302D01*
X10270278Y-9728081D01*
X10020137Y-9652201D01*
X9825184Y-9633000D01*
X9825174Y-9633000D01*
X9760000Y-9626581D01*
X9694826Y-9633000D01*
X6632524Y-9633000D01*
X6394357Y-9473862D01*
X6089163Y-9347446D01*
X5765170Y-9283000D01*
X5434830Y-9283000D01*
X5110837Y-9347446D01*
X4805643Y-9473862D01*
X4530975Y-9657389D01*
X4297389Y-9890975D01*
X4113862Y-10165643D01*
X3987446Y-10470837D01*
X3923000Y-10794830D01*
X1852000Y-10794830D01*
X1852000Y-5041672D01*
X1879523Y-4760961D01*
X2573000Y-4760961D01*
X2573000Y-5239039D01*
X2666268Y-5707930D01*
X2849221Y-6149615D01*
X3114826Y-6547122D01*
X3452878Y-6885174D01*
X3850385Y-7150779D01*
X4292070Y-7333732D01*
X4760961Y-7427000D01*
X5239039Y-7427000D01*
X5707930Y-7333732D01*
X6149615Y-7150779D01*
X6547122Y-6885174D01*
X6885174Y-6547122D01*
X7150779Y-6149615D01*
X7333732Y-5707930D01*
X7427000Y-5239039D01*
X7427000Y-4760961D01*
X47573000Y-4760961D01*
X47573000Y-5239039D01*
X47666268Y-5707930D01*
X47849221Y-6149615D01*
X48114826Y-6547122D01*
X48452878Y-6885174D01*
X48850385Y-7150779D01*
X49292070Y-7333732D01*
X49760961Y-7427000D01*
X50239039Y-7427000D01*
X50707930Y-7333732D01*
X51149615Y-7150779D01*
X51547122Y-6885174D01*
X51885174Y-6547122D01*
X52150779Y-6149615D01*
X52333732Y-5707930D01*
X52427000Y-5239039D01*
X52427000Y-4760961D01*
X52333732Y-4292070D01*
X52150779Y-3850385D01*
X51885174Y-3452878D01*
X51547122Y-3114826D01*
X51149615Y-2849221D01*
X50707930Y-2666268D01*
X50239039Y-2573000D01*
X49760961Y-2573000D01*
X49292070Y-2666268D01*
X48850385Y-2849221D01*
X48452878Y-3114826D01*
X48114826Y-3452878D01*
X47849221Y-3850385D01*
X47666268Y-4292070D01*
X47573000Y-4760961D01*
X7427000Y-4760961D01*
X7333732Y-4292070D01*
X7150779Y-3850385D01*
X6885174Y-3452878D01*
X6547122Y-3114826D01*
X6149615Y-2849221D01*
X5707930Y-2666268D01*
X5239039Y-2573000D01*
X4760961Y-2573000D01*
X4292070Y-2666268D01*
X3850385Y-2849221D01*
X3452878Y-3114826D01*
X3114826Y-3452878D01*
X2849221Y-3850385D01*
X2666268Y-4292070D01*
X2573000Y-4760961D01*
X1879523Y-4760961D01*
X1915961Y-4389342D01*
X2093307Y-3801946D01*
X2381366Y-3260187D01*
X2769173Y-2784688D01*
X3241945Y-2393577D01*
X3781687Y-2101740D01*
X4367825Y-1920300D01*
X5017654Y-1852000D01*
X49958328Y-1852000D01*
X50610658Y-1915961D01*
%TA.AperFunction,Conductor*%
D17*
G36*
X50610658Y-1915961D02*
G01*
X51198054Y-2093307D01*
X51739813Y-2381366D01*
X52215312Y-2769173D01*
X52606423Y-3241945D01*
X52898260Y-3781687D01*
X53079700Y-4367825D01*
X53148001Y-5017663D01*
X53148000Y-38958327D01*
X53084039Y-39610658D01*
X52906694Y-40198053D01*
X52618633Y-40739816D01*
X52230830Y-41215309D01*
X51758054Y-41606424D01*
X51218318Y-41898258D01*
X50632175Y-42079700D01*
X49982346Y-42148000D01*
X5041672Y-42148000D01*
X4389342Y-42084039D01*
X3801947Y-41906694D01*
X3260184Y-41618633D01*
X2784691Y-41230830D01*
X2393576Y-40758054D01*
X2101742Y-40218318D01*
X1920300Y-39632175D01*
X1852000Y-38982346D01*
X1852000Y-38760961D01*
X2573000Y-38760961D01*
X2573000Y-39239039D01*
X2666268Y-39707930D01*
X2849221Y-40149615D01*
X3114826Y-40547122D01*
X3452878Y-40885174D01*
X3850385Y-41150779D01*
X4292070Y-41333732D01*
X4760961Y-41427000D01*
X5239039Y-41427000D01*
X5707930Y-41333732D01*
X6149615Y-41150779D01*
X6547122Y-40885174D01*
X6885174Y-40547122D01*
X7150779Y-40149615D01*
X7333732Y-39707930D01*
X7427000Y-39239039D01*
X7427000Y-38760961D01*
X47573000Y-38760961D01*
X47573000Y-39239039D01*
X47666268Y-39707930D01*
X47849221Y-40149615D01*
X48114826Y-40547122D01*
X48452878Y-40885174D01*
X48850385Y-41150779D01*
X49292070Y-41333732D01*
X49760961Y-41427000D01*
X50239039Y-41427000D01*
X50707930Y-41333732D01*
X51149615Y-41150779D01*
X51547122Y-40885174D01*
X51885174Y-40547122D01*
X52150779Y-40149615D01*
X52333732Y-39707930D01*
X52427000Y-39239039D01*
X52427000Y-38760961D01*
X52333732Y-38292070D01*
X52150779Y-37850385D01*
X51885174Y-37452878D01*
X51547122Y-37114826D01*
X51149615Y-36849221D01*
X50707930Y-36666268D01*
X50239039Y-36573000D01*
X49760961Y-36573000D01*
X49292070Y-36666268D01*
X48850385Y-36849221D01*
X48452878Y-37114826D01*
X48114826Y-37452878D01*
X47849221Y-37850385D01*
X47666268Y-38292070D01*
X47573000Y-38760961D01*
X7427000Y-38760961D01*
X7333732Y-38292070D01*
X7150779Y-37850385D01*
X6885174Y-37452878D01*
X6547122Y-37114826D01*
X6149615Y-36849221D01*
X5707930Y-36666268D01*
X5239039Y-36573000D01*
X4760961Y-36573000D01*
X4292070Y-36666268D01*
X3850385Y-36849221D01*
X3452878Y-37114826D01*
X3114826Y-37452878D01*
X2849221Y-37850385D01*
X2666268Y-38292070D01*
X2573000Y-38760961D01*
X1852000Y-38760961D01*
X1852000Y-22450000D01*
X20311928Y-22450000D01*
X20324188Y-22574482D01*
X20360498Y-22694180D01*
X20419463Y-22804494D01*
X20498815Y-22901185D01*
X20595506Y-22980537D01*
X20705820Y-23039502D01*
X20825518Y-23075812D01*
X20950000Y-23088072D01*
X21064250Y-23085000D01*
X21223000Y-22926250D01*
X21223000Y-22127000D01*
X20473750Y-22127000D01*
X20315000Y-22285750D01*
X20311928Y-22450000D01*
X1852000Y-22450000D01*
X1852000Y-14350000D01*
X4111928Y-14350000D01*
X4124188Y-14474482D01*
X4160498Y-14594180D01*
X4219463Y-14704494D01*
X4298815Y-14801185D01*
X4395506Y-14880537D01*
X4505820Y-14939502D01*
X4625518Y-14975812D01*
X4750000Y-14988072D01*
X5314250Y-14985000D01*
X5473000Y-14826250D01*
X5473000Y-13627000D01*
X5727000Y-13627000D01*
X5727000Y-14826250D01*
X5885750Y-14985000D01*
X6450000Y-14988072D01*
X6574482Y-14975812D01*
X6694180Y-14939502D01*
X6804494Y-14880537D01*
X6901185Y-14801185D01*
X6980537Y-14704494D01*
X7039502Y-14594180D01*
X7075812Y-14474482D01*
X7088072Y-14350000D01*
X7085000Y-13785750D01*
X6926250Y-13627000D01*
X5727000Y-13627000D01*
X5473000Y-13627000D01*
X4273750Y-13627000D01*
X4115000Y-13785750D01*
X4111928Y-14350000D01*
X1852000Y-14350000D01*
X1852000Y-10794830D01*
X3923000Y-10794830D01*
X3923000Y-11125170D01*
X3987446Y-11449163D01*
X4113862Y-11754357D01*
X4297389Y-12029025D01*
X4391288Y-12122924D01*
X4298815Y-12198815D01*
X4219463Y-12295506D01*
X4160498Y-12405820D01*
X4124188Y-12525518D01*
X4111928Y-12650000D01*
X4115000Y-13214250D01*
X4273750Y-13373000D01*
X5473000Y-13373000D01*
X5473000Y-13353000D01*
X5727000Y-13353000D01*
X5727000Y-13373000D01*
X6926250Y-13373000D01*
X7085000Y-13214250D01*
X7088072Y-12650000D01*
X7075812Y-12525518D01*
X7039502Y-12405820D01*
X6980537Y-12295506D01*
X6973556Y-12287000D01*
X9210339Y-12287000D01*
X9873001Y-12949662D01*
X9873000Y-17934826D01*
X9866581Y-18000000D01*
X9873000Y-18065174D01*
X9873000Y-18065183D01*
X9892201Y-18260136D01*
X9953101Y-18460894D01*
X9968081Y-18510277D01*
X10091302Y-18740808D01*
X10131447Y-18789724D01*
X10257130Y-18942870D01*
X10307765Y-18984425D01*
X12215579Y-20892240D01*
X12257130Y-20942870D01*
X12307760Y-20984421D01*
X12307761Y-20984422D01*
X12459191Y-21108698D01*
X12621598Y-21195506D01*
X12689722Y-21231919D01*
X12939863Y-21307799D01*
X13134816Y-21327000D01*
X13134825Y-21327000D01*
X13199999Y-21333419D01*
X13265173Y-21327000D01*
X20354073Y-21327000D01*
X20324188Y-21425518D01*
X20311928Y-21550000D01*
X20315000Y-21714250D01*
X20473750Y-21873000D01*
X21223000Y-21873000D01*
X21223000Y-21853000D01*
X21477000Y-21853000D01*
X21477000Y-21873000D01*
X21497000Y-21873000D01*
X21497000Y-22127000D01*
X21477000Y-22127000D01*
X21477000Y-22926250D01*
X21635750Y-23085000D01*
X21750000Y-23088072D01*
X21874482Y-23075812D01*
X21994180Y-23039502D01*
X22104494Y-22980537D01*
X22170860Y-22926072D01*
X22262394Y-23037606D01*
X22388321Y-23140952D01*
X22531990Y-23217745D01*
X22687880Y-23265034D01*
X22850000Y-23281001D01*
X22901522Y-23281001D01*
X22989863Y-23307799D01*
X23184816Y-23327000D01*
X25114654Y-23327000D01*
X25129102Y-23341448D01*
X25411959Y-23530447D01*
X25726253Y-23660632D01*
X26059905Y-23727000D01*
X26400095Y-23727000D01*
X26733747Y-23660632D01*
X27048041Y-23530447D01*
X27222104Y-23414142D01*
X27282394Y-23487606D01*
X27408321Y-23590952D01*
X27551990Y-23667745D01*
X27707880Y-23715034D01*
X27870000Y-23731001D01*
X29670000Y-23731001D01*
X29832120Y-23715034D01*
X29988010Y-23667745D01*
X30131679Y-23590952D01*
X30257606Y-23487606D01*
X30360952Y-23361679D01*
X30437745Y-23218010D01*
X30485034Y-23062120D01*
X30501001Y-22900000D01*
X30501001Y-21100000D01*
X30485034Y-20937880D01*
X30437745Y-20781990D01*
X30360952Y-20638321D01*
X30257606Y-20512394D01*
X30131679Y-20409048D01*
X29988010Y-20332255D01*
X29832120Y-20284966D01*
X29827000Y-20284462D01*
X29827000Y-18704308D01*
X29848715Y-18663682D01*
X29910230Y-18460894D01*
X29931001Y-18250001D01*
X29931001Y-18245659D01*
X34279770Y-13896890D01*
X48058524Y-13896890D01*
X48103175Y-14044099D01*
X48228359Y-14306920D01*
X48402412Y-14540269D01*
X48618645Y-14735178D01*
X48868748Y-14884157D01*
X49143109Y-14981481D01*
X49373000Y-14860814D01*
X49373000Y-13667000D01*
X49627000Y-13667000D01*
X49627000Y-14860814D01*
X49856891Y-14981481D01*
X50131252Y-14884157D01*
X50381355Y-14735178D01*
X50597588Y-14540269D01*
X50771641Y-14306920D01*
X50896825Y-14044099D01*
X50941476Y-13896890D01*
X50820155Y-13667000D01*
X49627000Y-13667000D01*
X49373000Y-13667000D01*
X48179845Y-13667000D01*
X48058524Y-13896890D01*
X34279770Y-13896890D01*
X35849661Y-12327000D01*
X47971622Y-12327000D01*
X48062394Y-12437606D01*
X48188321Y-12540952D01*
X48331990Y-12617745D01*
X48341965Y-12620771D01*
X48228359Y-12773080D01*
X48103175Y-13035901D01*
X48058524Y-13183110D01*
X48179845Y-13413000D01*
X49373000Y-13413000D01*
X49373000Y-13393000D01*
X49627000Y-13393000D01*
X49627000Y-13413000D01*
X50820155Y-13413000D01*
X50941476Y-13183110D01*
X50896825Y-13035901D01*
X50771641Y-12773080D01*
X50658035Y-12620771D01*
X50668010Y-12617745D01*
X50811679Y-12540952D01*
X50937606Y-12437606D01*
X51040952Y-12311679D01*
X51117745Y-12168010D01*
X51165034Y-12012120D01*
X51181001Y-11850000D01*
X51181001Y-10150000D01*
X51165034Y-9987880D01*
X51117745Y-9831990D01*
X51040952Y-9688321D01*
X50937606Y-9562394D01*
X50811679Y-9459048D01*
X50668010Y-9382255D01*
X50512120Y-9334966D01*
X50350000Y-9318999D01*
X48650000Y-9318999D01*
X48487880Y-9334966D01*
X48331990Y-9382255D01*
X48188321Y-9459048D01*
X48062394Y-9562394D01*
X47971622Y-9673000D01*
X35365173Y-9673000D01*
X35299999Y-9666581D01*
X35234825Y-9673000D01*
X35234816Y-9673000D01*
X35039863Y-9692201D01*
X34789722Y-9768081D01*
X34559190Y-9891302D01*
X34456501Y-9975578D01*
X34357130Y-10057130D01*
X34315579Y-10107760D01*
X28154341Y-16268999D01*
X28149999Y-16268999D01*
X27939106Y-16289770D01*
X27736318Y-16351285D01*
X27549428Y-16451180D01*
X27500000Y-16491745D01*
X27450572Y-16451180D01*
X27263682Y-16351285D01*
X27060894Y-16289770D01*
X26850001Y-16268999D01*
X26149999Y-16268999D01*
X25939106Y-16289770D01*
X25736318Y-16351285D01*
X25549428Y-16451180D01*
X25385617Y-16585617D01*
X25251180Y-16749428D01*
X25151285Y-16936318D01*
X25089770Y-17139106D01*
X25068999Y-17349999D01*
X25068999Y-18250001D01*
X25089770Y-18460894D01*
X25151285Y-18663682D01*
X25156266Y-18673000D01*
X13749661Y-18673000D01*
X12527000Y-17450340D01*
X12527000Y-12465174D01*
X12533419Y-12400000D01*
X12527000Y-12334826D01*
X12527000Y-12334816D01*
X12507799Y-12139863D01*
X12431919Y-11889722D01*
X12352323Y-11740808D01*
X12308698Y-11659191D01*
X12184423Y-11507761D01*
X12184416Y-11507754D01*
X12142870Y-11457130D01*
X12092245Y-11415583D01*
X10744425Y-10067765D01*
X10702870Y-10017130D01*
X10500808Y-9851302D01*
X10270278Y-9728081D01*
X10020137Y-9652201D01*
X9825184Y-9633000D01*
X9825174Y-9633000D01*
X9760000Y-9626581D01*
X9694826Y-9633000D01*
X6632524Y-9633000D01*
X6394357Y-9473862D01*
X6089163Y-9347446D01*
X5765170Y-9283000D01*
X5434830Y-9283000D01*
X5110837Y-9347446D01*
X4805643Y-9473862D01*
X4530975Y-9657389D01*
X4297389Y-9890975D01*
X4113862Y-10165643D01*
X3987446Y-10470837D01*
X3923000Y-10794830D01*
X1852000Y-10794830D01*
X1852000Y-5041672D01*
X1879523Y-4760961D01*
X2573000Y-4760961D01*
X2573000Y-5239039D01*
X2666268Y-5707930D01*
X2849221Y-6149615D01*
X3114826Y-6547122D01*
X3452878Y-6885174D01*
X3850385Y-7150779D01*
X4292070Y-7333732D01*
X4760961Y-7427000D01*
X5239039Y-7427000D01*
X5707930Y-7333732D01*
X6149615Y-7150779D01*
X6547122Y-6885174D01*
X6885174Y-6547122D01*
X7150779Y-6149615D01*
X7333732Y-5707930D01*
X7427000Y-5239039D01*
X7427000Y-4760961D01*
X47573000Y-4760961D01*
X47573000Y-5239039D01*
X47666268Y-5707930D01*
X47849221Y-6149615D01*
X48114826Y-6547122D01*
X48452878Y-6885174D01*
X48850385Y-7150779D01*
X49292070Y-7333732D01*
X49760961Y-7427000D01*
X50239039Y-7427000D01*
X50707930Y-7333732D01*
X51149615Y-7150779D01*
X51547122Y-6885174D01*
X51885174Y-6547122D01*
X52150779Y-6149615D01*
X52333732Y-5707930D01*
X52427000Y-5239039D01*
X52427000Y-4760961D01*
X52333732Y-4292070D01*
X52150779Y-3850385D01*
X51885174Y-3452878D01*
X51547122Y-3114826D01*
X51149615Y-2849221D01*
X50707930Y-2666268D01*
X50239039Y-2573000D01*
X49760961Y-2573000D01*
X49292070Y-2666268D01*
X48850385Y-2849221D01*
X48452878Y-3114826D01*
X48114826Y-3452878D01*
X47849221Y-3850385D01*
X47666268Y-4292070D01*
X47573000Y-4760961D01*
X7427000Y-4760961D01*
X7333732Y-4292070D01*
X7150779Y-3850385D01*
X6885174Y-3452878D01*
X6547122Y-3114826D01*
X6149615Y-2849221D01*
X5707930Y-2666268D01*
X5239039Y-2573000D01*
X4760961Y-2573000D01*
X4292070Y-2666268D01*
X3850385Y-2849221D01*
X3452878Y-3114826D01*
X3114826Y-3452878D01*
X2849221Y-3850385D01*
X2666268Y-4292070D01*
X2573000Y-4760961D01*
X1879523Y-4760961D01*
X1915961Y-4389342D01*
X2093307Y-3801946D01*
X2381366Y-3260187D01*
X2769173Y-2784688D01*
X3241945Y-2393577D01*
X3781687Y-2101740D01*
X4367825Y-1920300D01*
X5017654Y-1852000D01*
X49958328Y-1852000D01*
X50610658Y-1915961D01*
G37*
%TD.AperFunction*%
%TD*%
M02*
