%TF.GenerationSoftware,KiCad,Pcbnew,5.1.10*%
%TF.CreationDate,2021-10-16T17:53:11-04:00*%
%TF.ProjectId,shutter_tester,73687574-7465-4725-9f74-65737465722e,rev?*%
%TF.SameCoordinates,PX7bfa480PY5f5e100*%
%TF.FileFunction,Copper,L2,Bot*%
%TF.FilePolarity,Positive*%
%FSLAX46Y46*%
G04 Gerber Fmt 4.6, Leading zero omitted, Abs format (unit mm)*
G04 Created by KiCad (PCBNEW 5.1.10) date 2021-10-16 17:53:11*
%MOMM*%
%LPD*%
G01*
G04 APERTURE LIST*
%TA.AperFunction,ComponentPad*%
%ADD10O,1.700000X1.700000*%
%TD*%
%TA.AperFunction,ComponentPad*%
%ADD11R,1.700000X1.700000*%
%TD*%
%TA.AperFunction,SMDPad,CuDef*%
%ADD12R,0.800000X0.900000*%
%TD*%
%TA.AperFunction,Conductor*%
%ADD13C,0.750000*%
%TD*%
%TA.AperFunction,Conductor*%
%ADD14C,0.254000*%
%TD*%
%TA.AperFunction,Conductor*%
%ADD15C,0.100000*%
%TD*%
G04 APERTURE END LIST*
%TO.P,R7,2*%
%TO.N,GND*%
%TA.AperFunction,SMDPad,CuDef*%
G36*
G01*
X18975000Y-21487500D02*
X18975000Y-21962500D01*
G75*
G02*
X18737500Y-22200000I-237500J0D01*
G01*
X18237500Y-22200000D01*
G75*
G02*
X18000000Y-21962500I0J237500D01*
G01*
X18000000Y-21487500D01*
G75*
G02*
X18237500Y-21250000I237500J0D01*
G01*
X18737500Y-21250000D01*
G75*
G02*
X18975000Y-21487500I0J-237500D01*
G01*
G37*
%TD.AperFunction*%
%TO.P,R7,1*%
%TO.N,Net-(D1-Pad2)*%
%TA.AperFunction,SMDPad,CuDef*%
G36*
G01*
X20800000Y-21487500D02*
X20800000Y-21962500D01*
G75*
G02*
X20562500Y-22200000I-237500J0D01*
G01*
X20062500Y-22200000D01*
G75*
G02*
X19825000Y-21962500I0J237500D01*
G01*
X19825000Y-21487500D01*
G75*
G02*
X20062500Y-21250000I237500J0D01*
G01*
X20562500Y-21250000D01*
G75*
G02*
X20800000Y-21487500I0J-237500D01*
G01*
G37*
%TD.AperFunction*%
%TD*%
%TO.P,D1,2*%
%TO.N,Net-(D1-Pad2)*%
%TA.AperFunction,SMDPad,CuDef*%
G36*
G01*
X26650000Y-21349999D02*
X26650000Y-22250001D01*
G75*
G02*
X26400001Y-22500000I-249999J0D01*
G01*
X25749999Y-22500000D01*
G75*
G02*
X25500000Y-22250001I0J249999D01*
G01*
X25500000Y-21349999D01*
G75*
G02*
X25749999Y-21100000I249999J0D01*
G01*
X26400001Y-21100000D01*
G75*
G02*
X26650000Y-21349999I0J-249999D01*
G01*
G37*
%TD.AperFunction*%
%TO.P,D1,1*%
%TO.N,VCC*%
%TA.AperFunction,SMDPad,CuDef*%
G36*
G01*
X28700000Y-21349999D02*
X28700000Y-22250001D01*
G75*
G02*
X28450001Y-22500000I-249999J0D01*
G01*
X27799999Y-22500000D01*
G75*
G02*
X27550000Y-22250001I0J249999D01*
G01*
X27550000Y-21349999D01*
G75*
G02*
X27799999Y-21100000I249999J0D01*
G01*
X28450001Y-21100000D01*
G75*
G02*
X28700000Y-21349999I0J-249999D01*
G01*
G37*
%TD.AperFunction*%
%TD*%
%TO.P,JP1,2*%
%TO.N,/OUTPUT*%
%TA.AperFunction,SMDPad,CuDef*%
G36*
G01*
X9400000Y-22700000D02*
X10650000Y-22700000D01*
G75*
G02*
X10900000Y-22950000I0J-250000D01*
G01*
X10900000Y-23750000D01*
G75*
G02*
X10650000Y-24000000I-250000J0D01*
G01*
X9400000Y-24000000D01*
G75*
G02*
X9150000Y-23750000I0J250000D01*
G01*
X9150000Y-22950000D01*
G75*
G02*
X9400000Y-22700000I250000J0D01*
G01*
G37*
%TD.AperFunction*%
%TO.P,JP1,1*%
%TO.N,Net-(JP1-Pad1)*%
%TA.AperFunction,SMDPad,CuDef*%
G36*
G01*
X9400000Y-19600000D02*
X10650000Y-19600000D01*
G75*
G02*
X10900000Y-19850000I0J-250000D01*
G01*
X10900000Y-20650000D01*
G75*
G02*
X10650000Y-20900000I-250000J0D01*
G01*
X9400000Y-20900000D01*
G75*
G02*
X9150000Y-20650000I0J250000D01*
G01*
X9150000Y-19850000D01*
G75*
G02*
X9400000Y-19600000I250000J0D01*
G01*
G37*
%TD.AperFunction*%
%TD*%
%TO.P,R2,2*%
%TO.N,Net-(JP1-Pad1)*%
%TA.AperFunction,SMDPad,CuDef*%
G36*
G01*
X23900000Y-18450000D02*
X22650000Y-18450000D01*
G75*
G02*
X22400000Y-18200000I0J250000D01*
G01*
X22400000Y-17400000D01*
G75*
G02*
X22650000Y-17150000I250000J0D01*
G01*
X23900000Y-17150000D01*
G75*
G02*
X24150000Y-17400000I0J-250000D01*
G01*
X24150000Y-18200000D01*
G75*
G02*
X23900000Y-18450000I-250000J0D01*
G01*
G37*
%TD.AperFunction*%
%TO.P,R2,1*%
%TO.N,Net-(R2-Pad1)*%
%TA.AperFunction,SMDPad,CuDef*%
G36*
G01*
X23900000Y-21550000D02*
X22650000Y-21550000D01*
G75*
G02*
X22400000Y-21300000I0J250000D01*
G01*
X22400000Y-20500000D01*
G75*
G02*
X22650000Y-20250000I250000J0D01*
G01*
X23900000Y-20250000D01*
G75*
G02*
X24150000Y-20500000I0J-250000D01*
G01*
X24150000Y-21300000D01*
G75*
G02*
X23900000Y-21550000I-250000J0D01*
G01*
G37*
%TD.AperFunction*%
%TD*%
%TO.P,R4,2*%
%TO.N,Net-(R3-Pad1)*%
%TA.AperFunction,SMDPad,CuDef*%
G36*
G01*
X16275000Y-26300000D02*
X17525000Y-26300000D01*
G75*
G02*
X17775000Y-26550000I0J-250000D01*
G01*
X17775000Y-27350000D01*
G75*
G02*
X17525000Y-27600000I-250000J0D01*
G01*
X16275000Y-27600000D01*
G75*
G02*
X16025000Y-27350000I0J250000D01*
G01*
X16025000Y-26550000D01*
G75*
G02*
X16275000Y-26300000I250000J0D01*
G01*
G37*
%TD.AperFunction*%
%TO.P,R4,1*%
%TO.N,GND*%
%TA.AperFunction,SMDPad,CuDef*%
G36*
G01*
X16275000Y-23200000D02*
X17525000Y-23200000D01*
G75*
G02*
X17775000Y-23450000I0J-250000D01*
G01*
X17775000Y-24250000D01*
G75*
G02*
X17525000Y-24500000I-250000J0D01*
G01*
X16275000Y-24500000D01*
G75*
G02*
X16025000Y-24250000I0J250000D01*
G01*
X16025000Y-23450000D01*
G75*
G02*
X16275000Y-23200000I250000J0D01*
G01*
G37*
%TD.AperFunction*%
%TD*%
%TO.P,R3,2*%
%TO.N,VCC*%
%TA.AperFunction,SMDPad,CuDef*%
G36*
G01*
X28475000Y-32175000D02*
X28475000Y-30925000D01*
G75*
G02*
X28725000Y-30675000I250000J0D01*
G01*
X29525000Y-30675000D01*
G75*
G02*
X29775000Y-30925000I0J-250000D01*
G01*
X29775000Y-32175000D01*
G75*
G02*
X29525000Y-32425000I-250000J0D01*
G01*
X28725000Y-32425000D01*
G75*
G02*
X28475000Y-32175000I0J250000D01*
G01*
G37*
%TD.AperFunction*%
%TO.P,R3,1*%
%TO.N,Net-(R3-Pad1)*%
%TA.AperFunction,SMDPad,CuDef*%
G36*
G01*
X25375000Y-32175000D02*
X25375000Y-30925000D01*
G75*
G02*
X25625000Y-30675000I250000J0D01*
G01*
X26425000Y-30675000D01*
G75*
G02*
X26675000Y-30925000I0J-250000D01*
G01*
X26675000Y-32175000D01*
G75*
G02*
X26425000Y-32425000I-250000J0D01*
G01*
X25625000Y-32425000D01*
G75*
G02*
X25375000Y-32175000I0J250000D01*
G01*
G37*
%TD.AperFunction*%
%TD*%
%TO.P,C1,2*%
%TO.N,GND*%
%TA.AperFunction,SMDPad,CuDef*%
G36*
G01*
X31375000Y-28875000D02*
X31375000Y-27925000D01*
G75*
G02*
X31625000Y-27675000I250000J0D01*
G01*
X32300000Y-27675000D01*
G75*
G02*
X32550000Y-27925000I0J-250000D01*
G01*
X32550000Y-28875000D01*
G75*
G02*
X32300000Y-29125000I-250000J0D01*
G01*
X31625000Y-29125000D01*
G75*
G02*
X31375000Y-28875000I0J250000D01*
G01*
G37*
%TD.AperFunction*%
%TO.P,C1,1*%
%TO.N,VCC*%
%TA.AperFunction,SMDPad,CuDef*%
G36*
G01*
X29300000Y-28875000D02*
X29300000Y-27925000D01*
G75*
G02*
X29550000Y-27675000I250000J0D01*
G01*
X30225000Y-27675000D01*
G75*
G02*
X30475000Y-27925000I0J-250000D01*
G01*
X30475000Y-28875000D01*
G75*
G02*
X30225000Y-29125000I-250000J0D01*
G01*
X29550000Y-29125000D01*
G75*
G02*
X29300000Y-28875000I0J250000D01*
G01*
G37*
%TD.AperFunction*%
%TD*%
%TO.P,R6,2*%
%TO.N,VCC*%
%TA.AperFunction,SMDPad,CuDef*%
G36*
G01*
X28500000Y-35100001D02*
X28500000Y-34199999D01*
G75*
G02*
X28749999Y-33950000I249999J0D01*
G01*
X29450001Y-33950000D01*
G75*
G02*
X29700000Y-34199999I0J-249999D01*
G01*
X29700000Y-35100001D01*
G75*
G02*
X29450001Y-35350000I-249999J0D01*
G01*
X28749999Y-35350000D01*
G75*
G02*
X28500000Y-35100001I0J249999D01*
G01*
G37*
%TD.AperFunction*%
%TO.P,R6,1*%
%TO.N,/OUTPUT*%
%TA.AperFunction,SMDPad,CuDef*%
G36*
G01*
X26500000Y-35100001D02*
X26500000Y-34199999D01*
G75*
G02*
X26749999Y-33950000I249999J0D01*
G01*
X27450001Y-33950000D01*
G75*
G02*
X27700000Y-34199999I0J-249999D01*
G01*
X27700000Y-35100001D01*
G75*
G02*
X27450001Y-35350000I-249999J0D01*
G01*
X26749999Y-35350000D01*
G75*
G02*
X26500000Y-35100001I0J249999D01*
G01*
G37*
%TD.AperFunction*%
%TD*%
D10*
%TO.P,J1,4*%
%TO.N,GND*%
X24580000Y-38975000D03*
%TO.P,J1,3*%
%TO.N,/OUTPUT*%
X27120000Y-38975000D03*
%TO.P,J1,2*%
%TO.N,GND*%
X29660000Y-38975000D03*
D11*
%TO.P,J1,1*%
%TO.N,VCC*%
X32200000Y-38975000D03*
%TD*%
%TO.P,U1,8*%
%TO.N,VCC*%
%TA.AperFunction,SMDPad,CuDef*%
G36*
G01*
X26100000Y-28555000D02*
X26100000Y-28255000D01*
G75*
G02*
X26250000Y-28105000I150000J0D01*
G01*
X27600000Y-28105000D01*
G75*
G02*
X27750000Y-28255000I0J-150000D01*
G01*
X27750000Y-28555000D01*
G75*
G02*
X27600000Y-28705000I-150000J0D01*
G01*
X26250000Y-28705000D01*
G75*
G02*
X26100000Y-28555000I0J150000D01*
G01*
G37*
%TD.AperFunction*%
%TO.P,U1,7*%
%TO.N,GND*%
%TA.AperFunction,SMDPad,CuDef*%
G36*
G01*
X26100000Y-27285000D02*
X26100000Y-26985000D01*
G75*
G02*
X26250000Y-26835000I150000J0D01*
G01*
X27600000Y-26835000D01*
G75*
G02*
X27750000Y-26985000I0J-150000D01*
G01*
X27750000Y-27285000D01*
G75*
G02*
X27600000Y-27435000I-150000J0D01*
G01*
X26250000Y-27435000D01*
G75*
G02*
X26100000Y-27285000I0J150000D01*
G01*
G37*
%TD.AperFunction*%
%TO.P,U1,6*%
%TA.AperFunction,SMDPad,CuDef*%
G36*
G01*
X26100000Y-26015000D02*
X26100000Y-25715000D01*
G75*
G02*
X26250000Y-25565000I150000J0D01*
G01*
X27600000Y-25565000D01*
G75*
G02*
X27750000Y-25715000I0J-150000D01*
G01*
X27750000Y-26015000D01*
G75*
G02*
X27600000Y-26165000I-150000J0D01*
G01*
X26250000Y-26165000D01*
G75*
G02*
X26100000Y-26015000I0J150000D01*
G01*
G37*
%TD.AperFunction*%
%TO.P,U1,5*%
%TA.AperFunction,SMDPad,CuDef*%
G36*
G01*
X26100000Y-24745000D02*
X26100000Y-24445000D01*
G75*
G02*
X26250000Y-24295000I150000J0D01*
G01*
X27600000Y-24295000D01*
G75*
G02*
X27750000Y-24445000I0J-150000D01*
G01*
X27750000Y-24745000D01*
G75*
G02*
X27600000Y-24895000I-150000J0D01*
G01*
X26250000Y-24895000D01*
G75*
G02*
X26100000Y-24745000I0J150000D01*
G01*
G37*
%TD.AperFunction*%
%TO.P,U1,4*%
%TA.AperFunction,SMDPad,CuDef*%
G36*
G01*
X20850000Y-24745000D02*
X20850000Y-24445000D01*
G75*
G02*
X21000000Y-24295000I150000J0D01*
G01*
X22350000Y-24295000D01*
G75*
G02*
X22500000Y-24445000I0J-150000D01*
G01*
X22500000Y-24745000D01*
G75*
G02*
X22350000Y-24895000I-150000J0D01*
G01*
X21000000Y-24895000D01*
G75*
G02*
X20850000Y-24745000I0J150000D01*
G01*
G37*
%TD.AperFunction*%
%TO.P,U1,3*%
%TO.N,Net-(R2-Pad1)*%
%TA.AperFunction,SMDPad,CuDef*%
G36*
G01*
X20850000Y-26015000D02*
X20850000Y-25715000D01*
G75*
G02*
X21000000Y-25565000I150000J0D01*
G01*
X22350000Y-25565000D01*
G75*
G02*
X22500000Y-25715000I0J-150000D01*
G01*
X22500000Y-26015000D01*
G75*
G02*
X22350000Y-26165000I-150000J0D01*
G01*
X21000000Y-26165000D01*
G75*
G02*
X20850000Y-26015000I0J150000D01*
G01*
G37*
%TD.AperFunction*%
%TO.P,U1,2*%
%TO.N,Net-(R3-Pad1)*%
%TA.AperFunction,SMDPad,CuDef*%
G36*
G01*
X20850000Y-27285000D02*
X20850000Y-26985000D01*
G75*
G02*
X21000000Y-26835000I150000J0D01*
G01*
X22350000Y-26835000D01*
G75*
G02*
X22500000Y-26985000I0J-150000D01*
G01*
X22500000Y-27285000D01*
G75*
G02*
X22350000Y-27435000I-150000J0D01*
G01*
X21000000Y-27435000D01*
G75*
G02*
X20850000Y-27285000I0J150000D01*
G01*
G37*
%TD.AperFunction*%
%TO.P,U1,1*%
%TO.N,/OUTPUT*%
%TA.AperFunction,SMDPad,CuDef*%
G36*
G01*
X20850000Y-28555000D02*
X20850000Y-28255000D01*
G75*
G02*
X21000000Y-28105000I150000J0D01*
G01*
X22350000Y-28105000D01*
G75*
G02*
X22500000Y-28255000I0J-150000D01*
G01*
X22500000Y-28555000D01*
G75*
G02*
X22350000Y-28705000I-150000J0D01*
G01*
X21000000Y-28705000D01*
G75*
G02*
X20850000Y-28555000I0J150000D01*
G01*
G37*
%TD.AperFunction*%
%TD*%
%TO.P,R5,2*%
%TO.N,Net-(R2-Pad1)*%
%TA.AperFunction,SMDPad,CuDef*%
G36*
G01*
X14262500Y-27050000D02*
X13787500Y-27050000D01*
G75*
G02*
X13550000Y-26812500I0J237500D01*
G01*
X13550000Y-26312500D01*
G75*
G02*
X13787500Y-26075000I237500J0D01*
G01*
X14262500Y-26075000D01*
G75*
G02*
X14500000Y-26312500I0J-237500D01*
G01*
X14500000Y-26812500D01*
G75*
G02*
X14262500Y-27050000I-237500J0D01*
G01*
G37*
%TD.AperFunction*%
%TO.P,R5,1*%
%TO.N,/OUTPUT*%
%TA.AperFunction,SMDPad,CuDef*%
G36*
G01*
X14262500Y-28875000D02*
X13787500Y-28875000D01*
G75*
G02*
X13550000Y-28637500I0J237500D01*
G01*
X13550000Y-28137500D01*
G75*
G02*
X13787500Y-27900000I237500J0D01*
G01*
X14262500Y-27900000D01*
G75*
G02*
X14500000Y-28137500I0J-237500D01*
G01*
X14500000Y-28637500D01*
G75*
G02*
X14262500Y-28875000I-237500J0D01*
G01*
G37*
%TD.AperFunction*%
%TD*%
D12*
%TO.P,Q1,3*%
%TO.N,Net-(JP1-Pad1)*%
X19350000Y-17800000D03*
%TO.P,Q1,2*%
%TO.N,GND*%
X18400000Y-19800000D03*
%TO.P,Q1,1*%
%TO.N,Net-(D1-Pad2)*%
X20300000Y-19800000D03*
%TD*%
%TO.P,R1,2*%
%TO.N,Net-(JP1-Pad1)*%
%TA.AperFunction,SMDPad,CuDef*%
G36*
G01*
X27100000Y-17349999D02*
X27100000Y-18250001D01*
G75*
G02*
X26850001Y-18500000I-249999J0D01*
G01*
X26149999Y-18500000D01*
G75*
G02*
X25900000Y-18250001I0J249999D01*
G01*
X25900000Y-17349999D01*
G75*
G02*
X26149999Y-17100000I249999J0D01*
G01*
X26850001Y-17100000D01*
G75*
G02*
X27100000Y-17349999I0J-249999D01*
G01*
G37*
%TD.AperFunction*%
%TO.P,R1,1*%
%TO.N,VCC*%
%TA.AperFunction,SMDPad,CuDef*%
G36*
G01*
X29100000Y-17349999D02*
X29100000Y-18250001D01*
G75*
G02*
X28850001Y-18500000I-249999J0D01*
G01*
X28149999Y-18500000D01*
G75*
G02*
X27900000Y-18250001I0J249999D01*
G01*
X27900000Y-17349999D01*
G75*
G02*
X28149999Y-17100000I249999J0D01*
G01*
X28850001Y-17100000D01*
G75*
G02*
X29100000Y-17349999I0J-249999D01*
G01*
G37*
%TD.AperFunction*%
%TD*%
D13*
%TO.N,VCC*%
X29875000Y-28412500D02*
X29887500Y-28400000D01*
X29882500Y-28405000D02*
X29887500Y-28400000D01*
X26925000Y-28405000D02*
X29882500Y-28405000D01*
X32200000Y-37750000D02*
X29100000Y-34650000D01*
X32200000Y-38975000D02*
X32200000Y-37750000D01*
X29100000Y-31575000D02*
X29125000Y-31550000D01*
X29100000Y-34650000D02*
X29100000Y-31575000D01*
X29125000Y-30605000D02*
X26925000Y-28405000D01*
X29125000Y-31550000D02*
X29125000Y-30605000D01*
X25675000Y-23375000D02*
X27250000Y-23375000D01*
X25200000Y-23850000D02*
X25675000Y-23375000D01*
X25200000Y-27650000D02*
X25200000Y-23850000D01*
X25955000Y-28405000D02*
X25200000Y-27650000D01*
X26925000Y-28405000D02*
X25955000Y-28405000D01*
X28125000Y-22500000D02*
X27250000Y-23375000D01*
X28125000Y-21800000D02*
X28125000Y-22500000D01*
X28500000Y-21425000D02*
X28125000Y-21800000D01*
X28500000Y-17800000D02*
X28500000Y-21425000D01*
%TO.N,Net-(D1-Pad2)*%
X20300000Y-21712500D02*
X20312500Y-21725000D01*
X20300000Y-19800000D02*
X20300000Y-21712500D01*
X26075000Y-21800000D02*
X26075000Y-20125000D01*
X26075000Y-20125000D02*
X25300000Y-19350000D01*
X20750000Y-19350000D02*
X20300000Y-19800000D01*
X25300000Y-19350000D02*
X20750000Y-19350000D01*
%TO.N,/OUTPUT*%
X27120000Y-34670000D02*
X27100000Y-34650000D01*
X27120000Y-38975000D02*
X27120000Y-34670000D01*
%TO.N,Net-(JP1-Pad1)*%
X26500000Y-17800000D02*
X23275000Y-17800000D01*
X23275000Y-17800000D02*
X19350000Y-17800000D01*
X19350000Y-17800000D02*
X11000000Y-17800000D01*
X10025000Y-18775000D02*
X10025000Y-20250000D01*
X11000000Y-17800000D02*
X10025000Y-18775000D01*
%TO.N,Net-(R2-Pad1)*%
X19715000Y-25865000D02*
X21675000Y-25865000D01*
X19250000Y-25400000D02*
X19715000Y-25865000D01*
X15187500Y-25400000D02*
X19250000Y-25400000D01*
X14025000Y-26562500D02*
X15187500Y-25400000D01*
X23400000Y-21025000D02*
X23275000Y-20900000D01*
X23400000Y-25375000D02*
X23400000Y-21025000D01*
X22910000Y-25865000D02*
X23400000Y-25375000D01*
X21675000Y-25865000D02*
X22910000Y-25865000D01*
%TO.N,Net-(R3-Pad1)*%
X21675000Y-27135000D02*
X19335000Y-27135000D01*
X19150000Y-26950000D02*
X16900000Y-26950000D01*
X19335000Y-27135000D02*
X19150000Y-26950000D01*
X26025000Y-31475000D02*
X26025000Y-31550000D01*
X26025000Y-30450000D02*
X26025000Y-31475000D01*
X22710000Y-27135000D02*
X26025000Y-30450000D01*
X21675000Y-27135000D02*
X22710000Y-27135000D01*
%TO.N,/OUTPUT*%
X14025000Y-28387500D02*
X10862500Y-28387500D01*
X10025000Y-27550000D02*
X10025000Y-23350000D01*
X10862500Y-28387500D02*
X10025000Y-27550000D01*
X25700000Y-34650000D02*
X21675000Y-30625000D01*
X21675000Y-30625000D02*
X21675000Y-28405000D01*
X27100000Y-34650000D02*
X25700000Y-34650000D01*
X14412500Y-28775000D02*
X14025000Y-28387500D01*
X21305000Y-28775000D02*
X14412500Y-28775000D01*
X21675000Y-28405000D02*
X21305000Y-28775000D01*
%TD*%
D14*
%TO.N,GND*%
X50648126Y-1726714D02*
X51271572Y-1914943D01*
X51846579Y-2220681D01*
X52351247Y-2632279D01*
X52766362Y-3134067D01*
X53076105Y-3706924D01*
X53268682Y-4329039D01*
X53340001Y-5007594D01*
X53340000Y-38967721D01*
X53273286Y-39648126D01*
X53085057Y-40271570D01*
X52779323Y-40846573D01*
X52367721Y-41351248D01*
X51865933Y-41766362D01*
X51293077Y-42076104D01*
X50670961Y-42268682D01*
X49992417Y-42340000D01*
X5032279Y-42340000D01*
X4351874Y-42273286D01*
X3728430Y-42085057D01*
X3153427Y-41779323D01*
X2648752Y-41367721D01*
X2233638Y-40865933D01*
X1923896Y-40293077D01*
X1731318Y-39670961D01*
X1660000Y-38992417D01*
X1660000Y-38779872D01*
X2765000Y-38779872D01*
X2765000Y-39220128D01*
X2850890Y-39651925D01*
X3019369Y-40058669D01*
X3263962Y-40424729D01*
X3575271Y-40736038D01*
X3941331Y-40980631D01*
X4348075Y-41149110D01*
X4779872Y-41235000D01*
X5220128Y-41235000D01*
X5651925Y-41149110D01*
X6058669Y-40980631D01*
X6424729Y-40736038D01*
X6736038Y-40424729D01*
X6980631Y-40058669D01*
X7149110Y-39651925D01*
X7212768Y-39331891D01*
X23138519Y-39331891D01*
X23235843Y-39606252D01*
X23384822Y-39856355D01*
X23579731Y-40072588D01*
X23813080Y-40246641D01*
X24075901Y-40371825D01*
X24223110Y-40416476D01*
X24453000Y-40295155D01*
X24453000Y-39102000D01*
X23259186Y-39102000D01*
X23138519Y-39331891D01*
X7212768Y-39331891D01*
X7235000Y-39220128D01*
X7235000Y-38779872D01*
X7202824Y-38618109D01*
X23138519Y-38618109D01*
X23259186Y-38848000D01*
X24453000Y-38848000D01*
X24453000Y-37654845D01*
X24223110Y-37533524D01*
X24075901Y-37578175D01*
X23813080Y-37703359D01*
X23579731Y-37877412D01*
X23384822Y-38093645D01*
X23235843Y-38343748D01*
X23138519Y-38618109D01*
X7202824Y-38618109D01*
X7149110Y-38348075D01*
X6980631Y-37941331D01*
X6736038Y-37575271D01*
X6424729Y-37263962D01*
X6058669Y-37019369D01*
X5651925Y-36850890D01*
X5220128Y-36765000D01*
X4779872Y-36765000D01*
X4348075Y-36850890D01*
X3941331Y-37019369D01*
X3575271Y-37263962D01*
X3263962Y-37575271D01*
X3019369Y-37941331D01*
X2850890Y-38348075D01*
X2765000Y-38779872D01*
X1660000Y-38779872D01*
X1660000Y-19850000D01*
X8511928Y-19850000D01*
X8511928Y-20650000D01*
X8528992Y-20823254D01*
X8579528Y-20989850D01*
X8661595Y-21143386D01*
X8772038Y-21277962D01*
X8906614Y-21388405D01*
X9060150Y-21470472D01*
X9226746Y-21521008D01*
X9400000Y-21538072D01*
X10650000Y-21538072D01*
X10823254Y-21521008D01*
X10989850Y-21470472D01*
X11143386Y-21388405D01*
X11277962Y-21277962D01*
X11388405Y-21143386D01*
X11470472Y-20989850D01*
X11521008Y-20823254D01*
X11538072Y-20650000D01*
X11538072Y-20250000D01*
X17361928Y-20250000D01*
X17374188Y-20374482D01*
X17410498Y-20494180D01*
X17469463Y-20604494D01*
X17548815Y-20701185D01*
X17608296Y-20750000D01*
X17548815Y-20798815D01*
X17469463Y-20895506D01*
X17410498Y-21005820D01*
X17374188Y-21125518D01*
X17361928Y-21250000D01*
X17365000Y-21439250D01*
X17523750Y-21598000D01*
X18360500Y-21598000D01*
X18360500Y-20773750D01*
X18273000Y-20686250D01*
X18273000Y-19927000D01*
X17523750Y-19927000D01*
X17365000Y-20085750D01*
X17361928Y-20250000D01*
X11538072Y-20250000D01*
X11538072Y-19850000D01*
X11521008Y-19676746D01*
X11470472Y-19510150D01*
X11388405Y-19356614D01*
X11277962Y-19222038D01*
X11143386Y-19111595D01*
X11126035Y-19102320D01*
X11418355Y-18810000D01*
X17663210Y-18810000D01*
X17645506Y-18819463D01*
X17548815Y-18898815D01*
X17469463Y-18995506D01*
X17410498Y-19105820D01*
X17374188Y-19225518D01*
X17361928Y-19350000D01*
X17365000Y-19514250D01*
X17523750Y-19673000D01*
X18273000Y-19673000D01*
X18273000Y-19653000D01*
X18527000Y-19653000D01*
X18527000Y-19673000D01*
X18547000Y-19673000D01*
X18547000Y-19927000D01*
X18527000Y-19927000D01*
X18527000Y-20726250D01*
X18614500Y-20813750D01*
X18614500Y-21598000D01*
X18634500Y-21598000D01*
X18634500Y-21852000D01*
X18614500Y-21852000D01*
X18614500Y-22676250D01*
X18773250Y-22835000D01*
X18975000Y-22838072D01*
X19099482Y-22825812D01*
X19219180Y-22789502D01*
X19329494Y-22730537D01*
X19426185Y-22651185D01*
X19467217Y-22601188D01*
X19576058Y-22690512D01*
X19727433Y-22771423D01*
X19891684Y-22821248D01*
X20062500Y-22838072D01*
X20562500Y-22838072D01*
X20733316Y-22821248D01*
X20897567Y-22771423D01*
X21048942Y-22690512D01*
X21181623Y-22581623D01*
X21258790Y-22487595D01*
X22156883Y-22038549D01*
X22310150Y-22120472D01*
X22390001Y-22144694D01*
X22390000Y-23657555D01*
X21960750Y-23660000D01*
X21802000Y-23818750D01*
X21802000Y-24468000D01*
X21822000Y-24468000D01*
X21822000Y-24722000D01*
X21802000Y-24722000D01*
X21802000Y-24742000D01*
X21548000Y-24742000D01*
X21548000Y-24722000D01*
X20373750Y-24722000D01*
X20240750Y-24855000D01*
X20133355Y-24855000D01*
X19999261Y-24720907D01*
X19967633Y-24682367D01*
X19813840Y-24556153D01*
X19638380Y-24462368D01*
X19447994Y-24404615D01*
X19299608Y-24390000D01*
X19250000Y-24385114D01*
X19200392Y-24390000D01*
X18412144Y-24390000D01*
X18411343Y-24295000D01*
X20211928Y-24295000D01*
X20215000Y-24309250D01*
X20373750Y-24468000D01*
X21548000Y-24468000D01*
X21548000Y-23818750D01*
X21389250Y-23660000D01*
X20850000Y-23656928D01*
X20725518Y-23669188D01*
X20605820Y-23705498D01*
X20495506Y-23764463D01*
X20398815Y-23843815D01*
X20319463Y-23940506D01*
X20260498Y-24050820D01*
X20224188Y-24170518D01*
X20211928Y-24295000D01*
X18411343Y-24295000D01*
X18410000Y-24135750D01*
X18251250Y-23977000D01*
X17027000Y-23977000D01*
X17027000Y-23997000D01*
X16773000Y-23997000D01*
X16773000Y-23977000D01*
X15548750Y-23977000D01*
X15390000Y-24135750D01*
X15387856Y-24390000D01*
X15237104Y-24390000D01*
X15187499Y-24385114D01*
X15137894Y-24390000D01*
X15137892Y-24390000D01*
X14989506Y-24404615D01*
X14799120Y-24462368D01*
X14623660Y-24556153D01*
X14469867Y-24682367D01*
X14438239Y-24720906D01*
X13715085Y-25444060D01*
X13616684Y-25453752D01*
X13452433Y-25503577D01*
X13301058Y-25584488D01*
X13168377Y-25693377D01*
X13059488Y-25826058D01*
X12978577Y-25977433D01*
X12928752Y-26141684D01*
X12911928Y-26312500D01*
X12911928Y-26812500D01*
X12928752Y-26983316D01*
X12978577Y-27147567D01*
X13059488Y-27298942D01*
X13123959Y-27377500D01*
X11280856Y-27377500D01*
X11035000Y-27131645D01*
X11035000Y-24546339D01*
X11143386Y-24488405D01*
X11277962Y-24377962D01*
X11388405Y-24243386D01*
X11470472Y-24089850D01*
X11521008Y-23923254D01*
X11538072Y-23750000D01*
X11538072Y-23200000D01*
X15386928Y-23200000D01*
X15390000Y-23564250D01*
X15548750Y-23723000D01*
X16773000Y-23723000D01*
X16773000Y-22723750D01*
X17027000Y-22723750D01*
X17027000Y-23723000D01*
X18251250Y-23723000D01*
X18410000Y-23564250D01*
X18413072Y-23200000D01*
X18400812Y-23075518D01*
X18364502Y-22955820D01*
X18305537Y-22845506D01*
X18254019Y-22782731D01*
X18360500Y-22676250D01*
X18360500Y-21852000D01*
X17523750Y-21852000D01*
X17365000Y-22010750D01*
X17361928Y-22200000D01*
X17374188Y-22324482D01*
X17410498Y-22444180D01*
X17469463Y-22554494D01*
X17476840Y-22563482D01*
X17185750Y-22565000D01*
X17027000Y-22723750D01*
X16773000Y-22723750D01*
X16614250Y-22565000D01*
X16025000Y-22561928D01*
X15900518Y-22574188D01*
X15780820Y-22610498D01*
X15670506Y-22669463D01*
X15573815Y-22748815D01*
X15494463Y-22845506D01*
X15435498Y-22955820D01*
X15399188Y-23075518D01*
X15386928Y-23200000D01*
X11538072Y-23200000D01*
X11538072Y-22950000D01*
X11521008Y-22776746D01*
X11470472Y-22610150D01*
X11388405Y-22456614D01*
X11277962Y-22322038D01*
X11143386Y-22211595D01*
X10989850Y-22129528D01*
X10823254Y-22078992D01*
X10650000Y-22061928D01*
X9400000Y-22061928D01*
X9226746Y-22078992D01*
X9060150Y-22129528D01*
X8906614Y-22211595D01*
X8772038Y-22322038D01*
X8661595Y-22456614D01*
X8579528Y-22610150D01*
X8528992Y-22776746D01*
X8511928Y-22950000D01*
X8511928Y-23750000D01*
X8528992Y-23923254D01*
X8579528Y-24089850D01*
X8661595Y-24243386D01*
X8772038Y-24377962D01*
X8906614Y-24488405D01*
X9015001Y-24546339D01*
X9015000Y-27500392D01*
X9010114Y-27550000D01*
X9029615Y-27747994D01*
X9083310Y-27925000D01*
X9087368Y-27938379D01*
X9181153Y-28113840D01*
X9307367Y-28267633D01*
X9345905Y-28299261D01*
X10113243Y-29066599D01*
X10144867Y-29105133D01*
X10298660Y-29231347D01*
X10474120Y-29325132D01*
X10664505Y-29382885D01*
X10862500Y-29402386D01*
X10912108Y-29397500D01*
X13360904Y-29397500D01*
X13452433Y-29446423D01*
X13616684Y-29496248D01*
X13710535Y-29505492D01*
X13848660Y-29618847D01*
X14024120Y-29712632D01*
X14030285Y-29714502D01*
X14214505Y-29770385D01*
X14412500Y-29789886D01*
X14462108Y-29785000D01*
X20665000Y-29785000D01*
X20665000Y-30575392D01*
X20660114Y-30625000D01*
X20679615Y-30822994D01*
X20729111Y-30986160D01*
X20737368Y-31013379D01*
X20831153Y-31188840D01*
X20957367Y-31342633D01*
X20995906Y-31374261D01*
X24950743Y-35329099D01*
X24982367Y-35367633D01*
X25136160Y-35493847D01*
X25287987Y-35575000D01*
X25311620Y-35587632D01*
X25502005Y-35645385D01*
X25700000Y-35664886D01*
X25749608Y-35660000D01*
X26066263Y-35660000D01*
X26110001Y-35713295D01*
X26110000Y-37884893D01*
X25966525Y-38028368D01*
X25844805Y-38210534D01*
X25775178Y-38093645D01*
X25580269Y-37877412D01*
X25346920Y-37703359D01*
X25084099Y-37578175D01*
X24936890Y-37533524D01*
X24707000Y-37654845D01*
X24707000Y-38848000D01*
X24727000Y-38848000D01*
X24727000Y-39102000D01*
X24707000Y-39102000D01*
X24707000Y-40295155D01*
X24936890Y-40416476D01*
X25084099Y-40371825D01*
X25346920Y-40246641D01*
X25580269Y-40072588D01*
X25775178Y-39856355D01*
X25844805Y-39739466D01*
X25966525Y-39921632D01*
X26173368Y-40128475D01*
X26416589Y-40290990D01*
X26686842Y-40402932D01*
X26973740Y-40460000D01*
X27266260Y-40460000D01*
X27553158Y-40402932D01*
X27823411Y-40290990D01*
X28066632Y-40128475D01*
X28273475Y-39921632D01*
X28395195Y-39739466D01*
X28464822Y-39856355D01*
X28659731Y-40072588D01*
X28893080Y-40246641D01*
X29155901Y-40371825D01*
X29303110Y-40416476D01*
X29533000Y-40295155D01*
X29533000Y-39102000D01*
X29513000Y-39102000D01*
X29513000Y-38848000D01*
X29533000Y-38848000D01*
X29533000Y-38828000D01*
X29787000Y-38828000D01*
X29787000Y-38848000D01*
X29807000Y-38848000D01*
X29807000Y-39102000D01*
X29787000Y-39102000D01*
X29787000Y-40295155D01*
X30016890Y-40416476D01*
X30164099Y-40371825D01*
X30426920Y-40246641D01*
X30660269Y-40072588D01*
X30736034Y-39988534D01*
X30760498Y-40069180D01*
X30819463Y-40179494D01*
X30898815Y-40276185D01*
X30995506Y-40355537D01*
X31105820Y-40414502D01*
X31225518Y-40450812D01*
X31350000Y-40463072D01*
X33050000Y-40463072D01*
X33174482Y-40450812D01*
X33294180Y-40414502D01*
X33404494Y-40355537D01*
X33501185Y-40276185D01*
X33580537Y-40179494D01*
X33639502Y-40069180D01*
X33675812Y-39949482D01*
X33688072Y-39825000D01*
X33688072Y-38779872D01*
X47765000Y-38779872D01*
X47765000Y-39220128D01*
X47850890Y-39651925D01*
X48019369Y-40058669D01*
X48263962Y-40424729D01*
X48575271Y-40736038D01*
X48941331Y-40980631D01*
X49348075Y-41149110D01*
X49779872Y-41235000D01*
X50220128Y-41235000D01*
X50651925Y-41149110D01*
X51058669Y-40980631D01*
X51424729Y-40736038D01*
X51736038Y-40424729D01*
X51980631Y-40058669D01*
X52149110Y-39651925D01*
X52235000Y-39220128D01*
X52235000Y-38779872D01*
X52149110Y-38348075D01*
X51980631Y-37941331D01*
X51736038Y-37575271D01*
X51424729Y-37263962D01*
X51058669Y-37019369D01*
X50651925Y-36850890D01*
X50220128Y-36765000D01*
X49779872Y-36765000D01*
X49348075Y-36850890D01*
X48941331Y-37019369D01*
X48575271Y-37263962D01*
X48263962Y-37575271D01*
X48019369Y-37941331D01*
X47850890Y-38348075D01*
X47765000Y-38779872D01*
X33688072Y-38779872D01*
X33688072Y-38125000D01*
X33675812Y-38000518D01*
X33639502Y-37880820D01*
X33580537Y-37770506D01*
X33501185Y-37673815D01*
X33404494Y-37594463D01*
X33294180Y-37535498D01*
X33179857Y-37500819D01*
X33137632Y-37361620D01*
X33043847Y-37186160D01*
X32917633Y-37032367D01*
X32879094Y-37000739D01*
X30338072Y-34459717D01*
X30338072Y-34199999D01*
X30321008Y-34026745D01*
X30270472Y-33860149D01*
X30188405Y-33706613D01*
X30110000Y-33611076D01*
X30110000Y-32838220D01*
X30152962Y-32802962D01*
X30263405Y-32668386D01*
X30345472Y-32514850D01*
X30396008Y-32348254D01*
X30413072Y-32175000D01*
X30413072Y-30925000D01*
X30396008Y-30751746D01*
X30345472Y-30585150D01*
X30263405Y-30431614D01*
X30152962Y-30297038D01*
X30065171Y-30224990D01*
X30062632Y-30216620D01*
X30046583Y-30186595D01*
X29968847Y-30041160D01*
X29842633Y-29887367D01*
X29804100Y-29855744D01*
X29711428Y-29763072D01*
X30225000Y-29763072D01*
X30398254Y-29746008D01*
X30564850Y-29695472D01*
X30718386Y-29613405D01*
X30852962Y-29502962D01*
X30858342Y-29496406D01*
X30923815Y-29576185D01*
X31020506Y-29655537D01*
X31130820Y-29714502D01*
X31250518Y-29750812D01*
X31375000Y-29763072D01*
X31676750Y-29760000D01*
X31835500Y-29601250D01*
X31835500Y-28527000D01*
X32089500Y-28527000D01*
X32089500Y-29601250D01*
X32248250Y-29760000D01*
X32550000Y-29763072D01*
X32674482Y-29750812D01*
X32794180Y-29714502D01*
X32904494Y-29655537D01*
X33001185Y-29576185D01*
X33080537Y-29479494D01*
X33139502Y-29369180D01*
X33175812Y-29249482D01*
X33188072Y-29125000D01*
X33185000Y-28685750D01*
X33026250Y-28527000D01*
X32089500Y-28527000D01*
X31835500Y-28527000D01*
X31815500Y-28527000D01*
X31815500Y-28273000D01*
X31835500Y-28273000D01*
X31835500Y-27198750D01*
X32089500Y-27198750D01*
X32089500Y-28273000D01*
X33026250Y-28273000D01*
X33185000Y-28114250D01*
X33188072Y-27675000D01*
X33175812Y-27550518D01*
X33139502Y-27430820D01*
X33080537Y-27320506D01*
X33001185Y-27223815D01*
X32904494Y-27144463D01*
X32794180Y-27085498D01*
X32674482Y-27049188D01*
X32550000Y-27036928D01*
X32248250Y-27040000D01*
X32089500Y-27198750D01*
X31835500Y-27198750D01*
X31676750Y-27040000D01*
X31375000Y-27036928D01*
X31250518Y-27049188D01*
X31130820Y-27085498D01*
X31020506Y-27144463D01*
X30923815Y-27223815D01*
X30858342Y-27303594D01*
X30852962Y-27297038D01*
X30718386Y-27186595D01*
X30564850Y-27104528D01*
X30398254Y-27053992D01*
X30225000Y-27036928D01*
X29550000Y-27036928D01*
X29376746Y-27053992D01*
X29210150Y-27104528D01*
X29056614Y-27186595D01*
X28922038Y-27297038D01*
X28841643Y-27395000D01*
X28359250Y-27395000D01*
X28226250Y-27262000D01*
X27052000Y-27262000D01*
X27052000Y-27282000D01*
X26798000Y-27282000D01*
X26798000Y-27262000D01*
X26778000Y-27262000D01*
X26778000Y-27008000D01*
X26798000Y-27008000D01*
X26798000Y-25992000D01*
X27052000Y-25992000D01*
X27052000Y-27008000D01*
X28226250Y-27008000D01*
X28385000Y-26849250D01*
X28388072Y-26835000D01*
X28375812Y-26710518D01*
X28339502Y-26590820D01*
X28290957Y-26500000D01*
X28339502Y-26409180D01*
X28375812Y-26289482D01*
X28388072Y-26165000D01*
X28385000Y-26150750D01*
X28226250Y-25992000D01*
X27052000Y-25992000D01*
X26798000Y-25992000D01*
X26778000Y-25992000D01*
X26778000Y-25738000D01*
X26798000Y-25738000D01*
X26798000Y-24722000D01*
X27052000Y-24722000D01*
X27052000Y-25738000D01*
X28226250Y-25738000D01*
X28385000Y-25579250D01*
X28388072Y-25565000D01*
X28375812Y-25440518D01*
X28339502Y-25320820D01*
X28290957Y-25230000D01*
X28339502Y-25139180D01*
X28375812Y-25019482D01*
X28388072Y-24895000D01*
X28385000Y-24880750D01*
X28226250Y-24722000D01*
X27052000Y-24722000D01*
X26798000Y-24722000D01*
X26778000Y-24722000D01*
X26778000Y-24468000D01*
X26798000Y-24468000D01*
X26798000Y-24448000D01*
X27052000Y-24448000D01*
X27052000Y-24468000D01*
X28226250Y-24468000D01*
X28385000Y-24309250D01*
X28388072Y-24295000D01*
X28375812Y-24170518D01*
X28339502Y-24050820D01*
X28280537Y-23940506D01*
X28204951Y-23848404D01*
X28804099Y-23249257D01*
X28842633Y-23217633D01*
X28968847Y-23063840D01*
X29060572Y-22892233D01*
X29077962Y-22877962D01*
X29188405Y-22743387D01*
X29270472Y-22589851D01*
X29321008Y-22423255D01*
X29338072Y-22250001D01*
X29338072Y-21995877D01*
X29343847Y-21988840D01*
X29437632Y-21813380D01*
X29495385Y-21622994D01*
X29510000Y-21474608D01*
X29510000Y-21474606D01*
X29514886Y-21425001D01*
X29510000Y-21375396D01*
X29510000Y-18838924D01*
X29588405Y-18743387D01*
X29670472Y-18589851D01*
X29721008Y-18423255D01*
X29738072Y-18250001D01*
X29738072Y-17349999D01*
X29721008Y-17176745D01*
X29670472Y-17010149D01*
X29588405Y-16856613D01*
X29477962Y-16722038D01*
X29343387Y-16611595D01*
X29189851Y-16529528D01*
X29023255Y-16478992D01*
X28850001Y-16461928D01*
X28149999Y-16461928D01*
X27976745Y-16478992D01*
X27810149Y-16529528D01*
X27656613Y-16611595D01*
X27522038Y-16722038D01*
X27500000Y-16748891D01*
X27477962Y-16722038D01*
X27343387Y-16611595D01*
X27189851Y-16529528D01*
X27023255Y-16478992D01*
X26850001Y-16461928D01*
X26149999Y-16461928D01*
X25976745Y-16478992D01*
X25810149Y-16529528D01*
X25656613Y-16611595D01*
X25522038Y-16722038D01*
X25466263Y-16790000D01*
X24542703Y-16790000D01*
X24527962Y-16772038D01*
X24393386Y-16661595D01*
X24239850Y-16579528D01*
X24073254Y-16528992D01*
X23900000Y-16511928D01*
X22650000Y-16511928D01*
X22476746Y-16528992D01*
X22310150Y-16579528D01*
X22156614Y-16661595D01*
X22022038Y-16772038D01*
X22007297Y-16790000D01*
X20049373Y-16790000D01*
X19994180Y-16760498D01*
X19874482Y-16724188D01*
X19750000Y-16711928D01*
X18950000Y-16711928D01*
X18825518Y-16724188D01*
X18705820Y-16760498D01*
X18650627Y-16790000D01*
X11049604Y-16790000D01*
X10999999Y-16785114D01*
X10950394Y-16790000D01*
X10950392Y-16790000D01*
X10802006Y-16804615D01*
X10611620Y-16862368D01*
X10436160Y-16956153D01*
X10282367Y-17082367D01*
X10250739Y-17120906D01*
X9345906Y-18025739D01*
X9307367Y-18057367D01*
X9181153Y-18211160D01*
X9104475Y-18354616D01*
X9087368Y-18386621D01*
X9029615Y-18577006D01*
X9010114Y-18775000D01*
X9015000Y-18824608D01*
X9015000Y-19053661D01*
X8906614Y-19111595D01*
X8772038Y-19222038D01*
X8661595Y-19356614D01*
X8579528Y-19510150D01*
X8528992Y-19676746D01*
X8511928Y-19850000D01*
X1660000Y-19850000D01*
X1660000Y-5032278D01*
X1684748Y-4779872D01*
X2765000Y-4779872D01*
X2765000Y-5220128D01*
X2850890Y-5651925D01*
X3019369Y-6058669D01*
X3263962Y-6424729D01*
X3575271Y-6736038D01*
X3941331Y-6980631D01*
X4348075Y-7149110D01*
X4779872Y-7235000D01*
X5220128Y-7235000D01*
X5651925Y-7149110D01*
X6058669Y-6980631D01*
X6424729Y-6736038D01*
X6736038Y-6424729D01*
X6980631Y-6058669D01*
X7149110Y-5651925D01*
X7235000Y-5220128D01*
X7235000Y-4779872D01*
X47765000Y-4779872D01*
X47765000Y-5220128D01*
X47850890Y-5651925D01*
X48019369Y-6058669D01*
X48263962Y-6424729D01*
X48575271Y-6736038D01*
X48941331Y-6980631D01*
X49348075Y-7149110D01*
X49779872Y-7235000D01*
X50220128Y-7235000D01*
X50651925Y-7149110D01*
X51058669Y-6980631D01*
X51424729Y-6736038D01*
X51736038Y-6424729D01*
X51980631Y-6058669D01*
X52149110Y-5651925D01*
X52235000Y-5220128D01*
X52235000Y-4779872D01*
X52149110Y-4348075D01*
X51980631Y-3941331D01*
X51736038Y-3575271D01*
X51424729Y-3263962D01*
X51058669Y-3019369D01*
X50651925Y-2850890D01*
X50220128Y-2765000D01*
X49779872Y-2765000D01*
X49348075Y-2850890D01*
X48941331Y-3019369D01*
X48575271Y-3263962D01*
X48263962Y-3575271D01*
X48019369Y-3941331D01*
X47850890Y-4348075D01*
X47765000Y-4779872D01*
X7235000Y-4779872D01*
X7149110Y-4348075D01*
X6980631Y-3941331D01*
X6736038Y-3575271D01*
X6424729Y-3263962D01*
X6058669Y-3019369D01*
X5651925Y-2850890D01*
X5220128Y-2765000D01*
X4779872Y-2765000D01*
X4348075Y-2850890D01*
X3941331Y-3019369D01*
X3575271Y-3263962D01*
X3263962Y-3575271D01*
X3019369Y-3941331D01*
X2850890Y-4348075D01*
X2765000Y-4779872D01*
X1684748Y-4779872D01*
X1726714Y-4351874D01*
X1914943Y-3728428D01*
X2220681Y-3153421D01*
X2632279Y-2648753D01*
X3134067Y-2233638D01*
X3706924Y-1923895D01*
X4329039Y-1731318D01*
X5007584Y-1660000D01*
X49967722Y-1660000D01*
X50648126Y-1726714D01*
%TA.AperFunction,Conductor*%
D15*
G36*
X50648126Y-1726714D02*
G01*
X51271572Y-1914943D01*
X51846579Y-2220681D01*
X52351247Y-2632279D01*
X52766362Y-3134067D01*
X53076105Y-3706924D01*
X53268682Y-4329039D01*
X53340001Y-5007594D01*
X53340000Y-38967721D01*
X53273286Y-39648126D01*
X53085057Y-40271570D01*
X52779323Y-40846573D01*
X52367721Y-41351248D01*
X51865933Y-41766362D01*
X51293077Y-42076104D01*
X50670961Y-42268682D01*
X49992417Y-42340000D01*
X5032279Y-42340000D01*
X4351874Y-42273286D01*
X3728430Y-42085057D01*
X3153427Y-41779323D01*
X2648752Y-41367721D01*
X2233638Y-40865933D01*
X1923896Y-40293077D01*
X1731318Y-39670961D01*
X1660000Y-38992417D01*
X1660000Y-38779872D01*
X2765000Y-38779872D01*
X2765000Y-39220128D01*
X2850890Y-39651925D01*
X3019369Y-40058669D01*
X3263962Y-40424729D01*
X3575271Y-40736038D01*
X3941331Y-40980631D01*
X4348075Y-41149110D01*
X4779872Y-41235000D01*
X5220128Y-41235000D01*
X5651925Y-41149110D01*
X6058669Y-40980631D01*
X6424729Y-40736038D01*
X6736038Y-40424729D01*
X6980631Y-40058669D01*
X7149110Y-39651925D01*
X7212768Y-39331891D01*
X23138519Y-39331891D01*
X23235843Y-39606252D01*
X23384822Y-39856355D01*
X23579731Y-40072588D01*
X23813080Y-40246641D01*
X24075901Y-40371825D01*
X24223110Y-40416476D01*
X24453000Y-40295155D01*
X24453000Y-39102000D01*
X23259186Y-39102000D01*
X23138519Y-39331891D01*
X7212768Y-39331891D01*
X7235000Y-39220128D01*
X7235000Y-38779872D01*
X7202824Y-38618109D01*
X23138519Y-38618109D01*
X23259186Y-38848000D01*
X24453000Y-38848000D01*
X24453000Y-37654845D01*
X24223110Y-37533524D01*
X24075901Y-37578175D01*
X23813080Y-37703359D01*
X23579731Y-37877412D01*
X23384822Y-38093645D01*
X23235843Y-38343748D01*
X23138519Y-38618109D01*
X7202824Y-38618109D01*
X7149110Y-38348075D01*
X6980631Y-37941331D01*
X6736038Y-37575271D01*
X6424729Y-37263962D01*
X6058669Y-37019369D01*
X5651925Y-36850890D01*
X5220128Y-36765000D01*
X4779872Y-36765000D01*
X4348075Y-36850890D01*
X3941331Y-37019369D01*
X3575271Y-37263962D01*
X3263962Y-37575271D01*
X3019369Y-37941331D01*
X2850890Y-38348075D01*
X2765000Y-38779872D01*
X1660000Y-38779872D01*
X1660000Y-19850000D01*
X8511928Y-19850000D01*
X8511928Y-20650000D01*
X8528992Y-20823254D01*
X8579528Y-20989850D01*
X8661595Y-21143386D01*
X8772038Y-21277962D01*
X8906614Y-21388405D01*
X9060150Y-21470472D01*
X9226746Y-21521008D01*
X9400000Y-21538072D01*
X10650000Y-21538072D01*
X10823254Y-21521008D01*
X10989850Y-21470472D01*
X11143386Y-21388405D01*
X11277962Y-21277962D01*
X11388405Y-21143386D01*
X11470472Y-20989850D01*
X11521008Y-20823254D01*
X11538072Y-20650000D01*
X11538072Y-20250000D01*
X17361928Y-20250000D01*
X17374188Y-20374482D01*
X17410498Y-20494180D01*
X17469463Y-20604494D01*
X17548815Y-20701185D01*
X17608296Y-20750000D01*
X17548815Y-20798815D01*
X17469463Y-20895506D01*
X17410498Y-21005820D01*
X17374188Y-21125518D01*
X17361928Y-21250000D01*
X17365000Y-21439250D01*
X17523750Y-21598000D01*
X18360500Y-21598000D01*
X18360500Y-20773750D01*
X18273000Y-20686250D01*
X18273000Y-19927000D01*
X17523750Y-19927000D01*
X17365000Y-20085750D01*
X17361928Y-20250000D01*
X11538072Y-20250000D01*
X11538072Y-19850000D01*
X11521008Y-19676746D01*
X11470472Y-19510150D01*
X11388405Y-19356614D01*
X11277962Y-19222038D01*
X11143386Y-19111595D01*
X11126035Y-19102320D01*
X11418355Y-18810000D01*
X17663210Y-18810000D01*
X17645506Y-18819463D01*
X17548815Y-18898815D01*
X17469463Y-18995506D01*
X17410498Y-19105820D01*
X17374188Y-19225518D01*
X17361928Y-19350000D01*
X17365000Y-19514250D01*
X17523750Y-19673000D01*
X18273000Y-19673000D01*
X18273000Y-19653000D01*
X18527000Y-19653000D01*
X18527000Y-19673000D01*
X18547000Y-19673000D01*
X18547000Y-19927000D01*
X18527000Y-19927000D01*
X18527000Y-20726250D01*
X18614500Y-20813750D01*
X18614500Y-21598000D01*
X18634500Y-21598000D01*
X18634500Y-21852000D01*
X18614500Y-21852000D01*
X18614500Y-22676250D01*
X18773250Y-22835000D01*
X18975000Y-22838072D01*
X19099482Y-22825812D01*
X19219180Y-22789502D01*
X19329494Y-22730537D01*
X19426185Y-22651185D01*
X19467217Y-22601188D01*
X19576058Y-22690512D01*
X19727433Y-22771423D01*
X19891684Y-22821248D01*
X20062500Y-22838072D01*
X20562500Y-22838072D01*
X20733316Y-22821248D01*
X20897567Y-22771423D01*
X21048942Y-22690512D01*
X21181623Y-22581623D01*
X21258790Y-22487595D01*
X22156883Y-22038549D01*
X22310150Y-22120472D01*
X22390001Y-22144694D01*
X22390000Y-23657555D01*
X21960750Y-23660000D01*
X21802000Y-23818750D01*
X21802000Y-24468000D01*
X21822000Y-24468000D01*
X21822000Y-24722000D01*
X21802000Y-24722000D01*
X21802000Y-24742000D01*
X21548000Y-24742000D01*
X21548000Y-24722000D01*
X20373750Y-24722000D01*
X20240750Y-24855000D01*
X20133355Y-24855000D01*
X19999261Y-24720907D01*
X19967633Y-24682367D01*
X19813840Y-24556153D01*
X19638380Y-24462368D01*
X19447994Y-24404615D01*
X19299608Y-24390000D01*
X19250000Y-24385114D01*
X19200392Y-24390000D01*
X18412144Y-24390000D01*
X18411343Y-24295000D01*
X20211928Y-24295000D01*
X20215000Y-24309250D01*
X20373750Y-24468000D01*
X21548000Y-24468000D01*
X21548000Y-23818750D01*
X21389250Y-23660000D01*
X20850000Y-23656928D01*
X20725518Y-23669188D01*
X20605820Y-23705498D01*
X20495506Y-23764463D01*
X20398815Y-23843815D01*
X20319463Y-23940506D01*
X20260498Y-24050820D01*
X20224188Y-24170518D01*
X20211928Y-24295000D01*
X18411343Y-24295000D01*
X18410000Y-24135750D01*
X18251250Y-23977000D01*
X17027000Y-23977000D01*
X17027000Y-23997000D01*
X16773000Y-23997000D01*
X16773000Y-23977000D01*
X15548750Y-23977000D01*
X15390000Y-24135750D01*
X15387856Y-24390000D01*
X15237104Y-24390000D01*
X15187499Y-24385114D01*
X15137894Y-24390000D01*
X15137892Y-24390000D01*
X14989506Y-24404615D01*
X14799120Y-24462368D01*
X14623660Y-24556153D01*
X14469867Y-24682367D01*
X14438239Y-24720906D01*
X13715085Y-25444060D01*
X13616684Y-25453752D01*
X13452433Y-25503577D01*
X13301058Y-25584488D01*
X13168377Y-25693377D01*
X13059488Y-25826058D01*
X12978577Y-25977433D01*
X12928752Y-26141684D01*
X12911928Y-26312500D01*
X12911928Y-26812500D01*
X12928752Y-26983316D01*
X12978577Y-27147567D01*
X13059488Y-27298942D01*
X13123959Y-27377500D01*
X11280856Y-27377500D01*
X11035000Y-27131645D01*
X11035000Y-24546339D01*
X11143386Y-24488405D01*
X11277962Y-24377962D01*
X11388405Y-24243386D01*
X11470472Y-24089850D01*
X11521008Y-23923254D01*
X11538072Y-23750000D01*
X11538072Y-23200000D01*
X15386928Y-23200000D01*
X15390000Y-23564250D01*
X15548750Y-23723000D01*
X16773000Y-23723000D01*
X16773000Y-22723750D01*
X17027000Y-22723750D01*
X17027000Y-23723000D01*
X18251250Y-23723000D01*
X18410000Y-23564250D01*
X18413072Y-23200000D01*
X18400812Y-23075518D01*
X18364502Y-22955820D01*
X18305537Y-22845506D01*
X18254019Y-22782731D01*
X18360500Y-22676250D01*
X18360500Y-21852000D01*
X17523750Y-21852000D01*
X17365000Y-22010750D01*
X17361928Y-22200000D01*
X17374188Y-22324482D01*
X17410498Y-22444180D01*
X17469463Y-22554494D01*
X17476840Y-22563482D01*
X17185750Y-22565000D01*
X17027000Y-22723750D01*
X16773000Y-22723750D01*
X16614250Y-22565000D01*
X16025000Y-22561928D01*
X15900518Y-22574188D01*
X15780820Y-22610498D01*
X15670506Y-22669463D01*
X15573815Y-22748815D01*
X15494463Y-22845506D01*
X15435498Y-22955820D01*
X15399188Y-23075518D01*
X15386928Y-23200000D01*
X11538072Y-23200000D01*
X11538072Y-22950000D01*
X11521008Y-22776746D01*
X11470472Y-22610150D01*
X11388405Y-22456614D01*
X11277962Y-22322038D01*
X11143386Y-22211595D01*
X10989850Y-22129528D01*
X10823254Y-22078992D01*
X10650000Y-22061928D01*
X9400000Y-22061928D01*
X9226746Y-22078992D01*
X9060150Y-22129528D01*
X8906614Y-22211595D01*
X8772038Y-22322038D01*
X8661595Y-22456614D01*
X8579528Y-22610150D01*
X8528992Y-22776746D01*
X8511928Y-22950000D01*
X8511928Y-23750000D01*
X8528992Y-23923254D01*
X8579528Y-24089850D01*
X8661595Y-24243386D01*
X8772038Y-24377962D01*
X8906614Y-24488405D01*
X9015001Y-24546339D01*
X9015000Y-27500392D01*
X9010114Y-27550000D01*
X9029615Y-27747994D01*
X9083310Y-27925000D01*
X9087368Y-27938379D01*
X9181153Y-28113840D01*
X9307367Y-28267633D01*
X9345905Y-28299261D01*
X10113243Y-29066599D01*
X10144867Y-29105133D01*
X10298660Y-29231347D01*
X10474120Y-29325132D01*
X10664505Y-29382885D01*
X10862500Y-29402386D01*
X10912108Y-29397500D01*
X13360904Y-29397500D01*
X13452433Y-29446423D01*
X13616684Y-29496248D01*
X13710535Y-29505492D01*
X13848660Y-29618847D01*
X14024120Y-29712632D01*
X14030285Y-29714502D01*
X14214505Y-29770385D01*
X14412500Y-29789886D01*
X14462108Y-29785000D01*
X20665000Y-29785000D01*
X20665000Y-30575392D01*
X20660114Y-30625000D01*
X20679615Y-30822994D01*
X20729111Y-30986160D01*
X20737368Y-31013379D01*
X20831153Y-31188840D01*
X20957367Y-31342633D01*
X20995906Y-31374261D01*
X24950743Y-35329099D01*
X24982367Y-35367633D01*
X25136160Y-35493847D01*
X25287987Y-35575000D01*
X25311620Y-35587632D01*
X25502005Y-35645385D01*
X25700000Y-35664886D01*
X25749608Y-35660000D01*
X26066263Y-35660000D01*
X26110001Y-35713295D01*
X26110000Y-37884893D01*
X25966525Y-38028368D01*
X25844805Y-38210534D01*
X25775178Y-38093645D01*
X25580269Y-37877412D01*
X25346920Y-37703359D01*
X25084099Y-37578175D01*
X24936890Y-37533524D01*
X24707000Y-37654845D01*
X24707000Y-38848000D01*
X24727000Y-38848000D01*
X24727000Y-39102000D01*
X24707000Y-39102000D01*
X24707000Y-40295155D01*
X24936890Y-40416476D01*
X25084099Y-40371825D01*
X25346920Y-40246641D01*
X25580269Y-40072588D01*
X25775178Y-39856355D01*
X25844805Y-39739466D01*
X25966525Y-39921632D01*
X26173368Y-40128475D01*
X26416589Y-40290990D01*
X26686842Y-40402932D01*
X26973740Y-40460000D01*
X27266260Y-40460000D01*
X27553158Y-40402932D01*
X27823411Y-40290990D01*
X28066632Y-40128475D01*
X28273475Y-39921632D01*
X28395195Y-39739466D01*
X28464822Y-39856355D01*
X28659731Y-40072588D01*
X28893080Y-40246641D01*
X29155901Y-40371825D01*
X29303110Y-40416476D01*
X29533000Y-40295155D01*
X29533000Y-39102000D01*
X29513000Y-39102000D01*
X29513000Y-38848000D01*
X29533000Y-38848000D01*
X29533000Y-38828000D01*
X29787000Y-38828000D01*
X29787000Y-38848000D01*
X29807000Y-38848000D01*
X29807000Y-39102000D01*
X29787000Y-39102000D01*
X29787000Y-40295155D01*
X30016890Y-40416476D01*
X30164099Y-40371825D01*
X30426920Y-40246641D01*
X30660269Y-40072588D01*
X30736034Y-39988534D01*
X30760498Y-40069180D01*
X30819463Y-40179494D01*
X30898815Y-40276185D01*
X30995506Y-40355537D01*
X31105820Y-40414502D01*
X31225518Y-40450812D01*
X31350000Y-40463072D01*
X33050000Y-40463072D01*
X33174482Y-40450812D01*
X33294180Y-40414502D01*
X33404494Y-40355537D01*
X33501185Y-40276185D01*
X33580537Y-40179494D01*
X33639502Y-40069180D01*
X33675812Y-39949482D01*
X33688072Y-39825000D01*
X33688072Y-38779872D01*
X47765000Y-38779872D01*
X47765000Y-39220128D01*
X47850890Y-39651925D01*
X48019369Y-40058669D01*
X48263962Y-40424729D01*
X48575271Y-40736038D01*
X48941331Y-40980631D01*
X49348075Y-41149110D01*
X49779872Y-41235000D01*
X50220128Y-41235000D01*
X50651925Y-41149110D01*
X51058669Y-40980631D01*
X51424729Y-40736038D01*
X51736038Y-40424729D01*
X51980631Y-40058669D01*
X52149110Y-39651925D01*
X52235000Y-39220128D01*
X52235000Y-38779872D01*
X52149110Y-38348075D01*
X51980631Y-37941331D01*
X51736038Y-37575271D01*
X51424729Y-37263962D01*
X51058669Y-37019369D01*
X50651925Y-36850890D01*
X50220128Y-36765000D01*
X49779872Y-36765000D01*
X49348075Y-36850890D01*
X48941331Y-37019369D01*
X48575271Y-37263962D01*
X48263962Y-37575271D01*
X48019369Y-37941331D01*
X47850890Y-38348075D01*
X47765000Y-38779872D01*
X33688072Y-38779872D01*
X33688072Y-38125000D01*
X33675812Y-38000518D01*
X33639502Y-37880820D01*
X33580537Y-37770506D01*
X33501185Y-37673815D01*
X33404494Y-37594463D01*
X33294180Y-37535498D01*
X33179857Y-37500819D01*
X33137632Y-37361620D01*
X33043847Y-37186160D01*
X32917633Y-37032367D01*
X32879094Y-37000739D01*
X30338072Y-34459717D01*
X30338072Y-34199999D01*
X30321008Y-34026745D01*
X30270472Y-33860149D01*
X30188405Y-33706613D01*
X30110000Y-33611076D01*
X30110000Y-32838220D01*
X30152962Y-32802962D01*
X30263405Y-32668386D01*
X30345472Y-32514850D01*
X30396008Y-32348254D01*
X30413072Y-32175000D01*
X30413072Y-30925000D01*
X30396008Y-30751746D01*
X30345472Y-30585150D01*
X30263405Y-30431614D01*
X30152962Y-30297038D01*
X30065171Y-30224990D01*
X30062632Y-30216620D01*
X30046583Y-30186595D01*
X29968847Y-30041160D01*
X29842633Y-29887367D01*
X29804100Y-29855744D01*
X29711428Y-29763072D01*
X30225000Y-29763072D01*
X30398254Y-29746008D01*
X30564850Y-29695472D01*
X30718386Y-29613405D01*
X30852962Y-29502962D01*
X30858342Y-29496406D01*
X30923815Y-29576185D01*
X31020506Y-29655537D01*
X31130820Y-29714502D01*
X31250518Y-29750812D01*
X31375000Y-29763072D01*
X31676750Y-29760000D01*
X31835500Y-29601250D01*
X31835500Y-28527000D01*
X32089500Y-28527000D01*
X32089500Y-29601250D01*
X32248250Y-29760000D01*
X32550000Y-29763072D01*
X32674482Y-29750812D01*
X32794180Y-29714502D01*
X32904494Y-29655537D01*
X33001185Y-29576185D01*
X33080537Y-29479494D01*
X33139502Y-29369180D01*
X33175812Y-29249482D01*
X33188072Y-29125000D01*
X33185000Y-28685750D01*
X33026250Y-28527000D01*
X32089500Y-28527000D01*
X31835500Y-28527000D01*
X31815500Y-28527000D01*
X31815500Y-28273000D01*
X31835500Y-28273000D01*
X31835500Y-27198750D01*
X32089500Y-27198750D01*
X32089500Y-28273000D01*
X33026250Y-28273000D01*
X33185000Y-28114250D01*
X33188072Y-27675000D01*
X33175812Y-27550518D01*
X33139502Y-27430820D01*
X33080537Y-27320506D01*
X33001185Y-27223815D01*
X32904494Y-27144463D01*
X32794180Y-27085498D01*
X32674482Y-27049188D01*
X32550000Y-27036928D01*
X32248250Y-27040000D01*
X32089500Y-27198750D01*
X31835500Y-27198750D01*
X31676750Y-27040000D01*
X31375000Y-27036928D01*
X31250518Y-27049188D01*
X31130820Y-27085498D01*
X31020506Y-27144463D01*
X30923815Y-27223815D01*
X30858342Y-27303594D01*
X30852962Y-27297038D01*
X30718386Y-27186595D01*
X30564850Y-27104528D01*
X30398254Y-27053992D01*
X30225000Y-27036928D01*
X29550000Y-27036928D01*
X29376746Y-27053992D01*
X29210150Y-27104528D01*
X29056614Y-27186595D01*
X28922038Y-27297038D01*
X28841643Y-27395000D01*
X28359250Y-27395000D01*
X28226250Y-27262000D01*
X27052000Y-27262000D01*
X27052000Y-27282000D01*
X26798000Y-27282000D01*
X26798000Y-27262000D01*
X26778000Y-27262000D01*
X26778000Y-27008000D01*
X26798000Y-27008000D01*
X26798000Y-25992000D01*
X27052000Y-25992000D01*
X27052000Y-27008000D01*
X28226250Y-27008000D01*
X28385000Y-26849250D01*
X28388072Y-26835000D01*
X28375812Y-26710518D01*
X28339502Y-26590820D01*
X28290957Y-26500000D01*
X28339502Y-26409180D01*
X28375812Y-26289482D01*
X28388072Y-26165000D01*
X28385000Y-26150750D01*
X28226250Y-25992000D01*
X27052000Y-25992000D01*
X26798000Y-25992000D01*
X26778000Y-25992000D01*
X26778000Y-25738000D01*
X26798000Y-25738000D01*
X26798000Y-24722000D01*
X27052000Y-24722000D01*
X27052000Y-25738000D01*
X28226250Y-25738000D01*
X28385000Y-25579250D01*
X28388072Y-25565000D01*
X28375812Y-25440518D01*
X28339502Y-25320820D01*
X28290957Y-25230000D01*
X28339502Y-25139180D01*
X28375812Y-25019482D01*
X28388072Y-24895000D01*
X28385000Y-24880750D01*
X28226250Y-24722000D01*
X27052000Y-24722000D01*
X26798000Y-24722000D01*
X26778000Y-24722000D01*
X26778000Y-24468000D01*
X26798000Y-24468000D01*
X26798000Y-24448000D01*
X27052000Y-24448000D01*
X27052000Y-24468000D01*
X28226250Y-24468000D01*
X28385000Y-24309250D01*
X28388072Y-24295000D01*
X28375812Y-24170518D01*
X28339502Y-24050820D01*
X28280537Y-23940506D01*
X28204951Y-23848404D01*
X28804099Y-23249257D01*
X28842633Y-23217633D01*
X28968847Y-23063840D01*
X29060572Y-22892233D01*
X29077962Y-22877962D01*
X29188405Y-22743387D01*
X29270472Y-22589851D01*
X29321008Y-22423255D01*
X29338072Y-22250001D01*
X29338072Y-21995877D01*
X29343847Y-21988840D01*
X29437632Y-21813380D01*
X29495385Y-21622994D01*
X29510000Y-21474608D01*
X29510000Y-21474606D01*
X29514886Y-21425001D01*
X29510000Y-21375396D01*
X29510000Y-18838924D01*
X29588405Y-18743387D01*
X29670472Y-18589851D01*
X29721008Y-18423255D01*
X29738072Y-18250001D01*
X29738072Y-17349999D01*
X29721008Y-17176745D01*
X29670472Y-17010149D01*
X29588405Y-16856613D01*
X29477962Y-16722038D01*
X29343387Y-16611595D01*
X29189851Y-16529528D01*
X29023255Y-16478992D01*
X28850001Y-16461928D01*
X28149999Y-16461928D01*
X27976745Y-16478992D01*
X27810149Y-16529528D01*
X27656613Y-16611595D01*
X27522038Y-16722038D01*
X27500000Y-16748891D01*
X27477962Y-16722038D01*
X27343387Y-16611595D01*
X27189851Y-16529528D01*
X27023255Y-16478992D01*
X26850001Y-16461928D01*
X26149999Y-16461928D01*
X25976745Y-16478992D01*
X25810149Y-16529528D01*
X25656613Y-16611595D01*
X25522038Y-16722038D01*
X25466263Y-16790000D01*
X24542703Y-16790000D01*
X24527962Y-16772038D01*
X24393386Y-16661595D01*
X24239850Y-16579528D01*
X24073254Y-16528992D01*
X23900000Y-16511928D01*
X22650000Y-16511928D01*
X22476746Y-16528992D01*
X22310150Y-16579528D01*
X22156614Y-16661595D01*
X22022038Y-16772038D01*
X22007297Y-16790000D01*
X20049373Y-16790000D01*
X19994180Y-16760498D01*
X19874482Y-16724188D01*
X19750000Y-16711928D01*
X18950000Y-16711928D01*
X18825518Y-16724188D01*
X18705820Y-16760498D01*
X18650627Y-16790000D01*
X11049604Y-16790000D01*
X10999999Y-16785114D01*
X10950394Y-16790000D01*
X10950392Y-16790000D01*
X10802006Y-16804615D01*
X10611620Y-16862368D01*
X10436160Y-16956153D01*
X10282367Y-17082367D01*
X10250739Y-17120906D01*
X9345906Y-18025739D01*
X9307367Y-18057367D01*
X9181153Y-18211160D01*
X9104475Y-18354616D01*
X9087368Y-18386621D01*
X9029615Y-18577006D01*
X9010114Y-18775000D01*
X9015000Y-18824608D01*
X9015000Y-19053661D01*
X8906614Y-19111595D01*
X8772038Y-19222038D01*
X8661595Y-19356614D01*
X8579528Y-19510150D01*
X8528992Y-19676746D01*
X8511928Y-19850000D01*
X1660000Y-19850000D01*
X1660000Y-5032278D01*
X1684748Y-4779872D01*
X2765000Y-4779872D01*
X2765000Y-5220128D01*
X2850890Y-5651925D01*
X3019369Y-6058669D01*
X3263962Y-6424729D01*
X3575271Y-6736038D01*
X3941331Y-6980631D01*
X4348075Y-7149110D01*
X4779872Y-7235000D01*
X5220128Y-7235000D01*
X5651925Y-7149110D01*
X6058669Y-6980631D01*
X6424729Y-6736038D01*
X6736038Y-6424729D01*
X6980631Y-6058669D01*
X7149110Y-5651925D01*
X7235000Y-5220128D01*
X7235000Y-4779872D01*
X47765000Y-4779872D01*
X47765000Y-5220128D01*
X47850890Y-5651925D01*
X48019369Y-6058669D01*
X48263962Y-6424729D01*
X48575271Y-6736038D01*
X48941331Y-6980631D01*
X49348075Y-7149110D01*
X49779872Y-7235000D01*
X50220128Y-7235000D01*
X50651925Y-7149110D01*
X51058669Y-6980631D01*
X51424729Y-6736038D01*
X51736038Y-6424729D01*
X51980631Y-6058669D01*
X52149110Y-5651925D01*
X52235000Y-5220128D01*
X52235000Y-4779872D01*
X52149110Y-4348075D01*
X51980631Y-3941331D01*
X51736038Y-3575271D01*
X51424729Y-3263962D01*
X51058669Y-3019369D01*
X50651925Y-2850890D01*
X50220128Y-2765000D01*
X49779872Y-2765000D01*
X49348075Y-2850890D01*
X48941331Y-3019369D01*
X48575271Y-3263962D01*
X48263962Y-3575271D01*
X48019369Y-3941331D01*
X47850890Y-4348075D01*
X47765000Y-4779872D01*
X7235000Y-4779872D01*
X7149110Y-4348075D01*
X6980631Y-3941331D01*
X6736038Y-3575271D01*
X6424729Y-3263962D01*
X6058669Y-3019369D01*
X5651925Y-2850890D01*
X5220128Y-2765000D01*
X4779872Y-2765000D01*
X4348075Y-2850890D01*
X3941331Y-3019369D01*
X3575271Y-3263962D01*
X3263962Y-3575271D01*
X3019369Y-3941331D01*
X2850890Y-4348075D01*
X2765000Y-4779872D01*
X1684748Y-4779872D01*
X1726714Y-4351874D01*
X1914943Y-3728428D01*
X2220681Y-3153421D01*
X2632279Y-2648753D01*
X3134067Y-2233638D01*
X3706924Y-1923895D01*
X4329039Y-1731318D01*
X5007584Y-1660000D01*
X49967722Y-1660000D01*
X50648126Y-1726714D01*
G37*
%TD.AperFunction*%
%TD*%
M02*
