M48
; DRILL file {KiCad 5.1.10} date Sat Aug 21 10:02:35 2021
; FORMAT={-:-/ absolute / inch / decimal}
; #@! TF.CreationDate,2021-08-21T10:02:35-04:00
; #@! TF.GenerationSoftware,Kicad,Pcbnew,5.1.10
FMAT,2
INCH
T1C0.0354
T2C0.0394
T3C0.1260
%
G90
G05
T1
X0.4331Y-0.8661
X0.5331Y-0.8661
X1.0827Y-0.4331
X1.0827Y-0.5331
X1.0827Y-1.1992
X1.0827Y-1.2992
X1.6323Y-0.8661
X1.7323Y-0.8661
T2
X0.4413Y-1.4961
X0.5413Y-1.4961
X0.835Y-1.4961
X0.935Y-1.4961
X1.2287Y-1.4961
X1.3287Y-1.4961
X1.6224Y-1.4961
X1.7224Y-1.4961
X1.9488Y-0.4331
X1.9488Y-0.5331
T3
X0.1969Y-0.1969
X0.1969Y-1.5354
X1.9685Y-0.1969
X1.9685Y-1.5354
T0
M30
