%TF.GenerationSoftware,KiCad,Pcbnew,5.1.10*%
%TF.CreationDate,2021-08-21T10:02:15-04:00*%
%TF.ProjectId,shutter_tester,73687574-7465-4725-9f74-65737465722e,rev?*%
%TF.SameCoordinates,PX7bfa480PY5f5e100*%
%TF.FileFunction,Copper,L2,Bot*%
%TF.FilePolarity,Positive*%
%FSLAX46Y46*%
G04 Gerber Fmt 4.6, Leading zero omitted, Abs format (unit mm)*
G04 Created by KiCad (PCBNEW 5.1.10) date 2021-08-21 10:02:15*
%MOMM*%
%LPD*%
G01*
G04 APERTURE LIST*
%TA.AperFunction,SMDPad,CuDef*%
%ADD10R,0.800000X0.900000*%
%TD*%
%TA.AperFunction,ComponentPad*%
%ADD11O,1.700000X1.700000*%
%TD*%
%TA.AperFunction,ComponentPad*%
%ADD12R,1.700000X1.700000*%
%TD*%
%TA.AperFunction,ComponentPad*%
%ADD13C,1.800000*%
%TD*%
%TA.AperFunction,ComponentPad*%
%ADD14R,1.800000X1.800000*%
%TD*%
%TA.AperFunction,Conductor*%
%ADD15C,1.000000*%
%TD*%
%TA.AperFunction,Conductor*%
%ADD16C,0.500000*%
%TD*%
%TA.AperFunction,Conductor*%
%ADD17C,0.254000*%
%TD*%
%TA.AperFunction,Conductor*%
%ADD18C,0.100000*%
%TD*%
G04 APERTURE END LIST*
%TO.P,JP3,2*%
%TO.N,Net-(D4-Pad2)*%
%TA.AperFunction,SMDPad,CuDef*%
G36*
G01*
X31400000Y-29774999D02*
X31400000Y-31025001D01*
G75*
G02*
X31150001Y-31275000I-249999J0D01*
G01*
X30524999Y-31275000D01*
G75*
G02*
X30275000Y-31025001I0J249999D01*
G01*
X30275000Y-29774999D01*
G75*
G02*
X30524999Y-29525000I249999J0D01*
G01*
X31150001Y-29525000D01*
G75*
G02*
X31400000Y-29774999I0J-249999D01*
G01*
G37*
%TD.AperFunction*%
%TO.P,JP3,1*%
%TO.N,Net-(JP3-Pad1)*%
%TA.AperFunction,SMDPad,CuDef*%
G36*
G01*
X34325000Y-29774999D02*
X34325000Y-31025001D01*
G75*
G02*
X34075001Y-31275000I-249999J0D01*
G01*
X33449999Y-31275000D01*
G75*
G02*
X33200000Y-31025001I0J249999D01*
G01*
X33200000Y-29774999D01*
G75*
G02*
X33449999Y-29525000I249999J0D01*
G01*
X34075001Y-29525000D01*
G75*
G02*
X34325000Y-29774999I0J-249999D01*
G01*
G37*
%TD.AperFunction*%
%TD*%
%TO.P,JP2,2*%
%TO.N,Net-(D2-Pad2)*%
%TA.AperFunction,SMDPad,CuDef*%
G36*
G01*
X43300000Y-25074999D02*
X43300000Y-26325001D01*
G75*
G02*
X43050001Y-26575000I-249999J0D01*
G01*
X42424999Y-26575000D01*
G75*
G02*
X42175000Y-26325001I0J249999D01*
G01*
X42175000Y-25074999D01*
G75*
G02*
X42424999Y-24825000I249999J0D01*
G01*
X43050001Y-24825000D01*
G75*
G02*
X43300000Y-25074999I0J-249999D01*
G01*
G37*
%TD.AperFunction*%
%TO.P,JP2,1*%
%TO.N,Net-(JP2-Pad1)*%
%TA.AperFunction,SMDPad,CuDef*%
G36*
G01*
X46225000Y-25074999D02*
X46225000Y-26325001D01*
G75*
G02*
X45975001Y-26575000I-249999J0D01*
G01*
X45349999Y-26575000D01*
G75*
G02*
X45100000Y-26325001I0J249999D01*
G01*
X45100000Y-25074999D01*
G75*
G02*
X45349999Y-24825000I249999J0D01*
G01*
X45975001Y-24825000D01*
G75*
G02*
X46225000Y-25074999I0J-249999D01*
G01*
G37*
%TD.AperFunction*%
%TD*%
%TO.P,JP1,2*%
%TO.N,Net-(D1-Pad2)*%
%TA.AperFunction,SMDPad,CuDef*%
G36*
G01*
X15425001Y-27200000D02*
X14174999Y-27200000D01*
G75*
G02*
X13925000Y-26950001I0J249999D01*
G01*
X13925000Y-26324999D01*
G75*
G02*
X14174999Y-26075000I249999J0D01*
G01*
X15425001Y-26075000D01*
G75*
G02*
X15675000Y-26324999I0J-249999D01*
G01*
X15675000Y-26950001D01*
G75*
G02*
X15425001Y-27200000I-249999J0D01*
G01*
G37*
%TD.AperFunction*%
%TO.P,JP1,1*%
%TO.N,Net-(JP1-Pad1)*%
%TA.AperFunction,SMDPad,CuDef*%
G36*
G01*
X15425001Y-30125000D02*
X14174999Y-30125000D01*
G75*
G02*
X13925000Y-29875001I0J249999D01*
G01*
X13925000Y-29249999D01*
G75*
G02*
X14174999Y-29000000I249999J0D01*
G01*
X15425001Y-29000000D01*
G75*
G02*
X15675000Y-29249999I0J-249999D01*
G01*
X15675000Y-29875001D01*
G75*
G02*
X15425001Y-30125000I-249999J0D01*
G01*
G37*
%TD.AperFunction*%
%TD*%
D10*
%TO.P,Q4,3*%
%TO.N,Net-(J4-Pad1)*%
X32250000Y-33000000D03*
%TO.P,Q4,2*%
%TO.N,GND*%
X31300000Y-35000000D03*
%TO.P,Q4,1*%
%TO.N,Net-(JP3-Pad1)*%
X33200000Y-35000000D03*
%TD*%
%TO.P,Q3,3*%
%TO.N,Net-(J3-Pad1)*%
X22250000Y-33000000D03*
%TO.P,Q3,2*%
%TO.N,GND*%
X21300000Y-35000000D03*
%TO.P,Q3,1*%
%TO.N,Net-(D3-Pad2)*%
X23200000Y-35000000D03*
%TD*%
%TO.P,Q2,3*%
%TO.N,Net-(J2-Pad1)*%
X42250000Y-33000000D03*
%TO.P,Q2,2*%
%TO.N,GND*%
X41300000Y-35000000D03*
%TO.P,Q2,1*%
%TO.N,Net-(JP2-Pad1)*%
X43200000Y-35000000D03*
%TD*%
%TO.P,Q1,3*%
%TO.N,Net-(J1-Pad1)*%
X12250000Y-33000000D03*
%TO.P,Q1,2*%
%TO.N,GND*%
X11300000Y-35000000D03*
%TO.P,Q1,1*%
%TO.N,Net-(JP1-Pad1)*%
X13200000Y-35000000D03*
%TD*%
%TO.P,R4,2*%
%TO.N,Net-(J4-Pad1)*%
%TA.AperFunction,SMDPad,CuDef*%
G36*
G01*
X42850000Y-27549999D02*
X42850000Y-28450001D01*
G75*
G02*
X42600001Y-28700000I-249999J0D01*
G01*
X41899999Y-28700000D01*
G75*
G02*
X41650000Y-28450001I0J249999D01*
G01*
X41650000Y-27549999D01*
G75*
G02*
X41899999Y-27300000I249999J0D01*
G01*
X42600001Y-27300000D01*
G75*
G02*
X42850000Y-27549999I0J-249999D01*
G01*
G37*
%TD.AperFunction*%
%TO.P,R4,1*%
%TO.N,VCC*%
%TA.AperFunction,SMDPad,CuDef*%
G36*
G01*
X44850000Y-27549999D02*
X44850000Y-28450001D01*
G75*
G02*
X44600001Y-28700000I-249999J0D01*
G01*
X43899999Y-28700000D01*
G75*
G02*
X43650000Y-28450001I0J249999D01*
G01*
X43650000Y-27549999D01*
G75*
G02*
X43899999Y-27300000I249999J0D01*
G01*
X44600001Y-27300000D01*
G75*
G02*
X44850000Y-27549999I0J-249999D01*
G01*
G37*
%TD.AperFunction*%
%TD*%
%TO.P,R3,2*%
%TO.N,Net-(J3-Pad1)*%
%TA.AperFunction,SMDPad,CuDef*%
G36*
G01*
X11650000Y-28450001D02*
X11650000Y-27549999D01*
G75*
G02*
X11899999Y-27300000I249999J0D01*
G01*
X12600001Y-27300000D01*
G75*
G02*
X12850000Y-27549999I0J-249999D01*
G01*
X12850000Y-28450001D01*
G75*
G02*
X12600001Y-28700000I-249999J0D01*
G01*
X11899999Y-28700000D01*
G75*
G02*
X11650000Y-28450001I0J249999D01*
G01*
G37*
%TD.AperFunction*%
%TO.P,R3,1*%
%TO.N,VCC*%
%TA.AperFunction,SMDPad,CuDef*%
G36*
G01*
X9650000Y-28450001D02*
X9650000Y-27549999D01*
G75*
G02*
X9899999Y-27300000I249999J0D01*
G01*
X10600001Y-27300000D01*
G75*
G02*
X10850000Y-27549999I0J-249999D01*
G01*
X10850000Y-28450001D01*
G75*
G02*
X10600001Y-28700000I-249999J0D01*
G01*
X9899999Y-28700000D01*
G75*
G02*
X9650000Y-28450001I0J249999D01*
G01*
G37*
%TD.AperFunction*%
%TD*%
%TO.P,R2,2*%
%TO.N,Net-(J2-Pad1)*%
%TA.AperFunction,SMDPad,CuDef*%
G36*
G01*
X42850000Y-30049999D02*
X42850000Y-30950001D01*
G75*
G02*
X42600001Y-31200000I-249999J0D01*
G01*
X41899999Y-31200000D01*
G75*
G02*
X41650000Y-30950001I0J249999D01*
G01*
X41650000Y-30049999D01*
G75*
G02*
X41899999Y-29800000I249999J0D01*
G01*
X42600001Y-29800000D01*
G75*
G02*
X42850000Y-30049999I0J-249999D01*
G01*
G37*
%TD.AperFunction*%
%TO.P,R2,1*%
%TO.N,VCC*%
%TA.AperFunction,SMDPad,CuDef*%
G36*
G01*
X44850000Y-30049999D02*
X44850000Y-30950001D01*
G75*
G02*
X44600001Y-31200000I-249999J0D01*
G01*
X43899999Y-31200000D01*
G75*
G02*
X43650000Y-30950001I0J249999D01*
G01*
X43650000Y-30049999D01*
G75*
G02*
X43899999Y-29800000I249999J0D01*
G01*
X44600001Y-29800000D01*
G75*
G02*
X44850000Y-30049999I0J-249999D01*
G01*
G37*
%TD.AperFunction*%
%TD*%
%TO.P,R1,2*%
%TO.N,Net-(J1-Pad1)*%
%TA.AperFunction,SMDPad,CuDef*%
G36*
G01*
X11650000Y-30950001D02*
X11650000Y-30049999D01*
G75*
G02*
X11899999Y-29800000I249999J0D01*
G01*
X12600001Y-29800000D01*
G75*
G02*
X12850000Y-30049999I0J-249999D01*
G01*
X12850000Y-30950001D01*
G75*
G02*
X12600001Y-31200000I-249999J0D01*
G01*
X11899999Y-31200000D01*
G75*
G02*
X11650000Y-30950001I0J249999D01*
G01*
G37*
%TD.AperFunction*%
%TO.P,R1,1*%
%TO.N,VCC*%
%TA.AperFunction,SMDPad,CuDef*%
G36*
G01*
X9650000Y-30950001D02*
X9650000Y-30049999D01*
G75*
G02*
X9899999Y-29800000I249999J0D01*
G01*
X10600001Y-29800000D01*
G75*
G02*
X10850000Y-30049999I0J-249999D01*
G01*
X10850000Y-30950001D01*
G75*
G02*
X10600001Y-31200000I-249999J0D01*
G01*
X9899999Y-31200000D01*
G75*
G02*
X9650000Y-30950001I0J249999D01*
G01*
G37*
%TD.AperFunction*%
%TD*%
D11*
%TO.P,J4,2*%
%TO.N,GND*%
X31210000Y-38000000D03*
D12*
%TO.P,J4,1*%
%TO.N,Net-(J4-Pad1)*%
X33750000Y-38000000D03*
%TD*%
D11*
%TO.P,J3,2*%
%TO.N,GND*%
X21210000Y-38000000D03*
D12*
%TO.P,J3,1*%
%TO.N,Net-(J3-Pad1)*%
X23750000Y-38000000D03*
%TD*%
D11*
%TO.P,J2,2*%
%TO.N,GND*%
X41210000Y-38000000D03*
D12*
%TO.P,J2,1*%
%TO.N,Net-(J2-Pad1)*%
X43750000Y-38000000D03*
%TD*%
D11*
%TO.P,J1,2*%
%TO.N,GND*%
X11210000Y-38000000D03*
D12*
%TO.P,J1,1*%
%TO.N,Net-(J1-Pad1)*%
X13750000Y-38000000D03*
%TD*%
D13*
%TO.P,D4,2*%
%TO.N,Net-(D4-Pad2)*%
X27500000Y-33000000D03*
D14*
%TO.P,D4,1*%
%TO.N,VCC*%
X27500000Y-30460000D03*
%TD*%
D13*
%TO.P,D3,2*%
%TO.N,Net-(D3-Pad2)*%
X27500000Y-13540000D03*
D14*
%TO.P,D3,1*%
%TO.N,VCC*%
X27500000Y-11000000D03*
%TD*%
D13*
%TO.P,D2,2*%
%TO.N,Net-(D2-Pad2)*%
X41460000Y-22000000D03*
D14*
%TO.P,D2,1*%
%TO.N,VCC*%
X44000000Y-22000000D03*
%TD*%
D13*
%TO.P,D1,2*%
%TO.N,Net-(D1-Pad2)*%
X13540000Y-22000000D03*
D14*
%TO.P,D1,1*%
%TO.N,VCC*%
X11000000Y-22000000D03*
%TD*%
D11*
%TO.P,BT1,2*%
%TO.N,GND*%
X49500000Y-13540000D03*
D12*
%TO.P,BT1,1*%
%TO.N,VCC*%
X49500000Y-11000000D03*
%TD*%
D15*
%TO.N,VCC*%
X11000000Y-22000000D02*
X11000000Y-12000000D01*
X12000000Y-11000000D02*
X27500000Y-11000000D01*
X11000000Y-12000000D02*
X12000000Y-11000000D01*
X44000000Y-11000000D02*
X49500000Y-11000000D01*
X27500000Y-11000000D02*
X44000000Y-11000000D01*
X10250000Y-30500000D02*
X10250000Y-28000000D01*
X10250000Y-22750000D02*
X11000000Y-22000000D01*
X10250000Y-28000000D02*
X10250000Y-22750000D01*
X44250000Y-30500000D02*
X44250000Y-28000000D01*
X44250000Y-22250000D02*
X44000000Y-22000000D01*
X44250000Y-28000000D02*
X44250000Y-22250000D01*
X27500000Y-30460000D02*
X27500000Y-20800000D01*
X28900000Y-19400000D02*
X44000000Y-19400000D01*
X27500000Y-20800000D02*
X28900000Y-19400000D01*
X44000000Y-19400000D02*
X44000000Y-11000000D01*
X44000000Y-22000000D02*
X44000000Y-19400000D01*
D16*
%TO.N,Net-(D1-Pad2)*%
X14800000Y-23260000D02*
X13540000Y-22000000D01*
X14800000Y-26637500D02*
X14800000Y-23260000D01*
%TO.N,Net-(D2-Pad2)*%
X41460000Y-24422500D02*
X42737500Y-25700000D01*
X41460000Y-22000000D02*
X41460000Y-24422500D01*
%TO.N,Net-(D3-Pad2)*%
X23200000Y-17840000D02*
X27500000Y-13540000D01*
X23200000Y-35000000D02*
X23200000Y-17840000D01*
%TO.N,Net-(D4-Pad2)*%
X28237500Y-33000000D02*
X27500000Y-33000000D01*
X30837500Y-30400000D02*
X28237500Y-33000000D01*
%TO.N,Net-(J1-Pad1)*%
X12250000Y-36500000D02*
X13750000Y-38000000D01*
X12250000Y-33000000D02*
X12250000Y-36500000D01*
X12250000Y-33000000D02*
X12250000Y-30500000D01*
%TO.N,Net-(J2-Pad1)*%
X42250000Y-36500000D02*
X43750000Y-38000000D01*
X42250000Y-33000000D02*
X42250000Y-36500000D01*
X42250000Y-33000000D02*
X42250000Y-30500000D01*
%TO.N,Net-(J3-Pad1)*%
X22250000Y-36500000D02*
X23750000Y-38000000D01*
X22250000Y-33000000D02*
X22250000Y-36500000D01*
X22250000Y-33000000D02*
X22250000Y-29000000D01*
X21250000Y-28000000D02*
X12250000Y-28000000D01*
X22250000Y-29000000D02*
X21250000Y-28000000D01*
%TO.N,Net-(J4-Pad1)*%
X32250000Y-36500000D02*
X33750000Y-38000000D01*
X32250000Y-33000000D02*
X32250000Y-36500000D01*
X32250000Y-33000000D02*
X32250000Y-28750000D01*
X33000000Y-28000000D02*
X42250000Y-28000000D01*
X32250000Y-28750000D02*
X33000000Y-28000000D01*
%TO.N,Net-(JP1-Pad1)*%
X14800000Y-33400000D02*
X13200000Y-35000000D01*
X14800000Y-29562500D02*
X14800000Y-33400000D01*
%TO.N,Net-(JP2-Pad1)*%
X45662500Y-32537500D02*
X43200000Y-35000000D01*
X45662500Y-25700000D02*
X45662500Y-32537500D01*
%TO.N,Net-(JP3-Pad1)*%
X33762500Y-34437500D02*
X33200000Y-35000000D01*
X33762500Y-30400000D02*
X33762500Y-34437500D01*
%TD*%
D17*
%TO.N,GND*%
X50648126Y-1726714D02*
X51271572Y-1914943D01*
X51846579Y-2220681D01*
X52351247Y-2632279D01*
X52766362Y-3134067D01*
X53076105Y-3706924D01*
X53268682Y-4329039D01*
X53340001Y-5007594D01*
X53340000Y-38967721D01*
X53273286Y-39648126D01*
X53085057Y-40271570D01*
X52779323Y-40846573D01*
X52367721Y-41351248D01*
X51865933Y-41766362D01*
X51293077Y-42076104D01*
X50670961Y-42268682D01*
X49992417Y-42340000D01*
X5032279Y-42340000D01*
X4351874Y-42273286D01*
X3728430Y-42085057D01*
X3153427Y-41779323D01*
X2648752Y-41367721D01*
X2233638Y-40865933D01*
X1923896Y-40293077D01*
X1731318Y-39670961D01*
X1660000Y-38992417D01*
X1660000Y-38779872D01*
X2765000Y-38779872D01*
X2765000Y-39220128D01*
X2850890Y-39651925D01*
X3019369Y-40058669D01*
X3263962Y-40424729D01*
X3575271Y-40736038D01*
X3941331Y-40980631D01*
X4348075Y-41149110D01*
X4779872Y-41235000D01*
X5220128Y-41235000D01*
X5651925Y-41149110D01*
X6058669Y-40980631D01*
X6424729Y-40736038D01*
X6736038Y-40424729D01*
X6980631Y-40058669D01*
X7149110Y-39651925D01*
X7235000Y-39220128D01*
X7235000Y-38779872D01*
X7150864Y-38356891D01*
X9768519Y-38356891D01*
X9865843Y-38631252D01*
X10014822Y-38881355D01*
X10209731Y-39097588D01*
X10443080Y-39271641D01*
X10705901Y-39396825D01*
X10853110Y-39441476D01*
X11083000Y-39320155D01*
X11083000Y-38127000D01*
X9889186Y-38127000D01*
X9768519Y-38356891D01*
X7150864Y-38356891D01*
X7149110Y-38348075D01*
X6980631Y-37941331D01*
X6781366Y-37643109D01*
X9768519Y-37643109D01*
X9889186Y-37873000D01*
X11083000Y-37873000D01*
X11083000Y-36679845D01*
X10853110Y-36558524D01*
X10705901Y-36603175D01*
X10443080Y-36728359D01*
X10209731Y-36902412D01*
X10014822Y-37118645D01*
X9865843Y-37368748D01*
X9768519Y-37643109D01*
X6781366Y-37643109D01*
X6736038Y-37575271D01*
X6424729Y-37263962D01*
X6058669Y-37019369D01*
X5651925Y-36850890D01*
X5220128Y-36765000D01*
X4779872Y-36765000D01*
X4348075Y-36850890D01*
X3941331Y-37019369D01*
X3575271Y-37263962D01*
X3263962Y-37575271D01*
X3019369Y-37941331D01*
X2850890Y-38348075D01*
X2765000Y-38779872D01*
X1660000Y-38779872D01*
X1660000Y-35450000D01*
X10261928Y-35450000D01*
X10274188Y-35574482D01*
X10310498Y-35694180D01*
X10369463Y-35804494D01*
X10448815Y-35901185D01*
X10545506Y-35980537D01*
X10655820Y-36039502D01*
X10775518Y-36075812D01*
X10900000Y-36088072D01*
X11014250Y-36085000D01*
X11173000Y-35926250D01*
X11173000Y-35127000D01*
X10423750Y-35127000D01*
X10265000Y-35285750D01*
X10261928Y-35450000D01*
X1660000Y-35450000D01*
X1660000Y-34550000D01*
X10261928Y-34550000D01*
X10265000Y-34714250D01*
X10423750Y-34873000D01*
X11173000Y-34873000D01*
X11173000Y-34073750D01*
X11014250Y-33915000D01*
X10900000Y-33911928D01*
X10775518Y-33924188D01*
X10655820Y-33960498D01*
X10545506Y-34019463D01*
X10448815Y-34098815D01*
X10369463Y-34195506D01*
X10310498Y-34305820D01*
X10274188Y-34425518D01*
X10261928Y-34550000D01*
X1660000Y-34550000D01*
X1660000Y-27549999D01*
X9011928Y-27549999D01*
X9011928Y-28450001D01*
X9028992Y-28623255D01*
X9079528Y-28789851D01*
X9115001Y-28856215D01*
X9115000Y-29643785D01*
X9079528Y-29710149D01*
X9028992Y-29876745D01*
X9011928Y-30049999D01*
X9011928Y-30950001D01*
X9028992Y-31123255D01*
X9079528Y-31289851D01*
X9161595Y-31443387D01*
X9272038Y-31577962D01*
X9406613Y-31688405D01*
X9560149Y-31770472D01*
X9726745Y-31821008D01*
X9899999Y-31838072D01*
X10600001Y-31838072D01*
X10773255Y-31821008D01*
X10939851Y-31770472D01*
X11093387Y-31688405D01*
X11227962Y-31577962D01*
X11250000Y-31551109D01*
X11272038Y-31577962D01*
X11365001Y-31654254D01*
X11365000Y-32140018D01*
X11319463Y-32195506D01*
X11260498Y-32305820D01*
X11224188Y-32425518D01*
X11211928Y-32550000D01*
X11211928Y-33450000D01*
X11224188Y-33574482D01*
X11260498Y-33694180D01*
X11319463Y-33804494D01*
X11365000Y-33859981D01*
X11365001Y-36456521D01*
X11360719Y-36500000D01*
X11376384Y-36659061D01*
X11337000Y-36679845D01*
X11337000Y-37873000D01*
X11357000Y-37873000D01*
X11357000Y-38127000D01*
X11337000Y-38127000D01*
X11337000Y-39320155D01*
X11566890Y-39441476D01*
X11714099Y-39396825D01*
X11976920Y-39271641D01*
X12210269Y-39097588D01*
X12286034Y-39013534D01*
X12310498Y-39094180D01*
X12369463Y-39204494D01*
X12448815Y-39301185D01*
X12545506Y-39380537D01*
X12655820Y-39439502D01*
X12775518Y-39475812D01*
X12900000Y-39488072D01*
X14600000Y-39488072D01*
X14724482Y-39475812D01*
X14844180Y-39439502D01*
X14954494Y-39380537D01*
X15051185Y-39301185D01*
X15130537Y-39204494D01*
X15189502Y-39094180D01*
X15225812Y-38974482D01*
X15238072Y-38850000D01*
X15238072Y-38356891D01*
X19768519Y-38356891D01*
X19865843Y-38631252D01*
X20014822Y-38881355D01*
X20209731Y-39097588D01*
X20443080Y-39271641D01*
X20705901Y-39396825D01*
X20853110Y-39441476D01*
X21083000Y-39320155D01*
X21083000Y-38127000D01*
X19889186Y-38127000D01*
X19768519Y-38356891D01*
X15238072Y-38356891D01*
X15238072Y-37643109D01*
X19768519Y-37643109D01*
X19889186Y-37873000D01*
X21083000Y-37873000D01*
X21083000Y-36679845D01*
X20853110Y-36558524D01*
X20705901Y-36603175D01*
X20443080Y-36728359D01*
X20209731Y-36902412D01*
X20014822Y-37118645D01*
X19865843Y-37368748D01*
X19768519Y-37643109D01*
X15238072Y-37643109D01*
X15238072Y-37150000D01*
X15225812Y-37025518D01*
X15189502Y-36905820D01*
X15130537Y-36795506D01*
X15051185Y-36698815D01*
X14954494Y-36619463D01*
X14844180Y-36560498D01*
X14724482Y-36524188D01*
X14600000Y-36511928D01*
X13513506Y-36511928D01*
X13135000Y-36133422D01*
X13135000Y-36088072D01*
X13600000Y-36088072D01*
X13724482Y-36075812D01*
X13844180Y-36039502D01*
X13954494Y-35980537D01*
X14051185Y-35901185D01*
X14130537Y-35804494D01*
X14189502Y-35694180D01*
X14225812Y-35574482D01*
X14238072Y-35450000D01*
X20261928Y-35450000D01*
X20274188Y-35574482D01*
X20310498Y-35694180D01*
X20369463Y-35804494D01*
X20448815Y-35901185D01*
X20545506Y-35980537D01*
X20655820Y-36039502D01*
X20775518Y-36075812D01*
X20900000Y-36088072D01*
X21014250Y-36085000D01*
X21173000Y-35926250D01*
X21173000Y-35127000D01*
X20423750Y-35127000D01*
X20265000Y-35285750D01*
X20261928Y-35450000D01*
X14238072Y-35450000D01*
X14238072Y-35213506D01*
X14901578Y-34550000D01*
X20261928Y-34550000D01*
X20265000Y-34714250D01*
X20423750Y-34873000D01*
X21173000Y-34873000D01*
X21173000Y-34073750D01*
X21014250Y-33915000D01*
X20900000Y-33911928D01*
X20775518Y-33924188D01*
X20655820Y-33960498D01*
X20545506Y-34019463D01*
X20448815Y-34098815D01*
X20369463Y-34195506D01*
X20310498Y-34305820D01*
X20274188Y-34425518D01*
X20261928Y-34550000D01*
X14901578Y-34550000D01*
X15395049Y-34056530D01*
X15428817Y-34028817D01*
X15470108Y-33978505D01*
X15539411Y-33894059D01*
X15551097Y-33872195D01*
X15621589Y-33740313D01*
X15672195Y-33573490D01*
X15685000Y-33443477D01*
X15685000Y-33443469D01*
X15689281Y-33400000D01*
X15685000Y-33356531D01*
X15685000Y-30719694D01*
X15764851Y-30695472D01*
X15918387Y-30613405D01*
X16052962Y-30502962D01*
X16163405Y-30368387D01*
X16245472Y-30214851D01*
X16296008Y-30048255D01*
X16313072Y-29875001D01*
X16313072Y-29249999D01*
X16296008Y-29076745D01*
X16245472Y-28910149D01*
X16232030Y-28885000D01*
X20883422Y-28885000D01*
X21365001Y-29366580D01*
X21365000Y-32140019D01*
X21319463Y-32195506D01*
X21260498Y-32305820D01*
X21224188Y-32425518D01*
X21211928Y-32550000D01*
X21211928Y-33450000D01*
X21224188Y-33574482D01*
X21260498Y-33694180D01*
X21319463Y-33804494D01*
X21365000Y-33859981D01*
X21365001Y-36456521D01*
X21360719Y-36500000D01*
X21376384Y-36659061D01*
X21337000Y-36679845D01*
X21337000Y-37873000D01*
X21357000Y-37873000D01*
X21357000Y-38127000D01*
X21337000Y-38127000D01*
X21337000Y-39320155D01*
X21566890Y-39441476D01*
X21714099Y-39396825D01*
X21976920Y-39271641D01*
X22210269Y-39097588D01*
X22286034Y-39013534D01*
X22310498Y-39094180D01*
X22369463Y-39204494D01*
X22448815Y-39301185D01*
X22545506Y-39380537D01*
X22655820Y-39439502D01*
X22775518Y-39475812D01*
X22900000Y-39488072D01*
X24600000Y-39488072D01*
X24724482Y-39475812D01*
X24844180Y-39439502D01*
X24954494Y-39380537D01*
X25051185Y-39301185D01*
X25130537Y-39204494D01*
X25189502Y-39094180D01*
X25225812Y-38974482D01*
X25238072Y-38850000D01*
X25238072Y-38356891D01*
X29768519Y-38356891D01*
X29865843Y-38631252D01*
X30014822Y-38881355D01*
X30209731Y-39097588D01*
X30443080Y-39271641D01*
X30705901Y-39396825D01*
X30853110Y-39441476D01*
X31083000Y-39320155D01*
X31083000Y-38127000D01*
X29889186Y-38127000D01*
X29768519Y-38356891D01*
X25238072Y-38356891D01*
X25238072Y-37643109D01*
X29768519Y-37643109D01*
X29889186Y-37873000D01*
X31083000Y-37873000D01*
X31083000Y-36679845D01*
X30853110Y-36558524D01*
X30705901Y-36603175D01*
X30443080Y-36728359D01*
X30209731Y-36902412D01*
X30014822Y-37118645D01*
X29865843Y-37368748D01*
X29768519Y-37643109D01*
X25238072Y-37643109D01*
X25238072Y-37150000D01*
X25225812Y-37025518D01*
X25189502Y-36905820D01*
X25130537Y-36795506D01*
X25051185Y-36698815D01*
X24954494Y-36619463D01*
X24844180Y-36560498D01*
X24724482Y-36524188D01*
X24600000Y-36511928D01*
X23513506Y-36511928D01*
X23135000Y-36133422D01*
X23135000Y-36088072D01*
X23600000Y-36088072D01*
X23724482Y-36075812D01*
X23844180Y-36039502D01*
X23954494Y-35980537D01*
X24051185Y-35901185D01*
X24130537Y-35804494D01*
X24189502Y-35694180D01*
X24225812Y-35574482D01*
X24238072Y-35450000D01*
X30261928Y-35450000D01*
X30274188Y-35574482D01*
X30310498Y-35694180D01*
X30369463Y-35804494D01*
X30448815Y-35901185D01*
X30545506Y-35980537D01*
X30655820Y-36039502D01*
X30775518Y-36075812D01*
X30900000Y-36088072D01*
X31014250Y-36085000D01*
X31173000Y-35926250D01*
X31173000Y-35127000D01*
X30423750Y-35127000D01*
X30265000Y-35285750D01*
X30261928Y-35450000D01*
X24238072Y-35450000D01*
X24238072Y-34550000D01*
X30261928Y-34550000D01*
X30265000Y-34714250D01*
X30423750Y-34873000D01*
X31173000Y-34873000D01*
X31173000Y-34073750D01*
X31014250Y-33915000D01*
X30900000Y-33911928D01*
X30775518Y-33924188D01*
X30655820Y-33960498D01*
X30545506Y-34019463D01*
X30448815Y-34098815D01*
X30369463Y-34195506D01*
X30310498Y-34305820D01*
X30274188Y-34425518D01*
X30261928Y-34550000D01*
X24238072Y-34550000D01*
X24225812Y-34425518D01*
X24189502Y-34305820D01*
X24130537Y-34195506D01*
X24085000Y-34140019D01*
X24085000Y-18206578D01*
X27238518Y-15053061D01*
X27348816Y-15075000D01*
X27651184Y-15075000D01*
X27947743Y-15016011D01*
X28227095Y-14900299D01*
X28478505Y-14732312D01*
X28692312Y-14518505D01*
X28860299Y-14267095D01*
X28976011Y-13987743D01*
X29035000Y-13691184D01*
X29035000Y-13388816D01*
X28976011Y-13092257D01*
X28860299Y-12812905D01*
X28692312Y-12561495D01*
X28625873Y-12495056D01*
X28644180Y-12489502D01*
X28754494Y-12430537D01*
X28851185Y-12351185D01*
X28930537Y-12254494D01*
X28989502Y-12144180D01*
X28992287Y-12135000D01*
X42865001Y-12135000D01*
X42865000Y-18265000D01*
X28955751Y-18265000D01*
X28900000Y-18259509D01*
X28844248Y-18265000D01*
X28677501Y-18281423D01*
X28463553Y-18346324D01*
X28266377Y-18451716D01*
X28093551Y-18593551D01*
X28058008Y-18636860D01*
X26736860Y-19958009D01*
X26693552Y-19993551D01*
X26551717Y-20166377D01*
X26495384Y-20271770D01*
X26446324Y-20363554D01*
X26381423Y-20577502D01*
X26359509Y-20800000D01*
X26365001Y-20855761D01*
X26365000Y-28967713D01*
X26355820Y-28970498D01*
X26245506Y-29029463D01*
X26148815Y-29108815D01*
X26069463Y-29205506D01*
X26010498Y-29315820D01*
X25974188Y-29435518D01*
X25961928Y-29560000D01*
X25961928Y-31360000D01*
X25974188Y-31484482D01*
X26010498Y-31604180D01*
X26069463Y-31714494D01*
X26148815Y-31811185D01*
X26245506Y-31890537D01*
X26355820Y-31949502D01*
X26374127Y-31955056D01*
X26307688Y-32021495D01*
X26139701Y-32272905D01*
X26023989Y-32552257D01*
X25965000Y-32848816D01*
X25965000Y-33151184D01*
X26023989Y-33447743D01*
X26139701Y-33727095D01*
X26307688Y-33978505D01*
X26521495Y-34192312D01*
X26772905Y-34360299D01*
X27052257Y-34476011D01*
X27348816Y-34535000D01*
X27651184Y-34535000D01*
X27947743Y-34476011D01*
X28227095Y-34360299D01*
X28478505Y-34192312D01*
X28692312Y-33978505D01*
X28860299Y-33727095D01*
X28929820Y-33559259D01*
X30576007Y-31913072D01*
X31150001Y-31913072D01*
X31323255Y-31896008D01*
X31365000Y-31883345D01*
X31365000Y-32140019D01*
X31319463Y-32195506D01*
X31260498Y-32305820D01*
X31224188Y-32425518D01*
X31211928Y-32550000D01*
X31211928Y-33450000D01*
X31224188Y-33574482D01*
X31260498Y-33694180D01*
X31319463Y-33804494D01*
X31365000Y-33859981D01*
X31365001Y-36456521D01*
X31360719Y-36500000D01*
X31376384Y-36659061D01*
X31337000Y-36679845D01*
X31337000Y-37873000D01*
X31357000Y-37873000D01*
X31357000Y-38127000D01*
X31337000Y-38127000D01*
X31337000Y-39320155D01*
X31566890Y-39441476D01*
X31714099Y-39396825D01*
X31976920Y-39271641D01*
X32210269Y-39097588D01*
X32286034Y-39013534D01*
X32310498Y-39094180D01*
X32369463Y-39204494D01*
X32448815Y-39301185D01*
X32545506Y-39380537D01*
X32655820Y-39439502D01*
X32775518Y-39475812D01*
X32900000Y-39488072D01*
X34600000Y-39488072D01*
X34724482Y-39475812D01*
X34844180Y-39439502D01*
X34954494Y-39380537D01*
X35051185Y-39301185D01*
X35130537Y-39204494D01*
X35189502Y-39094180D01*
X35225812Y-38974482D01*
X35238072Y-38850000D01*
X35238072Y-38356891D01*
X39768519Y-38356891D01*
X39865843Y-38631252D01*
X40014822Y-38881355D01*
X40209731Y-39097588D01*
X40443080Y-39271641D01*
X40705901Y-39396825D01*
X40853110Y-39441476D01*
X41083000Y-39320155D01*
X41083000Y-38127000D01*
X39889186Y-38127000D01*
X39768519Y-38356891D01*
X35238072Y-38356891D01*
X35238072Y-37643109D01*
X39768519Y-37643109D01*
X39889186Y-37873000D01*
X41083000Y-37873000D01*
X41083000Y-36679845D01*
X40853110Y-36558524D01*
X40705901Y-36603175D01*
X40443080Y-36728359D01*
X40209731Y-36902412D01*
X40014822Y-37118645D01*
X39865843Y-37368748D01*
X39768519Y-37643109D01*
X35238072Y-37643109D01*
X35238072Y-37150000D01*
X35225812Y-37025518D01*
X35189502Y-36905820D01*
X35130537Y-36795506D01*
X35051185Y-36698815D01*
X34954494Y-36619463D01*
X34844180Y-36560498D01*
X34724482Y-36524188D01*
X34600000Y-36511928D01*
X33513506Y-36511928D01*
X33135000Y-36133422D01*
X33135000Y-36088072D01*
X33600000Y-36088072D01*
X33724482Y-36075812D01*
X33844180Y-36039502D01*
X33954494Y-35980537D01*
X34051185Y-35901185D01*
X34130537Y-35804494D01*
X34189502Y-35694180D01*
X34225812Y-35574482D01*
X34238072Y-35450000D01*
X40261928Y-35450000D01*
X40274188Y-35574482D01*
X40310498Y-35694180D01*
X40369463Y-35804494D01*
X40448815Y-35901185D01*
X40545506Y-35980537D01*
X40655820Y-36039502D01*
X40775518Y-36075812D01*
X40900000Y-36088072D01*
X41014250Y-36085000D01*
X41173000Y-35926250D01*
X41173000Y-35127000D01*
X40423750Y-35127000D01*
X40265000Y-35285750D01*
X40261928Y-35450000D01*
X34238072Y-35450000D01*
X34238072Y-35213506D01*
X34357544Y-35094034D01*
X34391317Y-35066317D01*
X34501911Y-34931559D01*
X34584089Y-34777813D01*
X34634695Y-34610990D01*
X34640701Y-34550000D01*
X40261928Y-34550000D01*
X40265000Y-34714250D01*
X40423750Y-34873000D01*
X41173000Y-34873000D01*
X41173000Y-34073750D01*
X41014250Y-33915000D01*
X40900000Y-33911928D01*
X40775518Y-33924188D01*
X40655820Y-33960498D01*
X40545506Y-34019463D01*
X40448815Y-34098815D01*
X40369463Y-34195506D01*
X40310498Y-34305820D01*
X40274188Y-34425518D01*
X40261928Y-34550000D01*
X34640701Y-34550000D01*
X34647500Y-34480977D01*
X34647500Y-34480967D01*
X34651781Y-34437501D01*
X34647500Y-34394035D01*
X34647500Y-31698479D01*
X34702962Y-31652962D01*
X34813405Y-31518387D01*
X34895472Y-31364851D01*
X34946008Y-31198255D01*
X34963072Y-31025001D01*
X34963072Y-29774999D01*
X34946008Y-29601745D01*
X34895472Y-29435149D01*
X34813405Y-29281613D01*
X34702962Y-29147038D01*
X34568387Y-29036595D01*
X34414851Y-28954528D01*
X34248255Y-28903992D01*
X34075001Y-28886928D01*
X33449999Y-28886928D01*
X33355326Y-28896252D01*
X33366579Y-28885000D01*
X41130386Y-28885000D01*
X41161595Y-28943387D01*
X41272038Y-29077962D01*
X41406613Y-29188405D01*
X41521849Y-29250000D01*
X41406613Y-29311595D01*
X41272038Y-29422038D01*
X41161595Y-29556613D01*
X41079528Y-29710149D01*
X41028992Y-29876745D01*
X41011928Y-30049999D01*
X41011928Y-30950001D01*
X41028992Y-31123255D01*
X41079528Y-31289851D01*
X41161595Y-31443387D01*
X41272038Y-31577962D01*
X41365001Y-31654254D01*
X41365000Y-32140018D01*
X41319463Y-32195506D01*
X41260498Y-32305820D01*
X41224188Y-32425518D01*
X41211928Y-32550000D01*
X41211928Y-33450000D01*
X41224188Y-33574482D01*
X41260498Y-33694180D01*
X41319463Y-33804494D01*
X41365000Y-33859981D01*
X41365001Y-36456521D01*
X41360719Y-36500000D01*
X41376384Y-36659061D01*
X41337000Y-36679845D01*
X41337000Y-37873000D01*
X41357000Y-37873000D01*
X41357000Y-38127000D01*
X41337000Y-38127000D01*
X41337000Y-39320155D01*
X41566890Y-39441476D01*
X41714099Y-39396825D01*
X41976920Y-39271641D01*
X42210269Y-39097588D01*
X42286034Y-39013534D01*
X42310498Y-39094180D01*
X42369463Y-39204494D01*
X42448815Y-39301185D01*
X42545506Y-39380537D01*
X42655820Y-39439502D01*
X42775518Y-39475812D01*
X42900000Y-39488072D01*
X44600000Y-39488072D01*
X44724482Y-39475812D01*
X44844180Y-39439502D01*
X44954494Y-39380537D01*
X45051185Y-39301185D01*
X45130537Y-39204494D01*
X45189502Y-39094180D01*
X45225812Y-38974482D01*
X45238072Y-38850000D01*
X45238072Y-38779872D01*
X47765000Y-38779872D01*
X47765000Y-39220128D01*
X47850890Y-39651925D01*
X48019369Y-40058669D01*
X48263962Y-40424729D01*
X48575271Y-40736038D01*
X48941331Y-40980631D01*
X49348075Y-41149110D01*
X49779872Y-41235000D01*
X50220128Y-41235000D01*
X50651925Y-41149110D01*
X51058669Y-40980631D01*
X51424729Y-40736038D01*
X51736038Y-40424729D01*
X51980631Y-40058669D01*
X52149110Y-39651925D01*
X52235000Y-39220128D01*
X52235000Y-38779872D01*
X52149110Y-38348075D01*
X51980631Y-37941331D01*
X51736038Y-37575271D01*
X51424729Y-37263962D01*
X51058669Y-37019369D01*
X50651925Y-36850890D01*
X50220128Y-36765000D01*
X49779872Y-36765000D01*
X49348075Y-36850890D01*
X48941331Y-37019369D01*
X48575271Y-37263962D01*
X48263962Y-37575271D01*
X48019369Y-37941331D01*
X47850890Y-38348075D01*
X47765000Y-38779872D01*
X45238072Y-38779872D01*
X45238072Y-37150000D01*
X45225812Y-37025518D01*
X45189502Y-36905820D01*
X45130537Y-36795506D01*
X45051185Y-36698815D01*
X44954494Y-36619463D01*
X44844180Y-36560498D01*
X44724482Y-36524188D01*
X44600000Y-36511928D01*
X43513506Y-36511928D01*
X43135000Y-36133422D01*
X43135000Y-36088072D01*
X43600000Y-36088072D01*
X43724482Y-36075812D01*
X43844180Y-36039502D01*
X43954494Y-35980537D01*
X44051185Y-35901185D01*
X44130537Y-35804494D01*
X44189502Y-35694180D01*
X44225812Y-35574482D01*
X44238072Y-35450000D01*
X44238072Y-35213506D01*
X46257549Y-33194030D01*
X46291317Y-33166317D01*
X46401911Y-33031559D01*
X46484089Y-32877813D01*
X46534695Y-32710990D01*
X46547500Y-32580977D01*
X46547500Y-32580969D01*
X46551781Y-32537500D01*
X46547500Y-32494031D01*
X46547500Y-26998479D01*
X46602962Y-26952962D01*
X46713405Y-26818387D01*
X46795472Y-26664851D01*
X46846008Y-26498255D01*
X46863072Y-26325001D01*
X46863072Y-25074999D01*
X46846008Y-24901745D01*
X46795472Y-24735149D01*
X46713405Y-24581613D01*
X46602962Y-24447038D01*
X46468387Y-24336595D01*
X46314851Y-24254528D01*
X46148255Y-24203992D01*
X45975001Y-24186928D01*
X45385000Y-24186928D01*
X45385000Y-23309981D01*
X45430537Y-23254494D01*
X45489502Y-23144180D01*
X45525812Y-23024482D01*
X45538072Y-22900000D01*
X45538072Y-21100000D01*
X45525812Y-20975518D01*
X45489502Y-20855820D01*
X45430537Y-20745506D01*
X45351185Y-20648815D01*
X45254494Y-20569463D01*
X45144180Y-20510498D01*
X45135000Y-20507713D01*
X45135000Y-19455751D01*
X45140491Y-19400000D01*
X45135000Y-19344248D01*
X45135000Y-13896890D01*
X48058524Y-13896890D01*
X48103175Y-14044099D01*
X48228359Y-14306920D01*
X48402412Y-14540269D01*
X48618645Y-14735178D01*
X48868748Y-14884157D01*
X49143109Y-14981481D01*
X49373000Y-14860814D01*
X49373000Y-13667000D01*
X49627000Y-13667000D01*
X49627000Y-14860814D01*
X49856891Y-14981481D01*
X50131252Y-14884157D01*
X50381355Y-14735178D01*
X50597588Y-14540269D01*
X50771641Y-14306920D01*
X50896825Y-14044099D01*
X50941476Y-13896890D01*
X50820155Y-13667000D01*
X49627000Y-13667000D01*
X49373000Y-13667000D01*
X48179845Y-13667000D01*
X48058524Y-13896890D01*
X45135000Y-13896890D01*
X45135000Y-12135000D01*
X48082317Y-12135000D01*
X48119463Y-12204494D01*
X48198815Y-12301185D01*
X48295506Y-12380537D01*
X48405820Y-12439502D01*
X48486466Y-12463966D01*
X48402412Y-12539731D01*
X48228359Y-12773080D01*
X48103175Y-13035901D01*
X48058524Y-13183110D01*
X48179845Y-13413000D01*
X49373000Y-13413000D01*
X49373000Y-13393000D01*
X49627000Y-13393000D01*
X49627000Y-13413000D01*
X50820155Y-13413000D01*
X50941476Y-13183110D01*
X50896825Y-13035901D01*
X50771641Y-12773080D01*
X50597588Y-12539731D01*
X50513534Y-12463966D01*
X50594180Y-12439502D01*
X50704494Y-12380537D01*
X50801185Y-12301185D01*
X50880537Y-12204494D01*
X50939502Y-12094180D01*
X50975812Y-11974482D01*
X50988072Y-11850000D01*
X50988072Y-10150000D01*
X50975812Y-10025518D01*
X50939502Y-9905820D01*
X50880537Y-9795506D01*
X50801185Y-9698815D01*
X50704494Y-9619463D01*
X50594180Y-9560498D01*
X50474482Y-9524188D01*
X50350000Y-9511928D01*
X48650000Y-9511928D01*
X48525518Y-9524188D01*
X48405820Y-9560498D01*
X48295506Y-9619463D01*
X48198815Y-9698815D01*
X48119463Y-9795506D01*
X48082317Y-9865000D01*
X44055752Y-9865000D01*
X44000000Y-9859509D01*
X43944249Y-9865000D01*
X28992287Y-9865000D01*
X28989502Y-9855820D01*
X28930537Y-9745506D01*
X28851185Y-9648815D01*
X28754494Y-9569463D01*
X28644180Y-9510498D01*
X28524482Y-9474188D01*
X28400000Y-9461928D01*
X26600000Y-9461928D01*
X26475518Y-9474188D01*
X26355820Y-9510498D01*
X26245506Y-9569463D01*
X26148815Y-9648815D01*
X26069463Y-9745506D01*
X26010498Y-9855820D01*
X26007713Y-9865000D01*
X12055752Y-9865000D01*
X12000000Y-9859509D01*
X11777501Y-9881423D01*
X11563553Y-9946324D01*
X11366377Y-10051716D01*
X11236856Y-10158011D01*
X11236854Y-10158013D01*
X11193551Y-10193551D01*
X11158013Y-10236855D01*
X10236859Y-11158009D01*
X10193552Y-11193551D01*
X10051717Y-11366377D01*
X10014264Y-11436447D01*
X9946324Y-11563554D01*
X9881423Y-11777502D01*
X9859509Y-12000000D01*
X9865001Y-12055761D01*
X9865000Y-20507713D01*
X9855820Y-20510498D01*
X9745506Y-20569463D01*
X9648815Y-20648815D01*
X9569463Y-20745506D01*
X9510498Y-20855820D01*
X9474188Y-20975518D01*
X9461928Y-21100000D01*
X9461928Y-21928470D01*
X9443552Y-21943551D01*
X9301717Y-22116377D01*
X9245384Y-22221770D01*
X9196324Y-22313554D01*
X9131423Y-22527502D01*
X9109509Y-22750000D01*
X9115001Y-22805761D01*
X9115000Y-27143785D01*
X9079528Y-27210149D01*
X9028992Y-27376745D01*
X9011928Y-27549999D01*
X1660000Y-27549999D01*
X1660000Y-5032278D01*
X1684748Y-4779872D01*
X2765000Y-4779872D01*
X2765000Y-5220128D01*
X2850890Y-5651925D01*
X3019369Y-6058669D01*
X3263962Y-6424729D01*
X3575271Y-6736038D01*
X3941331Y-6980631D01*
X4348075Y-7149110D01*
X4779872Y-7235000D01*
X5220128Y-7235000D01*
X5651925Y-7149110D01*
X6058669Y-6980631D01*
X6424729Y-6736038D01*
X6736038Y-6424729D01*
X6980631Y-6058669D01*
X7149110Y-5651925D01*
X7235000Y-5220128D01*
X7235000Y-4779872D01*
X47765000Y-4779872D01*
X47765000Y-5220128D01*
X47850890Y-5651925D01*
X48019369Y-6058669D01*
X48263962Y-6424729D01*
X48575271Y-6736038D01*
X48941331Y-6980631D01*
X49348075Y-7149110D01*
X49779872Y-7235000D01*
X50220128Y-7235000D01*
X50651925Y-7149110D01*
X51058669Y-6980631D01*
X51424729Y-6736038D01*
X51736038Y-6424729D01*
X51980631Y-6058669D01*
X52149110Y-5651925D01*
X52235000Y-5220128D01*
X52235000Y-4779872D01*
X52149110Y-4348075D01*
X51980631Y-3941331D01*
X51736038Y-3575271D01*
X51424729Y-3263962D01*
X51058669Y-3019369D01*
X50651925Y-2850890D01*
X50220128Y-2765000D01*
X49779872Y-2765000D01*
X49348075Y-2850890D01*
X48941331Y-3019369D01*
X48575271Y-3263962D01*
X48263962Y-3575271D01*
X48019369Y-3941331D01*
X47850890Y-4348075D01*
X47765000Y-4779872D01*
X7235000Y-4779872D01*
X7149110Y-4348075D01*
X6980631Y-3941331D01*
X6736038Y-3575271D01*
X6424729Y-3263962D01*
X6058669Y-3019369D01*
X5651925Y-2850890D01*
X5220128Y-2765000D01*
X4779872Y-2765000D01*
X4348075Y-2850890D01*
X3941331Y-3019369D01*
X3575271Y-3263962D01*
X3263962Y-3575271D01*
X3019369Y-3941331D01*
X2850890Y-4348075D01*
X2765000Y-4779872D01*
X1684748Y-4779872D01*
X1726714Y-4351874D01*
X1914943Y-3728428D01*
X2220681Y-3153421D01*
X2632279Y-2648753D01*
X3134067Y-2233638D01*
X3706924Y-1923895D01*
X4329039Y-1731318D01*
X5007584Y-1660000D01*
X49967722Y-1660000D01*
X50648126Y-1726714D01*
%TA.AperFunction,Conductor*%
D18*
G36*
X50648126Y-1726714D02*
G01*
X51271572Y-1914943D01*
X51846579Y-2220681D01*
X52351247Y-2632279D01*
X52766362Y-3134067D01*
X53076105Y-3706924D01*
X53268682Y-4329039D01*
X53340001Y-5007594D01*
X53340000Y-38967721D01*
X53273286Y-39648126D01*
X53085057Y-40271570D01*
X52779323Y-40846573D01*
X52367721Y-41351248D01*
X51865933Y-41766362D01*
X51293077Y-42076104D01*
X50670961Y-42268682D01*
X49992417Y-42340000D01*
X5032279Y-42340000D01*
X4351874Y-42273286D01*
X3728430Y-42085057D01*
X3153427Y-41779323D01*
X2648752Y-41367721D01*
X2233638Y-40865933D01*
X1923896Y-40293077D01*
X1731318Y-39670961D01*
X1660000Y-38992417D01*
X1660000Y-38779872D01*
X2765000Y-38779872D01*
X2765000Y-39220128D01*
X2850890Y-39651925D01*
X3019369Y-40058669D01*
X3263962Y-40424729D01*
X3575271Y-40736038D01*
X3941331Y-40980631D01*
X4348075Y-41149110D01*
X4779872Y-41235000D01*
X5220128Y-41235000D01*
X5651925Y-41149110D01*
X6058669Y-40980631D01*
X6424729Y-40736038D01*
X6736038Y-40424729D01*
X6980631Y-40058669D01*
X7149110Y-39651925D01*
X7235000Y-39220128D01*
X7235000Y-38779872D01*
X7150864Y-38356891D01*
X9768519Y-38356891D01*
X9865843Y-38631252D01*
X10014822Y-38881355D01*
X10209731Y-39097588D01*
X10443080Y-39271641D01*
X10705901Y-39396825D01*
X10853110Y-39441476D01*
X11083000Y-39320155D01*
X11083000Y-38127000D01*
X9889186Y-38127000D01*
X9768519Y-38356891D01*
X7150864Y-38356891D01*
X7149110Y-38348075D01*
X6980631Y-37941331D01*
X6781366Y-37643109D01*
X9768519Y-37643109D01*
X9889186Y-37873000D01*
X11083000Y-37873000D01*
X11083000Y-36679845D01*
X10853110Y-36558524D01*
X10705901Y-36603175D01*
X10443080Y-36728359D01*
X10209731Y-36902412D01*
X10014822Y-37118645D01*
X9865843Y-37368748D01*
X9768519Y-37643109D01*
X6781366Y-37643109D01*
X6736038Y-37575271D01*
X6424729Y-37263962D01*
X6058669Y-37019369D01*
X5651925Y-36850890D01*
X5220128Y-36765000D01*
X4779872Y-36765000D01*
X4348075Y-36850890D01*
X3941331Y-37019369D01*
X3575271Y-37263962D01*
X3263962Y-37575271D01*
X3019369Y-37941331D01*
X2850890Y-38348075D01*
X2765000Y-38779872D01*
X1660000Y-38779872D01*
X1660000Y-35450000D01*
X10261928Y-35450000D01*
X10274188Y-35574482D01*
X10310498Y-35694180D01*
X10369463Y-35804494D01*
X10448815Y-35901185D01*
X10545506Y-35980537D01*
X10655820Y-36039502D01*
X10775518Y-36075812D01*
X10900000Y-36088072D01*
X11014250Y-36085000D01*
X11173000Y-35926250D01*
X11173000Y-35127000D01*
X10423750Y-35127000D01*
X10265000Y-35285750D01*
X10261928Y-35450000D01*
X1660000Y-35450000D01*
X1660000Y-34550000D01*
X10261928Y-34550000D01*
X10265000Y-34714250D01*
X10423750Y-34873000D01*
X11173000Y-34873000D01*
X11173000Y-34073750D01*
X11014250Y-33915000D01*
X10900000Y-33911928D01*
X10775518Y-33924188D01*
X10655820Y-33960498D01*
X10545506Y-34019463D01*
X10448815Y-34098815D01*
X10369463Y-34195506D01*
X10310498Y-34305820D01*
X10274188Y-34425518D01*
X10261928Y-34550000D01*
X1660000Y-34550000D01*
X1660000Y-27549999D01*
X9011928Y-27549999D01*
X9011928Y-28450001D01*
X9028992Y-28623255D01*
X9079528Y-28789851D01*
X9115001Y-28856215D01*
X9115000Y-29643785D01*
X9079528Y-29710149D01*
X9028992Y-29876745D01*
X9011928Y-30049999D01*
X9011928Y-30950001D01*
X9028992Y-31123255D01*
X9079528Y-31289851D01*
X9161595Y-31443387D01*
X9272038Y-31577962D01*
X9406613Y-31688405D01*
X9560149Y-31770472D01*
X9726745Y-31821008D01*
X9899999Y-31838072D01*
X10600001Y-31838072D01*
X10773255Y-31821008D01*
X10939851Y-31770472D01*
X11093387Y-31688405D01*
X11227962Y-31577962D01*
X11250000Y-31551109D01*
X11272038Y-31577962D01*
X11365001Y-31654254D01*
X11365000Y-32140018D01*
X11319463Y-32195506D01*
X11260498Y-32305820D01*
X11224188Y-32425518D01*
X11211928Y-32550000D01*
X11211928Y-33450000D01*
X11224188Y-33574482D01*
X11260498Y-33694180D01*
X11319463Y-33804494D01*
X11365000Y-33859981D01*
X11365001Y-36456521D01*
X11360719Y-36500000D01*
X11376384Y-36659061D01*
X11337000Y-36679845D01*
X11337000Y-37873000D01*
X11357000Y-37873000D01*
X11357000Y-38127000D01*
X11337000Y-38127000D01*
X11337000Y-39320155D01*
X11566890Y-39441476D01*
X11714099Y-39396825D01*
X11976920Y-39271641D01*
X12210269Y-39097588D01*
X12286034Y-39013534D01*
X12310498Y-39094180D01*
X12369463Y-39204494D01*
X12448815Y-39301185D01*
X12545506Y-39380537D01*
X12655820Y-39439502D01*
X12775518Y-39475812D01*
X12900000Y-39488072D01*
X14600000Y-39488072D01*
X14724482Y-39475812D01*
X14844180Y-39439502D01*
X14954494Y-39380537D01*
X15051185Y-39301185D01*
X15130537Y-39204494D01*
X15189502Y-39094180D01*
X15225812Y-38974482D01*
X15238072Y-38850000D01*
X15238072Y-38356891D01*
X19768519Y-38356891D01*
X19865843Y-38631252D01*
X20014822Y-38881355D01*
X20209731Y-39097588D01*
X20443080Y-39271641D01*
X20705901Y-39396825D01*
X20853110Y-39441476D01*
X21083000Y-39320155D01*
X21083000Y-38127000D01*
X19889186Y-38127000D01*
X19768519Y-38356891D01*
X15238072Y-38356891D01*
X15238072Y-37643109D01*
X19768519Y-37643109D01*
X19889186Y-37873000D01*
X21083000Y-37873000D01*
X21083000Y-36679845D01*
X20853110Y-36558524D01*
X20705901Y-36603175D01*
X20443080Y-36728359D01*
X20209731Y-36902412D01*
X20014822Y-37118645D01*
X19865843Y-37368748D01*
X19768519Y-37643109D01*
X15238072Y-37643109D01*
X15238072Y-37150000D01*
X15225812Y-37025518D01*
X15189502Y-36905820D01*
X15130537Y-36795506D01*
X15051185Y-36698815D01*
X14954494Y-36619463D01*
X14844180Y-36560498D01*
X14724482Y-36524188D01*
X14600000Y-36511928D01*
X13513506Y-36511928D01*
X13135000Y-36133422D01*
X13135000Y-36088072D01*
X13600000Y-36088072D01*
X13724482Y-36075812D01*
X13844180Y-36039502D01*
X13954494Y-35980537D01*
X14051185Y-35901185D01*
X14130537Y-35804494D01*
X14189502Y-35694180D01*
X14225812Y-35574482D01*
X14238072Y-35450000D01*
X20261928Y-35450000D01*
X20274188Y-35574482D01*
X20310498Y-35694180D01*
X20369463Y-35804494D01*
X20448815Y-35901185D01*
X20545506Y-35980537D01*
X20655820Y-36039502D01*
X20775518Y-36075812D01*
X20900000Y-36088072D01*
X21014250Y-36085000D01*
X21173000Y-35926250D01*
X21173000Y-35127000D01*
X20423750Y-35127000D01*
X20265000Y-35285750D01*
X20261928Y-35450000D01*
X14238072Y-35450000D01*
X14238072Y-35213506D01*
X14901578Y-34550000D01*
X20261928Y-34550000D01*
X20265000Y-34714250D01*
X20423750Y-34873000D01*
X21173000Y-34873000D01*
X21173000Y-34073750D01*
X21014250Y-33915000D01*
X20900000Y-33911928D01*
X20775518Y-33924188D01*
X20655820Y-33960498D01*
X20545506Y-34019463D01*
X20448815Y-34098815D01*
X20369463Y-34195506D01*
X20310498Y-34305820D01*
X20274188Y-34425518D01*
X20261928Y-34550000D01*
X14901578Y-34550000D01*
X15395049Y-34056530D01*
X15428817Y-34028817D01*
X15470108Y-33978505D01*
X15539411Y-33894059D01*
X15551097Y-33872195D01*
X15621589Y-33740313D01*
X15672195Y-33573490D01*
X15685000Y-33443477D01*
X15685000Y-33443469D01*
X15689281Y-33400000D01*
X15685000Y-33356531D01*
X15685000Y-30719694D01*
X15764851Y-30695472D01*
X15918387Y-30613405D01*
X16052962Y-30502962D01*
X16163405Y-30368387D01*
X16245472Y-30214851D01*
X16296008Y-30048255D01*
X16313072Y-29875001D01*
X16313072Y-29249999D01*
X16296008Y-29076745D01*
X16245472Y-28910149D01*
X16232030Y-28885000D01*
X20883422Y-28885000D01*
X21365001Y-29366580D01*
X21365000Y-32140019D01*
X21319463Y-32195506D01*
X21260498Y-32305820D01*
X21224188Y-32425518D01*
X21211928Y-32550000D01*
X21211928Y-33450000D01*
X21224188Y-33574482D01*
X21260498Y-33694180D01*
X21319463Y-33804494D01*
X21365000Y-33859981D01*
X21365001Y-36456521D01*
X21360719Y-36500000D01*
X21376384Y-36659061D01*
X21337000Y-36679845D01*
X21337000Y-37873000D01*
X21357000Y-37873000D01*
X21357000Y-38127000D01*
X21337000Y-38127000D01*
X21337000Y-39320155D01*
X21566890Y-39441476D01*
X21714099Y-39396825D01*
X21976920Y-39271641D01*
X22210269Y-39097588D01*
X22286034Y-39013534D01*
X22310498Y-39094180D01*
X22369463Y-39204494D01*
X22448815Y-39301185D01*
X22545506Y-39380537D01*
X22655820Y-39439502D01*
X22775518Y-39475812D01*
X22900000Y-39488072D01*
X24600000Y-39488072D01*
X24724482Y-39475812D01*
X24844180Y-39439502D01*
X24954494Y-39380537D01*
X25051185Y-39301185D01*
X25130537Y-39204494D01*
X25189502Y-39094180D01*
X25225812Y-38974482D01*
X25238072Y-38850000D01*
X25238072Y-38356891D01*
X29768519Y-38356891D01*
X29865843Y-38631252D01*
X30014822Y-38881355D01*
X30209731Y-39097588D01*
X30443080Y-39271641D01*
X30705901Y-39396825D01*
X30853110Y-39441476D01*
X31083000Y-39320155D01*
X31083000Y-38127000D01*
X29889186Y-38127000D01*
X29768519Y-38356891D01*
X25238072Y-38356891D01*
X25238072Y-37643109D01*
X29768519Y-37643109D01*
X29889186Y-37873000D01*
X31083000Y-37873000D01*
X31083000Y-36679845D01*
X30853110Y-36558524D01*
X30705901Y-36603175D01*
X30443080Y-36728359D01*
X30209731Y-36902412D01*
X30014822Y-37118645D01*
X29865843Y-37368748D01*
X29768519Y-37643109D01*
X25238072Y-37643109D01*
X25238072Y-37150000D01*
X25225812Y-37025518D01*
X25189502Y-36905820D01*
X25130537Y-36795506D01*
X25051185Y-36698815D01*
X24954494Y-36619463D01*
X24844180Y-36560498D01*
X24724482Y-36524188D01*
X24600000Y-36511928D01*
X23513506Y-36511928D01*
X23135000Y-36133422D01*
X23135000Y-36088072D01*
X23600000Y-36088072D01*
X23724482Y-36075812D01*
X23844180Y-36039502D01*
X23954494Y-35980537D01*
X24051185Y-35901185D01*
X24130537Y-35804494D01*
X24189502Y-35694180D01*
X24225812Y-35574482D01*
X24238072Y-35450000D01*
X30261928Y-35450000D01*
X30274188Y-35574482D01*
X30310498Y-35694180D01*
X30369463Y-35804494D01*
X30448815Y-35901185D01*
X30545506Y-35980537D01*
X30655820Y-36039502D01*
X30775518Y-36075812D01*
X30900000Y-36088072D01*
X31014250Y-36085000D01*
X31173000Y-35926250D01*
X31173000Y-35127000D01*
X30423750Y-35127000D01*
X30265000Y-35285750D01*
X30261928Y-35450000D01*
X24238072Y-35450000D01*
X24238072Y-34550000D01*
X30261928Y-34550000D01*
X30265000Y-34714250D01*
X30423750Y-34873000D01*
X31173000Y-34873000D01*
X31173000Y-34073750D01*
X31014250Y-33915000D01*
X30900000Y-33911928D01*
X30775518Y-33924188D01*
X30655820Y-33960498D01*
X30545506Y-34019463D01*
X30448815Y-34098815D01*
X30369463Y-34195506D01*
X30310498Y-34305820D01*
X30274188Y-34425518D01*
X30261928Y-34550000D01*
X24238072Y-34550000D01*
X24225812Y-34425518D01*
X24189502Y-34305820D01*
X24130537Y-34195506D01*
X24085000Y-34140019D01*
X24085000Y-18206578D01*
X27238518Y-15053061D01*
X27348816Y-15075000D01*
X27651184Y-15075000D01*
X27947743Y-15016011D01*
X28227095Y-14900299D01*
X28478505Y-14732312D01*
X28692312Y-14518505D01*
X28860299Y-14267095D01*
X28976011Y-13987743D01*
X29035000Y-13691184D01*
X29035000Y-13388816D01*
X28976011Y-13092257D01*
X28860299Y-12812905D01*
X28692312Y-12561495D01*
X28625873Y-12495056D01*
X28644180Y-12489502D01*
X28754494Y-12430537D01*
X28851185Y-12351185D01*
X28930537Y-12254494D01*
X28989502Y-12144180D01*
X28992287Y-12135000D01*
X42865001Y-12135000D01*
X42865000Y-18265000D01*
X28955751Y-18265000D01*
X28900000Y-18259509D01*
X28844248Y-18265000D01*
X28677501Y-18281423D01*
X28463553Y-18346324D01*
X28266377Y-18451716D01*
X28093551Y-18593551D01*
X28058008Y-18636860D01*
X26736860Y-19958009D01*
X26693552Y-19993551D01*
X26551717Y-20166377D01*
X26495384Y-20271770D01*
X26446324Y-20363554D01*
X26381423Y-20577502D01*
X26359509Y-20800000D01*
X26365001Y-20855761D01*
X26365000Y-28967713D01*
X26355820Y-28970498D01*
X26245506Y-29029463D01*
X26148815Y-29108815D01*
X26069463Y-29205506D01*
X26010498Y-29315820D01*
X25974188Y-29435518D01*
X25961928Y-29560000D01*
X25961928Y-31360000D01*
X25974188Y-31484482D01*
X26010498Y-31604180D01*
X26069463Y-31714494D01*
X26148815Y-31811185D01*
X26245506Y-31890537D01*
X26355820Y-31949502D01*
X26374127Y-31955056D01*
X26307688Y-32021495D01*
X26139701Y-32272905D01*
X26023989Y-32552257D01*
X25965000Y-32848816D01*
X25965000Y-33151184D01*
X26023989Y-33447743D01*
X26139701Y-33727095D01*
X26307688Y-33978505D01*
X26521495Y-34192312D01*
X26772905Y-34360299D01*
X27052257Y-34476011D01*
X27348816Y-34535000D01*
X27651184Y-34535000D01*
X27947743Y-34476011D01*
X28227095Y-34360299D01*
X28478505Y-34192312D01*
X28692312Y-33978505D01*
X28860299Y-33727095D01*
X28929820Y-33559259D01*
X30576007Y-31913072D01*
X31150001Y-31913072D01*
X31323255Y-31896008D01*
X31365000Y-31883345D01*
X31365000Y-32140019D01*
X31319463Y-32195506D01*
X31260498Y-32305820D01*
X31224188Y-32425518D01*
X31211928Y-32550000D01*
X31211928Y-33450000D01*
X31224188Y-33574482D01*
X31260498Y-33694180D01*
X31319463Y-33804494D01*
X31365000Y-33859981D01*
X31365001Y-36456521D01*
X31360719Y-36500000D01*
X31376384Y-36659061D01*
X31337000Y-36679845D01*
X31337000Y-37873000D01*
X31357000Y-37873000D01*
X31357000Y-38127000D01*
X31337000Y-38127000D01*
X31337000Y-39320155D01*
X31566890Y-39441476D01*
X31714099Y-39396825D01*
X31976920Y-39271641D01*
X32210269Y-39097588D01*
X32286034Y-39013534D01*
X32310498Y-39094180D01*
X32369463Y-39204494D01*
X32448815Y-39301185D01*
X32545506Y-39380537D01*
X32655820Y-39439502D01*
X32775518Y-39475812D01*
X32900000Y-39488072D01*
X34600000Y-39488072D01*
X34724482Y-39475812D01*
X34844180Y-39439502D01*
X34954494Y-39380537D01*
X35051185Y-39301185D01*
X35130537Y-39204494D01*
X35189502Y-39094180D01*
X35225812Y-38974482D01*
X35238072Y-38850000D01*
X35238072Y-38356891D01*
X39768519Y-38356891D01*
X39865843Y-38631252D01*
X40014822Y-38881355D01*
X40209731Y-39097588D01*
X40443080Y-39271641D01*
X40705901Y-39396825D01*
X40853110Y-39441476D01*
X41083000Y-39320155D01*
X41083000Y-38127000D01*
X39889186Y-38127000D01*
X39768519Y-38356891D01*
X35238072Y-38356891D01*
X35238072Y-37643109D01*
X39768519Y-37643109D01*
X39889186Y-37873000D01*
X41083000Y-37873000D01*
X41083000Y-36679845D01*
X40853110Y-36558524D01*
X40705901Y-36603175D01*
X40443080Y-36728359D01*
X40209731Y-36902412D01*
X40014822Y-37118645D01*
X39865843Y-37368748D01*
X39768519Y-37643109D01*
X35238072Y-37643109D01*
X35238072Y-37150000D01*
X35225812Y-37025518D01*
X35189502Y-36905820D01*
X35130537Y-36795506D01*
X35051185Y-36698815D01*
X34954494Y-36619463D01*
X34844180Y-36560498D01*
X34724482Y-36524188D01*
X34600000Y-36511928D01*
X33513506Y-36511928D01*
X33135000Y-36133422D01*
X33135000Y-36088072D01*
X33600000Y-36088072D01*
X33724482Y-36075812D01*
X33844180Y-36039502D01*
X33954494Y-35980537D01*
X34051185Y-35901185D01*
X34130537Y-35804494D01*
X34189502Y-35694180D01*
X34225812Y-35574482D01*
X34238072Y-35450000D01*
X40261928Y-35450000D01*
X40274188Y-35574482D01*
X40310498Y-35694180D01*
X40369463Y-35804494D01*
X40448815Y-35901185D01*
X40545506Y-35980537D01*
X40655820Y-36039502D01*
X40775518Y-36075812D01*
X40900000Y-36088072D01*
X41014250Y-36085000D01*
X41173000Y-35926250D01*
X41173000Y-35127000D01*
X40423750Y-35127000D01*
X40265000Y-35285750D01*
X40261928Y-35450000D01*
X34238072Y-35450000D01*
X34238072Y-35213506D01*
X34357544Y-35094034D01*
X34391317Y-35066317D01*
X34501911Y-34931559D01*
X34584089Y-34777813D01*
X34634695Y-34610990D01*
X34640701Y-34550000D01*
X40261928Y-34550000D01*
X40265000Y-34714250D01*
X40423750Y-34873000D01*
X41173000Y-34873000D01*
X41173000Y-34073750D01*
X41014250Y-33915000D01*
X40900000Y-33911928D01*
X40775518Y-33924188D01*
X40655820Y-33960498D01*
X40545506Y-34019463D01*
X40448815Y-34098815D01*
X40369463Y-34195506D01*
X40310498Y-34305820D01*
X40274188Y-34425518D01*
X40261928Y-34550000D01*
X34640701Y-34550000D01*
X34647500Y-34480977D01*
X34647500Y-34480967D01*
X34651781Y-34437501D01*
X34647500Y-34394035D01*
X34647500Y-31698479D01*
X34702962Y-31652962D01*
X34813405Y-31518387D01*
X34895472Y-31364851D01*
X34946008Y-31198255D01*
X34963072Y-31025001D01*
X34963072Y-29774999D01*
X34946008Y-29601745D01*
X34895472Y-29435149D01*
X34813405Y-29281613D01*
X34702962Y-29147038D01*
X34568387Y-29036595D01*
X34414851Y-28954528D01*
X34248255Y-28903992D01*
X34075001Y-28886928D01*
X33449999Y-28886928D01*
X33355326Y-28896252D01*
X33366579Y-28885000D01*
X41130386Y-28885000D01*
X41161595Y-28943387D01*
X41272038Y-29077962D01*
X41406613Y-29188405D01*
X41521849Y-29250000D01*
X41406613Y-29311595D01*
X41272038Y-29422038D01*
X41161595Y-29556613D01*
X41079528Y-29710149D01*
X41028992Y-29876745D01*
X41011928Y-30049999D01*
X41011928Y-30950001D01*
X41028992Y-31123255D01*
X41079528Y-31289851D01*
X41161595Y-31443387D01*
X41272038Y-31577962D01*
X41365001Y-31654254D01*
X41365000Y-32140018D01*
X41319463Y-32195506D01*
X41260498Y-32305820D01*
X41224188Y-32425518D01*
X41211928Y-32550000D01*
X41211928Y-33450000D01*
X41224188Y-33574482D01*
X41260498Y-33694180D01*
X41319463Y-33804494D01*
X41365000Y-33859981D01*
X41365001Y-36456521D01*
X41360719Y-36500000D01*
X41376384Y-36659061D01*
X41337000Y-36679845D01*
X41337000Y-37873000D01*
X41357000Y-37873000D01*
X41357000Y-38127000D01*
X41337000Y-38127000D01*
X41337000Y-39320155D01*
X41566890Y-39441476D01*
X41714099Y-39396825D01*
X41976920Y-39271641D01*
X42210269Y-39097588D01*
X42286034Y-39013534D01*
X42310498Y-39094180D01*
X42369463Y-39204494D01*
X42448815Y-39301185D01*
X42545506Y-39380537D01*
X42655820Y-39439502D01*
X42775518Y-39475812D01*
X42900000Y-39488072D01*
X44600000Y-39488072D01*
X44724482Y-39475812D01*
X44844180Y-39439502D01*
X44954494Y-39380537D01*
X45051185Y-39301185D01*
X45130537Y-39204494D01*
X45189502Y-39094180D01*
X45225812Y-38974482D01*
X45238072Y-38850000D01*
X45238072Y-38779872D01*
X47765000Y-38779872D01*
X47765000Y-39220128D01*
X47850890Y-39651925D01*
X48019369Y-40058669D01*
X48263962Y-40424729D01*
X48575271Y-40736038D01*
X48941331Y-40980631D01*
X49348075Y-41149110D01*
X49779872Y-41235000D01*
X50220128Y-41235000D01*
X50651925Y-41149110D01*
X51058669Y-40980631D01*
X51424729Y-40736038D01*
X51736038Y-40424729D01*
X51980631Y-40058669D01*
X52149110Y-39651925D01*
X52235000Y-39220128D01*
X52235000Y-38779872D01*
X52149110Y-38348075D01*
X51980631Y-37941331D01*
X51736038Y-37575271D01*
X51424729Y-37263962D01*
X51058669Y-37019369D01*
X50651925Y-36850890D01*
X50220128Y-36765000D01*
X49779872Y-36765000D01*
X49348075Y-36850890D01*
X48941331Y-37019369D01*
X48575271Y-37263962D01*
X48263962Y-37575271D01*
X48019369Y-37941331D01*
X47850890Y-38348075D01*
X47765000Y-38779872D01*
X45238072Y-38779872D01*
X45238072Y-37150000D01*
X45225812Y-37025518D01*
X45189502Y-36905820D01*
X45130537Y-36795506D01*
X45051185Y-36698815D01*
X44954494Y-36619463D01*
X44844180Y-36560498D01*
X44724482Y-36524188D01*
X44600000Y-36511928D01*
X43513506Y-36511928D01*
X43135000Y-36133422D01*
X43135000Y-36088072D01*
X43600000Y-36088072D01*
X43724482Y-36075812D01*
X43844180Y-36039502D01*
X43954494Y-35980537D01*
X44051185Y-35901185D01*
X44130537Y-35804494D01*
X44189502Y-35694180D01*
X44225812Y-35574482D01*
X44238072Y-35450000D01*
X44238072Y-35213506D01*
X46257549Y-33194030D01*
X46291317Y-33166317D01*
X46401911Y-33031559D01*
X46484089Y-32877813D01*
X46534695Y-32710990D01*
X46547500Y-32580977D01*
X46547500Y-32580969D01*
X46551781Y-32537500D01*
X46547500Y-32494031D01*
X46547500Y-26998479D01*
X46602962Y-26952962D01*
X46713405Y-26818387D01*
X46795472Y-26664851D01*
X46846008Y-26498255D01*
X46863072Y-26325001D01*
X46863072Y-25074999D01*
X46846008Y-24901745D01*
X46795472Y-24735149D01*
X46713405Y-24581613D01*
X46602962Y-24447038D01*
X46468387Y-24336595D01*
X46314851Y-24254528D01*
X46148255Y-24203992D01*
X45975001Y-24186928D01*
X45385000Y-24186928D01*
X45385000Y-23309981D01*
X45430537Y-23254494D01*
X45489502Y-23144180D01*
X45525812Y-23024482D01*
X45538072Y-22900000D01*
X45538072Y-21100000D01*
X45525812Y-20975518D01*
X45489502Y-20855820D01*
X45430537Y-20745506D01*
X45351185Y-20648815D01*
X45254494Y-20569463D01*
X45144180Y-20510498D01*
X45135000Y-20507713D01*
X45135000Y-19455751D01*
X45140491Y-19400000D01*
X45135000Y-19344248D01*
X45135000Y-13896890D01*
X48058524Y-13896890D01*
X48103175Y-14044099D01*
X48228359Y-14306920D01*
X48402412Y-14540269D01*
X48618645Y-14735178D01*
X48868748Y-14884157D01*
X49143109Y-14981481D01*
X49373000Y-14860814D01*
X49373000Y-13667000D01*
X49627000Y-13667000D01*
X49627000Y-14860814D01*
X49856891Y-14981481D01*
X50131252Y-14884157D01*
X50381355Y-14735178D01*
X50597588Y-14540269D01*
X50771641Y-14306920D01*
X50896825Y-14044099D01*
X50941476Y-13896890D01*
X50820155Y-13667000D01*
X49627000Y-13667000D01*
X49373000Y-13667000D01*
X48179845Y-13667000D01*
X48058524Y-13896890D01*
X45135000Y-13896890D01*
X45135000Y-12135000D01*
X48082317Y-12135000D01*
X48119463Y-12204494D01*
X48198815Y-12301185D01*
X48295506Y-12380537D01*
X48405820Y-12439502D01*
X48486466Y-12463966D01*
X48402412Y-12539731D01*
X48228359Y-12773080D01*
X48103175Y-13035901D01*
X48058524Y-13183110D01*
X48179845Y-13413000D01*
X49373000Y-13413000D01*
X49373000Y-13393000D01*
X49627000Y-13393000D01*
X49627000Y-13413000D01*
X50820155Y-13413000D01*
X50941476Y-13183110D01*
X50896825Y-13035901D01*
X50771641Y-12773080D01*
X50597588Y-12539731D01*
X50513534Y-12463966D01*
X50594180Y-12439502D01*
X50704494Y-12380537D01*
X50801185Y-12301185D01*
X50880537Y-12204494D01*
X50939502Y-12094180D01*
X50975812Y-11974482D01*
X50988072Y-11850000D01*
X50988072Y-10150000D01*
X50975812Y-10025518D01*
X50939502Y-9905820D01*
X50880537Y-9795506D01*
X50801185Y-9698815D01*
X50704494Y-9619463D01*
X50594180Y-9560498D01*
X50474482Y-9524188D01*
X50350000Y-9511928D01*
X48650000Y-9511928D01*
X48525518Y-9524188D01*
X48405820Y-9560498D01*
X48295506Y-9619463D01*
X48198815Y-9698815D01*
X48119463Y-9795506D01*
X48082317Y-9865000D01*
X44055752Y-9865000D01*
X44000000Y-9859509D01*
X43944249Y-9865000D01*
X28992287Y-9865000D01*
X28989502Y-9855820D01*
X28930537Y-9745506D01*
X28851185Y-9648815D01*
X28754494Y-9569463D01*
X28644180Y-9510498D01*
X28524482Y-9474188D01*
X28400000Y-9461928D01*
X26600000Y-9461928D01*
X26475518Y-9474188D01*
X26355820Y-9510498D01*
X26245506Y-9569463D01*
X26148815Y-9648815D01*
X26069463Y-9745506D01*
X26010498Y-9855820D01*
X26007713Y-9865000D01*
X12055752Y-9865000D01*
X12000000Y-9859509D01*
X11777501Y-9881423D01*
X11563553Y-9946324D01*
X11366377Y-10051716D01*
X11236856Y-10158011D01*
X11236854Y-10158013D01*
X11193551Y-10193551D01*
X11158013Y-10236855D01*
X10236859Y-11158009D01*
X10193552Y-11193551D01*
X10051717Y-11366377D01*
X10014264Y-11436447D01*
X9946324Y-11563554D01*
X9881423Y-11777502D01*
X9859509Y-12000000D01*
X9865001Y-12055761D01*
X9865000Y-20507713D01*
X9855820Y-20510498D01*
X9745506Y-20569463D01*
X9648815Y-20648815D01*
X9569463Y-20745506D01*
X9510498Y-20855820D01*
X9474188Y-20975518D01*
X9461928Y-21100000D01*
X9461928Y-21928470D01*
X9443552Y-21943551D01*
X9301717Y-22116377D01*
X9245384Y-22221770D01*
X9196324Y-22313554D01*
X9131423Y-22527502D01*
X9109509Y-22750000D01*
X9115001Y-22805761D01*
X9115000Y-27143785D01*
X9079528Y-27210149D01*
X9028992Y-27376745D01*
X9011928Y-27549999D01*
X1660000Y-27549999D01*
X1660000Y-5032278D01*
X1684748Y-4779872D01*
X2765000Y-4779872D01*
X2765000Y-5220128D01*
X2850890Y-5651925D01*
X3019369Y-6058669D01*
X3263962Y-6424729D01*
X3575271Y-6736038D01*
X3941331Y-6980631D01*
X4348075Y-7149110D01*
X4779872Y-7235000D01*
X5220128Y-7235000D01*
X5651925Y-7149110D01*
X6058669Y-6980631D01*
X6424729Y-6736038D01*
X6736038Y-6424729D01*
X6980631Y-6058669D01*
X7149110Y-5651925D01*
X7235000Y-5220128D01*
X7235000Y-4779872D01*
X47765000Y-4779872D01*
X47765000Y-5220128D01*
X47850890Y-5651925D01*
X48019369Y-6058669D01*
X48263962Y-6424729D01*
X48575271Y-6736038D01*
X48941331Y-6980631D01*
X49348075Y-7149110D01*
X49779872Y-7235000D01*
X50220128Y-7235000D01*
X50651925Y-7149110D01*
X51058669Y-6980631D01*
X51424729Y-6736038D01*
X51736038Y-6424729D01*
X51980631Y-6058669D01*
X52149110Y-5651925D01*
X52235000Y-5220128D01*
X52235000Y-4779872D01*
X52149110Y-4348075D01*
X51980631Y-3941331D01*
X51736038Y-3575271D01*
X51424729Y-3263962D01*
X51058669Y-3019369D01*
X50651925Y-2850890D01*
X50220128Y-2765000D01*
X49779872Y-2765000D01*
X49348075Y-2850890D01*
X48941331Y-3019369D01*
X48575271Y-3263962D01*
X48263962Y-3575271D01*
X48019369Y-3941331D01*
X47850890Y-4348075D01*
X47765000Y-4779872D01*
X7235000Y-4779872D01*
X7149110Y-4348075D01*
X6980631Y-3941331D01*
X6736038Y-3575271D01*
X6424729Y-3263962D01*
X6058669Y-3019369D01*
X5651925Y-2850890D01*
X5220128Y-2765000D01*
X4779872Y-2765000D01*
X4348075Y-2850890D01*
X3941331Y-3019369D01*
X3575271Y-3263962D01*
X3263962Y-3575271D01*
X3019369Y-3941331D01*
X2850890Y-4348075D01*
X2765000Y-4779872D01*
X1684748Y-4779872D01*
X1726714Y-4351874D01*
X1914943Y-3728428D01*
X2220681Y-3153421D01*
X2632279Y-2648753D01*
X3134067Y-2233638D01*
X3706924Y-1923895D01*
X4329039Y-1731318D01*
X5007584Y-1660000D01*
X49967722Y-1660000D01*
X50648126Y-1726714D01*
G37*
%TD.AperFunction*%
%TD*%
M02*
